<svg width="210" height="243" viewBox="0 0 210 243" fill="none" xmlns="http://www.w3.org/2000/svg">
<g clip-path="url(#clip0_637_5502)">
<path d="M134.554 59.5578C133.57 64.6325 132.816 69.7468 132.299 74.9063C131.41 75.5619 135.51 72.5328 123.632 81.3091C123.103 81.699 122.429 81.829 121.787 81.6764C93.8586 74.8385 102.446 76.9407 100.759 76.5282C100.832 73.7704 100.186 71.0692 98.9821 68.6787C97.6604 66.051 96.4681 64.4912 93.7236 63.8979C95.3265 63.96 93.628 63.5249 117.209 71.2105C117.884 71.4365 118.638 71.3122 119.212 70.8884L134.554 59.5578Z" fill="#4FAA89"/>
<path d="M73.1512 108.175C74.5178 108.327 76.3006 107.932 77.0823 107.807C78.0384 107.66 79.45 107.66 80.1868 107.027C81.2328 106.118 81.9921 103.998 82.7063 102.8C83.9773 105.338 85.254 107.875 86.5194 110.412C88.5103 109.271 90.5012 108.135 92.4921 106.999C92.4358 107.333 92.8183 107.649 93.1388 107.53C93.1557 106.016 93.1726 104.501 93.1951 102.987C94.2186 104.264 95.2478 105.552 96.277 106.835C96.0914 106.604 96.4514 105.422 96.5639 105.174C97.4581 103.162 99.449 104.366 101.642 103.998C102.34 103.88 103.656 103.953 104.061 103.258C104.494 102.512 103.757 101.416 103.498 100.726C101.614 95.6233 99.8651 89.3731 100.118 83.9254C100.338 79.0372 101.969 74.618 98.9822 68.6786C98.0767 66.8928 97.0813 65.2201 95.2591 64.3837C95.2516 64.3686 95.2422 64.3649 95.231 64.3724C94.3424 63.909 92.2896 63.6265 91.2942 63.5191C89.7813 63.3495 89.5395 63.3891 88.9771 63.4061C88.7015 65.2596 87.0705 66.3277 85.5633 66.3277H85.5296C83.7749 66.3051 82.3464 64.9884 82.1383 63.2874C79.1857 63.5021 75.7663 63.9712 72.6056 64.8697C71.4246 65.2031 70.4516 65.4574 69.3662 66.1243V66.1695" fill="#4FAA89"/>
<path d="M73.7704 82.0607C73.3093 82.6089 72.7637 106.293 72.8931 107.112C73.1799 108.875 78.1571 124.275 78.5171 126.027C79.2201 129.4 80.1818 132.848 81.2391 136.159C80.8398 135.396 80.5867 134.65 80.4461 133.882C80.4461 133.876 80.4461 133.865 80.4461 133.859C80.373 133.571 80.2999 133.283 80.238 132.995L70.2161 141.624C70.1148 141.291 70.0136 140.963 69.918 140.629C69.918 140.624 69.9124 140.612 69.9124 140.612C68.8438 137.097 68.0958 133.605 67.3085 130.282C66.3468 126.202 60.8634 110.904 60.1604 106.728C59.851 104.874 59.9185 103.445 60.7509 92.3458C60.8071 91.6846 60.6946 90.7804 61.1614 90.2436C61.7295 89.5937 63.3042 89.345 64.0972 89.0512C62.0669 88.5539 60.031 88.0566 57.9951 87.5536C60.031 86.4912 62.0669 85.4288 64.0972 84.3607C63.276 83.999 61.8588 83.6939 61.5776 82.8858C61.2739 82.0211 61.7463 80.2015 61.8307 79.2803C61.9882 77.568 62.5674 75.8557 63.2086 74.2508C64.5527 70.877 66.8754 67.8932 69.8449 65.8136" fill="#4FAA89"/>
<path fill-rule="evenodd" clip-rule="evenodd" d="M209.724 208.714C209.735 210.195 209.702 211.676 209.746 213.156C209.763 213.778 209.319 214.043 208.161 214.224C204.224 214.852 200.304 215.501 196.451 216.242C195.54 216.417 194.674 216.914 194.236 217.378C193.229 218.429 192.346 219.508 191.412 220.576C191.958 221.141 193.606 222.95 194.787 224.125C195.552 224.899 195.18 225.442 194.213 225.916C193.533 226.244 192.852 226.578 192.177 226.917C192.981 227.77 193.774 228.623 194.618 229.471C195.214 230.064 195.012 230.432 194.106 230.878C191.142 232.325 188.212 233.794 185.344 235.286C184.506 235.727 183.842 235.812 182.729 235.523C179.039 234.597 175.316 233.698 171.531 232.862C170.772 232.698 169.602 232.754 168.793 232.918C165.182 233.664 161.622 234.461 158.084 235.292C157.404 235.45 156.667 235.789 156.414 236.128C154.986 238.072 153.647 240.033 152.393 242.011C151.921 242.763 151.15 243.023 149.575 243C145.588 242.938 141.595 242.943 137.608 242.983C136.252 243 135.735 242.746 135.335 242.124C134.098 240.186 132.776 238.264 131.348 236.354C131.044 235.942 130.279 235.501 129.498 235.32C125.904 234.467 122.248 233.676 118.559 232.93C117.828 232.777 116.742 232.754 116.028 232.918C111.861 233.845 107.755 234.845 103.312 235.896C100.062 234.235 96.9123 232.574 93.6222 230.98C92.4974 230.437 92.5312 230.014 93.1667 229.375C93.954 228.584 94.7358 227.787 95.495 226.99C94.8426 226.662 94.1846 226.34 93.521 226.018C92.4187 225.487 92.1319 224.911 92.998 224.035C94.5502 222.481 95.9281 221.034 96.6423 220.254C95.9281 219.282 95.1745 218.31 94.3815 217.355C94.0215 216.92 93.2004 216.434 92.3625 216.264C81.2607 213.981 79.8434 214.479 79.8884 213.094C79.9503 211.63 79.9559 210.167 79.9278 208.703C79.7197 208.477 79.6466 208.211 79.6579 207.912C79.6691 207.352 79.776 205.341 79.6522 201.701C79.6185 200.825 80.3102 200.526 81.3619 200.345C84.995 199.718 88.5663 199.006 92.1937 198.384C93.3129 198.192 93.8809 197.909 94.2915 197.333C95.5288 195.587 97.0023 193.88 98.262 192.151C98.4645 191.868 98.5714 191.439 98.3239 191.156C96.7154 189.337 94.9495 187.472 92.9249 185.449C92.1881 184.72 92.5199 184.217 93.4479 183.759C96.2768 182.369 99.2125 180.877 102.165 179.328C103.065 178.848 103.79 178.786 104.938 179.074C108.621 180.001 112.384 180.894 116.124 181.73C116.799 181.877 117.828 181.888 118.582 181.753C120.499 181.402 122.383 181.046 124.177 180.69L124.824 176.921L123.902 166.167C122.338 165.771 113.289 163.183 112.682 162.793C112.778 162.946 112.502 162.516 112.468 162.471C116.405 144.382 115.584 150.846 117.063 129.383C117.142 128.276 116.422 127.298 115.342 127.055C111.028 126.1 106.642 125.213 102.249 124.241L91.4514 134.153C88.9487 151.722 86.7835 153.825 85.3662 161.476C85.0513 163.2 84.9388 164.404 83.9546 165.969C83.1672 167.224 82.138 168.427 82.0087 169.97C81.9299 170.919 82.2055 171.829 82.0818 172.835C81.7219 175.847 77.9931 177.582 78.325 180.379C78.6118 182.753 82.0087 184.544 79.4048 187.686C79.9897 188.421 79.6972 189.393 79.1911 193.01C78.9324 194.92 78.9605 194.496 78.9324 195.01C78.8649 196.338 78.9211 196.796 76.7334 196.35C73.1228 196.92 69.4728 197.18 66.0253 197.124L68.7698 206.256C71.9474 212.229 71.8236 210.867 75.4174 216.507C80.3665 215.97 87.2952 220.927 86.1929 226.973L86.1704 227.075C87.7002 228.217 87.0197 230.647 85.1244 230.827L68.4099 232.393C68.0837 232.427 67.7519 232.376 67.4482 232.251L42.427 222.317C40.1212 221.401 41.1222 217.649 43.5574 217.982C46.8362 201.097 47.2411 199.006 47.2074 199.17C47.2299 199.057 47.3368 198.96 47.483 198.983L48.2478 194.502C44.2436 193.338 40.4642 191.846 36.7974 189.975C36.7524 189.947 35.0202 189.082 34.9752 189.06C34.9977 188.918 35.0933 187.602 35.8076 185.251L29.205 191.314C29.16 191.36 29.0981 191.382 29.025 191.377L21.9444 190.727L21.1964 202.046C21.1852 202.17 21.0839 202.266 20.9602 202.266C20.904 202.272 10.8314 202.402 10.7864 202.402C10.6346 202.402 10.5221 202.261 10.5558 202.114L15.0213 182.137C15.0438 182.024 15.1281 181.945 15.2575 181.95L26.5786 182.267L49.3333 161.245C55.3791 150.112 60.9918 138.256 65.8791 126.241C63.8825 119.889 60.4744 110.028 59.9289 106.762C59.6139 104.891 59.6814 103.467 60.5138 92.3286C60.5306 92.1817 60.5306 92.0291 60.5363 91.8709C60.5756 90.1699 60.7894 89.7461 63.202 89.0736C61.4474 88.6497 59.6927 88.2146 57.938 87.7851C57.7243 87.7286 57.6962 87.4347 57.8874 87.3443C59.7658 86.3554 61.6498 85.3777 63.5282 84.3944C61.3799 83.5298 60.9018 83.5524 61.4642 80.1843C61.7398 78.5003 61.6161 77.6187 62.9883 74.1602C64.265 70.9503 66.4471 68.0965 69.1579 66.0394C69.1747 65.9886 69.7146 65.5591 69.8721 65.576C70.6763 65.1692 71.4974 64.9318 72.3579 64.6888C72.5041 64.6605 76.0754 63.5134 81.885 63.0726C81.8456 62.5244 81.8681 63.7903 81.9637 57.3423H74.2644C73.5839 57.3423 72.9259 57.2575 72.2904 57.1049H66.5539C61.8017 57.1049 57.9492 53.2395 57.9492 48.4643V33.7713C57.9492 28.9961 61.8017 25.1307 66.5539 25.1307H72.2904C72.9259 24.9781 73.5839 24.8933 74.2644 24.8933H87.5821V17.1851C87.5821 17.0778 87.6608 16.9873 87.762 16.9647C85.7936 16.9308 84.2077 15.3202 84.2077 13.3367C84.2077 11.3362 85.8218 9.71429 87.8183 9.71429C89.8092 9.71429 91.4232 11.3362 91.4232 13.3367C91.4232 15.3202 89.8429 16.9308 87.8745 16.9647C87.9757 16.9873 88.0545 17.0778 88.0545 17.1851V24.8933H105.899C110.427 24.8933 114.212 28.4422 114.515 32.9688C114.527 33.0762 114.459 33.1723 114.358 33.2118L111.186 34.3195L117.755 35.1728C117.98 35.201 118.036 35.5006 117.845 35.6136L113.869 37.9588L115.629 38.8234C115.775 38.8969 115.803 39.1003 115.68 39.2134L114.543 40.2532V48.6621C114.543 53.4486 110.663 57.3423 105.899 57.3423H89.4042C89.2411 63.5077 89.258 62.9765 89.2411 63.163C90.4672 63.1234 92.5143 63.4003 93.7516 63.6603C95.1238 63.7168 93.4704 63.1743 117.282 70.9842C117.884 71.1876 118.559 71.0746 119.071 70.696L121.405 68.9724C121.484 68.8876 121.557 68.8085 121.63 68.735C121.624 68.7633 121.618 68.7916 121.613 68.8198L134.34 59.4219C135.875 51.4594 138.012 43.3783 140.695 35.3875C140.729 35.2915 140.813 35.2293 140.914 35.2236C156.881 34.8394 173.5 36.6251 190.287 40.5301C190.394 40.5583 190.467 40.6488 190.473 40.7618C190.496 48.713 189.877 57.1276 188.64 65.7738L190.445 69.5601C190.512 69.6957 190.434 69.8596 190.287 69.8935L186.531 70.7525L190.417 75.6125C190.541 75.7651 190.434 75.9968 190.237 75.9968H185.17L186.413 78.2007C186.441 78.2459 186.446 78.3081 186.435 78.3646C185.344 83.6824 184.011 89.1866 182.47 94.7134C182.442 94.8152 182.352 94.8886 182.245 94.8886C182.241 94.8886 182.236 94.8886 182.228 94.8886C167.522 93.8488 153.754 91.707 141.151 88.5198L119.431 108.463C128.738 112.232 135.555 119.692 140.391 128.253C141.37 129.988 142.545 131.83 143.282 133.661C144.03 135.515 144.137 137.199 145.391 138.798C146.268 139.911 147.472 140.957 147.759 142.432C148.119 144.308 146.859 146.354 147.77 147.834C148.422 148.891 149.935 149.168 150.886 150.151C151.864 151.163 151.915 152.508 151.887 153.802C151.842 156.119 152.759 155.424 154.913 166.325C154.058 166.427 153.529 167.314 140.195 168.06C140.217 168.393 140.487 172.298 140.487 172.343C143.766 172.366 146.994 172.36 150.087 172.338C151.375 172.321 151.999 172.558 152.455 173.219C153.687 175.011 155.014 176.91 156.482 178.735C156.768 179.091 157.612 179.498 158.444 179.684C161.521 180.362 164.845 181.035 168.899 181.792C169.591 181.922 170.66 181.967 171.363 181.809C175.153 180.95 178.961 180.012 182.532 179.125C183.511 178.882 184.332 178.741 185.35 179.283C188.128 180.735 191.041 182.205 194.258 183.764C195.18 184.217 195.495 184.731 194.764 185.471C192.97 187.285 191.334 189.156 189.472 190.975C188.994 191.45 189.101 191.704 189.624 192.23C191.317 193.92 192.751 195.655 194.415 197.356C194.764 197.712 195.45 198.13 196.226 198.282C200.191 199.028 204.331 199.678 208.301 200.43C209.004 200.565 209.876 201.125 209.904 201.622C210.022 203.736 209.915 205.861 209.983 207.974C209.994 208.234 209.915 208.511 209.724 208.714ZM140.195 168.049L139.97 168.122L139.728 168.099C139.732 168.111 139.733 168.124 139.733 168.139L139.97 168.122L140.189 168.06C140.193 168.06 140.195 168.06 140.195 168.06C140.195 168.034 140.195 168.03 140.195 168.049ZM139.728 168.099C139.323 162.104 139.244 160.956 139.238 160.843C139.255 161.132 139.238 160.838 139.238 160.832C134.329 159.809 128.857 159.261 123.823 159.719L125.285 176.83C129.914 182.453 134.666 184.2 140.633 182.493C140.684 181.928 140.695 182.222 139.728 168.099ZM139.238 160.832C139.238 160.832 139.238 160.836 139.238 160.843C139.238 160.84 139.238 160.836 139.238 160.832ZM47.2074 199.17C47.0106 200.198 47.1905 199.271 47.2074 199.17V199.17ZM189.466 219.248C188.662 218.457 188.853 217.779 189.624 216.999C191.227 215.388 192.492 213.676 194.067 212.032C194.505 211.579 195.4 211.031 196.406 210.834C200.377 210.076 204.387 209.415 208.121 208.816C208.774 208.714 209.538 208.584 209.51 207.997C209.443 205.883 209.55 203.747 209.432 201.65C209.42 201.487 208.83 201.012 208.217 200.893C204.246 200.147 200.124 199.497 196.136 198.746C195.265 198.576 194.477 198.096 194.084 197.689C192.425 196.005 190.974 194.247 189.286 192.563C188.617 191.891 188.437 191.331 189.146 190.636C190.979 188.839 192.627 186.963 194.427 185.138C194.804 184.753 194.849 184.578 194.056 184.194C190.827 182.629 187.914 181.159 185.13 179.701C184.259 179.238 183.55 179.357 182.644 179.583C179.068 180.47 175.26 181.414 171.47 182.273C170.66 182.453 169.529 182.391 168.815 182.261C164.749 181.498 161.425 180.826 158.343 180.148C157.561 179.973 156.532 179.549 156.116 179.034C154.637 177.192 153.304 175.288 152.061 173.491C151.757 173.039 151.336 172.796 150.087 172.807C147.011 172.835 143.788 172.835 140.521 172.818C141.167 182.21 141.145 181.877 141.117 182.391L141.364 183.211C149.727 182.968 158.866 184.007 166.83 186.579C179.079 190.518 186.424 197.282 186.474 204.674C186.536 217.202 166.38 226.38 143.935 226.408C143.901 226.408 143.873 226.408 143.839 226.408C122.13 226.408 103.819 218.276 101.231 207.477C98.4982 196.378 112.356 188.732 123.317 185.765L124.093 181.188C122.35 181.532 120.522 181.877 118.666 182.216C117.85 182.369 116.759 182.357 116.023 182.193C112.277 181.357 108.509 180.464 104.82 179.537C103.779 179.272 103.189 179.323 102.384 179.746C99.4262 181.301 96.4905 182.792 93.656 184.183C92.8293 184.59 92.8911 184.753 93.2567 185.109C95.2869 187.144 97.0585 189.014 98.6726 190.84C99.0381 191.247 99.0213 191.902 98.6388 192.428C97.3847 194.163 95.9 195.875 94.6739 197.61C94.1903 198.288 93.5154 198.638 92.2725 198.853C88.6169 199.475 85.0681 200.187 81.4407 200.814C80.1978 201.029 80.1078 201.334 80.1246 201.679C80.254 205.459 80.1359 207.516 80.1246 207.929C80.0797 209.031 81.3732 208.584 92.4074 210.856C93.2511 211.031 94.1396 211.517 94.5614 212.032C95.9168 213.67 97.2216 215.405 98.5545 217.338C98.8975 217.847 98.8694 218.502 98.4814 218.937C97.1935 220.39 95.5006 222.204 93.3298 224.374C92.8011 224.905 92.7843 225.142 93.7235 225.594C96.7998 227.075 100.135 228.827 103.346 230.471C107.89 229.398 111.827 228.437 115.978 227.516C116.692 227.352 117.8 227.358 118.61 227.521C122.575 228.324 127.04 229.313 129.554 229.912C130.364 230.104 131.179 230.562 131.539 231.036C132.911 232.867 134.216 234.761 135.532 236.823C135.858 237.332 136.263 237.586 137.602 237.575C141.752 237.524 145.779 237.53 149.581 237.586C151.105 237.609 151.774 237.377 152.196 236.71C153.45 234.727 154.806 232.743 156.223 230.81C156.532 230.392 157.353 230.047 158.028 229.884C158.866 229.697 163.208 228.652 168.742 227.51C169.524 227.352 170.744 227.267 171.588 227.459C174.973 228.205 178.533 229.053 182.791 230.121C183.809 230.381 184.427 230.324 185.237 229.906C188.443 228.233 192.301 226.318 194.005 225.487C194.899 225.052 194.832 224.843 194.449 224.458C192.74 222.757 191.125 220.887 189.466 219.248ZM101.591 206.923C101.625 207.07 101.653 207.217 101.687 207.364C104.229 217.96 122.338 225.933 143.839 225.933C143.869 225.933 143.901 225.933 143.935 225.933C165.227 225.905 183.184 217.886 185.704 207.279C185.738 207.132 185.76 206.991 185.788 206.844C182.83 196.457 165.103 188.568 143.496 188.596C143.323 188.596 143.151 188.596 142.978 188.596L144.497 193.643C146.443 197.305 147.101 198.147 148.361 199.831C148.394 199.859 148.417 199.893 148.434 199.932C149.08 200.803 149.89 201.927 151.144 203.9C153.945 203.589 158.383 205.601 160.171 208.07C161.785 210.297 162.381 211.777 161.898 214.462C163.41 215.586 162.758 218.039 160.851 218.214L144.137 219.785C143.811 219.813 143.479 219.762 143.175 219.644L118.148 209.703C115.843 208.793 116.855 205.03 119.285 205.369L119.29 205.363L121.962 191.58C111.158 194.796 103.459 200.373 101.591 206.923ZM150.846 204.295C150.672 204.08 149.772 202.538 148.107 200.288C146.758 200.531 145.56 201.481 145.031 202.758C145.02 202.792 144.997 202.809 144.975 202.831L148.574 207.771C149.12 206.493 149.885 205.307 150.846 204.295ZM123.317 187.065L121.905 194.355C124.172 195.44 126.056 197.356 126.928 199.723C127.906 202.379 127.496 205.527 125.842 207.788L144.677 215.179C145.234 215.354 146.42 215.4 147.928 215.366C147.348 213.032 147.534 210.54 148.366 208.296C148.327 208.245 142.984 200.91 142.95 200.859C138.738 194.637 139.227 195.372 139.177 195.287C133.243 195.197 127.029 190.467 123.317 187.065ZM139.739 195.276L142.354 199.141C143.007 197.785 144.199 196.92 145.672 196.728C145.262 196.033 144.784 195.18 144.182 194.061C142.759 194.858 141.257 195.225 139.739 195.276ZM151.443 204.352C148.591 207.155 147.416 211.483 148.417 215.354C152.562 215.23 158.742 214.597 161.442 214.315C161.763 212.139 161.689 210.969 159.789 208.347C158.174 206.12 154.103 204.205 151.443 204.352ZM125.207 177.475L123.632 186.709C128.339 191.026 137.101 197.508 143.996 193.614C143.074 190.54 141.707 185.997 140.791 182.945C134.722 184.697 129.891 183.002 125.207 177.475ZM151.763 155.978C140.886 149.631 127.524 148.219 115.033 153.107C114.364 156.136 113.706 159.035 113.036 162.092C125.094 156.289 142.382 159.679 154.266 165.477C153.748 162.793 152.849 159.255 151.763 155.978ZM139.3 89.5765C137.922 90.1077 127.293 90.1473 127.169 89.9778L80.5802 133.017C80.5839 133.104 80.5914 133.188 80.6027 133.271C80.867 134.17 81.1482 135.091 81.4632 136.069C82.2561 137.583 83.3135 138.521 84.607 139.245C84.7307 139.312 84.8544 139.384 84.9782 139.459L139.3 89.5765ZM85.7093 142.183C86.1198 141.838 86.0298 141.07 85.6868 140.629C85.3606 140.211 84.8825 139.94 84.3764 139.657C81.9749 138.301 80.6308 136.187 80.2146 133.921C80.1978 133.842 80.1078 133.492 80.0909 133.424C69.7596 142.302 70.3895 141.861 70.2152 141.861C69.9846 141.861 69.9508 141.567 69.8496 141.239C69.8046 141.409 69.7596 141.579 69.7146 141.754C69.8721 141.663 70.0633 141.782 70.0633 141.963C70.0352 144.675 71.2556 147.337 73.3252 149.072C73.6121 149.315 73.882 149.49 74.1351 149.609C74.0901 149.592 74.6188 149.874 75.1193 149.756C75.766 149.603 76.1372 148.902 76.2103 148.315C76.2947 147.637 76.0922 146.925 75.8954 146.241C75.8279 145.998 76.1316 145.828 76.3003 146.015C76.7559 146.523 77.6051 147.258 78.19 147.557C79.416 148.19 80.6083 147.524 80.5071 146.043C80.4677 145.421 80.209 144.817 79.9784 144.28C79.8772 144.048 80.1584 143.839 80.3496 144.003C80.9064 144.495 81.5644 144.704 82.3011 144.901C82.9479 145.082 83.7971 144.901 84.1064 144.285C84.6295 143.251 83.6059 142.291 82.7623 141.607C82.5598 141.443 82.7398 141.115 82.9816 141.2C83.7915 141.46 84.9219 141.923 85.7093 142.183ZM90.8946 134.662L85.3887 139.719C86.8341 140.737 86.6372 142.178 85.8724 142.652C85.7374 142.731 85.6812 142.697 83.9546 142.048C84.7701 142.94 84.8376 143.884 84.5282 144.5C84.0952 145.359 82.9929 145.585 82.1774 145.359C81.6544 145.218 81.1651 145.071 80.7095 144.828C81.6994 147.557 79.7647 148.902 77.9763 147.981C77.7007 147.84 77.3801 147.614 77.0652 147.365L76.6884 147.71C76.8121 149.371 75.6704 150.728 74.0901 150.1L64.6868 158.73C62.2966 165.381 59.3721 171.722 55.4915 178.684C55.3397 178.955 54.9291 178.729 55.081 178.452C58.7816 171.818 61.5992 165.749 63.9219 159.436L42.8825 178.758C52.6177 179.956 61.0706 181.572 68.7136 183.708C75.6142 185.629 77.6782 186.878 78.3643 187.138C78.6005 187.229 78.8199 187.279 79.0336 187.387C81.4125 184.516 78.1731 183.035 77.8582 180.43C77.487 177.362 81.2719 175.621 81.615 172.773C81.7219 171.88 81.4575 170.885 81.5363 169.93C81.6488 168.563 82.3742 167.483 83.0716 166.444C84.1289 164.878 84.382 164.364 84.7869 162.03C86.2323 153.745 88.3188 152.338 90.8946 134.662ZM96.0912 106.982L93.4198 103.648L93.3692 107.536C93.3692 107.886 92.5987 107.926 92.3231 107.366C90.4259 108.448 88.5306 109.531 86.6372 110.616C86.5191 110.684 86.3729 110.638 86.311 110.514L82.6948 103.303C82.048 104.518 81.3226 106.349 80.3384 107.203C79.506 107.92 78.1562 107.852 76.6603 108.118C75.8617 108.259 74.5738 108.485 73.4658 108.429C74.6806 112.769 78.4318 124.45 78.7468 125.976C79.2136 128.208 79.7703 130.384 80.389 132.548C85.8161 127.535 103.346 111.339 109.403 105.739C107.53 105.202 105.556 104.614 103.594 103.908C102.975 104.162 102.171 104.145 101.681 104.23C99.4599 104.603 97.5872 103.439 96.7773 105.27C96.6423 105.564 96.3949 106.519 96.468 106.7C96.6536 106.937 96.2936 107.236 96.0912 106.982ZM104.105 103.586C106.034 104.264 107.975 104.835 109.814 105.366L131.331 85.4851C131.455 82.1283 131.685 78.7432 132.012 75.4091L123.772 81.4954C123.182 81.9305 122.44 82.0718 121.737 81.9079L100.978 76.8275C100.804 82.4335 98.5545 86.6436 103.717 100.642C104.015 101.438 104.91 102.749 104.105 103.586ZM78.6005 127.507C75.4792 130.028 71.6605 130.943 67.6113 130.547C68.1118 132.706 68.2524 133.3 68.2749 133.379C68.1512 132.831 68.2693 133.345 68.2749 133.384C68.2749 133.388 68.2749 133.388 68.2749 133.384C72.2342 133.333 75.8673 132.169 79.2136 130.022C79.0505 129.378 78.9042 128.841 78.6005 127.507ZM69.4953 142.613L69.6021 142.517C69.5965 142.421 69.5965 142.324 69.5965 142.223C69.5628 142.355 69.529 142.485 69.4953 142.613ZM134.784 59.5971V59.6028C133.204 67.7517 132.141 76.5619 131.804 85.406C146.786 90.0625 163.697 93.0859 182.071 94.397C183.572 88.9719 184.877 83.575 185.957 78.3533L184.557 75.8725C184.472 75.7199 184.585 75.5221 184.765 75.5221H189.742L185.923 70.7525C185.816 70.6169 185.884 70.4134 186.058 70.3739L189.894 69.4979L188.184 65.9151C188.167 65.8699 188.156 65.8247 188.162 65.7738C189.393 57.1954 190.012 48.8429 190.001 40.9483C173.365 37.0942 156.909 35.3254 141.089 35.6927C138.429 43.6439 136.303 51.6855 134.784 59.5971ZM131.393 62.1853L129.413 63.649C130.774 64.2706 132.057 65.1579 133.159 66.2485C133.232 65.7625 133.536 63.8637 133.547 63.8242C132.872 63.2195 132.152 62.6713 131.393 62.1853ZM96.1418 64.6097C97.6771 65.6439 98.6838 67.4466 99.4599 69.1419C101.08 71.4193 103.076 74.5218 104.218 77.127L121.843 81.4445C122.423 81.5858 123.024 81.4615 123.491 81.1167L132.073 74.7761C132.321 72.3405 132.715 69.2436 133.069 66.8306C131.894 65.6043 130.482 64.6153 128.975 63.9711L121.512 69.481C121.354 70.4134 121.14 71.3798 120.775 72.2275C120.572 72.6852 119.217 74.1828 119.639 74.697C118.402 73.1882 116.922 71.8827 115.286 70.8316C99.7693 65.7851 96.5748 64.751 96.1418 64.6097ZM96.1362 64.6097C96.2768 64.6493 96.5973 64.751 96.1137 64.5927C96.1212 64.5965 96.1287 64.6022 96.1362 64.6097ZM96.1418 64.6097C96.1418 64.6097 96.1399 64.6097 96.1362 64.6097C96.0799 64.5871 96.0518 64.5814 96.1418 64.6097ZM74.2588 56.8676H105.899C110.404 56.8676 114.065 53.1887 114.065 48.6621V40.1515C114.065 40.0836 114.094 40.0215 114.144 39.9763L115.106 39.0947L113.267 38.1905C113.098 38.1057 113.087 37.8684 113.25 37.7723L117.012 35.5514L110.134 34.6585C109.892 34.6246 109.853 34.2799 110.089 34.1951L114.032 32.8219C113.655 28.6231 110.117 25.3624 105.899 25.3624H74.2588C69.7596 25.3624 66.0928 29.0469 66.0928 33.5679V48.6621C66.0928 53.1887 69.7596 56.8676 74.2588 56.8676ZM82.4361 57.3423L82.3405 62.79C82.2899 64.508 83.6959 66.062 85.5349 66.0903C86.7497 66.0903 88.0039 65.3726 88.5269 64.1237C88.8756 63.3156 88.78 62.7674 88.8643 60.0266C88.8587 60.0266 88.8587 60.0266 88.8587 60.0266C88.3076 60.1961 85.1694 58.7325 83.5834 57.3423H82.4361ZM67.4988 130.061C71.8011 130.525 75.4961 129.491 78.4881 126.993C77.6951 123.376 72.9822 109.158 72.6616 107.146C72.6504 107.056 72.7066 101.924 72.8359 96.3127C71.7111 91.5431 70.4064 86.8131 68.9216 82.1452C70.4851 82.2357 71.9699 82.3091 73.4996 82.1905C73.5277 82.0435 73.5614 81.9475 73.5952 81.9079C73.7752 81.6819 74.1295 81.9418 73.972 82.1848C73.5052 83.3772 73.0947 106.841 73.1228 107.073C73.1509 107.236 73.224 107.542 73.3365 107.948C74.4163 108.033 75.7604 107.796 76.5759 107.655C78.0381 107.395 79.3317 107.446 80.029 106.846C81.0301 105.982 81.795 103.868 82.5092 102.676C82.6105 102.501 82.8467 102.54 82.9198 102.693L86.6204 110.079C88.5363 108.983 90.454 107.886 92.3737 106.79C92.548 106.688 92.7561 106.841 92.7224 107.033C92.7055 107.146 92.8011 107.253 92.9024 107.299L92.9586 102.981C92.9586 102.761 93.2398 102.665 93.3804 102.834L96.0349 106.157C96.1305 105.631 96.3442 105.083 96.3499 105.078C96.9966 103.614 98.0821 103.676 99.6737 103.784C101.254 103.897 101.142 103.789 102.159 103.699C104.032 103.535 104.358 103.162 103.515 101.348C103.425 101.15 103.34 100.969 103.279 100.805C101.383 95.6685 99.6287 89.3844 99.8817 83.9141C100.107 78.9863 101.721 74.6461 98.7738 68.7859C96.7661 64.7962 95.3263 64.2028 91.2714 63.7507C89.8429 63.5925 89.5336 63.6264 89.1737 63.6377C88.8193 65.3895 87.2221 66.565 85.563 66.565C83.7521 66.5424 82.2505 65.2257 81.9356 63.5416C79.5285 63.7225 76.0304 64.1406 72.6728 65.0957C71.6718 65.3726 70.6651 65.6438 69.7821 66.1581C66.9814 68.1812 64.7261 71.0746 63.4214 74.341C62.0829 77.7204 62.2178 78.5737 61.9254 80.2634C61.4867 83.0155 61.5598 83.1738 63.5395 83.8915C63.7757 83.9762 64.0007 84.0553 64.1919 84.1401C64.3662 84.2192 64.3887 84.4679 64.2087 84.5696C62.3584 85.5416 60.5138 86.5023 58.6635 87.4686C69.844 90.2151 59.0403 87.5647 64.1525 88.8136C64.3887 88.8814 64.3887 89.1922 64.1806 89.2714C63.4101 89.5596 61.8467 89.8139 61.3405 90.4016C60.9524 90.8367 61.0312 91.6618 60.9862 92.3625C60.182 103.139 60.0695 104.727 60.3957 106.688C61.0874 110.791 66.4246 125.699 67.4988 130.061ZM50.4018 160.256L68.8598 143.206C69.1016 142.262 69.3491 141.313 69.5853 140.347C68.0668 135.357 67.6562 131.938 66.104 126.942C61.4474 138.323 56.1833 149.49 50.4018 160.256ZM73.6402 149.874C71.8574 148.801 69.9958 146.156 69.6528 143.116L26.8317 182.679C26.7829 182.721 26.7267 182.742 26.6629 182.742L15.4374 182.431L11.0845 201.922L20.7409 201.797L21.4889 190.45C21.4945 190.314 21.6182 190.218 21.7476 190.229L28.9632 190.891C34.2778 186.019 68.1624 154.904 73.6402 149.874ZM49.277 191.258L47.9048 199.316C52.7189 203.719 61.4474 210.11 68.2693 206.228L65.0636 195.553C65.0561 195.557 65.0486 195.558 65.0411 195.558C59.6027 197.129 55.0866 195.858 50.8349 191.563C50.3175 191.456 49.8001 191.354 49.277 191.258ZM64.9399 194.372C59.957 193.422 56.622 192.699 51.6841 191.733C55.6603 195.496 59.732 196.553 64.7824 195.14C64.8349 194.884 64.8874 194.628 64.9399 194.372ZM46.1782 206.962C51.7628 209.641 53.2757 216.078 50.115 220.395L68.9498 227.787C69.5122 227.962 70.6932 228.007 72.2004 227.974C71.6212 225.64 71.8068 223.147 72.6391 220.904C72.6054 220.859 67.2682 213.529 67.2232 213.467C67.2007 213.439 66.5989 212.546 63.4551 207.901C57.5724 207.81 51.386 203.142 47.5898 199.673L46.1782 206.962ZM67.2288 213.467C67.2288 213.471 67.2288 213.471 67.2288 213.467C66.8633 212.93 67.212 213.444 67.2288 213.467ZM66.6327 211.749C67.2851 210.393 68.4774 209.534 69.9508 209.342C69.5403 208.647 69.0622 207.793 68.4605 206.674C67.0376 207.471 65.5416 207.844 64.0175 207.895L66.6327 211.749ZM75.7211 216.965C72.8697 219.768 71.6943 224.097 72.6953 227.962C76.8459 227.838 83.0266 227.211 85.7262 226.928L85.7318 226.883C86.7272 221.446 80.6983 216.682 75.7211 216.965ZM72.386 212.896C71.0363 213.139 69.8384 214.094 69.3153 215.371C69.2985 215.4 69.276 215.422 69.2535 215.445L72.8528 220.384C73.3983 219.101 74.1632 217.92 75.1249 216.909C74.9562 216.694 74.062 215.157 72.386 212.896ZM70.2208 209.782C68.7698 209.901 67.6 210.726 67.0039 212.065C66.987 212.105 66.9533 212.139 66.9139 212.167C67.0376 212.337 68.9216 214.987 68.9554 215.032C69.5403 213.761 70.7213 212.8 72.0767 212.478C71.3456 211.495 70.9013 210.901 70.2208 209.782ZM79.1798 188.251C79.0448 187.862 78.8424 187.799 78.4768 187.675C77.0146 187.2 76.3003 186.307 68.5955 184.166C60.8681 182.013 52.3084 180.379 42.427 179.181L36.5106 184.612C36.0156 186.093 35.6726 187.477 35.5095 188.636C48.2366 189.981 63.4158 194.067 74.675 195.519C76.0191 195.688 78.0438 196.225 78.3306 195.982C78.4262 195.751 78.4431 195.412 78.4656 194.988C78.4937 194.44 78.4768 194.79 78.7299 192.942C79.2586 189.156 79.3823 188.794 79.1798 188.251ZM76.6153 147.139L76.7053 147.06C76.6659 147.026 76.6209 146.992 76.5815 146.953C76.5928 147.015 76.604 147.077 76.6153 147.139ZM115.157 152.553C127.49 147.834 140.673 149.123 151.583 155.328C151.161 153.599 151.87 151.841 150.554 150.479C149.66 149.558 148.113 149.281 147.376 148.083C146.342 146.399 147.641 144.291 147.303 142.522C147.045 141.189 145.914 140.222 145.031 139.092C143.704 137.408 143.591 135.667 142.855 133.836C142.124 132.028 140.937 130.169 139.986 128.49C135.167 119.952 128.379 112.537 119.048 108.819L102.682 123.845C107.007 124.8 111.287 125.671 115.455 126.592C116.759 126.886 117.637 128.072 117.541 129.417C116.821 139.827 117.007 143.901 115.157 152.553ZM147.804 199.87C147.073 198.898 146.595 198.237 145.948 197.175C144.497 197.293 143.327 198.118 142.731 199.452C142.708 199.497 142.68 199.531 142.641 199.554L143.344 200.588L144.682 202.425C145.262 201.147 146.448 200.187 147.804 199.87Z" fill="black"/>
<path d="M126.494 124.026C129.048 132.164 130.049 140.776 131.022 149.106C131.061 149.422 131.528 149.36 131.494 149.049C130.516 140.697 129.509 132.068 126.944 123.885C125.257 118.505 123.604 117.312 118.936 115.724L116.793 114.995C116.501 114.894 116.343 115.34 116.647 115.442L118.784 116.171C123.317 117.719 124.852 118.793 126.494 124.026Z" fill="black"/>
<path fill-rule="evenodd" clip-rule="evenodd" d="M137.389 79.4269C137.878 66.2314 140.381 52.8325 144.824 39.5975C144.858 39.5014 144.942 39.4393 145.043 39.4336C157.725 39.1285 170.908 40.5469 184.226 43.6494C184.332 43.672 184.406 43.7681 184.406 43.8811C184.445 56.9748 182.313 71.3796 178.062 86.6943C178.034 86.8017 177.944 86.8695 177.837 86.8695C177.829 86.8695 177.824 86.8695 177.82 86.8695C163.091 85.824 149.542 83.3997 137.558 79.6642C137.451 79.6303 137.383 79.5343 137.389 79.4269ZM137.867 79.263C149.728 82.9419 163.113 85.338 177.662 86.3835C181.841 71.2497 183.956 57.0144 183.939 44.0676C170.779 41.0216 157.748 39.6201 145.218 39.9083C140.842 52.9851 138.368 66.2258 137.867 79.263Z" fill="black"/>
<path fill-rule="evenodd" clip-rule="evenodd" d="M80.3498 44.0226C80.3385 44.3616 80.4229 44.6951 80.0517 44.6951L79.0675 44.6894L79.0619 46.7295C79.0619 46.8048 79.0413 46.8726 79 46.9329C78.91 47.0742 78.7469 47.0007 78.3589 47.0177C78.2127 47.0177 78.1227 46.9668 78.1283 46.7295V44.6951L72.15 44.6781C71.835 44.6781 71.6832 44.3447 71.8575 44.0791L78.1789 34.5795C78.2239 34.5192 78.2689 34.4646 78.3139 34.4156C78.4151 34.3026 78.5782 34.3591 78.8819 34.3421C79.0394 34.3478 79.1069 34.4608 79.1069 34.6077L79.0675 43.7626H80.063C80.2542 43.7626 80.3498 43.8493 80.3498 44.0226ZM78.1564 36.467L73.2579 43.7174L78.1395 43.7344L78.1564 36.467Z" fill="black"/>
<path fill-rule="evenodd" clip-rule="evenodd" d="M81.9639 40.7056C81.9695 37.0888 84.8378 34.1898 88.319 34.2011C91.7946 34.2124 94.6966 37.1284 94.6854 40.7395C94.6798 44.3167 91.8115 47.2383 88.2909 47.227C84.7309 47.2157 81.9527 44.2545 81.9639 40.7056ZM82.8806 40.7903C82.8694 43.8928 85.3383 46.272 88.3246 46.2776C91.2829 46.2889 93.7518 43.7233 93.763 40.8242C93.7687 37.5748 91.3728 35.1844 88.3528 35.1731C85.3327 35.1674 82.8862 37.7105 82.8806 40.7903Z" fill="black"/>
<path fill-rule="evenodd" clip-rule="evenodd" d="M96.4572 44.1528L102.779 34.6532C103.015 34.3254 103.003 34.4384 103.482 34.4158C103.639 34.4158 103.706 34.5288 103.706 34.6814L103.667 43.8307L104.663 43.8363C105.084 43.8363 104.916 44.2093 104.949 44.4579C104.949 44.6444 104.859 44.7631 104.651 44.7631H103.667L103.661 46.8032C103.661 46.9501 103.583 47.0914 103.42 47.0914C102.52 47.0518 102.739 47.4926 102.728 44.7688L96.7496 44.7518C96.4347 44.7518 96.2828 44.4127 96.4572 44.1528ZM97.8575 43.7911L102.739 43.8024L102.756 36.5407L97.8575 43.7911Z" fill="black"/>
<path d="M146.652 70.453C145.364 70.8995 144.475 72.3179 144.953 73.7646C145.268 74.731 146.168 75.5052 147.254 75.573C148.665 75.6578 149.959 74.5219 150.066 73.1091C150.217 71.1764 148.373 69.854 146.652 70.453Z" fill="#4FAA89"/>
<path d="M178.309 46.9499L177.353 45.8479C176.971 45.4071 176.38 45.4636 175.992 45.8027L154.047 64.994C153.614 65.3727 153.412 65.74 153.794 66.1808L154.93 67.4975C155.264 67.8818 155.68 67.8535 156.179 67.4127L178.107 48.244C178.605 47.807 178.673 47.3756 178.309 46.9499Z" fill="#4FAA89"/>
<path d="M118.526 31.2791C115.68 28.5835 114.617 23.3335 116.203 19.8072C117.806 16.23 121.793 13.8961 125.674 14.2578C126.551 14.3369 127.277 14.5177 128.25 14.5968C128.508 15.2637 129.38 15.5406 130.078 15.3372C130.91 15.0942 131.039 14.7551 133.373 12.6302C134.009 12.0538 134.824 10.5224 136.416 10.8049C136.995 11.3418 137.557 11.9295 138.328 12.1273C139.717 12.489 141.072 11.3531 141.629 10.1042C142.175 8.88353 142.231 7.5442 142.574 6.29529C143.727 2.16429 148.49 -0.955148 153.338 1.14143C155.459 2.05692 156.735 6.28399 163.282 8.68573C169.378 10.9236 168.36 4.31173 171.313 3.25497C173.365 2.52032 175.418 5.01813 177.808 4.95597C179.49 4.91641 180.789 3.6336 182.128 2.75767C185.114 0.796712 189.219 0.661084 192.335 2.41294C195.451 4.1648 197.475 7.75329 197.374 11.3418C197.363 11.6526 197.835 11.6752 197.847 11.3531C197.948 7.59506 195.828 3.83704 192.566 2.00041C189.298 0.163782 185.001 0.305061 181.869 2.36208C180.559 3.22106 179.304 4.44736 177.797 4.48127C175.576 4.54908 173.45 1.98346 171.155 2.80853C167.82 4.00657 169.17 10.3415 163.445 8.23929C156.915 5.84885 155.993 1.77436 153.524 0.706293C148.423 -1.49766 143.345 1.77436 142.124 6.17097C141.764 7.45378 141.719 8.75355 141.202 9.91204C140.718 10.9858 139.588 11.9634 138.446 11.6695C137.164 11.3361 136.438 9.60122 134.942 9.43734C131.703 9.08132 132.215 13.8905 129.29 14.1335C128.12 14.2352 126.939 13.8961 125.719 13.7831C121.636 13.4101 117.457 15.8571 115.776 19.6094C114.089 23.3675 115.174 28.7587 118.2 31.6238C118.425 31.8329 118.756 31.4938 118.526 31.2791Z" fill="black"/>
<path d="M196.542 15.3655C197.284 13.2068 195.175 11.1385 193.044 11.9409C191.711 12.4439 191.053 13.851 190.193 14.8682C187.42 18.1516 182.229 17.7277 180.019 14.0432C179.445 13.0881 179.136 12.0201 178.483 11.0763C177.825 10.1269 176.628 9.3075 175.435 9.61267C173.489 10.11 173.354 12.7604 171.903 13.8284C170.031 15.2073 167.393 13.2633 164.463 14.0432C163.743 13.2068 161.122 12.4043 160.07 16.5975C158.648 17.7729 157.36 18.9597 155.852 19.7226C154.312 20.5025 152.079 20.9206 150.431 19.7395C149.126 18.8071 148.44 17.0326 146.916 16.2528C142.878 14.1788 138.255 18.8636 138.03 22.6442C137.963 23.7745 137.979 24.9782 137.664 26.0745C137.13 27.9337 135.471 30.0247 133.334 30.4259C133.03 30.4881 133.115 30.9515 133.424 30.8949C135.747 30.4542 137.541 28.1993 138.12 26.2045C138.446 25.0573 138.435 23.8423 138.502 22.6725C138.711 19.197 142.996 14.7722 146.702 16.671C148.063 17.3717 148.822 19.1744 150.155 20.1238C151.978 21.4292 154.402 20.9885 156.066 20.1464C159.536 18.3889 162.123 14.2297 166.099 14.3031C168.102 14.3314 170.447 15.4899 172.185 14.2127C173.714 13.0825 173.911 10.4942 175.553 10.0704C176.526 9.82176 177.533 10.5338 178.095 11.3476C178.708 12.2292 179.046 13.3368 179.614 14.2862C181.987 18.2476 187.572 18.7054 190.553 15.1791C191.43 14.1392 192.032 12.8338 193.213 12.3874C194.962 11.7262 196.705 13.4329 196.098 15.213C195.997 15.5068 196.441 15.6651 196.542 15.3655Z" fill="black"/>
<path d="M3.99898 48.1705C6.16985 46.9499 9.02684 47.0459 11.1077 48.4135C12.0638 49.0351 12.9749 49.9393 14.184 49.9732C15.8769 50.0128 17.3279 48.2666 18.7282 48.7695C20.7585 49.4929 20.0836 54.1833 24.431 52.5897C26.4556 51.8494 28.3171 50.5553 29.6725 48.9447C30.3193 48.1762 30.5274 47.6676 31.4272 47.2776C34.7679 45.8366 38.1029 47.9671 38.9071 50.8605C39.149 51.7251 39.1883 52.6858 39.5764 53.5504C39.9813 54.4546 40.9599 55.274 41.9835 55.0141C42.5684 54.8615 42.9789 54.4094 43.4288 53.9969C44.5143 53.9121 44.9417 54.8389 45.4478 55.2966C47.09 56.7885 47.1744 57.0315 47.7649 57.2011C48.2317 57.3367 48.8054 57.1728 49.0191 56.7546C49.7389 56.6981 50.2339 56.5738 50.8694 56.5116C53.5745 56.263 56.3471 57.8849 57.4663 60.377C58.5686 62.8296 57.8263 66.4916 55.8466 68.3678C55.6216 68.5825 55.9422 68.9272 56.1728 68.7125C58.3212 66.6781 59.0917 62.8466 57.8937 60.1792C56.6958 57.5119 53.732 55.7713 50.83 56.0426C49.9583 56.1217 49.1428 56.3534 48.3273 56.2856C46.3252 56.1217 46.6795 52.7253 44.3343 52.9796C43.2545 53.0983 42.7371 54.3246 41.8654 54.5507C41.1005 54.7541 40.33 54.0873 40.0038 53.3583C39.6495 52.5558 39.6101 51.6234 39.3627 50.7305C38.4685 47.5206 34.8129 45.2997 31.2416 46.8425C30.2124 47.2889 29.9369 47.8936 29.3126 48.6396C28.0078 50.1823 26.2138 51.4312 24.2679 52.1433C20.3423 53.5843 21.2478 49.1651 18.8857 48.3231C17.9465 47.984 17.0523 48.4248 16.1862 48.8599C13.7454 50.0693 13.5429 49.442 11.3664 48.0123C9.13932 46.5543 6.08549 46.4526 3.7684 47.758C1.45131 49.0634 -0.0559171 51.7307 0.0171949 54.4037C0.0284429 54.7033 0.500859 54.7089 0.489611 54.3868C0.422123 51.889 1.82812 49.3912 3.99898 48.1705Z" fill="black"/>
<path d="M12.9741 56.5004C13.4297 55.7375 14.1889 53.1606 15.7524 53.5674C16.8716 53.85 17.0065 55.6584 18.1032 56.4665C19.3574 57.3933 21.0052 56.5626 22.4225 56.5456C25.1726 56.4947 27.051 59.4333 29.4468 60.6483C30.6391 61.253 32.3769 61.5638 33.6817 60.6257C34.6265 59.9533 35.1496 58.693 36.1 58.207C38.6364 56.9073 41.6284 59.9476 41.769 62.372C41.8196 63.2083 41.8084 64.056 42.0446 64.8698C42.4551 66.2939 43.7374 67.8988 45.3965 68.2153C45.7114 68.2774 45.7902 67.8084 45.4865 67.7519C44.2098 67.5089 42.9219 66.2147 42.4945 64.7398C42.2752 63.9769 42.2864 63.1292 42.2414 62.3437C42.0783 59.5633 38.7489 56.3196 35.8863 57.7832C34.7952 58.3427 34.3116 59.5916 33.4061 60.2415C32.2701 61.0552 30.7291 60.767 29.6605 60.2245C28.6032 59.6933 27.7596 58.8965 26.6348 57.9697C26.0162 55.6358 24.4583 55.4323 23.6316 56.2348C21.4776 55.6471 19.6779 57.0429 18.3788 56.0879C17.389 55.3532 17.2653 53.4657 15.8705 53.104C13.8684 52.5898 12.9854 55.568 12.5692 56.2574C11.0451 58.8004 7.44575 59.1056 5.52235 56.8282C4.90933 56.1048 4.45379 55.1159 3.48646 54.7485C1.92862 54.1608 0.398889 55.6753 0.938792 57.2464C1.04002 57.5402 1.48432 57.3876 1.38309 57.0881C0.972536 55.9014 2.14233 54.7485 3.32337 55.195C4.1276 55.4945 4.55502 56.4156 5.16241 57.1333C7.29391 59.6537 11.2757 59.3316 12.9741 56.5004Z" fill="black"/>
<path d="M85.6648 81.6648C85.0743 82.2356 84.3994 82.9194 84.315 83.5975C84.1351 85.0273 86.4184 87.5872 87.6557 88.8022C86.5984 90.1698 85.8673 91.7917 85.5692 93.5097C85.5186 93.8205 85.9854 93.8996 86.036 93.5888C86.3116 91.9669 87.0033 90.4298 87.9987 89.13C88.6961 89.7799 89.551 90.3167 90.4733 90.5597C89.984 91.7634 89.7197 93.0576 89.7197 94.3517C89.7197 94.6681 90.1921 94.6681 90.1921 94.3517C90.1921 93.0915 90.4564 91.8256 90.9457 90.6558C92.7566 90.9271 94.3876 89.8703 94.8825 88.4688C95.473 86.7791 94.5619 84.8916 93.7015 82.6594C94.4213 81.8457 95.2143 81.1054 96.0861 80.4555C96.3391 80.269 96.0579 79.8904 95.8049 80.0768C94.9725 80.6985 94.2076 81.3992 93.5103 82.1678C93.334 81.7119 93.1578 81.2561 92.9816 80.8002L94.7194 79.167C94.95 78.9523 94.6238 78.6075 94.3989 78.8223L92.8016 80.3255C92.3405 79.1331 91.8399 77.3247 90.5858 77.2287C89.8378 77.1721 89.2192 77.7768 88.7186 78.3363C88.4224 78.6678 88.1243 78.9994 87.8244 79.3309C87.1551 78.7375 86.4409 78.195 85.676 77.709C85.4173 77.5395 85.1586 77.9407 85.4286 78.1102C86.1653 78.5793 86.8571 79.1048 87.5095 79.6813C86.1147 81.2297 86.2272 81.111 86.0079 81.3314C85.153 80.4103 84.2307 79.5513 83.2352 78.7827C82.9878 78.5906 82.7009 78.9636 82.9484 79.1557C83.927 79.913 84.8268 80.7606 85.6648 81.6648Z" fill="#4FAA89"/>
</g>
<defs>
<clipPath id="clip0_637_5502">
<rect width="210" height="243" fill="white"/>
</clipPath>
</defs>
</svg>
