<svg width="223" height="223" viewBox="0 0 223 223" fill="none" xmlns="http://www.w3.org/2000/svg">
<g clip-path="url(#clip0_637_5543)">
<path d="M142.366 150.982L96.6088 151.262C96.3041 151.262 96.2066 151.542 96.2066 151.798V190.744C96.2066 194.473 70.2021 204.149 69.9584 203.661L69.9219 207.78C69.9219 208.548 70.5921 209.23 71.4573 209.23H72.03C72.03 209.23 72.0341 209.23 72.0422 209.23H110.403C112.194 209.23 113.949 208.828 115.558 208.158L136.651 199.274C140.453 197.678 142.854 194.241 142.854 190.488V151.518C142.854 151.25 142.659 150.982 142.366 150.982Z" fill="#0E1412"/>
<path d="M91.5764 148.996V187.942C91.5764 191.78 89.1027 195.277 85.2276 196.935L70.9946 203.003C70.0563 203.405 70.3732 204.648 71.4089 204.648H110.513C112.268 204.648 114.01 204.307 115.595 203.637L131.363 196.996C135.275 195.35 137.773 191.841 137.773 187.978V148.996C137.773 148.837 137.627 148.703 137.444 148.703H91.8933C91.7227 148.703 91.5764 148.837 91.5764 148.996Z" fill="white"/>
<path fill-rule="evenodd" clip-rule="evenodd" d="M110.513 204.916H71.4091C70.7024 204.916 70.288 204.453 70.1905 203.99C70.0809 203.466 70.3612 202.991 70.8851 202.759L85.1181 196.691C88.8714 195.082 91.3085 191.646 91.3085 187.941V148.996C91.3085 148.691 91.5766 148.435 91.8934 148.435H137.444C137.773 148.435 138.041 148.691 138.041 148.996V187.978C138.041 191.926 135.458 195.558 131.473 197.239L115.704 203.88C114.084 204.563 112.292 204.916 110.513 204.916ZM91.8447 148.996V187.941C91.8447 191.865 89.2857 195.497 85.3253 197.178L71.0923 203.259C70.7511 203.405 70.678 203.673 70.7145 203.88C70.7755 204.136 71.007 204.38 71.4091 204.38H110.513C112.219 204.38 113.95 204.039 115.497 203.381L131.254 196.752C135.056 195.155 137.505 191.707 137.505 187.978V148.996C137.505 148.996 137.48 148.971 137.444 148.971H91.8934C91.8691 148.971 91.8447 148.996 91.8447 148.996Z" fill="#0E1412"/>
<path d="M6.32422 170.528L194.497 170.93L197.763 170.942L203.844 170.954C205.574 170.954 206.988 169.614 207.207 167.92L222.939 45.9648C223.329 42.9915 221.148 40.1887 218.138 40.1887L23.165 40.3715L6.32422 170.528Z" fill="#0E1412"/>
<path d="M210.814 39.6282C214.214 39.6282 216.968 43.0402 216.541 46.4157L200.688 168.432C200.468 170.15 199.018 171.43 197.288 171.43L195.801 171.491L3.71639 171.43C1.64481 171.43 0.0484715 169.614 0.316559 167.555L16.4749 43.0524C16.6943 41.3342 18.0225 39.6282 19.7407 39.6282H210.814Z" fill="white"/>
<path d="M204.331 45.2824C207.5 45.2824 210.083 48.3776 209.681 51.4362L194.863 162.169C194.656 163.728 193.291 164.886 191.67 164.886L190.281 164.935L10.626 164.886C8.68846 164.886 7.18961 163.229 7.44551 161.364L22.5681 48.3898C22.7752 46.83 24.006 45.2824 25.6145 45.2824H204.331Z" fill="white"/>
<path fill-rule="evenodd" clip-rule="evenodd" d="M190.293 165.203L10.6261 165.154C9.60248 165.154 8.6398 164.728 7.98177 163.972C7.34811 163.241 7.05565 162.278 7.17751 161.328L22.3001 48.3532C22.5194 46.7081 23.8111 45.0021 25.6146 45.0021H204.331C205.879 45.0021 207.402 45.7333 208.499 46.9762C209.632 48.2679 210.156 49.9008 209.949 51.4728L195.119 162.205C194.9 163.887 193.413 165.154 191.67 165.154L190.293 165.203ZM25.6146 45.5383C24.1279 45.5383 23.019 47.0372 22.8363 48.4263L7.71368 161.401C7.60401 162.205 7.84773 162.997 8.3839 163.606C8.94445 164.252 9.7609 164.618 10.6261 164.618L190.281 164.667L191.67 164.618C193.145 164.618 194.4 163.546 194.595 162.132L209.413 51.3997C209.608 49.9861 209.12 48.4995 208.097 47.3296C207.11 46.1963 205.733 45.5383 204.331 45.5383H25.6146Z" fill="#0E1412"/>
<path d="M204.855 137.444C204.847 137.444 204.835 137.444 204.819 137.444C204.673 137.419 204.575 137.285 204.587 137.139L216.273 46.3791C216.468 44.8437 215.993 43.3083 214.97 42.1385C213.958 40.993 212.496 40.3228 210.96 40.3228L187.978 40.2984C187.832 40.2984 187.71 40.1766 187.71 40.0303C187.71 39.8841 187.832 39.7622 187.978 39.7622L210.96 39.7866C212.654 39.7866 214.263 40.5178 215.384 41.7851C216.505 43.0646 217.017 44.7706 216.81 46.4522L205.123 137.212C205.111 137.346 204.989 137.444 204.855 137.444Z" fill="#0E1412"/>
<path d="M72.5181 171.576C72.3719 171.576 72.25 171.454 72.25 171.308C72.25 171.162 72.3719 171.04 72.5181 171.04L119.348 170.954C119.494 170.954 119.616 171.076 119.616 171.223C119.616 171.369 119.494 171.491 119.348 171.491L72.5181 171.576Z" fill="#0E1412"/>
<path d="M3.71657 171.71C2.65641 171.71 1.64498 171.247 0.938209 170.443C0.231433 169.651 -0.0853977 168.578 0.048646 167.518L16.207 43.0159C16.4507 41.1758 18.0227 39.7866 19.8871 39.7866L139.259 39.2261C139.418 39.2261 139.527 39.3479 139.539 39.4942C139.539 39.6404 139.418 39.7622 139.271 39.7622L19.8871 40.3228C18.303 40.3228 16.9503 41.517 16.7432 43.089L0.584821 167.591C0.462963 168.493 0.743236 169.407 1.34034 170.089C1.94963 170.772 2.81482 171.162 3.71657 171.162L28.3806 171.125C28.3887 171.125 28.3928 171.125 28.3928 171.125C28.539 171.125 28.6609 171.247 28.6609 171.393C28.6609 171.539 28.539 171.661 28.3928 171.661L3.71657 171.71Z" fill="#0E1412"/>
<path d="M112.353 50.0471L100.935 63.9632L117.495 94.6349L80.7549 123.698L100.471 159.963C100.618 160.231 101.032 160.036 100.91 159.756L85.6048 125.319L100.935 111.585L108.612 120.871L100.532 138.236L110.622 122.492L123.539 136.213L104.164 110.781L122.735 95.8535L105.784 64.7675L112.816 50.3395C112.962 50.0471 112.572 49.7912 112.353 50.0471Z" fill="#0E1412"/>
<path d="M110.062 103.141L132.825 103.518L144.182 111.208C144.536 111.439 144.974 111.524 145.389 111.439L173.062 105.614C173.257 105.578 173.318 105.858 173.136 105.919L144.852 114.863C144.146 115.095 143.378 114.949 142.793 114.498L131.619 105.943L110.598 105.029C109.928 105.078 109.392 103.226 110.062 103.141Z" fill="#0E1412"/>
<path d="M102.482 65.2427L89.7725 59.2473L97.8395 46.3304L93.806 58.0409L106.077 62.7325L102.482 65.2427Z" fill="#0E1412"/>
<path d="M198.007 74.772L168.712 22.4219C166.043 17.645 159.17 17.645 156.49 22.4219L127.207 74.772C124.599 79.4392 127.975 85.2031 133.312 85.2031H191.889C197.239 85.2031 200.614 79.4392 198.007 74.772Z" fill="white"/>
<path fill-rule="evenodd" clip-rule="evenodd" d="M191.89 85.4711H133.312C130.705 85.4711 128.365 84.1185 127.049 81.8763C125.721 79.622 125.696 76.9167 126.976 74.6502L156.258 22.3C157.562 19.9603 159.938 18.5711 162.607 18.5711C165.276 18.5711 167.652 19.9603 168.956 22.3L198.238 74.6502C199.506 76.9167 199.481 79.622 198.165 81.8763C196.849 84.1185 194.497 85.4711 191.89 85.4711ZM162.607 19.1073C160.133 19.1073 157.94 20.399 156.734 22.5559L127.439 74.9061C126.257 77.0142 126.293 79.5123 127.512 81.5961C128.731 83.6798 130.9 84.9228 133.312 84.9228H191.89C194.302 84.9228 196.484 83.6798 197.702 81.5961C198.921 79.5123 198.945 77.0142 197.763 74.9061L168.481 22.5559C167.274 20.399 165.081 19.1073 162.607 19.1073Z" fill="#0E1412"/>
<path d="M141.672 63.5489C141.623 63.5489 141.578 63.5367 141.538 63.5124C141.404 63.4393 141.367 63.2808 141.44 63.1468L160.401 29.2459C160.852 28.4417 161.681 27.9542 162.607 27.9542C163.533 27.9542 164.35 28.4417 164.801 29.2459L166.836 32.8773C166.909 32.9991 166.86 33.1697 166.738 33.2429C166.604 33.316 166.446 33.2672 166.372 33.1332L164.337 29.5018C163.984 28.8682 163.338 28.4904 162.607 28.4904C161.876 28.4904 161.23 28.8682 160.877 29.5018L141.903 63.4149C141.855 63.5002 141.769 63.5489 141.672 63.5489Z" fill="#0E1412"/>
<path d="M173.733 46.0257C173.636 46.0257 173.55 45.977 173.502 45.8795L169.529 38.7996C169.456 38.6655 169.505 38.5071 169.639 38.434C169.761 38.3609 169.931 38.3974 170.004 38.5315L173.965 45.6236C174.038 45.7455 173.989 45.9161 173.867 45.9892C173.827 46.0136 173.782 46.0257 173.733 46.0257Z" fill="#0E1412"/>
<path d="M188.027 78.4522H175.159C175.012 78.4522 174.891 78.3303 174.891 78.1841C174.891 78.0257 175.012 77.9038 175.159 77.9038H188.027C188.746 77.9038 189.38 77.5382 189.745 76.9289C190.098 76.3196 190.111 75.5763 189.769 74.9548C189.696 74.833 189.733 74.6624 189.867 74.5893C190.001 74.5161 190.159 74.5649 190.233 74.6989C190.671 75.4788 190.671 76.4171 190.208 77.197C189.745 77.9769 188.941 78.4522 188.027 78.4522Z" fill="#0E1412"/>
<path d="M169.772 78.4521H137.175C136.274 78.4521 135.457 77.9769 135.006 77.197C134.543 76.4171 134.531 75.4788 134.982 74.6989L138.382 68.606C138.455 68.472 138.626 68.4232 138.747 68.4963C138.881 68.5694 138.93 68.7279 138.857 68.8619L135.445 74.9548C135.104 75.5763 135.104 76.3196 135.469 76.9289C135.823 77.5382 136.469 77.9038 137.175 77.9038H169.772C169.919 77.9038 170.041 78.0256 170.041 78.184C170.041 78.3303 169.919 78.4521 169.772 78.4521Z" fill="#0E1412"/>
<path d="M166.409 71.36C166.409 73.4681 164.703 75.1742 162.607 75.1742C160.499 75.1742 158.793 73.4681 158.793 71.36C158.793 69.264 160.499 67.558 162.607 67.558C164.703 67.558 166.409 69.264 166.409 71.36Z" fill="#0E1412"/>
<path d="M163.253 38.6655H161.949C160.121 38.6655 158.659 40.1766 158.72 42.0166L159.378 60.7218C159.439 62.4644 160.864 63.8414 162.607 63.8414C164.349 63.8414 165.775 62.4644 165.836 60.7218L166.494 42.0166C166.555 40.1766 165.093 38.6655 163.253 38.6655Z" fill="#0E1412"/>
<path d="M212.788 185.224C212.788 209.608 199.579 218.162 189.782 221.16H173.465V217.285C173.619 217.39 173.778 217.496 173.94 217.602C184.176 213.264 191.695 202.016 191.695 183.104C191.695 161.608 185.492 145.145 173.465 141.014V137.334H191.683C215.652 143.78 212.788 185.224 212.788 185.224Z" fill="#0E1412"/>
<path d="M191.683 137.37C189.66 136.834 187.442 136.578 185.017 136.578H167.226C165.227 136.578 160.085 137.2 154.248 138.431C149.154 139.503 144.061 141.148 139.308 143.268L137.322 144.158C135.799 144.84 134.812 146.339 134.812 148.009L170.236 146.656V142.793C170.236 142.793 170.126 141.806 173.416 141.002C173.428 141.002 173.44 141.002 173.453 140.99C174.757 140.673 176.609 140.393 179.217 140.21C181.081 140.076 183.323 139.99 186.028 139.99C202.15 139.99 210.51 158.159 210.51 183.104C210.51 208.048 197.41 219.673 182.287 219.673C180.094 219.673 178.242 219.369 176.67 218.857C175.646 218.516 174.744 218.089 173.94 217.602C173.782 217.504 173.611 217.346 173.453 217.236C167.53 213.166 167.957 205.257 167.957 205.257H134.909C134.909 205.257 134.69 219.198 166.604 222.147C170.406 222.5 174.659 222.732 179.424 222.732C179.424 222.732 184.006 222.903 189.782 221.148C199.579 218.15 212.788 209.62 212.788 185.236C212.788 185.236 215.652 143.829 191.683 137.37Z" fill="white"/>
<path fill-rule="evenodd" clip-rule="evenodd" d="M179.764 223C179.545 223 179.423 223 179.411 223C179.411 223 179.407 223 179.399 223C175.036 223 170.71 222.805 166.579 222.415C150.019 220.892 142.22 216.334 138.601 212.788C134.628 208.901 134.64 205.404 134.64 205.257C134.64 205.111 134.762 204.989 134.909 204.989H167.956C168.042 204.989 168.103 205.026 168.151 205.075C168.212 205.123 168.237 205.197 168.237 205.27C168.224 205.355 167.883 213.081 173.611 217.017C173.684 217.065 173.757 217.126 173.842 217.187C173.927 217.26 174.001 217.321 174.086 217.37C174.89 217.87 175.792 218.284 176.755 218.601C178.375 219.125 180.24 219.393 182.287 219.393C195.192 219.393 210.241 209.888 210.241 183.104C210.241 170.491 208.109 159.841 204.075 152.322C199.847 144.438 193.608 140.271 186.028 140.271C183.493 140.271 181.202 140.332 179.24 140.478C176.889 140.636 174.963 140.904 173.513 141.258C173.497 141.258 173.481 141.262 173.464 141.27C170.576 141.964 170.503 142.781 170.503 142.781V146.656C170.503 146.802 170.394 146.924 170.247 146.924L134.823 148.277C134.75 148.277 134.677 148.252 134.616 148.204C134.567 148.155 134.543 148.082 134.543 148.009C134.543 146.242 135.591 144.633 137.212 143.902L139.198 143.025C143.95 140.904 148.995 139.271 154.186 138.162C159.975 136.944 165.129 136.31 167.225 136.31H185.017C187.527 136.31 189.72 136.566 191.743 137.115C197.288 138.601 201.845 142.074 205.318 147.424C208.084 151.689 210.156 157.16 211.484 163.667C213.751 174.732 213.068 185.151 213.068 185.261C213.068 196.167 210.412 204.953 205.172 211.387C201.321 216.103 196.167 219.478 189.854 221.404C185.017 222.878 180.959 223 179.764 223ZM135.189 205.526C135.274 206.403 135.798 209.315 139.015 212.447C142.586 215.92 150.275 220.368 166.628 221.879C170.747 222.269 175.049 222.452 179.423 222.452C179.484 222.464 184.042 222.61 189.696 220.892C200.115 217.711 212.52 208.938 212.52 185.236C212.532 185.114 213.214 174.769 210.96 163.765C208.888 153.663 203.856 140.929 191.609 137.638C189.635 137.102 187.478 136.846 185.017 136.846H167.225C165.202 136.846 159.987 137.492 154.308 138.699C149.215 139.771 144.072 141.44 139.417 143.512L137.431 144.402C136.091 144.999 135.189 146.29 135.091 147.728L169.967 146.4V142.805C169.955 142.562 170.089 141.538 173.355 140.734H173.379C173.379 140.734 173.383 140.734 173.391 140.734C174.866 140.368 176.828 140.1 179.204 139.942C181.178 139.795 183.481 139.722 186.028 139.722C193.815 139.722 200.224 143.999 204.55 152.066C208.633 159.67 210.777 170.406 210.777 183.104C210.777 194.814 207.841 204.429 202.272 210.912C197.288 216.736 190.183 219.941 182.287 219.941C180.179 219.941 178.266 219.661 176.584 219.113C175.585 218.784 174.646 218.357 173.806 217.833C173.696 217.76 173.586 217.687 173.501 217.602C173.428 217.553 173.367 217.492 173.306 217.455C167.956 213.788 167.688 207 167.688 205.526H135.189Z" fill="#0E1412"/>
<path d="M210.241 159.561L205.233 164.338C204.843 164.703 204.319 164.947 203.771 164.947H191.524C190.586 164.947 189.769 164.301 189.501 163.411L188.356 159.622L187.369 163.424C187.04 164.667 187.003 165.958 187.247 167.226L189.014 176.268C189.489 178.729 191.646 180.496 194.144 180.496H200.858C203.186 180.496 205.233 178.961 205.879 176.731L207.975 169.492C207.975 169.492 207.975 169.443 211.667 166.031C213.434 160.219 210.241 159.561 210.241 159.561Z" fill="white"/>
<path fill-rule="evenodd" clip-rule="evenodd" d="M200.859 180.764H194.144C191.525 180.764 189.246 178.9 188.746 176.328L186.979 167.274C186.736 165.983 186.772 164.63 187.101 163.363L188.1 159.549C188.125 159.439 188.234 159.354 188.356 159.354C188.478 159.354 188.576 159.427 188.612 159.549L189.758 163.326C189.989 164.118 190.72 164.667 191.525 164.667H203.771C204.222 164.667 204.685 164.472 205.051 164.143L210.059 159.366C210.12 159.305 210.205 159.28 210.303 159.305C210.339 159.305 211.278 159.512 211.911 160.572C212.655 161.827 212.655 163.692 211.924 166.117C211.907 166.157 211.883 166.194 211.85 166.226C208.987 168.883 208.353 169.492 208.219 169.626L206.135 176.804C205.465 179.131 203.296 180.764 200.859 180.764ZM188.381 160.621L187.625 163.497C187.308 164.703 187.272 165.946 187.515 167.165L189.282 176.219C189.733 178.546 191.78 180.228 194.144 180.228H200.859C203.052 180.228 205.014 178.753 205.624 176.645L207.719 169.407C207.793 169.248 208.28 168.798 211.424 165.885C212.094 163.68 212.094 161.949 211.448 160.852C211.058 160.207 210.547 159.951 210.315 159.865L205.416 164.533C204.953 164.959 204.356 165.215 203.771 165.215H191.525C190.489 165.215 189.55 164.496 189.234 163.485L188.381 160.621Z" fill="#0E1412"/>
<path d="M134.019 146.12L174.379 144.158C177.401 144.012 179.886 146.534 179.886 149.8V207.427C179.886 210.705 177.413 213.178 174.379 212.959L134.019 210.046C131.436 209.852 129.34 207.292 129.34 204.307V151.75C129.34 148.764 131.436 146.242 134.019 146.12Z" fill="white"/>
<path fill-rule="evenodd" clip-rule="evenodd" d="M174.757 213.239C174.627 213.239 174.497 213.235 174.367 213.227L133.995 210.315C131.278 210.12 129.072 207.427 129.072 204.307V151.75C129.072 148.63 131.29 145.986 134.008 145.852L174.367 143.89C175.829 143.817 177.231 144.341 178.315 145.364C179.485 146.485 180.155 148.094 180.155 149.8V207.427C180.155 209.145 179.485 210.741 178.315 211.838C177.328 212.752 176.085 213.239 174.757 213.239ZM134.032 146.388C131.595 146.51 129.608 148.91 129.608 151.75V204.307C129.608 207.146 131.595 209.596 134.044 209.778L174.403 212.691C175.719 212.776 176.975 212.337 177.949 211.436C179.01 210.449 179.619 208.986 179.619 207.427V149.8C179.619 148.24 179.01 146.766 177.937 145.754C176.975 144.828 175.707 144.353 174.391 144.426L134.032 146.388Z" fill="#0E1412"/>
<path d="M173.831 207.146C173.831 210.376 171.491 212.825 168.518 212.618L129.109 209.754C126.574 209.571 124.588 207.037 124.588 204.075V151.969C124.588 149.02 126.599 146.522 129.145 146.4L168.518 144.475C171.491 144.341 173.831 146.839 173.831 150.08V207.146Z" fill="white"/>
<path fill-rule="evenodd" clip-rule="evenodd" d="M168.883 212.898C168.753 212.898 168.627 212.894 168.505 212.886L129.096 210.022C126.415 209.827 124.319 207.219 124.319 204.075V151.969C124.319 148.874 126.476 146.254 129.121 146.132L168.505 144.207C169.919 144.146 171.259 144.645 172.283 145.62C173.44 146.729 174.11 148.35 174.11 150.08V207.146C174.11 208.864 173.44 210.473 172.283 211.545C171.344 212.423 170.15 212.898 168.883 212.898ZM168.761 144.743C168.688 144.743 168.615 144.743 168.542 144.743L129.157 146.668C126.781 146.778 124.856 149.166 124.856 151.969V204.075C124.856 206.89 126.781 209.315 129.133 209.486L168.542 212.337C169.809 212.435 171.003 212.008 171.917 211.155C172.965 210.181 173.562 208.718 173.562 207.146V150.08C173.562 148.496 172.965 147.009 171.917 146.01C171.052 145.194 169.943 144.743 168.761 144.743Z" fill="#0E1412"/>
<path d="M127.22 154.784C127.22 152.164 129.048 149.958 131.302 149.861L166.239 148.399C168.834 148.289 170.955 150.507 170.955 153.346V203.478C170.955 206.33 168.834 208.487 166.239 208.316L131.302 206.05C129.048 205.903 127.22 203.661 127.22 201.041V154.784Z" fill="#0E1412"/>
<path d="M181.251 190.866C181.251 192.133 180.313 193.133 179.131 193.084L177.936 193.035C176.767 192.999 175.926 191.938 175.926 190.683V169.054C175.926 167.798 176.779 166.763 177.949 166.75L179.179 166.738C180.361 166.738 181.251 167.75 181.251 169.017V190.866Z" fill="white"/>
<path fill-rule="evenodd" clip-rule="evenodd" d="M179.204 193.352C179.172 193.352 179.143 193.352 179.119 193.352L177.925 193.303C176.633 193.254 175.658 192.133 175.658 190.683V169.053C175.658 167.628 176.657 166.494 177.949 166.482L179.168 166.47C179.777 166.47 180.338 166.702 180.764 167.128C181.239 167.603 181.52 168.286 181.52 169.017V190.866C181.52 191.585 181.239 192.255 180.764 192.718C180.338 193.133 179.789 193.352 179.204 193.352ZM179.192 167.018C179.184 167.018 179.18 167.018 179.18 167.018L177.949 167.031C176.95 167.031 176.194 167.908 176.194 169.053V190.683C176.194 191.841 176.95 192.73 177.949 192.767L179.131 192.816C179.594 192.828 180.045 192.657 180.386 192.328C180.764 191.975 180.983 191.439 180.983 190.866V169.017C180.983 168.432 180.764 167.884 180.386 167.506C180.057 167.189 179.643 167.018 179.192 167.018Z" fill="#0E1412"/>
<path d="M176.999 190.915C176.852 190.915 176.73 190.793 176.73 190.647V177.535C176.73 177.389 176.852 177.267 176.999 177.267C177.157 177.267 177.267 177.389 177.267 177.535V190.647C177.267 190.793 177.157 190.915 176.999 190.915Z" fill="#0E1412"/>
<path d="M176.999 174.354C176.852 174.354 176.73 174.232 176.73 174.086V169.334C176.73 169.188 176.852 169.066 176.999 169.066C177.157 169.066 177.267 169.188 177.267 169.334V174.086C177.267 174.232 177.157 174.354 176.999 174.354Z" fill="#0E1412"/>
<path d="M132.63 203.393L141.952 196.752L154.333 186.162L140.526 194.059L133.166 182.933L149.666 162.303L139.966 172.319L132.983 179.521L129.571 182.397L138.004 194.595L132.63 203.393Z" fill="white"/>
<path d="M139.539 156.563V173.245L141.233 171.089L139.539 156.563Z" fill="white"/>
<path d="M165.008 168.31L154.602 175.853L164.825 172.258L159.086 188.051L166.629 172.624L166.446 156.478L165.008 168.31Z" fill="white"/>
<path d="M181.897 33.7668C181.799 33.7668 181.702 33.7059 181.653 33.6206C181.032 32.3411 180.922 31.2809 181.336 30.4767C181.629 29.9039 182.08 29.6846 182.482 29.4896C182.811 29.319 183.128 29.1606 183.384 28.8072C183.883 28.1248 183.676 27.3815 183.444 26.5163C183.225 25.6755 182.994 24.7981 183.42 23.9207C183.944 22.8605 185.029 22.6534 186.064 22.4462C187.039 22.2634 187.965 22.0806 188.489 21.2642C189.086 20.3381 188.745 19.2292 188.38 18.0593C187.978 16.8286 187.575 15.5491 188.331 14.4036C188.965 13.4531 190.013 13.2094 190.951 13.0022C191.828 12.8073 192.584 12.6367 192.925 11.9664C193.425 11.0281 192.925 9.52928 191.451 7.51862C191.365 7.40895 191.39 7.23835 191.511 7.15305C191.621 7.05556 191.792 7.07993 191.877 7.20179C193.51 9.41961 194.01 11.0647 193.412 12.2102C192.937 13.0997 191.987 13.3191 191.061 13.5262C190.159 13.7334 189.294 13.9283 188.782 14.7082C188.173 15.6222 188.514 16.7311 188.891 17.9009C189.281 19.1317 189.684 20.4112 188.94 21.5567C188.294 22.5681 187.161 22.7874 186.174 22.9824C185.175 23.1774 184.31 23.3358 183.908 24.1644C183.566 24.859 183.761 25.6023 183.968 26.3822C184.212 27.2962 184.468 28.2345 183.822 29.124C183.493 29.5871 183.079 29.7943 182.713 29.9649C182.348 30.1476 182.031 30.3061 181.812 30.7204C181.483 31.3662 181.592 32.268 182.141 33.3769C182.201 33.5109 182.153 33.6693 182.019 33.7424C181.978 33.7587 181.937 33.7668 181.897 33.7668Z" fill="#0E1412"/>
<path d="M185.054 36.399C184.98 36.399 184.895 36.3624 184.846 36.3015C184.749 36.1918 184.761 36.0212 184.871 35.9237L198.421 23.7257C198.531 23.6283 198.702 23.6404 198.799 23.7501C198.897 23.8598 198.884 24.0304 198.775 24.1279L185.224 36.3259C185.175 36.3746 185.114 36.399 185.054 36.399Z" fill="#0E1412"/>
<path fill-rule="evenodd" clip-rule="evenodd" d="M195.095 4.26502C194.168 4.26502 193.328 3.66792 193.047 2.7418C192.889 2.19343 192.95 1.6207 193.218 1.12108C193.486 0.621467 193.937 0.255893 194.485 0.0852923C195.021 -0.073123 195.606 -0.0121941 196.106 0.255893C196.606 0.523981 196.971 0.974855 197.13 1.52322C197.471 2.65649 196.825 3.83852 195.704 4.17972C195.501 4.23659 195.298 4.26502 195.095 4.26502ZM195.095 0.536167C194.94 0.536167 194.786 0.560538 194.631 0.609281C194.229 0.731139 193.888 0.999227 193.693 1.37699C193.486 1.75475 193.437 2.18125 193.559 2.59557C193.815 3.43639 194.705 3.91163 195.545 3.65573C196.386 3.41201 196.874 2.52245 196.618 1.68163C196.496 1.26731 196.228 0.938298 195.85 0.731139C195.619 0.609281 195.35 0.536167 195.095 0.536167Z" fill="#0E1412"/>
<path d="M50.2424 202.601C50.2424 202.601 52.2043 208.011 54.0444 209.608C55.8844 211.216 63.074 214.251 63.3056 217.821C63.5493 221.952 61.1731 222.793 54.6902 221.526C49.9987 220.599 46.0627 217.882 44.6369 216.31C43.3818 214.921 44.0155 213.678 44.247 211.984C44.5394 209.912 44.5394 207.804 44.4663 205.708L44.3567 202.284L50.2424 202.601Z" fill="white"/>
<path fill-rule="evenodd" clip-rule="evenodd" d="M59.1985 222.342C57.9921 222.342 56.4933 222.147 54.6411 221.781C49.8399 220.843 45.8429 218.04 44.4416 216.493C43.3448 215.274 43.5642 214.129 43.8079 212.898C43.8688 212.593 43.9419 212.276 43.9907 211.947C44.2953 209.791 44.2709 207.585 44.1978 205.721L44.0882 202.296C44.0882 202.223 44.1125 202.15 44.1613 202.089C44.2222 202.04 44.2953 202.016 44.3684 202.016L50.2542 202.333C50.3638 202.345 50.4491 202.406 50.4857 202.516C50.5101 202.564 52.4598 207.865 54.2146 209.413C54.7142 209.839 55.6159 210.388 56.6639 211.021C59.5032 212.727 63.4026 215.079 63.5732 217.797C63.6707 219.527 63.3295 220.685 62.5009 221.416C61.7941 222.037 60.7461 222.342 59.1985 222.342ZM44.6365 202.577L44.7462 205.696C44.8071 207.597 44.8315 209.815 44.5147 212.021C44.4659 212.374 44.405 212.691 44.3441 213.008C44.1003 214.226 43.9176 215.116 44.8315 216.127C46.1963 217.626 50.0714 220.343 54.7385 221.257C58.7599 222.049 61.0508 221.976 62.1475 221.014C62.8421 220.392 63.1224 219.381 63.0249 217.833C62.8787 215.396 59.1254 213.129 56.3958 211.484C55.3113 210.839 54.3852 210.278 53.8612 209.815C52.1552 208.328 50.4004 203.807 50.047 202.869L44.6365 202.577Z" fill="#0E1412"/>
<path d="M63.1107 219.807C63.1026 219.807 63.0985 219.807 63.0985 219.807L60.7954 219.722C54.8609 219.49 49.2311 217.126 44.9539 213.069C44.3811 212.52 44.0643 212.179 44.0521 212.167C43.9546 212.057 43.9546 211.887 44.0643 211.789C44.174 211.679 44.3446 211.692 44.4543 211.801C44.4543 211.801 44.7711 212.142 45.3316 212.679C49.5114 216.651 55.0193 218.954 60.8198 219.186L63.1107 219.271C63.2691 219.271 63.3788 219.405 63.3788 219.551C63.3666 219.698 63.2448 219.807 63.1107 219.807Z" fill="#0E1412"/>
<path d="M48.9872 211.497C48.8654 211.497 48.7557 211.411 48.7313 211.277C48.6948 211.131 48.7923 210.985 48.9385 210.96C48.9629 210.96 51.9118 210.339 52.9598 208.864C53.0451 208.743 53.2157 208.718 53.3376 208.804C53.4594 208.889 53.4838 209.059 53.3985 209.181C52.2287 210.826 49.17 211.46 49.0482 211.484C49.0238 211.493 49.0035 211.497 48.9872 211.497Z" fill="#0E1412"/>
<path d="M51.7777 213.251C51.6559 213.251 51.5462 213.166 51.5097 213.044C51.4731 212.898 51.5706 212.752 51.7168 212.715C51.7412 212.715 54.5074 212.008 55.2873 210.595C55.3604 210.473 55.5188 210.424 55.6528 210.497C55.7869 210.558 55.8234 210.729 55.7625 210.863C54.8729 212.484 51.9605 213.215 51.8387 213.239C51.8143 213.247 51.794 213.251 51.7777 213.251Z" fill="#0E1412"/>
<path d="M54.7633 214.896C54.6536 214.896 54.5561 214.835 54.5195 214.726C54.4586 214.592 54.5195 214.433 54.6658 214.385C54.678 214.372 56.9323 213.434 57.5538 212.021C57.6147 211.887 57.7732 211.826 57.9072 211.874C58.0412 211.935 58.1022 212.094 58.0412 212.228C57.3345 213.848 54.9704 214.835 54.8608 214.872C54.8283 214.888 54.7958 214.896 54.7633 214.896Z" fill="#0E1412"/>
<path d="M36.0456 189.635C35.8262 189.647 32.7188 189.44 30.9153 189.331C30.2208 189.282 29.6115 189.806 29.5627 190.501L29.319 193.754C29.2337 194.912 29.0509 196.057 28.7585 197.166C28.2467 199.201 27.4911 202.698 28.0151 204.258C28.5879 205.94 30.2451 208.231 31.3418 209.547C31.8415 210.144 32.6701 210.363 33.4012 210.083C34.7173 209.596 36.8255 208.67 38.0197 207.378C39.8719 205.392 37.6785 201.785 37.6785 201.785L36.0456 189.635Z" fill="white"/>
<path fill-rule="evenodd" clip-rule="evenodd" d="M32.7681 210.473C32.1466 210.473 31.5495 210.205 31.1352 209.717C29.9288 208.267 28.3203 206.001 27.7597 204.344C27.2357 202.784 27.8694 199.542 28.503 197.105C28.7833 195.984 28.9783 194.851 29.0514 193.742L29.2951 190.488C29.3561 189.635 30.0872 189.002 30.9402 189.063C33.9745 189.258 35.8876 189.379 36.0339 189.367C36.1679 189.367 36.2898 189.465 36.3141 189.599L37.947 201.699C38.2151 202.162 40.0917 205.562 38.2273 207.561C37.0209 208.852 34.9859 209.778 33.4992 210.339C33.2555 210.424 33.0118 210.473 32.7681 210.473ZM30.8305 189.587C30.3187 189.587 29.8679 190.001 29.8313 190.525L29.5876 193.778C29.5023 194.924 29.3195 196.094 29.027 197.239C28.5274 199.177 27.7719 202.662 28.2715 204.173C28.7711 205.66 30.2822 207.853 31.5495 209.364C31.976 209.876 32.6828 210.071 33.3164 209.839C34.4863 209.401 36.631 208.475 37.8252 207.195C39.519 205.379 37.4718 201.955 37.4474 201.919C37.4312 201.886 37.419 201.854 37.4109 201.821L35.8023 189.903C35.2052 189.867 33.5602 189.769 30.9037 189.599C30.8793 189.591 30.8549 189.587 30.8305 189.587Z" fill="#0E1412"/>
<path d="M34.2298 209.888C34.1445 209.888 34.0714 209.852 34.0105 209.778C30.0379 204.575 30.2572 203.174 30.7081 200.091C30.8056 199.457 30.9153 198.738 30.9884 197.909C31.1955 195.692 31.8536 189.574 31.8536 189.513C31.8779 189.367 32.012 189.258 32.1582 189.27C32.3044 189.294 32.4141 189.428 32.3897 189.574C32.3897 189.635 31.7317 195.74 31.5246 197.958C31.4514 198.811 31.3418 199.53 31.2443 200.176C30.8056 203.101 30.6106 204.429 34.437 209.449C34.5344 209.571 34.5101 209.742 34.3882 209.827C34.3395 209.864 34.2907 209.888 34.2298 209.888Z" fill="#0E1412"/>
<path d="M33.4017 200.602C33.2677 200.602 33.158 200.517 33.1336 200.383C33.1092 200.237 33.2067 200.103 33.353 200.079L36.8259 199.445C36.9721 199.42 37.1184 199.518 37.1427 199.664C37.1671 199.81 37.0696 199.944 36.9234 199.969L33.4504 200.602C33.4342 200.602 33.418 200.602 33.4017 200.602Z" fill="#0E1412"/>
<path d="M33.8398 203.113C33.7179 203.113 33.6083 203.015 33.5839 202.893C33.5473 202.747 33.6448 202.601 33.791 202.577L37.2762 201.943C37.4224 201.919 37.5564 202.016 37.5808 202.162C37.6052 202.309 37.5199 202.455 37.3737 202.479L33.8885 203.113C33.8723 203.113 33.856 203.113 33.8398 203.113Z" fill="#0E1412"/>
<path d="M37.6902 204.136C39.774 205.477 44.1487 207.134 51.3139 204.721L45.5013 131.387L32.4991 128.645C32.4991 128.645 30.6103 147.558 33.1571 165.873C35.4968 182.592 36.0573 196.886 36.1792 201.419C36.2157 202.528 36.7641 203.551 37.6902 204.136Z" fill="#4FAA89"/>
<path d="M32.3047 127.073L65.0235 127.805L65.121 163.545C65.1332 167.725 63.9877 171.807 61.7943 175.366C58.297 181.069 52.6793 189.465 48.1218 192.84C40.9322 198.141 32.3047 127.073 32.3047 127.073Z" fill="#4FAA89"/>
<path d="M50.7296 191.512C50.5834 191.512 50.4615 191.39 50.4615 191.244L49.1942 150.08C49.182 149.934 49.3039 149.812 49.4501 149.8C49.5963 149.8 49.7304 149.91 49.7304 150.068L50.9977 191.232C50.9977 191.378 50.888 191.5 50.7418 191.512C50.7337 191.512 50.7296 191.512 50.7296 191.512Z" fill="white"/>
<path d="M67.3753 56.3593C67.5215 58.504 67.5093 59.9297 67.5093 59.9297C67.5093 59.9297 66.2542 57.0051 65.584 55.4088C64.6335 53.1179 63.1102 52.472 63.8901 55.3722C64.4994 57.651 64.6456 58.3943 64.6456 58.3943C64.6456 58.3943 63.098 55.7134 62.6959 54.8604C61.977 53.3372 60.6609 53.2641 61.2946 55.3235C62.0501 57.7241 62.964 59.7591 62.964 59.7591C62.964 59.7591 58.3821 54.6776 58.0531 56.5421C57.7607 58.1993 61.5626 61.5382 62.111 62.1719C62.6594 62.8056 59.9663 60.1856 58.833 61.1605C57.7729 62.0744 65.852 67.5337 66.9122 70.3973C68.1551 73.7606 71.8231 83.5823 70.6898 82.644C65.2184 78.0744 62.6959 78.9883 62.6959 78.9883L58.833 85.0934C58.833 85.0934 70.0439 93.4772 78.4521 93.5625C85.264 93.6356 75.6129 75.686 71.7621 68.9594C70.7995 67.2778 70.178 65.4499 69.9465 63.5855C69.5687 60.5512 68.9838 56.1034 68.7279 55.3113C68.0333 53.1666 67.2412 54.3974 67.3753 56.3593Z" fill="white"/>
<path fill-rule="evenodd" clip-rule="evenodd" d="M78.4888 93.8306C78.4726 93.8306 78.4563 93.8306 78.4401 93.8306C70.0441 93.7453 59.1256 85.6539 58.6747 85.3127C58.5528 85.2274 58.5285 85.069 58.6016 84.9594L62.4645 78.8421C62.4889 78.7934 62.5376 78.7568 62.5985 78.7324C62.7082 78.6959 65.255 77.855 70.6168 82.2297C70.4462 81.0599 69.1545 77.2092 66.7539 70.7629L66.6564 70.4948C66.1446 69.1178 63.878 67.0462 61.8796 65.2306C59.6861 63.2443 58.4554 62.0866 58.4675 61.3677C58.4675 61.2093 58.5407 61.063 58.6625 60.9534C59.1499 60.5268 59.8445 60.6487 60.5026 60.9168C58.8819 59.2473 57.5902 57.6266 57.7851 56.5055C57.8583 56.0912 58.0898 55.945 58.2726 55.8962C59.1256 55.6525 60.9169 57.2611 62.1477 58.504C61.8186 57.6876 61.4165 56.5908 61.0387 55.4088C60.6001 53.9709 61.0875 53.6053 61.319 53.52C61.8308 53.3129 62.5132 53.8368 62.9397 54.7386C63.1225 55.1164 63.5368 55.8719 63.9268 56.5908C63.8455 56.2578 63.744 55.8759 63.6221 55.4454C63.2687 54.1171 63.3419 53.3616 63.8415 53.191C64.5117 52.9717 65.3403 54.1293 65.8399 55.2991C66.2177 56.2131 66.7904 57.5657 67.2169 58.5527C67.1926 57.9678 67.156 57.2245 67.1073 56.3715C67.022 55.2382 67.2291 54.044 67.8628 53.9221C68.3015 53.8368 68.6671 54.2755 68.9839 55.226C69.2398 56.0181 69.7881 60.1856 70.2147 63.5489C70.434 65.389 71.0433 67.1559 71.9938 68.8254C76.1735 76.1247 82.8635 88.9563 80.6457 92.7339C80.2192 93.465 79.488 93.8306 78.4888 93.8306ZM59.1987 85.0325C60.7341 86.1414 70.8361 93.2091 78.4522 93.2944C79.2809 93.3066 79.8536 93.0385 80.1826 92.4658C81.6815 89.9068 78.4522 81.1696 71.5307 69.0935C70.5315 67.3631 69.91 65.523 69.6785 63.622C69.0814 58.8939 68.6549 55.9815 68.4721 55.3966C68.1796 54.5193 67.9603 54.4461 67.9603 54.4461C67.8384 54.4949 67.5581 55.1407 67.6434 56.3349C67.7897 58.4674 67.7775 59.9176 67.7775 59.9297C67.7775 60.0516 67.6922 60.1613 67.5703 60.1856C67.4485 60.21 67.3144 60.1491 67.2657 60.0272C67.2535 60.0029 65.9984 57.0905 65.3403 55.5063C64.792 54.2024 64.1583 53.6784 64.0121 53.7028C64.0121 53.7028 63.7927 53.9587 64.1461 55.2991C64.7554 57.5657 64.9016 58.309 64.9138 58.3456C64.9382 58.4674 64.8651 58.6015 64.7432 58.6502C64.6214 58.699 64.4751 58.638 64.4142 58.5284C64.3533 58.4187 62.8544 55.8231 62.4523 54.9701C62.1111 54.239 61.6602 53.9587 61.514 54.0196C61.4165 54.0562 61.2947 54.4096 61.5627 55.2382C62.2939 57.6023 63.2078 59.6251 63.2078 59.6495C63.2687 59.7713 63.22 59.9176 63.1103 59.9785C63.0007 60.0516 62.8544 60.0394 62.7691 59.9419C61.124 58.1141 58.9915 56.2496 58.4188 56.408C58.4066 56.4202 58.3457 56.4324 58.3213 56.5908C58.102 57.8094 60.6488 60.3319 61.7333 61.4042C62.0136 61.6723 62.2086 61.8673 62.3183 61.9891C62.3792 62.0744 62.5498 62.2694 62.3792 62.4522C62.2086 62.635 62.038 62.5131 61.7943 62.3303C60.3929 61.3067 59.4546 60.9899 59.0037 61.3677C58.8697 61.7698 60.8925 63.6099 62.233 64.8284C64.2802 66.6929 66.6077 68.8132 67.1682 70.312L67.2657 70.5801C71.3479 81.5961 71.3967 82.6441 71.0067 82.9122C70.9458 82.9609 70.763 83.0462 70.5193 82.8512C65.8034 78.9152 63.3297 79.1346 62.8544 79.2199L59.1987 85.0325Z" fill="#0E1412"/>
<path d="M56.3596 54.6411C52.9232 52.7401 48.9872 53.3981 46.416 55.1042C43.1624 57.261 42.3825 60.9411 41.8342 63.5367C40.8593 68.1308 42.4069 69.1666 41.3711 71.9815C39.5554 76.9776 33.8403 76.1125 30.9888 80.2678C26.6385 86.5922 30.7938 101.849 40.5303 104.956C47.0253 107.028 53.435 102.483 55.1776 101.24C60.4662 97.4863 66.1204 89.9921 64.9019 82.7781C63.9026 76.807 58.5896 73.3097 60.1616 67.5093C60.5515 66.0348 61.1121 65.4864 61.1974 63.7682C61.3436 60.9899 60.1981 56.7736 56.3596 54.6411Z" fill="#0E1412"/>
<path d="M48.853 58.2603C49.8279 56.7371 47.9391 53.8368 46.5255 52.3989C45.9893 51.8627 43.6131 49.4499 41.7731 50.1811C39.8843 50.9244 39.1044 54.7751 40.6398 57.1148C42.5529 60.0394 47.7197 60.0394 48.853 58.2603Z" fill="#0E1412"/>
<path d="M31.9758 127.805C38.3612 129.035 53.5203 131.558 63.6832 129.998C65.8767 129.669 67.473 127.731 67.3877 125.501C66.8394 117.824 64.1707 109.94 65.6817 96.6943C65.9376 94.4399 67.7167 92.6486 69.9833 92.3927L69.5812 80.4993C69.5812 80.4993 61.0024 76.3074 52.1067 76.9167C47.6102 77.2214 42.6628 79.4757 38.873 81.6326C34.9857 83.8261 32.9263 88.2373 33.6818 92.6242L35.6437 103.969C36.2287 107.345 35.8387 110.83 34.4983 113.998L30.1358 124.38C29.5265 125.843 30.416 127.5 31.9758 127.805Z" fill="#0E1412"/>
<path fill-rule="evenodd" clip-rule="evenodd" d="M56.2863 130.766C47.086 130.766 36.7037 128.987 31.9269 128.073C31.0983 127.902 30.3915 127.39 30.0015 126.647C29.6116 125.916 29.5629 125.051 29.8919 124.271L34.2544 113.888C35.5704 110.769 35.9604 107.345 35.3755 104.006L33.4257 92.6729C32.6459 88.1764 34.7784 83.6433 38.7388 81.4011C42.2361 79.4148 47.4029 76.9655 52.0822 76.6486C60.9535 76.0393 69.6054 80.2191 69.6907 80.2556C69.7882 80.3044 69.8369 80.3897 69.8491 80.4871L70.2512 92.3805C70.2512 92.5267 70.1537 92.6486 70.0075 92.6608C67.8628 92.9045 66.1933 94.5739 65.9496 96.7308C64.8773 106.041 65.8887 112.658 66.7783 118.495C67.1438 120.92 67.4972 123.211 67.6556 125.477C67.7531 127.853 66.0593 129.913 63.7196 130.266C61.4409 130.62 58.9184 130.766 56.2863 130.766ZM32.0244 127.536C38.1416 128.719 53.4592 131.302 63.6465 129.742C65.7059 129.425 67.2048 127.61 67.1195 125.514C66.961 123.271 66.6077 120.993 66.2421 118.58C65.3525 112.706 64.3411 106.053 65.4134 96.6699C65.6815 94.3546 67.4241 92.5267 69.7029 92.1611L69.3129 80.6699C68.1553 80.1338 60.2223 76.6364 52.1188 77.1848C47.5369 77.5016 42.4554 79.9022 38.9947 81.8641C35.2414 83.9967 33.2064 88.3104 33.9497 92.5876L35.9117 103.92C36.5088 107.357 36.1066 110.879 34.754 114.096L30.3915 124.478C30.1234 125.099 30.16 125.806 30.4768 126.403C30.7936 127 31.3542 127.415 32.0244 127.536Z" fill="#0E1412"/>
<path d="M50.4974 67.095C50.4731 67.2534 49.4373 71.2259 48.5599 75.2229C48.3162 76.3562 47.8166 77.4041 46.7686 77.9038L43.4784 79.4757C43.0519 79.6829 43.0641 80.3044 43.5028 80.4993C45.5744 81.4011 50.339 83.2655 54.1532 81.6448C61.1478 78.6593 58.4304 76.9533 56.3344 76.2343C55.4083 75.9175 54.799 75.0279 54.8234 74.0409C54.86 72.8467 54.9087 71.3478 54.9331 70.4704C55.4611 70.6573 55.9729 70.7832 56.4685 70.8482C57.1021 70.9335 57.7358 70.4948 57.8577 69.8611C58.0648 68.8253 58.4426 67.4849 58.5279 66.9C58.5522 66.7538 58.6497 66.6319 58.796 66.571C59.1128 66.4613 59.4906 66.4491 59.7099 66.0714C59.7952 65.9129 59.7708 65.7302 59.6733 65.5839C58.735 64.3897 58.9666 62.0013 58.6619 60.868C57.553 56.7858 51.6551 59.7591 50.4974 67.095Z" fill="white"/>
<path fill-rule="evenodd" clip-rule="evenodd" d="M50.7778 82.5587C48.6452 82.5587 46.1837 81.9494 43.3932 80.743C43.1007 80.6212 42.9057 80.3287 42.8936 79.9997C42.8936 79.6707 43.0763 79.3782 43.3688 79.2442L46.659 77.66C47.4754 77.2579 48.0116 76.4536 48.2919 75.1741C48.9377 72.2374 49.6689 69.3128 50.0222 67.8992C50.1319 67.4605 50.2294 67.095 50.2416 67.0462C51.0215 62.0257 53.9948 58.8939 56.4076 58.7599C57.6384 58.6868 58.5523 59.4301 58.9179 60.7949C59.0275 61.197 59.0763 61.7454 59.125 62.3181C59.2103 63.427 59.32 64.6944 59.8805 65.4255C60.0633 65.657 60.0877 65.9617 59.9415 66.2054C59.7221 66.5831 59.3809 66.6806 59.1007 66.7659C59.0275 66.7822 58.9544 66.8025 58.8813 66.8269C58.8326 66.8512 58.8082 66.8878 58.796 66.9365C58.7473 67.2534 58.6254 67.753 58.4914 68.3379C58.3573 68.8497 58.2233 69.4224 58.1258 69.9221C57.9674 70.6776 57.2119 71.2137 56.432 71.1163C56.0258 71.0594 55.6155 70.966 55.2012 70.836C55.1646 71.7256 55.1281 73.0051 55.0915 74.053C55.0672 74.9182 55.6033 75.6981 56.4198 75.9784C58.0527 76.5389 58.8935 77.2579 58.9301 78.1231C58.9666 79.2929 57.4434 80.5359 54.2507 81.8885C53.219 82.3353 52.0613 82.5587 50.7778 82.5587ZM50.7656 67.1315C50.7534 67.1803 50.7046 67.3874 50.5462 68.0333C50.1928 69.4346 49.4617 72.3592 48.8158 75.2838C48.499 76.7339 47.8654 77.6722 46.8905 78.1475L43.6003 79.7194C43.4419 79.8047 43.4297 79.951 43.4297 79.9875C43.4419 80.0363 43.4541 80.1825 43.6125 80.2556C47.9385 82.12 51.448 82.51 54.0436 81.4011C57.8699 79.7682 58.4061 78.6593 58.3939 78.1353C58.3695 77.5382 57.6018 76.9533 56.2492 76.4902C55.2012 76.1246 54.5188 75.1376 54.5554 74.0287C54.5919 72.8345 54.6407 71.3356 54.665 70.4704C54.665 70.3729 54.7138 70.2998 54.7869 70.2511C54.86 70.2023 54.9453 70.1901 55.0306 70.2145C55.5302 70.3973 56.0298 70.5192 56.5051 70.5801C57.0169 70.641 57.5043 70.2998 57.6018 69.8124C57.6993 69.3128 57.8333 68.7278 57.9674 68.216C58.0892 67.6677 58.2233 67.1437 58.2598 66.8512C58.2964 66.6075 58.467 66.4125 58.6985 66.3272C58.7798 66.2948 58.8651 66.2663 58.9544 66.2419C59.2103 66.1688 59.3687 66.1201 59.4784 65.9373C59.5028 65.8764 59.5028 65.8033 59.454 65.7545C58.796 64.8893 58.6863 63.5489 58.5889 62.3669C58.5401 61.8063 58.4914 61.2945 58.3939 60.9289C58.1014 59.82 57.4068 59.2473 56.4442 59.296C54.2873 59.4179 51.4967 62.44 50.7656 67.1315Z" fill="#0E1412"/>
<path d="M54.568 70.6045C54.5436 70.6045 54.5192 70.6045 54.4948 70.6045C52.5695 70.1049 51.6312 68.6669 51.5824 68.606C51.5093 68.472 51.5459 68.3136 51.6677 68.2283C51.7896 68.1551 51.9602 68.1917 52.0455 68.3135C52.0455 68.3257 52.9229 69.6418 54.6289 70.0805C54.7751 70.117 54.8604 70.2633 54.8239 70.4095C54.7873 70.5314 54.6898 70.6045 54.568 70.6045Z" fill="#0E1412"/>
<path d="M53.7276 66.1201C53.4108 68.2404 53.0452 68.6791 53.0452 68.6791C53.0452 68.6791 52.8137 65.6205 52.704 63.9145C52.4847 60.6121 50.9492 60.405 50.8761 63.3661C50.8152 65.7058 50.7421 66.4491 50.7421 66.4491C50.7421 66.4491 50.0231 63.4758 49.8769 62.5619C49.6332 60.9168 47.9881 60.8193 48.1953 62.7081C48.4755 65.1818 48.963 67.7652 48.963 67.7652C48.963 67.7652 47.2935 64.999 46.6355 63.8901C45.9287 62.6959 44.5517 62.964 45.161 64.4994C45.819 66.181 46.9036 68.606 47.257 69.3615C47.5982 70.1171 45.7703 66.9 44.4055 67.5215C43.1382 68.1064 45.2707 69.7149 46.4892 72.1399C48.2196 75.6007 49.3042 75.4788 49.5113 78.4887C49.7429 82.0226 49.9622 88.9929 50.0719 90.443C50.1206 91.1254 49.4382 90.5039 48.5486 89.4072C46.9158 87.4209 39.7505 92.1124 42.3826 95.0492C45.4169 98.4368 49.6819 102.385 53.9713 103.64C60.4542 105.541 56.3232 85.8611 54.5441 78.4156C54.1054 76.5512 54.0201 74.6502 54.3247 72.8101C54.8243 69.8246 55.3239 66.5223 55.3971 65.7058C55.5677 63.7073 54.0932 63.6586 53.7276 66.1201Z" fill="white"/>
<path fill-rule="evenodd" clip-rule="evenodd" d="M54.7875 104.042C54.5113 104.042 54.2107 103.998 53.8858 103.908C49.4623 102.604 45.0754 98.4734 42.1752 95.232C41.5415 94.513 41.3709 93.6356 41.7 92.6973C42.3702 90.772 44.8805 89.0538 46.7205 88.7247C47.6344 88.5541 48.3412 88.7369 48.7555 89.2365C49.3161 89.9311 49.6329 90.2236 49.7913 90.3576C49.7548 89.7118 49.6938 88.2861 49.6207 86.4947C49.5111 83.8626 49.377 80.5846 49.243 78.5009C49.1211 76.7096 48.6702 76.0759 47.9391 75.0401C47.4882 74.3942 46.9155 73.59 46.2453 72.2617C45.8188 71.4087 45.2704 70.6532 44.7952 69.9952C44.1128 69.0691 43.6253 68.3988 43.7715 67.8383C43.8365 67.5946 44.0112 67.4077 44.2955 67.2777C44.9901 66.9609 45.7335 67.4118 46.3306 67.9723C45.8797 66.9365 45.307 65.6205 44.9048 64.5969C44.5393 63.6829 44.8195 63.1468 45.2095 62.964C45.6482 62.7446 46.3793 62.9518 46.8667 63.7439C47.2323 64.3775 47.9147 65.5108 48.4509 66.3882C48.2803 65.4133 48.0731 64.0485 47.9269 62.7324C47.805 61.587 48.3047 61.1117 48.7677 61.0508C49.3161 60.9777 49.9863 61.4651 50.1447 62.5131C50.2056 62.9274 50.3884 63.7439 50.5712 64.5359C50.5793 64.1947 50.5915 63.8048 50.6078 63.3661C50.6443 61.9038 51.0343 61.0264 51.6436 61.0143C51.6517 61.0143 51.6558 61.0143 51.6558 61.0143C52.3503 61.0143 52.85 62.111 52.9718 63.9023C53.0328 64.8893 53.1424 66.3516 53.2155 67.3874C53.3008 67.0462 53.3861 66.6197 53.4593 66.0835C53.6908 64.5359 54.3488 63.9145 54.8972 63.9754C55.3115 64.0241 55.7746 64.5116 55.6649 65.7302C55.604 66.5222 55.1165 69.7149 54.5925 72.8588C54.3001 74.6623 54.361 76.5146 54.8119 78.3546C56.7372 86.4216 59.4912 100.423 56.3107 103.445C55.8883 103.843 55.3805 104.042 54.7875 104.042ZM47.342 89.2C47.1592 89.2 46.9764 89.2244 46.818 89.2487C45.1242 89.5534 42.7967 91.1741 42.2118 92.8801C41.9437 93.6356 42.0777 94.3058 42.5773 94.8664C45.4288 98.0591 49.7304 102.129 54.0442 103.384C54.8362 103.616 55.4577 103.506 55.933 103.055C58.0899 101.008 57.4684 91.8199 54.2879 78.4765C53.8248 76.5633 53.7517 74.6502 54.0685 72.7735C54.5803 69.6418 55.0678 66.4613 55.1287 65.6814C55.2018 64.9137 54.9947 64.5238 54.8241 64.5116C54.6291 64.4872 54.1782 64.9503 53.9954 66.1688C53.6786 68.2892 53.3008 68.801 53.2521 68.8497C53.179 68.935 53.0693 68.9716 52.9596 68.935C52.8621 68.8985 52.789 68.801 52.7768 68.6913C52.7768 68.6669 52.5453 65.6205 52.4356 63.9388C52.3138 62.1353 51.8142 61.5504 51.6558 61.5504C51.5339 61.5504 51.1805 61.9891 51.144 63.3783C51.083 65.6936 51.0099 66.4491 51.0099 66.4735C50.9977 66.6075 50.8881 66.705 50.7662 66.7172C50.6321 66.7294 50.5103 66.6441 50.4737 66.51C50.4494 66.3882 49.7548 63.5123 49.6207 62.5984C49.5111 61.916 49.1333 61.5382 48.8408 61.5748C48.5971 61.6114 48.39 61.9647 48.4631 62.6715C48.7312 65.1087 49.2186 67.6921 49.2186 67.7164C49.243 67.8383 49.182 67.9723 49.0602 68.0211C48.9383 68.0576 48.7921 68.0089 48.7312 67.8992C48.7312 67.8992 47.0617 65.1452 46.4037 64.0241C46.099 63.5245 45.6725 63.3296 45.441 63.4514C45.2338 63.5489 45.2217 63.9267 45.4044 64.4019C46.0625 66.0714 47.1592 68.5207 47.5004 69.2518C47.537 69.3371 47.6466 69.5809 47.4273 69.7027C47.2201 69.8368 47.0861 69.6662 46.9033 69.4346C46.5134 68.935 45.3313 67.3996 44.5149 67.7652C44.3199 67.8627 44.2955 67.948 44.2955 67.9723C44.2102 68.2892 44.7099 68.9594 45.2217 69.6783C45.6969 70.3242 46.2818 71.1285 46.7327 72.018C47.3785 73.3097 47.9391 74.1018 48.3778 74.7355C49.1455 75.8078 49.6451 76.5146 49.7791 78.4765C49.9132 80.5603 50.0472 83.8382 50.1569 86.4704C50.23 88.2739 50.2909 89.8337 50.3397 90.4186C50.3641 90.7841 50.2178 90.9182 50.0838 90.9669C49.7913 91.0888 49.4136 90.8938 48.3412 89.5777C48.0975 89.2853 47.7197 89.2 47.342 89.2Z" fill="#0E1412"/>
<path d="M41.3099 97.8885C40.5422 97.8885 39.7623 97.5716 39.2261 96.9502L35.7897 93.0264C35.6922 92.9167 35.7044 92.7461 35.8141 92.6486C35.9238 92.5511 36.0944 92.5633 36.1919 92.673L39.6283 96.5968C40.4325 97.5107 41.8339 97.6082 42.76 96.8161C42.8697 96.7186 43.0403 96.7308 43.1378 96.8527C43.2353 96.9624 43.2231 97.133 43.1134 97.2305C42.5894 97.6691 41.9436 97.8885 41.3099 97.8885Z" fill="#0E1412"/>
<path d="M46.5989 27.1987C46.5136 27.1987 46.4283 27.1621 46.3796 27.089C46.2943 26.9671 46.3187 26.7965 46.4405 26.7112C53.423 21.7394 61.0147 17.8156 68.9964 15.0738C69.1427 15.0251 69.3011 15.0982 69.3498 15.2444C69.3986 15.3785 69.3133 15.5369 69.1792 15.5856C61.2463 18.3152 53.7033 22.2025 46.7574 27.1499C46.7086 27.1743 46.6477 27.1987 46.5989 27.1987Z" fill="#0E1412"/>
<path d="M34.1205 30.8179C34.0473 30.8179 33.9742 30.7935 33.9255 30.7326C33.828 30.6229 33.8402 30.4523 33.9498 30.3548C45.307 20.3624 58.1143 13.3434 72.0061 9.5049C72.1523 9.46835 72.2985 9.55365 72.3351 9.69988C72.3717 9.84611 72.2864 9.99234 72.1523 10.0289C58.3336 13.843 45.5995 20.8133 34.3032 30.7569C34.2545 30.8057 34.1814 30.8179 34.1205 30.8179Z" fill="#0E1412"/>
<path d="M87.4938 8.00606C87.4329 8.00606 87.3842 7.99387 87.3354 7.95731C87.2136 7.87201 87.177 7.70141 87.2623 7.57956L88.4687 5.87354C88.554 5.75169 88.7246 5.72731 88.8465 5.81262C88.9683 5.89792 88.9927 6.06852 88.9074 6.19037L87.7132 7.89639C87.6523 7.9695 87.567 8.00606 87.4938 8.00606Z" fill="#0E1412"/>
<path d="M84.6789 11.9786C84.6302 11.9786 84.5692 11.9664 84.5327 11.9299C84.4108 11.8446 84.3743 11.674 84.4596 11.5521L85.666 9.84611C85.7513 9.72425 85.9219 9.69988 86.0437 9.78518C86.1656 9.87048 86.19 10.0411 86.1047 10.1629L84.8983 11.8689C84.8495 11.9421 84.7642 11.9786 84.6789 11.9786Z" fill="#0E1412"/>
<path d="M85.5569 8.33507C85.496 8.33507 85.4472 8.32288 85.3985 8.28633L83.6925 7.07993C83.5706 6.99463 83.5463 6.83622 83.6316 6.71436C83.7169 6.5925 83.8875 6.55595 84.0093 6.64125L85.7153 7.84764C85.825 7.93294 85.8616 8.10354 85.7763 8.2254C85.7275 8.29851 85.6422 8.33507 85.5569 8.33507Z" fill="#0E1412"/>
<path d="M89.5286 11.15C89.4677 11.15 89.4189 11.1256 89.3702 11.1013L87.6642 9.89486C87.5423 9.80956 87.5179 9.63896 87.6032 9.5171C87.6885 9.39524 87.8591 9.37087 87.981 9.45617L89.687 10.6626C89.7967 10.7479 89.8332 10.9063 89.7479 11.0281C89.6992 11.1013 89.6139 11.15 89.5286 11.15Z" fill="#0E1412"/>
<path fill-rule="evenodd" clip-rule="evenodd" d="M78.3911 11.6496C78.0986 11.6496 77.7939 11.5887 77.5137 11.479C76.9531 11.2353 76.5144 10.7966 76.2829 10.236C76.0514 9.6755 76.0636 9.05403 76.2951 8.49348C76.5266 7.93293 76.9775 7.49425 77.538 7.26272C78.0986 7.04337 78.7201 7.04337 79.2806 7.2749C79.8412 7.51862 80.2677 7.95731 80.4992 8.51785C80.7307 9.0784 80.7307 9.69987 80.487 10.2604C80.2555 10.821 79.8168 11.2597 79.2562 11.4912C78.976 11.6009 78.6835 11.6496 78.3911 11.6496ZM78.3911 7.64048C78.1717 7.64048 77.9524 7.67703 77.733 7.76233C77.3065 7.94512 76.9775 8.27414 76.7947 8.70064C76.6119 9.12714 76.6119 9.60239 76.7825 10.0289C76.9531 10.4676 77.2943 10.7966 77.7208 10.9794C78.1473 11.1622 78.6226 11.1622 79.0491 10.9916C79.4756 10.8088 79.8168 10.4798 79.9996 10.0533C80.1702 9.62676 80.1824 9.15151 79.9996 8.72501C79.829 8.28632 79.5 7.95731 79.0735 7.77452C78.8541 7.68922 78.6226 7.64048 78.3911 7.64048Z" fill="#0E1412"/>
<path d="M122.394 18.1812C122.613 17.4988 122.955 16.8408 123.43 16.2315C125.648 13.4288 129.961 12.9779 133.069 15.2079C135.823 17.2064 136.688 20.6549 135.287 23.3602L136.03 23.8964L137.967 23.3114L139.454 24.6641C139.544 24.461 139.625 24.2579 139.698 24.0548C139.783 23.8232 139.99 23.6648 140.258 23.6526L142.184 23.5186C142.501 23.4942 142.744 23.2749 142.781 22.9824L142.927 21.4958C142.964 21.2033 142.769 20.9108 142.476 20.8012L140.624 20.1431C140.368 20.0456 140.197 19.8385 140.161 19.5948C140.12 19.2698 140.063 18.9489 139.99 18.6321C139.942 18.3884 140.039 18.1568 140.246 18.0106L141.806 16.987C142.062 16.8164 142.147 16.4996 142.013 16.2315L141.355 14.8301C141.221 14.5498 140.904 14.3792 140.6 14.428L138.686 14.7083C138.443 14.7448 138.175 14.6351 138.016 14.4402C137.813 14.1721 137.594 13.9121 137.358 13.6603C137.188 13.4653 137.139 13.2094 137.249 12.9901L138.004 11.3328C138.126 11.0647 138.028 10.7479 137.772 10.5651L136.469 9.62679C136.213 9.43182 135.872 9.43182 135.628 9.62679L134.178 10.7723C133.983 10.9185 133.702 10.955 133.459 10.8454C133.142 10.6991 132.821 10.5692 132.496 10.4554C132.252 10.3701 132.07 10.1508 132.045 9.90706L131.801 8.07919C131.765 7.78673 131.509 7.54302 131.192 7.49428L129.596 7.27493C129.291 7.22619 128.999 7.39679 128.889 7.66488L128.28 9.38307C128.194 9.6146 127.987 9.77302 127.731 9.7852C127.39 9.80145 127.049 9.83801 126.708 9.89488C126.452 9.93143 126.196 9.82176 126.038 9.6146L124.856 8.10357C124.673 7.84766 124.332 7.75018 124.039 7.85985L122.577 8.40821C122.297 8.51788 122.138 8.81034 122.199 9.1028L122.589 10.9063C122.65 11.15 122.552 11.3937 122.345 11.5278C122.069 11.7065 121.801 11.9015 121.541 12.1127C121.346 12.2589 121.078 12.2955 120.834 12.1858L119.031 11.3815C118.75 11.2475 118.409 11.3206 118.226 11.5521L117.288 12.7342C117.105 12.9657 117.13 13.2947 117.337 13.5262L118.629 14.9642C118.811 15.147 118.86 15.415 118.75 15.6344C118.718 15.7075 118.685 15.7806 118.653 15.8537L120.737 15.9268L122.394 18.1812Z" fill="#0E1412"/>
<path d="M139.941 28.4051L138.613 27.0037C138.443 26.8087 138.382 26.5528 138.479 26.3335C138.52 26.236 138.56 26.1385 138.601 26.041L137.078 24.7128L135.165 25.3464L134.409 24.8225C134.239 25.1637 134.035 25.4927 133.8 25.8095C131.643 28.6488 127.341 29.185 124.197 27.0037C121.724 25.2855 120.712 22.4097 121.431 19.8628L119.725 17.645L117.641 17.5963C117.552 17.8238 117.467 18.0512 117.386 18.2787C117.312 18.5102 117.105 18.6686 116.849 18.6808L114.912 18.8514C114.595 18.8758 114.363 19.1073 114.339 19.3998L114.205 20.8986C114.181 21.1911 114.388 21.4714 114.68 21.5689L116.545 22.2025C116.801 22.2878 116.983 22.495 117.02 22.7387C117.061 23.0636 117.122 23.3845 117.203 23.7014C117.264 23.9451 117.166 24.1888 116.959 24.3228L115.424 25.383C115.18 25.5536 115.095 25.8704 115.229 26.1507L115.923 27.5399C116.057 27.808 116.374 27.9664 116.679 27.9177L118.58 27.613C118.836 27.5643 119.104 27.6617 119.262 27.8689C119.473 28.1289 119.697 28.3848 119.932 28.6366C120.115 28.8194 120.164 29.0875 120.066 29.3068L119.335 30.9763C119.226 31.2444 119.323 31.5612 119.579 31.744L120.907 32.6579C121.163 32.8407 121.517 32.8285 121.748 32.6457L123.174 31.4759C123.369 31.3175 123.649 31.2809 123.881 31.3784C124.206 31.5165 124.53 31.6424 124.855 31.7562C125.111 31.8415 125.282 32.0486 125.319 32.2924L125.599 34.1202C125.648 34.4127 125.903 34.6442 126.22 34.693L127.817 34.8879C128.133 34.9245 128.414 34.7539 128.511 34.4736L129.096 32.7554C129.169 32.5239 129.376 32.3655 129.632 32.3411C129.973 32.3167 130.315 32.2761 130.656 32.2192C130.9 32.1705 131.168 32.2802 131.326 32.4751L132.532 33.974C132.727 34.2177 133.069 34.3152 133.361 34.1933L134.799 33.6206C135.092 33.5109 135.238 33.2185 135.177 32.926L134.738 31.1225C134.677 30.8788 134.775 30.6351 134.982 30.501C135.25 30.3142 135.51 30.1152 135.762 29.9039C135.957 29.7455 136.225 29.709 136.469 29.8186L138.284 30.5863C138.577 30.7082 138.906 30.6351 139.088 30.3914L140.002 29.1972C140.173 28.9656 140.149 28.6366 139.941 28.4051Z" fill="#0E1412"/>
</g>
<defs>
<clipPath id="clip0_637_5543">
<rect width="223" height="223" fill="white"/>
</clipPath>
</defs>
</svg>
