<svg width="296" height="296" viewBox="0 0 296 296" fill="none" xmlns="http://www.w3.org/2000/svg">
<path d="M245.557 214.687L253.464 214.522L257.358 214.456C258.654 214.428 259.942 214.434 261.234 214.423L260.97 214.687L260.938 208.063L261.233 208.358L253.395 208.321C250.783 208.318 248.169 208.254 245.557 208.224L245.719 208.062C245.707 209.146 245.668 210.236 245.641 211.339L245.557 214.687ZM245.557 214.687L245.473 211.41C245.446 210.304 245.407 209.187 245.395 208.063L245.394 207.903L245.557 207.901C248.169 207.871 250.783 207.807 253.395 207.804L261.233 207.767L261.53 207.765L261.529 208.063L261.497 214.687L261.496 214.953L261.233 214.95C259.912 214.94 258.587 214.946 257.27 214.918L253.326 214.852L245.557 214.687Z" fill="#EBEBEB"/>
<path d="M254.302 223.04L262.209 222.875L266.104 222.809C267.399 222.781 268.687 222.787 269.979 222.776L269.715 223.04L269.683 216.416L269.978 216.711L262.14 216.674C259.528 216.671 256.915 216.608 254.302 216.577L254.464 216.415C254.452 217.499 254.413 218.59 254.386 219.693L254.302 223.04ZM254.302 223.04L254.218 219.763C254.191 218.658 254.152 217.54 254.14 216.416L254.139 216.256L254.302 216.254C256.915 216.224 259.528 216.16 262.14 216.157L269.978 216.12L270.275 216.119L270.274 216.416L270.242 223.04L270.241 223.306L269.978 223.304C268.657 223.293 267.333 223.299 266.015 223.271L262.071 223.205L254.302 223.04Z" fill="#EBEBEB"/>
<path d="M236.812 223.04L244.719 222.875L248.614 222.809C249.909 222.781 251.197 222.787 252.489 222.776L252.225 223.04L252.193 216.416L252.488 216.711L244.65 216.674C242.038 216.671 239.425 216.608 236.812 216.577L236.974 216.415C236.963 217.499 236.923 218.59 236.896 219.693L236.812 223.04ZM236.812 223.04L236.728 219.763C236.702 218.658 236.662 217.54 236.651 216.416L236.649 216.256L236.812 216.254C239.425 216.224 242.038 216.16 244.65 216.157L252.488 216.12L252.786 216.119L252.784 216.416L252.753 223.04L252.751 223.306L252.488 223.304C251.167 223.293 249.843 223.299 248.525 223.271L244.582 223.205L236.812 223.04Z" fill="#EBEBEB"/>
<path d="M124.202 66.281L132.109 66.1159L136.003 66.0496C137.299 66.0217 138.587 66.0277 139.879 66.017L139.615 66.281L139.583 59.6566L139.878 59.952L132.04 59.9147C129.428 59.9117 126.814 59.8478 124.202 59.8176L124.364 59.656C124.352 60.7399 124.313 61.8304 124.286 62.9333L124.202 66.281ZM124.202 66.281L124.118 63.0037C124.091 61.8985 124.052 60.7808 124.04 59.6566L124.039 59.4967L124.202 59.4949C126.814 59.4648 129.428 59.4008 132.04 59.3979L139.878 59.3606L140.175 59.3594L140.174 59.6566L140.142 66.281L140.141 66.5469L139.878 66.5445C138.557 66.5338 137.232 66.5397 135.915 66.5119L131.971 66.4456L124.202 66.281Z" fill="#EBEBEB"/>
<path d="M34.7664 223.04L42.6732 222.875L46.5679 222.809C47.8632 222.781 49.1514 222.787 50.4432 222.776L50.1791 223.04L50.1472 216.416L50.4426 216.711L42.6045 216.674C39.992 216.671 37.3789 216.608 34.7664 216.577L34.928 216.416C34.9168 217.5 34.8771 218.591 34.8505 219.694L34.7664 223.04ZM34.7664 223.04L34.6824 219.763C34.6557 218.658 34.6161 217.54 34.6048 216.416L34.603 216.256L34.7664 216.254C37.3789 216.224 39.992 216.16 42.6045 216.157L50.4426 216.12L50.7398 216.119L50.7386 216.416L50.7066 223.04L50.7054 223.306L50.4426 223.304C49.1212 223.293 47.7969 223.299 46.4791 223.271L42.5358 223.205L34.7664 223.04Z" fill="#EBEBEB"/>
<path d="M34.7664 34.2461L42.6732 34.081L46.5679 34.0147C47.8632 33.9868 49.1514 33.9928 50.4432 33.9821L50.1791 34.2461L50.1472 27.6216L50.4426 27.9171L42.6045 27.8798C39.992 27.8768 37.3789 27.8135 34.7664 27.7827L34.928 27.6216C34.9168 28.7056 34.8771 29.7961 34.8505 30.899L34.7664 34.2461ZM34.7664 34.2461L34.6824 30.9688C34.6557 29.8636 34.6161 28.7459 34.6048 27.6216L34.603 27.4618L34.7664 27.46C37.3789 27.4298 39.992 27.3659 42.6045 27.3629L50.4426 27.3256L50.7398 27.3245L50.7386 27.6216L50.7066 34.2461L50.7054 34.5119L50.4426 34.5102C49.1212 34.4995 47.7969 34.5054 46.4791 34.4776L42.5358 34.4113L34.7664 34.2461Z" fill="#EBEBEB"/>
<path d="M26.0213 42.5987L33.9281 42.4335L37.8228 42.3672C39.1181 42.3394 40.4063 42.3453 41.6981 42.3346L41.434 42.5987L41.4021 35.9742L41.6975 36.2696L33.8594 36.2323C31.2469 36.2293 28.6338 36.166 26.0213 36.1352L26.1829 35.9736C26.1717 37.0575 26.132 38.148 26.1054 39.2509L26.0213 42.5987ZM26.0213 42.5987L25.9372 39.3214C25.9106 38.2161 25.8709 37.0984 25.8597 35.9742L25.8579 35.8143L26.0213 35.8126C28.6338 35.7824 31.2469 35.7184 33.8594 35.7155L41.6975 35.6782L41.9946 35.677L41.9935 35.9742L41.9615 42.5987L41.9603 42.8645L41.6975 42.8621C40.3761 42.8515 39.0518 42.8574 37.734 42.8295L33.7907 42.7632L26.0213 42.5987Z" fill="#EBEBEB"/>
<path d="M254.302 34.2532L262.209 34.088L266.104 34.0217C267.399 33.9939 268.687 33.9998 269.979 33.9892L269.715 34.2532L269.683 27.6287L269.978 27.9241L262.14 27.8868C259.528 27.8839 256.915 27.8205 254.302 27.7898L254.464 27.6281C254.452 28.7121 254.413 29.8026 254.386 30.9054L254.302 34.2532ZM254.302 34.2532L254.218 30.9759C254.191 29.8706 254.152 28.7529 254.14 27.6287L254.139 27.4689L254.302 27.4671C256.915 27.4369 259.528 27.373 262.14 27.37L269.978 27.3327L270.275 27.3315L270.274 27.6287L270.242 34.2532L270.241 34.519L269.978 34.5172C268.657 34.5066 267.333 34.5125 266.015 34.4847L262.071 34.4184L254.302 34.2532Z" fill="#EBEBEB"/>
<path d="M114.721 171.269L106.815 171.434L102.92 171.5C101.625 171.528 100.336 171.522 99.0446 171.533L99.3087 171.269L99.3406 177.893L99.0452 177.598L106.883 177.635C109.496 177.638 112.109 177.701 114.721 177.732L114.56 177.894C114.571 176.81 114.611 175.719 114.637 174.616L114.721 171.269ZM114.721 171.269L114.805 174.546C114.832 175.651 114.872 176.769 114.883 177.893L114.885 178.053L114.721 178.055C112.109 178.085 109.496 178.149 106.883 178.152L99.0452 178.189L98.748 178.19L98.7492 177.893L98.7812 171.269L98.7824 171.003L99.0452 171.005C100.367 171.016 101.691 171.01 103.009 171.038L106.952 171.104L114.721 171.269Z" fill="#EBEBEB"/>
<path d="M105.976 162.915L98.0695 163.081L94.1748 163.147C92.8795 163.175 91.5913 163.169 90.2995 163.179L90.5636 162.915L90.5955 169.54L90.3001 169.245L98.1382 169.282C100.751 169.285 103.364 169.348 105.976 169.379L105.815 169.541C105.826 168.457 105.866 167.366 105.892 166.263L105.976 162.915ZM105.976 162.915L106.06 166.193C106.087 167.298 106.127 168.416 106.138 169.54L106.14 169.7L105.976 169.702C103.364 169.732 100.751 169.796 98.1382 169.799L90.3001 169.836L90.0029 169.837L90.0041 169.54L90.0361 162.915L90.0373 162.65L90.3001 162.651C91.6215 162.662 92.9458 162.656 94.2636 162.684L98.2069 162.75L105.976 162.915Z" fill="#EBEBEB"/>
<path d="M83.6525 60.9962C87.5932 50.858 82.5691 39.4449 72.4309 35.5043C62.2927 31.5636 50.8795 36.5877 46.9389 46.7259C42.9982 56.8641 48.0223 68.2773 58.1605 72.2179C68.2988 76.1586 79.7119 71.1344 83.6525 60.9962Z" fill="#EBEBEB"/>
<path d="M66.1952 73.0937C76.5736 73.0937 84.987 64.6803 84.987 54.3019C84.987 43.9234 76.5736 35.51 66.1952 35.51C55.8167 35.51 47.4033 43.9234 47.4033 54.3019C47.4033 64.6803 55.8167 73.0937 66.1952 73.0937Z" fill="#DBDBDB"/>
<path d="M83.6685 56.4051C84.8305 46.7519 77.9472 37.9845 68.2942 36.8226C58.6413 35.6607 49.8742 42.5443 48.7123 52.1975C47.5503 61.8508 54.4336 70.6182 64.0865 71.7801C73.7394 72.9419 82.5066 66.0583 83.6685 56.4051Z" fill="white"/>
<path opacity="0.5" d="M83.4018 50.5657C75.3849 55.4231 62.2088 63.3914 54.8443 67.7598C52.7782 66.0157 51.1206 63.8064 50.0337 61.2916L74.3903 38.718C78.9257 41.1056 82.2894 45.4171 83.4018 50.5657Z" fill="#EBEBEB"/>
<path opacity="0.5" d="M83.7876 54.9165C83.7207 56.9275 83.314 58.8527 82.6244 60.6376L60.6665 71.0219C59.7033 70.7028 58.7756 70.3038 57.8936 69.8302C64.5263 65.997 76.6469 59.0232 83.7876 54.9165Z" fill="#EBEBEB"/>
<path d="M66.3653 37.9746H66.0249V40.6433H66.3653V37.9746Z" fill="#C7C7C7"/>
<path d="M58.1835 40.0761L57.8887 40.2463L59.223 42.5577L59.5179 42.3875L58.1835 40.0761Z" fill="#C7C7C7"/>
<path d="M52.1429 45.9921L51.9727 46.2869L54.2838 47.6215L54.454 47.3267L52.1429 45.9921Z" fill="#C7C7C7"/>
<path d="M52.5363 54.1321H49.8682V54.4725H52.5363V54.1321Z" fill="#C7C7C7"/>
<path d="M54.2794 60.984L51.9683 62.3184L52.1385 62.6131L54.4496 61.2788L54.2794 60.984Z" fill="#C7C7C7"/>
<path d="M59.2165 66.0477L57.8838 68.3591L58.1787 68.5292L59.5114 66.2177L59.2165 66.0477Z" fill="#C7C7C7"/>
<path d="M66.3653 67.9607H66.0249V70.6294H66.3653V67.9607Z" fill="#C7C7C7"/>
<path d="M73.1693 66.0444L72.8745 66.2146L74.2086 68.5252L74.5034 68.355L73.1693 66.0444Z" fill="#C7C7C7"/>
<path d="M78.1062 60.9823L77.936 61.2771L80.2472 62.6115L80.4174 62.3167L78.1062 60.9823Z" fill="#C7C7C7"/>
<path d="M82.5221 54.1321H79.854V54.4725H82.5221V54.1321Z" fill="#C7C7C7"/>
<path d="M80.2486 45.9908L77.9375 47.3252L78.1077 47.62L80.4188 46.2856L80.2486 45.9908Z" fill="#C7C7C7"/>
<path d="M74.2075 40.0741L72.8745 42.386L73.1694 42.556L74.5024 40.2441L74.2075 40.0741Z" fill="#C7C7C7"/>
<path d="M66.451 39.1834L67.03 55.49L65.3594 55.4693L65.9976 39.1775L66.451 39.1834Z" fill="#C7C7C7"/>
<path d="M76.6082 48.6152L65.6373 55.618L64.8398 54.1504L76.3915 48.2168L76.6082 48.6152Z" fill="#A6A6A6"/>
<path d="M66.7652 54.3018C66.7652 54.6167 66.51 54.8719 66.1951 54.8719C65.8802 54.8719 65.625 54.6167 65.625 54.3018C65.625 53.9868 65.8802 53.7317 66.1951 53.7317C66.51 53.7317 66.7652 53.9868 66.7652 54.3018Z" fill="#C7C7C7"/>
<path d="M246.21 27.6218H171.747V124.314H246.21V27.6218Z" fill="#DBDBDB"/>
<path d="M206.973 32.4436H176.45V74.1447H206.973V32.4436Z" fill="white"/>
<path d="M241.506 32.4436H210.983V74.1447H241.506V32.4436Z" fill="white"/>
<path d="M206.973 77.7915H176.45V119.493H206.973V77.7915Z" fill="white"/>
<path d="M241.506 77.7915H210.983V119.493H241.506V77.7915Z" fill="white"/>
<path d="M174.428 27.6213H153.987V158.394H174.428V27.6213Z" fill="#EBEBEB"/>
<path d="M170.552 35.8091L170.71 54.4293L170.767 61.2094L170.876 98.4498L170.768 123.85L170.71 124.71L170.552 143.33L170.393 124.71L170.336 123.85L170.229 98.4498L170.337 61.2094L170.394 54.4293L170.552 35.8091Z" fill="white"/>
<path d="M161.166 40.1272L161.324 44.9129L161.414 61.5392L161.49 94.7913L161.415 116.204L161.324 126.91L161.166 131.696L161.007 126.91L160.916 116.204L160.842 94.7913L160.917 61.5392L161.008 44.9129L161.166 40.1272Z" fill="white"/>
<path d="M165.859 44.052L166.016 51.6799L166.074 71.1484L166.183 98.2443L166.074 125.34L166.018 138.888L165.859 158.356L165.7 138.888L165.643 125.34L165.535 98.2443L165.644 71.1484L165.701 51.6799L165.859 44.052Z" fill="white"/>
<path d="M157.675 36.7905L157.833 45.326L157.89 65.702L157.999 106.454L157.891 123.524L157.834 137.98L157.675 158.356L157.516 137.98L157.459 123.524L157.352 106.454L157.46 65.702L157.517 45.326L157.675 36.7905Z" fill="white"/>
<path d="M243.529 158.394H263.97V27.6213H243.529L243.529 158.394Z" fill="#EBEBEB"/>
<path d="M247.404 35.8091L247.562 54.4293L247.619 61.2094L247.728 98.4498L247.62 123.85L247.563 124.71L247.404 143.33L247.245 124.71L247.188 123.85L247.081 98.4498L247.189 61.2094L247.246 54.4293L247.404 35.8091Z" fill="white"/>
<path d="M256.791 40.1272L256.948 44.9129L257.039 61.5392L257.115 94.7913L257.04 116.204L256.949 126.91L256.791 131.696L256.631 126.91L256.541 116.204L256.466 94.7913L256.542 61.5392L256.633 44.9129L256.791 40.1272Z" fill="white"/>
<path d="M252.097 44.052L252.255 51.6799L252.312 71.1484L252.421 98.2443L252.313 125.34L252.256 138.888L252.097 158.356L251.939 138.888L251.882 125.34L251.773 98.2443L251.882 71.1484L251.94 51.6799L252.097 44.052Z" fill="white"/>
<path d="M260.281 36.7905L260.439 45.326L260.496 65.702L260.605 106.454L260.497 123.524L260.44 137.98L260.281 158.356L260.122 137.98L260.065 123.524L259.957 106.454L260.066 65.702L260.123 45.326L260.281 36.7905Z" fill="white"/>
<path d="M115.396 243.833H53.9173L51.438 194.921H117.876L115.396 243.833Z" fill="#EBEBEB"/>
<path d="M58.7266 200.33H110.588L109.653 217.311H59.8176L58.7266 200.33ZM109.951 200.932H59.3677L60.3806 216.709H109.083L109.951 200.932Z" fill="#DBDBDB"/>
<path d="M59.7783 221.518H108.463L107.701 236.846H60.7362L59.7783 221.518ZM107.831 222.12H60.4189L61.3015 236.244H107.128L107.831 222.12Z" fill="#DBDBDB"/>
<path d="M79.4082 206.566H88.8388L88.3107 210.661H79.9369L79.4082 206.566ZM88.1544 207.168H80.092L80.4649 210.06H87.7814L88.1544 207.168Z" fill="#DBDBDB"/>
<path d="M79.4082 227.134H88.8388L88.3107 231.229H79.9369L79.4082 227.134ZM88.1544 227.736H80.092L80.4649 230.628H87.7814L88.1544 227.736Z" fill="#DBDBDB"/>
<path d="M104.707 243.833L105.455 249.161L106.96 259.868H109.904V243.833H104.707Z" fill="#EBEBEB"/>
<path d="M104.707 243.833L105.455 249.161H109.904V243.833H104.707Z" fill="#DBDBDB"/>
<path d="M64.6075 243.833L63.8587 249.161L62.3532 259.868H59.4092V243.833H64.6075Z" fill="#EBEBEB"/>
<path d="M64.6075 243.833L63.8587 249.161H59.4092V243.833H64.6075Z" fill="#DBDBDB"/>
<path d="M26.2554 259.868L56.6913 259.724L87.1278 259.671L148 259.573L208.873 259.671L239.308 259.723L269.745 259.868L239.308 260.013L208.873 260.064L148 260.163L87.1278 260.064L56.6913 260.012L26.2554 259.868Z" fill="#263238"/>
<path d="M247.691 146.13H48.3086V153.221H247.691V146.13Z" fill="#37474F"/>
<path d="M240.555 153.223H55.4453V160.312H240.555V153.223Z" fill="#455A64"/>
<path d="M55.4606 259.799H52.5947L60.936 160.311H68.2508L55.4606 259.799Z" fill="#455A64"/>
<path d="M68.2497 160.313L67.3931 166.969H60.3809L60.9367 160.313H68.2497Z" fill="#263238"/>
<path d="M240.54 259.799H243.406L235.064 160.311H227.75L240.54 259.799Z" fill="#455A64"/>
<path d="M227.75 160.313L228.607 166.969H235.619L235.063 160.313H227.75Z" fill="#263238"/>
<path d="M77.882 197.225C75.7727 195.158 73.046 192.661 69.8214 193.552C66.7874 194.39 65.6259 197.702 65.0824 200.461C64.3821 204.017 63.8374 207.609 63.2727 211.189C62.702 214.805 62.1668 218.426 61.6464 222.049C61.3528 224.093 61.0615 226.138 60.7762 228.184C60.6335 229.207 60.4914 230.23 60.35 231.253C60.2108 232.256 60.0433 233.259 59.9882 234.271C59.9705 234.593 60.4766 234.64 60.5471 234.333C60.9378 232.626 61.0994 230.853 61.3504 229.121C61.6026 227.38 61.8542 225.638 62.1088 223.897C62.615 220.438 63.1377 216.982 63.6586 213.525C64.1802 210.067 64.7195 206.612 65.2713 203.158C65.7389 200.229 65.9598 196.59 68.5563 194.659C69.9806 193.6 71.7975 193.588 73.4118 194.204C75.1204 194.856 76.4849 196.079 77.8217 197.289C77.8631 197.327 77.9229 197.265 77.882 197.225Z" fill="#263238"/>
<path d="M74.9951 195.113C74.9951 195.113 70.683 193.56 68.5553 196.707C66.4277 199.854 68.9709 207.858 88.6046 212.375C88.6046 212.375 88.0901 203.805 83.881 194.627C79.6713 185.448 72.1718 188.923 74.9951 195.113Z" fill="#4FAA89"/>
<path d="M87.4754 211.065C87.2055 210.508 86.8242 209.991 86.488 209.472C86.16 208.966 85.8285 208.462 85.4922 207.961C85.2401 207.584 84.9819 207.21 84.7238 206.837C84.7422 206.746 84.7475 206.651 84.7605 206.556C84.783 206.386 84.8055 206.216 84.8274 206.046C84.8754 205.678 84.9292 205.31 84.9837 204.943C85.0376 204.577 85.0992 204.212 85.169 203.848C85.2406 203.476 85.2773 203.038 85.4259 202.691C85.4502 202.635 85.3478 202.606 85.3401 202.673C85.3158 202.892 85.2235 203.112 85.1649 203.324C85.1193 203.489 85.0755 203.654 85.0334 203.82C84.9381 204.192 84.8476 204.566 84.7635 204.941C84.6859 205.287 84.6208 205.634 84.5616 205.984C84.5332 206.151 84.5083 206.319 84.4858 206.487C84.136 205.988 83.779 205.493 83.4108 205.009C82.3683 203.635 81.2654 202.314 80.1246 201.024C80.1293 201.011 80.1412 201.004 80.1417 200.989C80.2436 198.926 80.1944 196.884 80.6515 194.855C80.6639 194.799 80.5804 194.769 80.568 194.824C80.1388 196.728 79.7108 198.727 79.8345 200.693C79.4254 200.236 79.011 199.782 78.5931 199.332C77.637 198.304 76.6632 197.292 75.668 196.301C75.6277 196.261 75.5644 196.32 75.6029 196.362C77.2575 198.142 78.8287 199.998 80.359 201.886C79.1667 201.847 77.9555 201.931 76.7697 202.019C75.4383 202.118 74.1158 202.288 72.7938 202.471C72.7376 202.478 72.7548 202.566 72.811 202.558C74.1252 202.361 75.4531 202.257 76.781 202.202C78.0615 202.149 79.3354 202.206 80.6153 202.202C81.4418 203.228 82.2605 204.26 83.0662 205.302C83.0088 205.3 82.949 205.3 82.8839 205.299C82.5832 205.293 82.2818 205.288 81.9811 205.293C81.3844 205.304 80.787 205.345 80.1927 205.396C78.9737 205.5 77.7613 205.671 76.5672 205.939C76.511 205.951 76.5282 206.032 76.5844 206.026C77.7903 205.889 78.9998 205.776 80.2134 205.734C80.7924 205.714 81.3713 205.714 81.9503 205.713C82.251 205.713 82.5524 205.711 82.8531 205.715C83.0343 205.718 83.1977 205.738 83.3486 205.67C83.8767 206.355 84.4053 207.041 84.9287 207.73C85.3454 208.279 85.7563 208.832 86.16 209.39C86.572 209.96 86.9456 210.583 87.4044 211.116C87.4381 211.155 87.4968 211.109 87.4754 211.065Z" fill="#263238"/>
<path d="M76.8727 199.572C76.1842 199.46 75.4691 199.471 74.7729 199.47C74.0726 199.47 73.371 199.491 72.6713 199.515C72.6073 199.518 72.6115 199.608 72.6766 199.603C73.387 199.552 74.0968 199.54 74.8084 199.55C75.4951 199.56 76.1842 199.626 76.8703 199.608C76.8928 199.607 76.8952 199.576 76.8727 199.572Z" fill="#263238"/>
<path d="M83.0349 201.155C83.1154 200.484 83.1995 199.81 83.3421 199.15C83.3557 199.087 83.2658 199.068 83.2563 199.132C83.1556 199.792 83.0272 200.447 82.9295 201.108C82.881 201.438 82.836 201.769 82.7951 202.101C82.7578 202.403 82.6874 202.732 82.7146 203.037C82.7199 203.096 82.8147 203.101 82.8295 203.045C82.9094 202.749 82.9017 202.416 82.9313 202.111C82.9627 201.792 82.997 201.473 83.0349 201.155Z" fill="#263238"/>
<path d="M81.7438 193.725C81.5721 194.377 81.4016 195.038 81.2815 195.702C81.2205 196.039 81.169 196.378 81.1234 196.718C81.0796 197.041 81.0204 197.382 81.0577 197.709C81.0607 197.735 81.1015 197.737 81.1086 197.713C81.2039 197.41 81.2217 197.08 81.2637 196.767C81.3075 196.441 81.3572 196.115 81.4135 195.791C81.5325 195.107 81.6538 194.428 81.8273 193.755C81.8415 193.7 81.758 193.67 81.7438 193.725Z" fill="#263238"/>
<path d="M56.4695 233.776C56.3612 232.54 56.241 231.305 56.1108 230.071C55.8526 227.625 55.5543 225.184 55.2263 222.747C54.8995 220.316 54.5869 217.881 54.1962 215.46C54.0168 214.35 53.8321 213.213 53.4473 212.152C53.1164 211.24 52.57 210.414 51.6151 210.084C49.3051 209.287 47.7464 211.682 46.814 213.377C46.7856 213.428 46.8596 213.466 46.8915 213.42C47.4498 212.617 48.9937 210.363 50.7461 210.468C51.9253 210.539 52.8684 211.374 53.4343 214.314C54.8445 221.64 56.1161 236.506 56.2641 237.478C56.3428 237.994 56.7069 237.972 56.7099 237.419C56.717 236.204 56.5755 234.987 56.4695 233.776Z" fill="#263238"/>
<path d="M47.4369 212.465C47.4369 212.465 49.4557 205.336 44.9926 208.901C37.5624 214.835 37.2983 227.742 37.2983 227.742C37.2983 227.742 50.5059 220.071 52.1481 215.011C54.5948 207.475 47.4369 212.465 47.4369 212.465Z" fill="#4FAA89"/>
<path d="M49.9365 215.965C48.8999 216.175 47.8491 216.313 46.8025 216.464C46.307 216.535 45.8115 216.605 45.316 216.673C44.9815 216.719 44.6423 216.751 44.3054 216.792C45.2893 215.437 46.2809 214.087 47.2246 212.704C47.2607 212.651 47.179 212.596 47.1358 212.639C46.352 213.437 45.6256 214.299 44.9288 215.186C44.7352 214.634 44.5375 214.083 44.3433 213.531C44.1189 212.893 43.8774 212.258 43.7152 211.6C43.7016 211.545 43.6151 211.57 43.6305 211.625C43.8111 212.279 43.939 212.945 44.1136 213.601C44.2823 214.234 44.4741 214.859 44.6985 215.474C44.2148 216.102 43.7507 216.745 43.2996 217.395C43.0723 216.751 42.7905 216.128 42.591 215.474C42.5744 215.419 42.488 215.445 42.5063 215.499C42.7431 216.223 42.8704 216.976 43.093 217.703C42.7899 218.146 42.4868 218.589 42.1973 219.036C41.6639 219.86 41.1613 220.699 40.6694 221.544C40.5924 221.588 40.5433 221.65 40.5539 221.744C39.7198 223.187 38.9259 224.652 38.1427 226.13C38.1161 226.18 38.1936 226.223 38.2202 226.172C39.0041 224.713 39.8761 223.292 40.7836 221.896C40.7866 221.895 40.7907 221.896 40.7931 221.895C40.889 221.842 41.1063 221.835 41.2252 221.811C41.3774 221.78 41.5295 221.745 41.6811 221.712C42.0227 221.638 42.3607 221.55 42.6999 221.465C43.3701 221.299 44.0325 221.142 44.7127 221.024C44.7684 221.014 44.7429 220.929 44.6873 220.939C43.8875 221.091 43.0859 221.182 42.2778 221.275C41.8966 221.32 41.5159 221.368 41.137 221.429C41.121 221.431 41.1009 221.434 41.082 221.437C41.5568 220.715 42.0381 219.999 42.5259 219.291C43.006 218.595 43.4985 217.908 43.994 217.221C44.4522 217.157 44.9063 217.037 45.3604 216.95C45.8719 216.852 46.3827 216.753 46.8936 216.651C47.916 216.449 48.9343 216.22 49.962 216.05C50.0176 216.041 49.9928 215.954 49.9365 215.965Z" fill="#263238"/>
<path d="M41.9997 216.668C41.9381 216.48 41.8813 216.29 41.8215 216.101C41.696 215.707 41.6001 215.31 41.5184 214.905C41.5072 214.849 41.4219 214.875 41.4337 214.93C41.5202 215.333 41.6143 215.734 41.7061 216.135C41.7966 216.529 41.8967 216.946 42.05 217.321C42.0879 217.414 42.2306 217.376 42.2028 217.275C42.1465 217.07 42.0654 216.87 41.9997 216.668Z" fill="#263238"/>
<path d="M51.2881 214.315C50.686 214.405 50.0781 214.447 49.4718 214.5C48.8621 214.553 48.2618 214.638 47.6568 214.729C47.6236 214.733 47.623 214.784 47.658 214.782C48.2665 214.74 48.8698 214.693 49.4748 214.614C50.0792 214.534 50.6825 214.444 51.2905 214.403C51.3479 214.399 51.3432 214.306 51.2881 214.315Z" fill="#263238"/>
<path d="M62.8047 224.75C62.5703 219.501 62.2376 214.261 61.7095 209.032C61.4467 206.429 61.1525 203.827 60.786 201.236C60.4273 198.697 59.9886 196.157 59.2823 193.689C58.7418 191.8 58.0326 189.903 56.7699 188.369C55.5243 186.854 53.6879 185.906 51.6947 186.153C49.3971 186.437 47.5477 187.884 45.9475 189.457C44.1526 191.221 42.5092 193.147 40.8463 195.034C40.426 195.512 40.0086 195.992 39.5948 196.475C39.5575 196.519 39.6214 196.58 39.6587 196.536C41.2844 194.669 42.9733 192.855 44.7404 191.12C46.3732 189.516 48.0557 187.764 50.3177 187.102C51.3655 186.795 52.5016 186.71 53.5583 187.025C54.412 187.28 55.1579 187.789 55.7718 188.427C57.0452 189.751 57.7603 191.545 58.2682 193.282C59.6802 198.106 60.1857 203.166 60.7097 208.148C61.2425 213.211 61.6018 218.286 61.8564 223.37C62.1121 228.481 62.3116 233.597 62.8041 238.692C62.8651 239.321 62.9468 239.948 63.0261 240.575C63.08 240.996 63.7342 240.997 63.6998 240.558C63.2831 235.294 63.0404 230.025 62.8047 224.75Z" fill="#263238"/>
<path d="M45.6594 190.025C45.6594 190.025 48.6567 184.477 45.1147 182.698C41.5728 180.919 29.7186 194.151 26.2554 213.5C26.2554 213.5 45.4012 205.029 51.9026 196.588C58.4045 188.147 51.0335 186.289 45.6594 190.025Z" fill="#4FAA89"/>
<path d="M48.4737 194.537C46.3218 194.542 44.1758 194.374 42.0233 194.39C42.4264 193.927 42.8284 193.464 43.2357 193.004C43.7987 192.37 44.441 191.753 44.9176 191.05C44.9477 191.005 44.8832 190.943 44.84 190.976C44.2427 191.445 43.7318 192.057 43.2114 192.61C42.6721 193.181 42.1363 193.757 41.6024 194.334C40.7801 195.224 39.9744 196.128 39.1698 197.035C39.168 196.947 39.1663 196.859 39.1669 196.774C39.1692 196.397 39.1663 196.02 39.1686 195.644C39.1734 194.914 39.1846 194.184 39.1917 193.454C39.2059 191.975 39.2024 190.488 39.3048 189.011C39.3089 188.955 39.2201 188.957 39.216 189.014C39.113 190.498 38.9597 191.976 38.8868 193.462C38.8507 194.192 38.8336 194.922 38.8247 195.652C38.82 196.029 38.814 196.406 38.817 196.783C38.8188 196.988 38.8105 197.205 38.8265 197.417C38.701 197.559 38.5707 197.696 38.4464 197.839C36.729 199.801 35.0963 201.831 33.5068 203.896C33.5044 203.782 33.489 203.665 33.4783 203.553C33.4564 203.325 33.4292 203.098 33.4032 202.871C33.3475 202.376 33.28 201.885 33.206 201.394C33.1368 200.932 33.0639 200.471 32.9864 200.011C32.8994 199.494 32.7727 198.969 32.7336 198.447C32.7289 198.383 32.633 198.397 32.6466 198.461C32.7567 198.974 32.7774 199.516 32.8265 200.037C32.8709 200.51 32.9153 200.983 32.958 201.457C33.0006 201.931 33.0432 202.405 33.0924 202.878C33.1154 203.106 33.1362 203.334 33.1604 203.561C33.1729 203.675 33.1865 203.789 33.2019 203.903C33.2226 204.053 33.2457 204.072 33.2942 204.173C33.0213 204.53 32.7466 204.884 32.4755 205.242C31.3898 206.679 30.3242 208.132 29.258 209.583C29.2248 209.628 29.287 209.69 29.3219 209.644C30.3313 208.328 31.3702 207.035 32.4228 205.754C33.2108 205.788 34.0141 205.73 34.8015 205.717C35.632 205.703 36.462 205.699 37.2926 205.696C37.3494 205.696 37.3476 205.607 37.2902 205.608C36.4596 205.622 35.6297 205.635 34.7991 205.638C34.0425 205.641 33.27 205.603 32.5128 205.644C33.4387 204.519 34.374 203.402 35.3118 202.286C35.6539 201.879 35.9979 201.474 36.3401 201.067C36.6509 201.131 36.9859 201.099 37.3015 201.099C37.6786 201.098 38.0563 201.098 38.4334 201.097C39.1408 201.095 39.8483 201.078 40.5551 201.068C42.0168 201.045 43.4784 200.996 44.9401 200.993C44.9969 200.993 44.9951 200.905 44.9377 200.904C43.4743 200.886 42.0114 200.823 40.548 200.786C39.84 200.769 39.1319 200.745 38.4239 200.735C38.0462 200.731 37.6691 200.727 37.2914 200.722C37.0765 200.72 36.8551 200.705 36.6372 200.713C37.4406 199.76 38.2428 198.805 39.0491 197.854C39.0686 197.843 39.0834 197.825 39.0935 197.802C39.8785 196.877 40.6628 195.951 41.4561 195.033C41.5645 194.908 41.6752 194.784 41.7841 194.659C44.0153 194.728 46.2424 194.582 48.4725 194.625C48.5329 194.627 48.5311 194.537 48.4737 194.537Z" fill="#263238"/>
<path d="M47.373 198.341C47.1995 198.343 47.0254 198.344 46.852 198.346C46.8005 198.347 46.8029 198.425 46.8538 198.426C47.0278 198.427 47.2013 198.429 47.3753 198.43C47.4321 198.43 47.4298 198.341 47.373 198.341Z" fill="#263238"/>
<path d="M46.2149 198.348C45.5258 198.338 44.8361 198.324 44.147 198.305C43.8025 198.295 43.4579 198.283 43.1134 198.272C42.8055 198.261 42.4533 198.213 42.1514 198.283C42.1176 198.291 42.1235 198.338 42.1531 198.347C42.4509 198.437 42.8073 198.409 43.1169 198.415C43.4615 198.421 43.806 198.426 44.1506 198.43C44.8396 198.437 45.5287 198.439 46.2178 198.436C46.2741 198.436 46.2717 198.349 46.2149 198.348Z" fill="#263238"/>
<path d="M40.1954 204.809C38.7941 204.612 37.3792 204.414 35.9614 204.427C35.9407 204.427 35.943 204.456 35.962 204.457C37.3686 204.591 38.7775 204.668 40.174 204.894C40.2303 204.904 40.2516 204.817 40.1954 204.809Z" fill="#263238"/>
<path d="M34.4396 198.649C34.4253 198.526 34.4117 198.403 34.3958 198.28C34.3596 198.003 34.3158 197.727 34.2726 197.451C34.1897 196.925 34.098 196.401 33.9979 195.878C33.9885 195.83 33.905 195.843 33.9115 195.892C33.9778 196.433 34.0358 196.975 34.0861 197.517C34.111 197.784 34.1305 198.051 34.1548 198.317C34.1767 198.558 34.1548 198.856 34.2625 199.076C34.3028 199.159 34.4271 199.125 34.4484 199.047C34.484 198.915 34.4555 198.783 34.4396 198.649Z" fill="#263238"/>
<path d="M63.8259 184.4C63.1404 183.125 62.269 181.439 60.5581 181.546C59.1462 181.635 58.5098 183.076 58.2078 184.267C57.2748 187.952 57.2091 191.838 57.028 195.614C56.6438 203.594 56.2986 211.583 56.2483 219.574C56.2341 221.789 56.2424 224.004 56.2625 226.219C56.2833 228.477 56.2773 234.767 56.4206 237.022C56.4342 237.235 56.7515 237.228 56.7527 237.013C56.7651 235.082 56.6971 229.131 56.6888 227.198C56.6811 225.313 56.6959 223.427 56.7261 221.542C56.7876 217.723 56.89 213.904 57.0315 210.088C57.1718 206.294 57.3394 202.501 57.4998 198.708C57.5803 196.813 57.6602 194.917 57.7455 193.022C57.8284 191.186 57.9077 189.348 58.1179 187.521C58.2357 186.498 58.3866 185.474 58.6003 184.467C58.7525 183.748 58.9715 182.972 59.4836 182.42C60.1591 181.691 61.1791 181.744 61.9801 182.238C62.8095 182.751 63.3132 183.602 63.7501 184.447C63.7768 184.497 63.8532 184.45 63.8259 184.4Z" fill="#263238"/>
<path d="M63.3631 183.791C63.3631 183.791 61.9571 178.824 65.0657 181.308C70.241 185.442 70.4251 194.433 70.4251 194.433C70.4251 194.433 61.2248 189.089 60.0811 185.565C58.3767 180.314 63.3631 183.791 63.3631 183.791Z" fill="#4FAA89"/>
<path d="M68.4901 190.746C68.4054 190.609 68.3154 190.475 68.229 190.339C68.2509 190.202 68.229 190.048 68.2284 189.915C68.2272 189.701 68.2254 189.488 68.2302 189.274C68.2402 188.854 68.2556 188.435 68.2763 188.016C68.2793 187.959 68.1905 187.962 68.1875 188.018C68.1662 188.43 68.1491 188.841 68.1378 189.253C68.1325 189.459 68.1224 189.665 68.1165 189.871C68.1141 189.951 68.1035 190.044 68.0987 190.136C67.7376 189.575 67.367 189.02 66.9834 188.474C66.8721 188.316 66.7555 188.162 66.6424 188.005C66.5584 187.474 66.6081 186.917 66.6146 186.383C66.6217 185.806 66.63 185.23 66.6501 184.652C66.6519 184.595 66.5631 184.598 66.5613 184.655C66.5447 185.255 66.5145 185.855 66.4844 186.454C66.463 186.879 66.4234 187.312 66.4488 187.739C65.5597 186.531 64.6184 185.366 63.6635 184.208C63.6315 184.169 63.564 184.224 63.5954 184.263C64.1862 185.011 64.7528 185.778 65.3075 186.554C64.2247 186.302 63.1236 186.157 62.0236 185.998C61.968 185.99 61.9455 186.075 62.0023 186.084C63.1668 186.26 64.3099 186.552 65.4596 186.806C65.4691 186.808 65.4738 186.802 65.4821 186.802C65.9231 187.422 66.3583 188.047 66.7916 188.672C66.968 188.927 67.1391 189.185 67.3132 189.441C67.2966 189.439 67.28 189.437 67.264 189.435C67.145 189.418 67.0254 189.4 66.9064 189.386C66.6519 189.356 66.3961 189.335 66.141 189.315C65.6106 189.273 65.0789 189.246 64.5479 189.217C64.4911 189.214 64.4929 189.304 64.5503 189.305C65.0736 189.318 65.5934 189.357 66.1138 189.413C66.3885 189.443 66.662 189.481 66.9366 189.513C67.0562 189.527 67.1764 189.54 67.296 189.556C67.3315 189.56 67.3664 189.565 67.4014 189.571C67.6956 190.005 67.9916 190.439 68.2858 190.874C68.805 191.642 69.2691 192.466 69.8238 193.207C69.857 193.251 69.918 193.212 69.8955 193.163C69.5077 192.325 68.9725 191.531 68.4901 190.746Z" fill="#263238"/>
<path d="M66.1982 185.137C66.1976 184.944 66.2024 184.751 66.2018 184.557C66.2012 184.153 66.1958 183.741 66.2509 183.341C66.2598 183.277 66.1639 183.267 66.1633 183.331C66.1621 183.733 66.1195 184.135 66.0999 184.536C66.0905 184.737 66.0899 184.939 66.0893 185.14C66.0893 185.233 66.0893 185.326 66.0899 185.418C66.0905 185.512 66.0774 185.618 66.1112 185.707C66.1254 185.745 66.1757 185.743 66.1882 185.705C66.216 185.621 66.2012 185.526 66.2 185.439C66.1994 185.339 66.1988 185.238 66.1982 185.137Z" fill="#263238"/>
<path d="M65.0614 187.194C64.7192 187.136 64.3687 187.117 64.023 187.088C63.643 187.056 63.2647 187.023 62.887 186.974C62.8236 186.966 62.813 187.057 62.8775 187.061C63.6039 187.108 64.3267 187.238 65.0537 187.263C65.0934 187.265 65.1011 187.201 65.0614 187.194Z" fill="#263238"/>
<path d="M67.9515 187.225C67.9783 187.263 67.9604 187.371 67.9604 187.416V187.576C67.9604 187.692 67.9592 187.808 67.958 187.924C67.9574 188.04 67.9562 188.155 67.9551 188.271C67.9545 188.363 67.93 188.491 67.9717 188.575C67.9783 188.589 68.0003 188.587 68.0063 188.574C68.029 188.529 68.0242 188.48 68.0242 188.431C68.0236 188.377 68.023 188.324 68.023 188.27C68.0218 188.154 68.0212 188.039 68.02 187.923C68.0188 187.807 68.0176 187.691 68.0176 187.576V187.415C68.0176 187.366 67.9986 187.264 68.0278 187.224C68.0856 187.143 67.8919 187.141 67.9515 187.225Z" fill="#263238"/>
<path d="M66.5233 213.513C64.588 212.06 62.8499 209.973 60.2475 209.871C58.0997 209.787 56.5942 211.404 55.7335 213.204C55.2794 214.154 54.9686 215.161 54.6803 216.171C54.2919 217.53 53.9267 218.896 53.5839 220.267C52.9102 222.965 52.3301 225.689 51.8612 228.43C51.5995 229.958 51.3562 231.492 51.1626 233.03C50.9679 234.581 50.7139 236.174 50.7109 237.739C50.7103 238.011 51.136 238.064 51.191 237.792C51.4533 236.506 51.5628 235.177 51.7523 233.877C51.9429 232.57 52.1406 231.263 52.362 229.96C52.8048 227.353 53.3146 224.756 53.903 222.179C54.4583 219.746 55.0035 217.274 55.7891 214.902C56.3515 213.203 57.2555 211.22 59.0901 210.609C61.8826 209.68 64.4181 212.043 66.4617 213.578C66.5073 213.611 66.5688 213.547 66.5233 213.513Z" fill="#263238"/>
<path d="M64.5205 212.124C64.5205 212.124 62.7374 207.031 65.3174 206.032C69.1831 204.535 79.3022 215.932 77.3213 233.394C77.3213 233.394 69.5028 229.087 63.7302 224.243C57.957 219.398 56.4794 213.069 59.0226 211.433C61.5647 209.797 64.5205 212.124 64.5205 212.124Z" fill="#4FAA89"/>
<path d="M76.1526 229.652C75.9259 229.038 75.5292 228.464 75.2125 227.891C74.8822 227.294 74.5477 226.698 74.2025 226.108C73.5306 224.959 72.8628 223.807 72.1749 222.667C72.0636 222.483 71.9482 222.3 71.8357 222.116C71.8511 222.048 71.863 221.979 71.8784 221.911C71.9168 221.743 71.9547 221.574 71.9932 221.406C72.079 221.027 72.1453 220.644 72.2164 220.263C72.3561 219.515 72.4863 218.758 72.6876 218.025C72.7024 217.97 72.6124 217.953 72.6006 218.009C72.4408 218.757 72.2057 219.491 71.9843 220.222C71.8754 220.582 71.76 220.941 71.6646 221.304C71.6321 221.429 71.5995 221.554 71.567 221.679C70.7352 220.316 69.8904 218.96 68.9787 217.649C69.0551 217.478 69.0486 217.285 69.0693 217.089C69.0965 216.834 69.1273 216.579 69.1575 216.324C69.2256 215.749 69.2913 215.175 69.376 214.602C69.5417 213.478 69.7093 212.361 69.9887 211.257C70.0029 211.202 69.9153 211.187 69.9017 211.242C69.6234 212.341 69.3203 213.441 69.1113 214.556C69.0089 215.103 68.9118 215.652 68.839 216.203C68.8023 216.479 68.7733 216.756 68.7449 217.033C68.7366 217.115 68.7236 217.199 68.7129 217.284C68.4323 216.888 68.1523 216.492 67.8587 216.106C66.9653 214.931 66.0406 213.784 65.1065 212.642C65.0704 212.598 64.9975 212.648 65.0336 212.693C66.6735 214.698 68.0594 216.92 69.4304 219.114C69.6862 219.524 69.9366 219.937 70.1906 220.348C70.1053 220.337 70.0207 220.327 69.9396 220.317C69.6128 220.276 69.2818 220.255 68.9539 220.224C68.2962 220.163 67.6379 220.105 66.9796 220.053C65.6624 219.948 64.3422 219.868 63.028 219.727C62.9717 219.721 62.9557 219.807 63.0126 219.814C64.344 219.966 65.6689 220.18 66.9955 220.369C67.6479 220.461 68.3003 220.548 68.9539 220.632C69.405 220.69 69.9703 220.824 70.4611 220.786C70.9785 221.627 71.4977 222.466 72.0139 223.307C71.8991 223.291 71.7795 223.296 71.6646 223.294C71.445 223.291 71.2254 223.292 71.0063 223.292C70.5984 223.292 70.1906 223.292 69.7827 223.292C68.9343 223.292 68.0866 223.31 67.2383 223.308C67.1814 223.308 67.1903 223.396 67.2465 223.397C68.1061 223.407 68.9633 223.45 69.8217 223.495C70.229 223.517 70.6357 223.541 71.0424 223.569C71.2455 223.583 71.4492 223.6 71.6522 223.613C71.8304 223.624 72.021 223.658 72.1892 223.592C72.6278 224.308 73.0718 225.02 73.5099 225.737C73.9142 226.397 74.3233 227.056 74.7413 227.708C75.1616 228.363 75.5511 229.116 76.0673 229.698C76.1017 229.736 76.1733 229.708 76.1526 229.652Z" fill="#263238"/>
<path d="M72.427 215.538C72.3649 216.097 72.2157 216.655 72.0778 217.199C71.9339 217.765 71.7693 218.325 71.5858 218.88C71.5609 218.955 71.6663 218.99 71.6906 218.913C71.864 218.363 72.0191 217.808 72.1547 217.247C72.2903 216.686 72.3779 216.114 72.5146 215.554C72.5277 215.498 72.4335 215.481 72.427 215.538Z" fill="#263238"/>
<path d="M66.6836 218.949C66.5617 218.826 66.4243 218.813 66.2574 218.79C66.0117 218.755 65.7654 218.723 65.5192 218.689C65.0621 218.627 64.6033 218.576 64.1445 218.523C63.192 218.411 62.2377 218.318 61.2858 218.198C61.2295 218.191 61.2135 218.279 61.2704 218.286C62.169 218.395 63.063 218.531 63.9598 218.649C64.3997 218.706 64.8389 218.769 65.2794 218.82C65.4913 218.845 65.7033 218.867 65.9152 218.891C66.1496 218.917 66.4261 218.91 66.6404 219.015C66.683 219.036 66.7138 218.98 66.6836 218.949Z" fill="#263238"/>
<path d="M72.4137 226.628C71.9644 226.59 71.5109 226.576 71.0604 226.562C70.8331 226.555 70.6052 226.548 70.3779 226.541C70.2689 226.538 70.1594 226.534 70.0505 226.531C69.9125 226.527 69.758 226.54 69.6242 226.506C69.5615 226.49 69.555 226.605 69.6207 226.594C69.748 226.574 69.8918 226.599 70.0197 226.606C70.1381 226.614 70.2559 226.621 70.3743 226.628C70.6016 226.641 70.829 226.655 71.0563 226.669C71.5062 226.696 71.9597 226.722 72.4102 226.725C72.4641 226.725 72.4682 226.633 72.4137 226.628Z" fill="#263238"/>
<path d="M75.1697 224.675C75.2213 224.419 75.2698 224.163 75.3166 223.906C75.4089 223.403 75.5013 222.9 75.5936 222.396C75.6043 222.34 75.519 222.325 75.5066 222.381C75.3959 222.871 75.2852 223.361 75.1751 223.852C75.12 224.097 75.065 224.342 75.0141 224.588C74.9904 224.702 74.9673 224.815 74.9436 224.929C74.9187 225.048 74.8809 225.168 74.9034 225.289C74.911 225.33 74.972 225.364 75.001 225.32C75.1188 225.141 75.1277 224.883 75.1697 224.675Z" fill="#263238"/>
<path d="M67.2496 237.556L66.9127 243.161L65.9146 259.71H48.9443L47.9468 243.161L47.6094 237.556H67.2496Z" fill="#37474F"/>
<path d="M67.2496 237.556L66.9127 243.161H47.9468L47.6094 237.556H67.2496Z" fill="#263238"/>
<path d="M68.8153 233.59H46.0435V239.2H68.8153V233.59Z" fill="#37474F"/>
<path d="M163.96 143.464H132.04V146.131H163.96V143.464Z" fill="#C7C7C7"/>
<path d="M160.158 143.465H135.841L136.459 138.836L136.489 138.617L136.546 138.183L136.575 137.965L136.634 137.531L136.642 137.463L136.663 137.313L136.722 136.878L136.75 136.66L137.183 133.425H158.817L159.225 136.476L159.245 136.623L159.312 137.129L159.331 137.276L159.357 137.463L159.4 137.782L159.418 137.928L159.486 138.436L159.506 138.581L160.158 143.465Z" fill="#DBDBDB"/>
<path d="M159.357 137.463L136.75 136.66L137.183 133.425H158.817L159.357 137.463Z" fill="#C7C7C7"/>
<path d="M188.951 79.4121H107.049V135.104H188.951V79.4121Z" fill="#263238"/>
<path d="M188.951 126.889H107.049V135.104H188.951V126.889Z" fill="#DBDBDB"/>
<path d="M149.357 130.444C149.357 131.194 148.749 131.801 148 131.801C147.25 131.801 146.643 131.194 146.643 130.444C146.643 129.695 147.25 129.087 148 129.087C148.749 129.087 149.357 129.695 149.357 130.444Z" fill="#37474F"/>
<path d="M185.171 83.0327H110.828V123.025H185.171V83.0327Z" fill="white"/>
<path d="M185.171 83.0327H110.828V123.025H185.171V83.0327Z" fill="white"/>
<path d="M185.171 83.0327H110.828V84.8425H185.171V83.0327Z" fill="#455A64"/>
<path d="M112.157 83.9379C112.157 84.1072 112.02 84.244 111.851 84.244C111.682 84.244 111.545 84.1072 111.545 83.9379C111.545 83.7692 111.682 83.6318 111.851 83.6318C112.02 83.6318 112.157 83.7686 112.157 83.9379Z" fill="#C7C7C7"/>
<path d="M113.407 83.9379C113.407 84.1072 113.27 84.244 113.1 84.244C112.931 84.244 112.794 84.1072 112.794 83.9379C112.794 83.7692 112.931 83.6318 113.1 83.6318C113.27 83.6318 113.407 83.7686 113.407 83.9379Z" fill="white"/>
<path d="M114.657 83.9379C114.657 84.1072 114.52 84.244 114.35 84.244C114.182 84.244 114.044 84.1072 114.044 83.9379C114.044 83.7692 114.181 83.6318 114.35 83.6318C114.519 83.6318 114.657 83.7686 114.657 83.9379Z" fill="#FFC727"/>
<path d="M143.311 100.866L141.916 99.791C143.855 97.2739 147.194 96.229 150.223 97.1922C152.763 97.9991 154.714 100.115 155.317 102.714L153.602 103.112C153.139 101.116 151.64 99.4903 149.69 98.8711C147.364 98.1311 144.8 98.9332 143.311 100.866Z" fill="#4FAA89"/>
<path d="M151.847 102.198L154.315 106.45L156.764 102.187L151.847 102.198Z" fill="#4FAA89"/>
<g opacity="0.2">
<path d="M143.311 100.866L141.916 99.791C143.855 97.2739 147.194 96.229 150.223 97.1922C152.763 97.9991 154.714 100.115 155.317 102.714L153.602 103.112C153.139 101.116 151.64 99.4903 149.69 98.8711C147.364 98.1311 144.8 98.9332 143.311 100.866Z" fill="black"/>
<path d="M151.847 102.198L154.315 106.45L156.764 102.187L151.847 102.198Z" fill="black"/>
</g>
<path d="M145.777 111.236C143.237 110.429 141.285 108.313 140.683 105.714L142.398 105.317C142.861 107.313 144.36 108.938 146.31 109.558C148.758 110.336 151.469 109.393 152.902 107.266L154.363 108.249C152.495 111.021 148.965 112.249 145.777 111.236Z" fill="#4FAA89"/>
<path d="M144.153 106.23L141.685 101.978L139.236 106.241L144.153 106.23Z" fill="#4FAA89"/>
<path d="M118.124 112.479H71.0483V143.97H118.124V112.479Z" fill="#DBDBDB"/>
<path d="M117.782 112.864H71.3906V143.586H117.782V112.864Z" fill="#263238"/>
<path d="M124.256 143.969H64.917V146.131H124.256V143.969Z" fill="#C7C7C7"/>
<path d="M115.16 115.197H74.0127V141.251H115.16V115.197Z" fill="white"/>
<path d="M115.16 115.197H74.0127V116.2H115.16V115.197Z" fill="#455A64"/>
<path d="M74.9561 115.699C74.9561 115.803 74.8709 115.889 74.7667 115.889C74.6619 115.889 74.5767 115.803 74.5767 115.699C74.5767 115.594 74.6619 115.509 74.7667 115.509C74.8715 115.509 74.9561 115.594 74.9561 115.699Z" fill="#C7C7C7"/>
<path d="M75.7309 115.699C75.7309 115.803 75.6463 115.889 75.5415 115.889C75.4367 115.889 75.3521 115.803 75.3521 115.699C75.3521 115.594 75.4367 115.509 75.5415 115.509C75.6463 115.509 75.7309 115.594 75.7309 115.699Z" fill="white"/>
<path d="M76.5054 115.699C76.5054 115.803 76.4202 115.889 76.3154 115.889C76.2106 115.889 76.126 115.803 76.126 115.699C76.126 115.594 76.2106 115.509 76.3154 115.509C76.4208 115.509 76.5054 115.594 76.5054 115.699Z" fill="#4FAA89"/>
<path d="M91.3856 125.939L90.4331 125.206C91.7568 123.487 94.036 122.774 96.1039 123.431C97.8378 123.983 99.1698 125.426 99.5813 127.201L98.4103 127.472C98.0942 126.11 97.0712 125 95.7398 124.577C94.1515 124.073 92.4015 124.62 91.3856 125.939Z" fill="#4FAA89"/>
<path d="M97.2119 126.849L98.8967 129.751L100.569 126.841L97.2119 126.849Z" fill="#4FAA89"/>
<g opacity="0.2">
<path d="M91.3856 125.939L90.4331 125.206C91.7568 123.487 94.036 122.774 96.1039 123.431C97.8378 123.983 99.1698 125.426 99.5813 127.201L98.4103 127.472C98.0942 126.11 97.0712 125 95.7398 124.577C94.1515 124.073 92.4015 124.62 91.3856 125.939Z" fill="black"/>
<path d="M97.2119 126.849L98.8967 129.751L100.569 126.841L97.2119 126.849Z" fill="black"/>
</g>
<path d="M93.0687 133.018C91.3347 132.467 90.0022 131.023 89.5913 129.249L90.7623 128.978C91.0784 130.341 92.1014 131.45 93.4328 131.874C95.104 132.405 96.9546 131.761 97.9332 130.309L98.9301 130.981C97.6549 132.872 95.2449 133.71 93.0687 133.018Z" fill="#4FAA89"/>
<path d="M91.9606 129.601L90.2758 126.699L88.604 129.609L91.9606 129.601Z" fill="#4FAA89"/>
<path d="M176.928 122.556H210.33C210.837 122.556 211.32 122.967 211.409 123.474L215.243 145.214C215.332 145.72 214.993 146.131 214.487 146.131H181.085C180.578 146.131 180.095 145.72 180.006 145.214L176.172 123.474C176.084 122.967 176.422 122.556 176.928 122.556Z" fill="#263238"/>
<path d="M210.331 122.556H176.93C176.423 122.556 175.94 122.967 175.85 123.474L172.017 145.214C171.928 145.72 172.266 146.131 172.773 146.131H206.175C206.682 146.131 207.165 145.72 207.254 145.214L211.087 123.474C211.176 122.967 210.838 122.556 210.331 122.556Z" fill="#4FAA89"/>
<path opacity="0.2" d="M210.331 122.556H176.93C176.423 122.556 175.94 122.967 175.85 123.474L172.017 145.214C171.928 145.72 172.266 146.131 172.773 146.131H206.175C206.682 146.131 207.165 145.72 207.254 145.214L211.087 123.474C211.176 122.967 210.838 122.556 210.331 122.556Z" fill="#263238"/>
<path d="M208.629 123.551L204.828 145.109H174.502L178.303 123.551H208.629Z" fill="white"/>
<path opacity="0.2" d="M174.912 136.908C174.811 136.908 174.743 136.826 174.761 136.725L175.601 131.961C175.619 131.86 175.715 131.778 175.817 131.778C175.918 131.778 175.985 131.86 175.968 131.961L175.128 136.725C175.11 136.827 175.013 136.908 174.912 136.908Z" fill="#263238"/>
<path opacity="0.2" d="M208.58 134.343C208.516 134.71 208.166 135.007 207.8 135.007C207.433 135.007 207.189 134.71 207.253 134.343C207.318 133.977 207.667 133.68 208.034 133.68C208.4 133.68 208.645 133.977 208.58 134.343Z" fill="#263238"/>
<path d="M208.629 123.552L204.828 145.11H174.502L178.303 123.552H208.629Z" fill="white"/>
<path d="M208.498 124.291H178.172L178.303 123.55H208.629L208.498 124.291Z" fill="#455A64"/>
<path d="M178.822 123.92C178.807 124.004 178.727 124.072 178.643 124.072C178.559 124.072 178.504 124.004 178.518 123.92C178.533 123.836 178.613 123.769 178.697 123.769C178.781 123.769 178.837 123.836 178.822 123.92Z" fill="#C7C7C7"/>
<path d="M179.442 123.92C179.427 124.004 179.347 124.072 179.263 124.072C179.179 124.072 179.123 124.004 179.138 123.92C179.153 123.836 179.233 123.769 179.317 123.769C179.401 123.769 179.457 123.836 179.442 123.92Z" fill="white"/>
<path d="M180.062 123.92C180.047 124.004 179.967 124.072 179.883 124.072C179.799 124.072 179.743 124.004 179.758 123.92C179.773 123.836 179.853 123.769 179.937 123.769C180.021 123.769 180.077 123.836 180.062 123.92Z" fill="#4FAA89"/>
<path d="M189.325 132.501L188.667 131.914C189.969 130.538 191.893 129.967 193.456 130.493C194.766 130.934 195.629 132.091 195.708 133.511L194.732 133.728C194.672 132.637 194.009 131.749 193.003 131.41C191.803 131.007 190.325 131.445 189.325 132.501Z" fill="#4FAA89"/>
<path d="M193.861 133.229L194.8 135.552L196.549 133.222L193.861 133.229Z" fill="#4FAA89"/>
<g opacity="0.2">
<path d="M189.325 132.501L188.667 131.914C189.969 130.538 191.893 129.967 193.456 130.493C194.766 130.934 195.629 132.091 195.708 133.511L194.732 133.728C194.672 132.637 194.009 131.749 193.003 131.41C191.803 131.007 190.325 131.445 189.325 132.501Z" fill="black"/>
<path d="M193.861 133.229L194.8 135.552L196.549 133.222L193.861 133.229Z" fill="black"/>
</g>
<path d="M189.674 138.168C188.364 137.727 187.501 136.57 187.422 135.15L188.398 134.933C188.458 136.024 189.121 136.912 190.127 137.251C191.39 137.676 192.962 137.161 193.95 135.998L194.654 136.535C193.366 138.05 191.318 138.721 189.674 138.168Z" fill="#4FAA89"/>
<path d="M189.269 135.432L188.33 133.109L186.581 135.438L189.269 135.432Z" fill="#4FAA89"/>
<path d="M206.069 194.611L204.537 203.791L194.166 259.799H192.495L200.036 203.791L201.15 194.611H206.069Z" fill="#C7C7C7"/>
<path d="M201.15 194.611H206.069L204.537 203.791H200.036L201.15 194.611Z" fill="#A6A6A6"/>
<path d="M238.637 259.799H236.965L226.594 203.791L225.063 194.611H229.981L231.095 203.791L238.637 259.799Z" fill="#C7C7C7"/>
<path d="M229.981 194.611L231.095 203.791H226.594L225.063 194.611H229.981Z" fill="#A6A6A6"/>
<path d="M269.745 259.799H268.073L257.702 203.791L256.171 194.611H261.089L262.203 203.791L269.745 259.799Z" fill="#C7C7C7"/>
<path d="M262.203 203.791H257.702L256.171 194.611H261.089L262.203 203.791Z" fill="#A6A6A6"/>
<path d="M267.093 198.924H191.098V190.916H219.547L229.108 123.448H264.196L267.093 198.924Z" fill="#C7C7C7"/>
<path d="M262.666 190.917H191.098V198.924H262.951L262.666 190.917Z" fill="#DBDBDB"/>
<path d="M267.093 198.924H262.951L260.251 123.448H264.196L267.093 198.924Z" fill="#DBDBDB"/>
<path d="M189.786 271.064C191.257 271.202 231.316 261.618 232.577 260.317C232.731 260.172 231.94 256.531 230.778 251.566L230.755 251.469C230.029 248.321 218.331 222.868 218.331 222.868L192.369 230.136L204.191 253.751C204.191 253.751 199.307 257.284 195.12 260.639C195.115 260.646 195.11 260.647 195.111 260.653C192.525 262.714 190.296 264.564 189.823 265.163C188.598 266.727 188.316 270.936 189.786 271.064Z" fill="#AD6359"/>
<path d="M189.787 271.061C191.256 271.202 231.313 261.615 232.58 260.317C232.733 260.17 231.939 256.533 230.778 251.565L230.754 251.471C230.488 250.298 228.685 246.02 226.541 241.118C222.268 242.272 206.951 246.426 201.388 248.153L204.188 253.751C204.188 253.751 199.305 257.287 195.117 260.64C195.117 260.646 195.111 260.646 195.111 260.652C192.525 262.712 190.294 264.565 189.822 265.161C188.598 266.73 188.313 270.939 189.787 271.061Z" fill="white"/>
<path d="M189.654 271.254C191.168 271.384 231.254 261.689 232.549 260.353C233.043 259.849 232.15 253.523 229.948 246.821L204.111 253.102C204.111 253.102 190.923 263.564 189.66 265.182C188.406 266.797 188.141 271.124 189.654 271.254Z" fill="#4FAA89"/>
<path d="M189.842 269.511C196.521 267.721 223.632 261.131 230.371 259.87C230.426 259.859 230.435 259.896 230.381 259.912C223.799 261.83 196.636 268.201 189.868 269.622C189.725 269.652 189.701 269.549 189.842 269.511Z" fill="#263238"/>
<path d="M191.89 263.116C193.468 262.666 195.209 263.046 196.307 263.784C197.363 264.494 198.387 265.604 198.676 267.009C198.685 267.049 198.611 267.068 198.595 267.029C197.575 264.492 194.625 262.76 191.91 263.2C191.856 263.209 191.836 263.131 191.89 263.116Z" fill="#263238"/>
<path d="M202.167 254.286C204.847 253.598 208.195 253.793 210.399 255.589C210.484 255.659 210.384 255.779 210.294 255.757C207.559 255.092 205.022 254.717 202.201 254.629C202.002 254.622 201.974 254.336 202.167 254.286Z" fill="#263238"/>
<path d="M200.286 255.598C202.967 254.91 206.315 255.105 208.518 256.901C208.603 256.97 208.503 257.091 208.413 257.069C205.679 256.403 203.141 256.029 200.32 255.94C200.121 255.933 200.094 255.647 200.286 255.598Z" fill="#263238"/>
<path d="M198.406 256.909C201.087 256.221 204.434 256.416 206.638 258.212C206.723 258.281 206.623 258.402 206.533 258.38C203.799 257.715 201.262 257.34 198.44 257.252C198.241 257.245 198.214 256.959 198.406 256.909Z" fill="#263238"/>
<path d="M196.525 258.221C199.206 257.533 202.553 257.728 204.757 259.524C204.842 259.593 204.742 259.714 204.652 259.692C201.918 259.027 199.38 258.652 196.559 258.564C196.36 258.557 196.333 258.27 196.525 258.221Z" fill="#263238"/>
<path d="M227.116 253.901C230.135 253.18 231.261 257.872 228.236 258.594C225.217 259.315 224.091 254.623 227.116 253.901Z" fill="#263238"/>
<path d="M198.693 251.702C200.597 253.224 203.093 253.868 205.328 254.729C205.56 254.819 205.749 254.602 205.759 254.395C205.804 254.388 205.842 254.354 205.825 254.298C205.114 252.017 203.536 249.581 201.718 248.012C200.595 247.043 198.613 246.354 197.524 247.812C196.495 249.191 197.581 250.814 198.693 251.702ZM198.029 249.504C197.588 246.513 200.772 248.122 201.571 248.87C202.085 249.35 202.55 249.902 202.993 250.447C203.92 251.589 204.668 252.841 205.472 254.066C204.4 253.575 203.295 253.181 202.207 252.731C200.908 252.193 198.272 251.154 198.029 249.504Z" fill="#263238"/>
<path d="M214.961 250.273C214.325 248.568 212.23 248.672 210.88 249.287C208.694 250.283 206.497 252.178 205.174 254.169C205.142 254.218 205.169 254.261 205.21 254.281C205.162 254.482 205.282 254.743 205.53 254.723C207.917 254.523 210.494 254.605 212.749 253.679C214.064 253.138 215.562 251.885 214.961 250.273ZM209.087 253.679C207.914 253.806 206.744 253.875 205.577 254.045C206.693 253.096 207.762 252.103 208.973 251.267C209.551 250.868 210.152 250.47 210.78 250.152C211.757 249.66 215.264 249.008 214.002 251.755C213.306 253.27 210.483 253.529 209.087 253.679Z" fill="#263238"/>
<path d="M201.251 251.591L229.067 243.248C229.067 243.248 206.14 195.467 206.863 193.037C207.345 191.414 241.722 191.301 251.796 182.255C262.224 172.891 254.105 154.499 254.105 154.499L225.204 154.35C225.204 154.35 225.7 160.382 224.596 161.321C223.868 161.946 184.352 165.423 176.785 179.952C169.917 193.139 201.251 251.591 201.251 251.591Z" fill="#263238"/>
<path d="M206.861 193.036C206.737 193.445 207.295 195.163 208.313 197.73L187.54 223.252C180.132 206.365 173.168 186.89 176.784 179.953C184.354 165.426 223.864 161.946 224.598 161.322C225.697 160.385 225.202 154.349 225.202 154.349L243.547 154.443L213.058 191.892C209.386 192.298 206.987 192.613 206.861 193.036Z" fill="#263238"/>
<path d="M200.561 245.706C201.28 245.343 202.072 245.12 202.829 244.863C203.631 244.59 204.433 244.315 205.24 244.056C206.827 243.545 208.421 243.056 210.025 242.603C213.255 241.69 216.491 240.794 219.745 239.967C221.441 239.536 225.075 238.595 225.3 238.63C225.408 238.646 225.433 238.828 225.336 238.863C222.191 239.988 218.999 240.952 215.807 241.925C212.62 242.896 209.427 243.857 206.196 244.673C205.301 244.899 204.4 245.099 203.503 245.314C202.563 245.539 201.613 245.84 200.643 245.927C200.551 245.935 200.46 245.758 200.561 245.706Z" fill="#455A64"/>
<path d="M252.553 160.005C252.464 159.04 252.355 158.077 252.246 157.114C252.233 157.003 252.059 157.004 252.07 157.117C252.455 161.026 252.852 165.027 252.132 168.922C251.46 172.565 249.675 175.753 246.97 178.275C241.236 183.623 233.218 185.197 225.748 186.468C221.469 187.196 217.165 187.756 212.845 188.18C210.73 188.387 208.61 188.557 206.489 188.689C204.386 188.82 202.279 188.84 200.177 188.957C199.513 188.994 198.921 189.297 199.024 190.056C199.087 190.516 199.345 190.963 199.529 191.384C199.753 191.895 199.98 192.405 200.206 192.916C201.049 194.825 201.897 196.732 202.751 198.636C204.511 202.561 206.295 206.474 208.105 210.376C211.696 218.123 215.425 225.809 219.283 233.426C219.762 234.372 220.242 235.317 220.723 236.261C220.754 236.323 220.843 236.267 220.814 236.206C217.127 228.49 213.479 220.754 209.888 212.993C208.106 209.141 206.319 205.292 204.556 201.431C203.674 199.501 202.798 197.569 201.926 195.634C201.491 194.667 201.057 193.699 200.623 192.73C200.407 192.246 200.191 191.762 199.975 191.277C199.796 190.874 199.142 189.909 199.593 189.533C199.894 189.282 200.52 189.368 200.882 189.358C201.44 189.342 201.999 189.321 202.559 189.302C203.621 189.267 204.682 189.224 205.744 189.171C207.894 189.063 210.042 188.915 212.187 188.73C216.388 188.366 220.576 187.833 224.739 187.163C232.163 185.969 240.236 184.621 246.178 179.638C248.798 177.44 250.858 174.61 251.876 171.327C253.009 167.676 252.9 163.77 252.553 160.005Z" fill="#455A64"/>
<path d="M128.669 234.44C129.714 235.486 166.682 253.65 168.483 253.452C168.693 253.439 170.406 250.13 172.677 245.565L172.722 245.475C174.171 242.588 187.322 218.299 187.322 218.299L164.322 206.655L150.806 230.292C150.806 230.292 144.791 229.898 139.426 229.812C139.418 229.815 139.413 229.812 139.41 229.817C136.104 229.755 133.207 229.759 132.461 229.919C130.52 230.344 127.619 233.405 128.669 234.44Z" fill="#AD6359"/>
<path d="M128.668 234.439C129.714 235.483 166.682 253.65 168.486 253.451C168.695 253.441 170.408 250.129 172.678 245.568L172.723 245.478C172.823 245.277 172.927 245.071 173.036 244.869C173.107 244.72 173.184 244.574 173.265 244.43C173.375 244.215 173.493 243.996 173.61 243.779C174.612 241.879 176.256 238.807 178.068 235.443L154.616 223.623L150.805 230.292C150.805 230.292 144.791 229.901 139.426 229.813C139.417 229.815 139.412 229.812 139.41 229.817C136.104 229.757 133.205 229.759 132.463 229.919C130.522 230.345 127.616 233.404 128.668 234.439Z" fill="white"/>
<path d="M128.446 234.504C129.53 235.569 166.589 253.666 168.439 253.463C169.141 253.39 172.487 247.947 175.065 241.381L151.159 229.742C151.159 229.742 134.329 229.39 132.325 229.83C130.327 230.274 127.364 233.438 128.446 234.504Z" fill="#4FAA89"/>
<path d="M129.702 233.281C135.988 236.162 161.073 248.375 167.069 251.701C167.118 251.728 167.101 251.762 167.05 251.74C160.757 249.021 135.771 236.605 129.652 233.382C129.523 233.314 129.569 233.22 129.702 233.281Z" fill="#263238"/>
<path d="M135.358 229.661C136.861 230.321 137.959 231.723 138.334 232.993C138.694 234.213 138.775 235.721 138.102 236.988C138.083 237.024 138.014 236.992 138.027 236.951C138.859 234.347 137.691 231.132 135.319 229.739C135.273 229.71 135.307 229.638 135.358 229.661Z" fill="#263238"/>
<path d="M148.905 229.413C151.409 230.593 153.863 232.878 154.415 235.666C154.436 235.775 154.282 235.803 154.227 235.729C152.545 233.472 150.83 231.566 148.713 229.698C148.564 229.566 148.726 229.329 148.905 229.413Z" fill="#263238"/>
<path d="M146.621 229.224C149.124 230.404 151.578 232.689 152.13 235.478C152.152 235.585 151.998 235.614 151.943 235.54C150.261 233.284 148.546 231.377 146.428 229.51C146.279 229.378 146.441 229.14 146.621 229.224Z" fill="#263238"/>
<path d="M144.335 229.035C146.839 230.215 149.293 232.5 149.845 235.289C149.866 235.397 149.713 235.425 149.658 235.351C147.976 233.095 146.261 231.188 144.143 229.321C143.994 229.189 144.156 228.951 144.335 229.035Z" fill="#263238"/>
<path d="M142.051 228.846C144.554 230.026 147.008 232.311 147.561 235.099C147.582 235.208 147.428 235.236 147.373 235.162C145.691 232.906 143.976 230.998 141.858 229.131C141.709 228.999 141.871 228.762 142.051 228.846Z" fill="#263238"/>
<path d="M168.368 245.028C171.154 246.398 169.028 250.73 166.238 249.357C163.452 247.986 165.578 243.655 168.368 245.028Z" fill="#263238"/>
<path d="M147.877 225.208C148.373 227.594 149.886 229.682 151.058 231.771C151.179 231.988 151.463 231.941 151.603 231.789C151.642 231.811 151.693 231.81 151.715 231.756C152.623 229.545 152.961 226.663 152.561 224.294C152.314 222.831 151.226 221.038 149.458 221.466C147.786 221.872 147.587 223.815 147.877 225.208ZM148.768 223.091C150.336 220.506 151.762 223.777 151.901 224.862C151.991 225.559 151.997 226.281 151.991 226.982C151.976 228.453 151.753 229.895 151.592 231.351C151.079 230.289 150.48 229.281 149.928 228.24C149.271 226.999 147.903 224.516 148.768 223.091Z" fill="#263238"/>
<path d="M161.32 234.482C161.918 232.763 160.237 231.508 158.805 231.12C156.486 230.494 153.585 230.552 151.296 231.241C151.24 231.258 151.234 231.309 151.253 231.35C151.088 231.474 151.014 231.752 151.218 231.894C153.184 233.263 155.116 234.97 157.443 235.694C158.802 236.117 160.754 236.107 161.32 234.482ZM154.622 233.359C153.639 232.709 152.694 232.016 151.687 231.403C153.151 231.383 154.608 231.3 156.073 231.429C156.772 231.49 157.49 231.566 158.176 231.723C159.242 231.966 162.359 233.701 159.635 235.012C158.133 235.735 155.795 234.134 154.622 233.359Z" fill="#263238"/>
<path d="M150.922 226.467L178.655 240.325C178.655 240.325 200.302 196.315 202.677 193.479C205.843 189.698 247.079 195.037 256.805 182.828C266.864 170.201 258.245 154.521 258.245 154.521L226.856 154.501C226.856 154.501 226.763 157.983 228.573 163.073C228.573 163.073 192.68 160.937 182.523 170.81C174.727 178.388 150.922 226.467 150.922 226.467Z" fill="#263238"/>
<path d="M234.294 166.241C232.675 165.145 231.031 164.108 229.301 163.191C228.427 162.728 226.634 161.933 225.519 161.663C224.604 161.441 224.202 161.374 225.061 161.779C225.552 162.011 226.494 162.46 227.37 162.876C227.205 162.871 227.041 162.866 226.883 162.858C226.267 162.826 225.649 162.805 225.032 162.789C223.826 162.757 222.617 162.765 221.41 162.759C218.96 162.744 216.535 162.976 214.092 163.098C214.027 163.101 214.029 163.201 214.094 163.199C216.533 163.12 218.982 163.249 221.421 163.239C222.63 163.234 223.836 163.269 225.043 163.291C225.633 163.303 226.223 163.313 226.813 163.323C227.3 163.33 227.819 163.369 228.312 163.325C228.574 163.449 228.812 163.562 228.985 163.644C230.76 164.481 232.53 165.354 234.24 166.317C234.291 166.345 234.344 166.276 234.294 166.241Z" fill="#455A64"/>
<path d="M226.115 153.327C226.434 154.809 226.708 156.299 227.079 157.769C227.25 158.442 227.417 159.128 227.648 159.785C227.842 160.339 228.144 160.974 228.772 161.118C229.497 161.283 229.726 160.665 229.687 160.061C229.643 159.387 229.494 158.708 229.384 158.042C229.257 157.274 229.128 156.506 229.014 155.737C228.958 155.351 228.898 154.967 228.847 154.581C228.834 154.484 228.787 153.749 228.742 153.537C228.735 153.554 228.723 153.571 228.7 153.567C228.692 153.565 228.684 153.564 228.675 153.562C228.655 153.559 228.633 153.545 228.631 153.523C228.625 153.465 228.627 153.454 228.672 153.414C228.691 153.397 228.718 153.4 228.739 153.412C228.875 153.493 228.879 153.684 228.919 153.827C229.025 154.202 229.133 154.577 229.229 154.956C229.409 155.663 229.583 156.373 229.738 157.087C229.892 157.8 230.042 158.515 230.193 159.229C230.305 159.762 230.441 160.325 230.28 160.865C230.103 161.454 229.619 161.737 229.095 161.765C229.119 161.814 229.147 161.861 229.168 161.911C229.227 162.058 229.269 162.213 229.318 162.363C229.369 162.517 229.414 162.67 229.453 162.827C229.471 162.902 229.482 162.979 229.488 163.055C229.495 163.141 229.474 163.223 229.483 163.309C229.495 163.441 229.314 163.515 229.252 163.383C229.216 163.306 229.162 163.246 229.122 163.172C229.08 163.095 229.051 163.007 229.025 162.923C228.98 162.775 228.943 162.627 228.91 162.475C228.878 162.325 228.837 162.175 228.815 162.023C228.802 161.933 228.801 161.842 228.797 161.752C228.499 161.711 228.205 161.599 227.961 161.401C227.534 161.055 227.295 160.541 227.128 160.03C226.927 159.411 226.777 158.773 226.626 158.14C226.252 156.574 225.943 154.986 225.849 153.376C225.838 153.206 226.078 153.152 226.115 153.327Z" fill="#455A64"/>
<path d="M241.248 157.544C241.357 158.277 241.417 159.017 241.56 159.745C241.701 160.458 241.869 161.171 242.079 161.866C242.28 162.531 242.531 163.204 242.911 163.789C243.28 164.357 243.775 164.853 244.288 165.289C245.295 166.145 246.444 166.838 247.672 167.325C248.291 167.571 248.925 167.784 249.57 167.951C249.905 168.039 250.246 168.109 250.588 168.165C250.873 168.211 251.156 168.231 251.407 168.384C251.514 168.449 251.489 168.62 251.382 168.669C250.935 168.871 250.321 168.731 249.854 168.666C249.307 168.591 248.765 168.48 248.234 168.325C247.165 168.013 246.134 167.524 245.198 166.923C244.278 166.334 243.357 165.605 242.694 164.731C242.005 163.824 241.639 162.773 241.418 161.666C241.154 160.339 240.99 158.902 241.108 157.551C241.114 157.472 241.237 157.463 241.248 157.544Z" fill="#455A64"/>
<path d="M156.55 221.421C157.323 221.651 158.051 222.033 158.778 222.365C159.548 222.717 160.32 223.068 161.085 223.433C162.59 224.152 164.083 224.891 165.561 225.662C168.536 227.216 171.504 228.787 174.437 230.419C175.966 231.27 179.254 233.082 179.395 233.262C179.462 233.348 179.355 233.497 179.261 233.455C176.203 232.115 173.22 230.624 170.231 229.14C167.246 227.658 164.265 226.164 161.356 224.539C160.55 224.089 159.758 223.616 158.958 223.157C158.12 222.676 157.223 222.242 156.458 221.639C156.385 221.581 156.441 221.389 156.55 221.421Z" fill="#455A64"/>
<path d="M258.224 161.82C258.221 161.686 258.014 161.689 258.015 161.824C258.075 168.64 257.022 176.261 251.776 181.149C246.024 186.51 237.726 187.149 230.258 187.087C225.971 187.051 221.692 186.941 217.405 187.078C213.099 187.215 208.75 187.427 204.474 187.972C202.749 188.193 201.302 188.814 200.083 190.072C198.899 191.296 198.048 192.807 197.173 194.256C195.017 197.828 192.928 201.44 190.907 205.091C186.891 212.347 183.177 219.765 179.757 227.32C179.333 228.259 178.912 229.199 178.496 230.142C178.469 230.204 178.561 230.257 178.59 230.194C182.061 222.608 185.816 215.153 189.8 207.823C191.793 204.158 193.854 200.529 195.983 196.941C196.983 195.254 197.952 193.527 199.067 191.913C200.053 190.486 201.286 189.145 202.994 188.628C204.024 188.316 205.123 188.261 206.188 188.164C207.283 188.063 208.379 187.973 209.475 187.893C211.612 187.736 213.752 187.62 215.892 187.542C220.214 187.385 224.529 187.437 228.851 187.515C236.355 187.651 244.552 187.393 250.773 182.617C253.464 180.551 255.404 177.719 256.556 174.541C257.73 171.301 258.149 167.824 258.228 164.394C258.247 163.536 258.243 162.678 258.224 161.82Z" fill="#455A64"/>
<path d="M213.302 191.672C211.771 191.7 210.241 191.764 208.711 191.815C207.438 191.858 206.158 191.845 204.912 192.154C203.754 192.443 202.833 192.583 201.886 193.878C200.702 195.496 194.258 207.944 191.553 213.456C190.803 214.984 190.062 216.516 189.335 218.055C188.584 219.646 187.918 221.275 187.171 222.865C187.144 222.924 187.23 222.973 187.259 222.914C187.921 221.584 188.66 220.29 189.343 218.97C190.028 217.649 190.694 216.318 191.359 214.987C192.701 212.3 194.043 209.612 195.394 206.929C196.733 204.27 198.359 201.677 199.718 199.028C200.86 196.801 202.418 193.762 203.505 193.312C204.786 192.781 206.871 192.257 208.244 192.16C209.931 192.042 211.62 191.939 213.305 191.794C213.382 191.787 213.381 191.671 213.302 191.672Z" fill="#455A64"/>
<path d="M240.592 122.628C232.314 133.471 216.199 146.392 210.92 145.322C208.408 144.813 203.806 144.444 201.142 140.855C195.328 133.024 192.725 122.376 190.931 117.072C190.117 114.664 205.334 107.309 206.66 109.681C209.766 115.235 212.57 125.421 213.31 125.523C216.048 125.901 228.379 119.203 237.174 114.818C247.029 109.905 243.891 118.307 240.592 122.628Z" fill="#AD6359"/>
<path d="M192.532 119.842C191.331 118.077 186.538 109.502 185.738 106.818C184.938 104.134 183.196 96.2416 185.19 95.4199C187.184 94.5988 187.878 96.8685 187.878 96.8685C187.878 96.8685 187.67 93.4196 189.753 92.7755C191.835 92.132 192.8 95.6982 192.8 95.6982C192.8 95.6982 192.845 92.1402 194.967 91.6471C197.09 91.1534 197.46 94.9019 197.46 94.9019C197.46 94.9019 197.349 91.6471 199.269 91.9763C201.579 92.3723 201.105 98.3953 202.211 101.293C202.462 101.951 208.248 114.267 208.248 114.267L192.532 119.842Z" fill="#AD6359"/>
<path d="M197.421 94.581C197.084 99.0115 197.702 101.008 199.748 104.874C199.789 104.95 199.685 105.026 199.637 104.951C197.288 101.348 196.15 98.9552 197.208 94.5537C197.259 94.3382 197.437 94.3702 197.421 94.581Z" fill="#263238"/>
<path d="M192.833 95.347C192.884 99.9788 193.536 102.151 195.382 106.357C195.408 106.417 195.31 106.467 195.278 106.409C193.122 102.434 192.042 100.021 192.599 95.3861C192.625 95.1765 192.831 95.1351 192.833 95.347Z" fill="#263238"/>
<path d="M187.979 97.0793C188.352 101.561 188.964 103.972 191.28 107.826C191.334 107.916 191.207 108.005 191.144 107.919C188.4 104.219 187.614 101.216 187.844 97.1053C187.86 96.8253 187.955 96.7981 187.979 97.0793Z" fill="#263238"/>
<path d="M197.918 90.4243L204.984 109.705C205.179 110.237 204.909 110.678 204.382 110.688L194.952 110.874C194.425 110.884 193.839 110.461 193.644 109.928L186.578 90.6475C186.383 90.1141 186.651 89.6737 187.178 89.6636L196.609 89.4777C197.136 89.4677 197.722 89.8909 197.918 90.4243Z" fill="#37474F"/>
<path d="M197.191 89.4667L187.76 89.6526C187.234 89.6633 186.965 90.1031 187.16 90.6365L194.226 109.917C194.421 110.449 195.007 110.873 195.534 110.863L204.964 110.677C205.491 110.667 205.761 110.226 205.566 109.694L198.5 90.4133C198.304 89.8799 197.717 89.4567 197.191 89.4667ZM204.751 109.109C204.936 109.617 204.704 110.035 204.233 110.044L195.796 110.21C195.323 110.22 194.79 109.817 194.604 109.309L188.024 91.3558C187.645 90.3222 188.009 90.2641 188.482 90.2547L190.172 90.2215C190.27 90.2197 190.391 90.3287 190.441 90.466L190.463 90.5252C190.581 90.8473 190.759 90.8449 190.976 90.8408L194.884 90.7638C195.104 90.7597 195.28 90.7549 195.162 90.4329L195.14 90.3737C195.09 90.2363 195.128 90.1238 195.228 90.1221L196.918 90.0889C197.39 90.0794 197.823 90.2097 198.17 91.1563L204.751 109.109Z" fill="#263238"/>
<path d="M198.17 91.1557L204.75 109.109C204.936 109.617 204.704 110.035 204.232 110.044L195.796 110.21C195.323 110.22 194.79 109.817 194.603 109.309L188.023 91.3558C187.644 90.3221 188.009 90.2641 188.482 90.2547L190.172 90.2215C190.27 90.2197 190.391 90.3286 190.441 90.466L190.463 90.5252C190.581 90.8472 190.759 90.8449 190.976 90.8407L194.884 90.7638C195.104 90.7596 195.28 90.7549 195.162 90.4328L195.14 90.3736C195.089 90.2363 195.128 90.1238 195.228 90.122L196.918 90.0889C197.39 90.0788 197.823 90.2091 198.17 91.1557Z" fill="white"/>
<path d="M198.17 91.1557L198.756 92.7541L188.61 92.9542L188.024 91.3558C187.645 90.3221 188.009 90.2641 188.482 90.2547L190.172 90.2215C190.27 90.2197 190.391 90.3286 190.442 90.466L190.463 90.5252C190.581 90.8472 190.759 90.8449 190.977 90.8407L194.885 90.7638C195.104 90.7596 195.28 90.7549 195.162 90.4328L195.14 90.3736C195.09 90.2363 195.128 90.1238 195.229 90.122L196.918 90.0889C197.39 90.0788 197.823 90.2091 198.17 91.1557Z" fill="#4FAA89"/>
<path d="M190.028 90.6301C190.024 90.6354 190.02 90.6413 190.017 90.6467C190.015 90.6496 190.013 90.6532 190.011 90.6561C189.952 90.6147 189.891 90.5934 189.83 90.5946C189.769 90.5958 189.724 90.6194 189.696 90.6626C189.692 90.6597 189.688 90.6567 189.684 90.6538C189.677 90.6484 189.669 90.6431 189.662 90.6378H189.661V90.6372L189.662 90.636C189.666 90.6301 189.671 90.6236 189.676 90.6177C189.686 90.6052 189.698 90.5952 189.713 90.5863C189.729 90.5762 189.748 90.5685 189.768 90.5638C189.778 90.5614 189.788 90.5602 189.798 90.559C189.802 90.5585 189.825 90.5579 189.826 90.5579C189.833 90.5585 189.841 90.5585 189.848 90.559C189.869 90.5608 189.89 90.565 189.912 90.5715C189.927 90.5762 189.942 90.5821 189.958 90.5892C189.974 90.5963 189.99 90.6046 190.005 90.6147C190.012 90.62 190.02 90.6248 190.028 90.6301Z" fill="white"/>
<path d="M189.767 90.7125C189.755 90.7042 189.744 90.6959 189.732 90.6876C189.751 90.6586 189.779 90.6397 189.818 90.6332C189.876 90.6237 189.935 90.6409 189.995 90.6823C189.989 90.6912 189.984 90.6995 189.978 90.7083C189.939 90.6805 189.898 90.6663 189.857 90.6669C189.815 90.6675 189.786 90.6835 189.767 90.7125Z" fill="white"/>
<path d="M189.962 90.7342C189.957 90.7425 189.951 90.7514 189.946 90.7603C189.925 90.7461 189.905 90.7384 189.883 90.739C189.862 90.7396 189.847 90.7479 189.837 90.7627C189.825 90.7544 189.814 90.7461 189.802 90.7378C189.828 90.694 189.9 90.6892 189.962 90.7342Z" fill="white"/>
<path d="M189.923 90.7837C189.928 90.796 189.921 90.8065 189.908 90.8071C189.895 90.8071 189.881 90.7971 189.877 90.7849C189.872 90.7726 189.878 90.7621 189.891 90.7615C189.905 90.7609 189.919 90.7708 189.923 90.7837Z" fill="white"/>
<path d="M188.454 90.7104C188.44 90.6737 188.459 90.6429 188.497 90.6423C188.534 90.6418 188.575 90.6708 188.589 90.7081C188.603 90.7448 188.584 90.7755 188.546 90.7761C188.508 90.7767 188.467 90.7471 188.454 90.7104Z" fill="white"/>
<path d="M188.666 90.7065C188.652 90.6698 188.671 90.639 188.708 90.6384C188.746 90.6378 188.787 90.6669 188.801 90.7042C188.815 90.7409 188.795 90.7716 188.758 90.7722C188.72 90.7728 188.679 90.7432 188.666 90.7065Z" fill="white"/>
<path d="M188.877 90.7024C188.863 90.6657 188.883 90.6349 188.92 90.6343C188.957 90.6337 188.999 90.6627 189.012 90.7C189.026 90.7367 189.006 90.7675 188.969 90.7681C188.932 90.7687 188.891 90.7391 188.877 90.7024Z" fill="white"/>
<path d="M189.089 90.6982C189.075 90.6615 189.094 90.6307 189.132 90.6301C189.169 90.6295 189.21 90.6585 189.224 90.6958C189.238 90.7325 189.219 90.7633 189.181 90.7639C189.144 90.7645 189.103 90.7349 189.089 90.6982Z" fill="white"/>
<path d="M189.301 90.6941C189.287 90.6574 189.306 90.6266 189.344 90.626C189.381 90.6254 189.422 90.6544 189.436 90.6917C189.45 90.7284 189.43 90.7592 189.393 90.7598C189.356 90.7604 189.315 90.7308 189.301 90.6941Z" fill="white"/>
<path d="M197.231 90.6846L196.683 90.6952L196.591 90.443L197.138 90.4324L197.231 90.6846ZM196.702 90.6674L197.193 90.6579L197.121 90.4614L196.629 90.4709L196.702 90.6674Z" fill="white"/>
<path d="M197.005 90.4785L196.652 90.4856L196.713 90.652L197.066 90.6449L197.005 90.4785Z" fill="white"/>
<path d="M197.259 90.6255L197.21 90.626L197.16 90.4917L197.209 90.4905L197.259 90.6255Z" fill="white"/>
<path d="M193.317 90.3891L192.25 90.4105C192.214 90.411 192.174 90.3826 192.16 90.3465C192.147 90.3104 192.166 90.2808 192.202 90.2796L193.269 90.2583C193.305 90.2577 193.345 90.2861 193.359 90.3222C193.372 90.359 193.353 90.3886 193.317 90.3891Z" fill="white"/>
<path d="M194.514 98.503L193.881 98.0513C194.156 97.2225 195.126 96.9898 196.294 97.4723C197.274 97.8772 198.253 98.7315 198.85 99.7018L198.33 99.771C197.873 99.0257 197.121 98.3698 196.368 98.059C195.47 97.6878 194.725 97.8666 194.514 98.503Z" fill="#4FAA89"/>
<path d="M197.599 99.3621L199.074 101.015L199.258 99.5746L197.599 99.3621Z" fill="#4FAA89"/>
<g opacity="0.2">
<path d="M194.514 98.503L193.881 98.0513C194.156 97.2225 195.126 96.9898 196.294 97.4723C197.274 97.8772 198.253 98.7315 198.85 99.7018L198.33 99.771C197.873 99.0257 197.121 98.3698 196.368 98.059C195.47 97.6878 194.725 97.8666 194.514 98.503Z" fill="black"/>
<path d="M197.599 99.3621L199.074 101.015L199.258 99.5746L197.599 99.3621Z" fill="black"/>
</g>
<path d="M196.914 102.378C195.934 101.973 194.955 101.118 194.359 100.148L194.878 100.079C195.336 100.824 196.088 101.48 196.84 101.791C197.784 102.181 198.557 101.958 198.721 101.248L199.362 101.67C199.151 102.595 198.144 102.886 196.914 102.378Z" fill="#4FAA89"/>
<path d="M195.609 100.488L194.133 98.8357L193.95 100.276L195.609 100.488Z" fill="#4FAA89"/>
<path d="M208.11 114.203C208.11 114.203 209.968 108.33 209.447 105.841C208.926 103.354 205.051 100.471 203.058 99.2725C200.595 97.7913 199.944 100.114 200.379 101.606C201.116 104.135 203.705 106.881 203.872 106.972C203.872 106.972 198.488 109.72 199.089 114.987L208.11 114.203Z" fill="#AD6359"/>
<path d="M209.211 114.113L191.78 123.919C191.78 123.919 197.899 140.34 203.72 143.44C209.541 146.541 211.568 146.157 213.337 146.068C215.105 145.98 229.459 137.597 240.328 123.097C250.596 109.398 240.464 112.506 232.674 116.664C228.234 119.034 214.299 124.848 213.828 124.609C213.355 124.369 209.211 114.113 209.211 114.113Z" fill="#4FAA89"/>
<path d="M217.536 144.028C217.465 144.075 217.394 144.116 217.323 144.158C216.708 143.146 216.062 142.157 215.352 141.21C214.926 140.641 214.47 140.097 213.984 139.576C213.86 139.434 213.724 139.298 213.588 139.161C213.244 138.812 212.883 138.481 212.504 138.173C211.439 137.285 210.202 136.645 208.881 136.267C207.555 135.876 206.176 135.68 204.791 135.68C203.405 135.669 202.014 135.817 200.635 136.018C200.013 136.113 199.392 136.213 198.77 136.32C198.516 136.361 198.261 136.409 198.006 136.456C197.918 136.468 197.823 136.486 197.734 136.503C197.645 136.355 197.556 136.201 197.474 136.053C197.503 136.047 197.533 136.042 197.556 136.036C197.805 135.988 198.054 135.941 198.302 135.899C199.048 135.763 199.8 135.627 200.558 135.509C201.949 135.29 203.37 135.148 204.797 135.171C206.217 135.177 207.65 135.39 209.018 135.805C210.397 136.213 211.688 136.924 212.765 137.859C213.197 138.226 213.6 138.617 213.984 139.025C214.115 139.161 214.239 139.303 214.363 139.446C214.807 139.949 215.222 140.476 215.612 141.02C216.311 141.991 216.939 142.998 217.536 144.028ZM235.089 126.161C233.621 124.871 232.301 123.426 231.01 121.952C230.904 121.834 230.803 121.715 230.703 121.597H230.697C230.241 121.076 229.791 120.549 229.335 120.028C228.974 119.614 228.613 119.199 228.24 118.791C228.181 118.82 228.121 118.85 228.062 118.874C228.441 119.3 228.814 119.726 229.181 120.158C229.601 120.644 230.016 121.135 230.442 121.626C230.537 121.745 230.643 121.863 230.744 121.982C231.141 122.443 231.537 122.899 231.94 123.355C232.869 124.415 233.828 125.445 234.87 126.404C235.397 126.889 235.942 127.351 236.522 127.777C236.611 127.683 236.694 127.594 236.765 127.499C236.184 127.091 235.622 126.635 235.089 126.161ZM238.967 123.083C237.724 122.384 236.338 121.964 234.947 121.727C233.544 121.478 232.117 121.449 230.703 121.597H230.697C230.614 121.603 230.525 121.615 230.442 121.626C229.116 121.78 227.814 122.112 226.547 122.52C225.197 122.958 223.889 123.491 222.592 124.024C221.29 124.551 219.993 125.095 218.661 125.468C217.335 125.853 215.956 126.055 214.6 125.93C213.925 125.853 213.262 125.711 212.611 125.474C211.948 125.291 211.326 124.989 210.699 124.711C209.462 124.095 208.313 123.314 207.218 122.461C206.117 121.615 205.075 120.673 204.009 119.75C203.37 119.199 202.731 118.655 202.062 118.134L201.499 118.453C202.221 119.004 202.92 119.602 203.613 120.206C205.714 122.047 207.84 123.994 210.432 125.261C211.09 125.545 211.741 125.853 212.433 126.043C213.108 126.279 213.825 126.433 214.547 126.504C215.997 126.629 217.454 126.404 218.815 125.995C221.556 125.178 224.043 123.84 226.689 122.946C228.009 122.502 229.359 122.135 230.738 121.982H230.744C230.833 121.97 230.922 121.958 231.01 121.952C232.301 121.816 233.609 121.834 234.894 122.041C236.273 122.254 237.623 122.639 238.848 123.302C239.162 123.467 239.464 123.645 239.76 123.84C239.808 123.781 239.855 123.716 239.896 123.657C239.594 123.45 239.287 123.26 238.967 123.083ZM222.438 137.012C221.017 137.066 219.608 137.338 218.241 137.681C216.868 138.043 215.53 138.498 214.198 138.954C214.127 138.978 214.056 139.002 213.984 139.025C213.854 139.073 213.718 139.114 213.588 139.161C212.463 139.54 211.338 139.913 210.196 140.162C208.846 140.464 207.461 140.588 206.117 140.375C205.442 140.263 204.791 140.085 204.157 139.807C203.506 139.582 202.902 139.244 202.287 138.931C201.097 138.244 199.996 137.397 198.948 136.48C198.888 136.426 198.829 136.373 198.77 136.32C198.61 136.184 198.456 136.042 198.302 135.899C197.633 135.284 196.988 134.639 196.331 134.005C196.663 134.621 197.006 135.242 197.355 135.846C197.42 135.911 197.485 135.976 197.556 136.036C197.704 136.178 197.852 136.32 198.006 136.456C199.226 137.581 200.522 138.629 201.991 139.463C202.63 139.789 203.257 140.132 203.938 140.363C204.601 140.641 205.312 140.837 206.028 140.949C207.467 141.162 208.929 141.02 210.314 140.695C211.569 140.399 212.783 139.996 213.984 139.576C214.109 139.528 214.239 139.487 214.363 139.446C215.689 138.966 217.004 138.487 218.353 138.119C219.697 137.752 221.071 137.468 222.456 137.397C223.758 137.314 225.079 137.391 226.357 137.658C226.464 137.575 226.564 137.486 226.671 137.391C225.292 137.06 223.859 136.947 222.438 137.012Z" fill="white"/>
<path opacity="0.1" d="M216.431 144.675C221.622 141.728 231.997 134.207 240.331 123.097C245.794 115.806 245.476 113.276 242.809 113.128C240.007 116.413 224.731 134.713 216.431 144.675Z" fill="#263238"/>
<path d="M209.805 118.974C208.706 119.808 207.466 120.49 206.289 121.208C205.063 121.957 203.813 122.665 202.567 123.381C201.322 124.096 196.244 126.79 194.976 127.462C194.919 127.493 194.873 127.408 194.928 127.375C196.154 126.623 201.014 123.646 202.239 122.95C203.465 122.254 204.686 121.549 205.93 120.886C207.189 120.216 208.449 119.465 209.77 118.926C209.797 118.914 209.834 118.951 209.805 118.974Z" fill="#263238"/>
<path d="M219.754 162.155L262.507 166.665C262.708 166.457 260.25 124.533 248.146 114.228C246.235 112.601 241.137 110.157 235.619 117.204C229.902 124.505 219.754 162.155 219.754 162.155Z" fill="#4FAA89"/>
<path d="M262.374 163.7C262.345 163.67 262.315 163.641 262.285 163.611C261.486 162.836 260.705 162.042 259.888 161.296C259.734 161.154 259.58 161.012 259.42 160.876C259.361 160.823 259.302 160.77 259.242 160.716C258.195 159.799 257.099 158.952 255.904 158.265C255.288 157.952 254.684 157.614 254.033 157.389C253.399 157.111 252.748 156.933 252.079 156.821C250.729 156.608 249.344 156.732 247.994 157.034C246.852 157.283 245.727 157.656 244.608 158.04C244.472 158.082 244.342 158.123 244.206 158.171C244.135 158.194 244.064 158.218 243.993 158.242C242.661 158.698 241.323 159.153 239.949 159.509C238.582 159.858 237.179 160.13 235.752 160.183C234.331 160.249 232.898 160.13 231.519 159.805C230.14 159.485 228.784 158.982 227.588 158.212C226.386 157.448 225.333 156.483 224.403 155.418C223.675 154.583 223.018 153.701 222.408 152.783C222.432 152.707 222.45 152.63 222.473 152.553C223.113 153.506 223.799 154.423 224.557 155.282C225.481 156.335 226.529 157.277 227.718 157.999C228.902 158.733 230.229 159.195 231.59 159.491C232.946 159.793 234.349 159.882 235.734 159.799C237.119 159.722 238.493 159.443 239.837 159.076C241.186 158.709 242.501 158.23 243.827 157.75C243.951 157.709 244.081 157.667 244.206 157.62C245.407 157.2 246.621 156.797 247.876 156.501C249.261 156.176 250.724 156.034 252.162 156.247C252.878 156.359 253.589 156.555 254.252 156.833C254.933 157.064 255.56 157.407 256.2 157.733C257.668 158.567 258.964 159.615 260.19 160.74C260.338 160.876 260.492 161.018 260.64 161.16C261.208 161.693 261.758 162.244 262.309 162.782C262.333 163.108 262.356 163.416 262.374 163.7ZM255.4 126.41C253.772 127.031 252.168 127.695 250.546 128.287C249.232 128.766 247.906 129.192 246.544 129.459C246.195 129.53 245.845 129.589 245.496 129.63C245.425 129.642 245.36 129.654 245.295 129.654C244.342 129.772 243.377 129.79 242.418 129.701C241.044 129.601 239.706 129.222 238.481 128.565C237.256 127.925 236.131 127.085 235.089 126.161C234.112 125.297 233.194 124.367 232.312 123.408L232.206 123.657C233.052 124.61 233.929 125.54 234.87 126.404C235.912 127.363 237.037 128.239 238.292 128.926C239.535 129.624 240.944 130.063 242.376 130.187C243.454 130.287 244.543 130.264 245.615 130.122C245.686 130.116 245.757 130.11 245.822 130.098C246.094 130.063 246.366 130.015 246.639 129.962C248.042 129.695 249.403 129.269 250.724 128.772C252.352 128.162 253.95 127.481 255.56 126.854C255.513 126.706 255.46 126.558 255.4 126.41ZM259.905 144.057C259.586 144.01 259.266 143.951 258.946 143.874C257.603 143.578 256.33 143.01 255.211 142.187C254.086 141.376 253.097 140.387 252.192 139.321C250.38 137.19 248.9 134.793 247.373 132.431C246.864 131.643 246.355 130.868 245.822 130.098C245.715 129.944 245.609 129.79 245.496 129.63C245.336 129.399 245.171 129.169 245.005 128.938C244.182 127.795 243.3 126.688 242.311 125.682C241.323 124.675 240.21 123.77 238.966 123.083C237.723 122.384 236.338 121.964 234.947 121.727C234.355 121.621 233.757 121.555 233.159 121.526C233.106 121.638 233.052 121.757 232.999 121.869C233.633 121.881 234.266 121.94 234.893 122.041C236.273 122.254 237.623 122.639 238.848 123.302C240.073 123.953 241.181 124.829 242.163 125.824C243.324 126.996 244.348 128.298 245.295 129.654C245.407 129.808 245.514 129.962 245.615 130.122C246.165 130.915 246.686 131.732 247.201 132.543C247.959 133.727 248.699 134.917 249.474 136.095C250.244 137.273 251.049 138.433 251.943 139.535C252.837 140.624 253.826 141.66 254.968 142.518C256.105 143.383 257.437 144.022 258.834 144.347C259.219 144.436 259.604 144.513 259.994 144.572C259.971 144.401 259.935 144.229 259.905 144.057ZM262.102 160.414C261.462 160.521 260.829 160.633 260.19 160.74C259.935 160.787 259.681 160.835 259.42 160.876C258.798 160.983 258.183 161.083 257.561 161.178C256.176 161.379 254.791 161.527 253.399 161.515C252.014 161.515 250.635 161.32 249.309 160.929C247.989 160.551 246.751 159.905 245.686 159.023C245.313 158.715 244.952 158.39 244.608 158.04C244.466 157.904 244.336 157.762 244.206 157.62C243.72 157.099 243.27 156.555 242.844 155.986C241.163 153.748 239.825 151.262 238.44 148.817C237.753 147.592 237.037 146.378 236.285 145.188C235.533 143.998 234.716 142.844 233.786 141.778C232.857 140.713 231.803 139.748 230.601 138.984C229.536 138.297 228.346 137.824 227.126 137.51C227.097 137.605 227.061 137.705 227.032 137.806C228.239 138.102 229.412 138.54 230.471 139.197C231.661 139.919 232.709 140.861 233.633 141.914C235.485 144.016 236.906 146.461 238.262 148.918C238.949 150.143 239.618 151.38 240.322 152.6C241.021 153.819 241.749 155.027 242.578 156.176C242.968 156.72 243.383 157.247 243.827 157.75C243.951 157.892 244.075 158.035 244.206 158.171C244.59 158.579 244.993 158.97 245.425 159.337C246.503 160.272 247.799 160.983 249.173 161.391C250.54 161.806 251.973 162.019 253.393 162.025C254.82 162.048 256.241 161.906 257.632 161.681C258.39 161.563 259.142 161.433 259.888 161.296C260.142 161.249 260.391 161.202 260.64 161.16C261.143 161.066 261.646 160.977 262.149 160.882C262.131 160.728 262.12 160.574 262.102 160.414Z" fill="white"/>
<path d="M254.042 122.735C256.313 127.955 263.58 150.689 262.631 155.225C260.912 163.438 234.89 167.599 229.319 169.498C226.995 170.29 220.972 153.21 222.913 151.444C224.223 150.253 244.229 147.418 245.136 145.678C246.043 143.938 246.245 132.233 245.382 122.839C244.56 113.891 249.23 111.67 254.042 122.735Z" fill="#AD6359"/>
<path d="M217.804 150.715C212.072 151.232 210.679 152.245 205.61 150.113C202.284 148.714 199.962 150.237 202.348 153.135C206.251 157.874 213.786 158.759 216.487 158.314L217.804 150.715Z" fill="#AD6359"/>
<path d="M233.794 152.631C233.794 152.631 226.75 150.617 220.587 150.565C216.325 150.528 207.045 151.482 200.486 162.383C198.931 164.968 198.548 169.756 202.622 166.455C205.516 164.111 206.643 161.75 208.575 160.693C208.575 160.693 208.811 166.841 211.462 168.297C212.646 168.949 215.922 170.651 218.66 171.611C218.66 171.611 219.03 171.071 219.401 170.32C219.401 170.32 223.296 172.397 229.318 169.497L233.794 152.631Z" fill="#AD6359"/>
<path d="M216.514 151.179C214.819 152.634 211.277 155.777 209.275 159.355C207.05 163.33 203.835 171.587 206.787 173.199C208.951 174.381 210.456 171.336 210.456 171.336C210.456 171.336 209.846 175.029 212.034 175.669C214.028 176.252 215.051 173.827 215.051 173.827C215.051 173.827 215.067 176.131 217.096 176.323C219.537 176.554 219.104 171.688 221.778 169.786C222.377 169.36 216.514 151.179 216.514 151.179Z" fill="#AD6359"/>
<path d="M213.866 161.005C212.496 162.635 210.334 167.133 210.404 171.256C210.406 171.349 210.477 171.398 210.494 171.313C211.38 166.757 213.079 162.703 213.903 161.026C213.915 161.004 213.881 160.987 213.866 161.005Z" fill="#263238"/>
<path d="M217.814 163.368C216.776 164.895 214.754 169.632 214.97 173.807C214.974 173.9 215.049 173.944 215.063 173.858C215.792 169.06 217.13 165.11 217.853 163.387C217.861 163.363 217.827 163.348 217.814 163.368Z" fill="#263238"/>
<path d="M225.146 149.516L233.039 170.098C233.039 170.098 260.229 166.118 263.703 155.156C265.136 150.635 258.533 129.968 254.257 121.873C249.981 113.779 244.271 110.412 245.006 124.205C245.741 137.998 245.389 144.623 244.69 145.248C243.99 145.874 225.146 149.516 225.146 149.516Z" fill="#4FAA89"/>
<path d="M259.817 160.409C259.657 160.545 259.497 160.675 259.331 160.799C259.302 160.77 259.272 160.74 259.243 160.716C258.195 159.799 257.1 158.952 255.904 158.265C255.288 157.952 254.684 157.614 254.033 157.389C253.4 157.111 252.748 156.933 252.079 156.821C250.73 156.608 249.344 156.732 247.995 157.034C246.852 157.283 245.727 157.656 244.608 158.041C244.472 158.082 244.342 158.123 244.206 158.171C244.135 158.194 244.064 158.218 243.993 158.242C242.661 158.698 241.323 159.153 239.949 159.509C238.582 159.858 237.179 160.13 235.752 160.184C234.331 160.249 232.899 160.13 231.519 159.805C230.56 159.58 229.613 159.272 228.719 158.84L228.583 158.479C229.536 158.94 230.554 159.266 231.59 159.491C232.946 159.793 234.349 159.882 235.734 159.799C237.12 159.722 238.493 159.444 239.837 159.077C241.187 158.709 242.501 158.23 243.827 157.75C243.951 157.709 244.082 157.668 244.206 157.62C245.408 157.2 246.621 156.797 247.876 156.501C249.262 156.176 250.724 156.034 252.162 156.247C252.879 156.359 253.589 156.555 254.252 156.833C254.933 157.064 255.56 157.407 256.2 157.733C257.52 158.479 258.704 159.408 259.817 160.409ZM256.229 126.096C254.317 126.801 252.447 127.594 250.546 128.287C249.232 128.766 247.906 129.192 246.544 129.459C246.195 129.53 245.846 129.589 245.496 129.63C245.425 129.642 245.36 129.654 245.295 129.654C245.277 129.66 245.266 129.66 245.254 129.66C245.26 129.832 245.266 129.997 245.271 130.163C245.384 130.151 245.502 130.14 245.615 130.122C245.686 130.116 245.757 130.11 245.822 130.098C246.094 130.063 246.367 130.015 246.639 129.962C248.042 129.696 249.404 129.269 250.724 128.772C252.642 128.05 254.513 127.245 256.413 126.528C256.354 126.38 256.289 126.238 256.229 126.096ZM262.339 144.241C261.196 144.253 260.054 144.134 258.947 143.874C257.603 143.578 256.33 143.01 255.211 142.187C254.086 141.376 253.098 140.387 252.192 139.321C250.38 137.19 248.9 134.793 247.373 132.431C246.864 131.643 246.355 130.868 245.822 130.098C245.715 129.944 245.609 129.79 245.496 129.63C245.414 129.506 245.325 129.388 245.236 129.263C245.242 129.376 245.248 129.482 245.254 129.595C245.271 129.613 245.283 129.636 245.295 129.654C245.408 129.808 245.514 129.962 245.615 130.122C246.165 130.915 246.686 131.732 247.201 132.543C247.959 133.727 248.699 134.917 249.475 136.095C250.244 137.273 251.049 138.433 251.943 139.535C252.837 140.624 253.826 141.66 254.968 142.518C256.105 143.383 257.437 144.022 258.834 144.348C260.024 144.632 261.25 144.762 262.469 144.75C262.422 144.578 262.38 144.413 262.339 144.241ZM257.561 161.178C256.176 161.379 254.791 161.527 253.4 161.516C252.014 161.516 250.635 161.32 249.309 160.929C247.989 160.551 246.751 159.905 245.686 159.023C245.313 158.715 244.952 158.39 244.608 158.041C244.466 157.904 244.336 157.762 244.206 157.62C243.72 157.099 243.271 156.555 242.844 155.986C241.163 153.749 239.825 151.262 238.44 148.817C238.108 148.225 237.765 147.633 237.416 147.041C237.351 147.053 237.291 147.065 237.226 147.083C237.581 147.692 237.925 148.302 238.262 148.918C238.949 150.143 239.618 151.381 240.322 152.6C241.021 153.82 241.749 155.027 242.578 156.176C242.969 156.72 243.383 157.247 243.827 157.75C243.951 157.893 244.076 158.035 244.206 158.171C244.591 158.579 244.993 158.97 245.425 159.337C246.503 160.272 247.799 160.983 249.173 161.391C250.54 161.806 251.973 162.019 253.394 162.025C254.82 162.048 256.241 161.906 257.632 161.681C257.84 161.646 258.053 161.616 258.26 161.581C258.574 161.368 258.882 161.143 259.178 160.918C258.639 161.006 258.1 161.095 257.561 161.178Z" fill="white"/>
<path d="M248.752 166.195C254.54 163.409 259.195 160.829 261.565 158.527C262.467 157.651 262.121 158.379 260.908 159.491C258.707 161.511 255.783 163.43 248.836 166.251C248.782 166.273 248.698 166.221 248.752 166.195Z" fill="#263238"/>
<path d="M231.037 150.092C231.762 151.415 232.297 152.868 232.883 154.257C233.493 155.706 234.057 157.172 234.628 158.637C235.199 160.099 237.29 166.03 237.81 167.51C237.834 167.577 237.735 167.613 237.708 167.548C237.094 166.1 234.663 160.36 234.109 158.922C233.556 157.483 232.991 156.048 232.476 154.594C231.956 153.123 231.348 151.639 230.979 150.123C230.972 150.089 231.018 150.056 231.037 150.092Z" fill="#263238"/>
<path d="M225.338 150.017L225.125 149.524L225.114 149.5L225.142 149.493C227.963 148.831 230.793 148.221 233.619 147.592C236.45 146.993 239.279 146.375 242.09 145.719C242.79 145.552 243.498 145.386 244.167 145.175C244.249 145.148 244.332 145.12 244.405 145.09C244.48 145.062 244.55 145.022 244.52 145.037C244.566 144.977 244.626 144.79 244.661 144.633C244.738 144.301 244.785 143.945 244.828 143.592C244.978 142.169 245.046 140.722 245.116 139.28C245.23 136.391 245.287 133.496 245.357 130.6C245.505 133.494 245.569 136.391 245.539 139.291C245.527 140.742 245.497 142.192 245.348 143.65C245.307 144.015 245.265 144.379 245.182 144.754C245.131 144.945 245.11 145.121 244.952 145.363C244.817 145.532 244.699 145.548 244.614 145.594C244.519 145.634 244.431 145.665 244.341 145.696C243.632 145.929 242.931 146.102 242.225 146.28C239.402 146.961 236.558 147.509 233.716 148.072C230.867 148.596 228.016 149.108 225.15 149.539L225.168 149.509L225.338 150.017Z" fill="#263238"/>
<path d="M245.381 135.516C245.111 134.96 244.936 134.376 244.789 133.786C244.722 133.488 244.658 133.191 244.621 132.888C244.582 132.584 244.55 132.28 244.561 131.97C244.776 132.548 244.933 133.129 245.076 133.718C245.211 134.308 245.334 134.9 245.381 135.516Z" fill="#263238"/>
<path d="M238.579 120.156C240.751 120.888 244.877 117.849 246.639 115.239C246.758 115.059 246.654 113.045 246.643 110.592C246.643 109.103 246.677 107.445 246.817 105.934L237.129 107.355C237.129 107.355 237.766 110.608 237.505 113.24C237.48 113.459 237.44 113.662 237.382 113.854C237.376 113.882 237.365 113.915 237.359 113.955C237.058 115.114 236.48 119.447 238.579 120.156Z" fill="#AD6359"/>
<path d="M237.127 107.353C237.127 107.353 237.767 110.605 237.504 113.242C237.479 113.459 237.443 113.663 237.381 113.854C237.374 113.881 237.364 113.916 237.361 113.952C237.651 114.028 237.972 114.075 238.33 114.096C243.853 114.484 246.043 107.804 246.536 105.975L237.127 107.353Z" fill="#263238"/>
<path d="M248.978 94.9078C249.598 98.3805 246.666 107.844 244.024 109.715C240.194 112.427 234.504 112.047 232.345 107.576C230.253 103.242 234.292 90.9764 237.189 89.3353C241.456 86.9188 248.063 89.7787 248.978 94.9078Z" fill="#AD6359"/>
<path d="M238.578 99.7804C238.591 99.7585 238.618 99.8266 238.608 99.852C238.379 100.474 238.221 101.225 238.721 101.623C238.736 101.636 238.724 101.667 238.704 101.656C238.042 101.328 238.261 100.333 238.578 99.7804Z" fill="#263238"/>
<path d="M239.358 99.3103C240.395 99.5702 239.799 101.625 238.838 101.384C237.893 101.147 238.489 99.0925 239.358 99.3103Z" fill="#263238"/>
<path d="M234.842 98.6894C234.844 98.6634 234.783 98.7048 234.776 98.7315C234.612 99.3738 234.316 100.082 233.679 100.126C233.659 100.127 233.652 100.16 233.674 100.164C234.405 100.268 234.789 99.324 234.842 98.6894Z" fill="#263238"/>
<path d="M234.466 97.8599C233.464 97.4852 232.789 99.5152 233.716 99.8621C234.63 100.204 235.305 98.1737 234.466 97.8599Z" fill="#263238"/>
<path d="M240.516 97.9406C240.257 97.789 240.042 97.6061 239.801 97.4297C239.529 97.2307 239.292 97.0999 239.172 96.7696C239.107 96.5926 239.228 96.3427 239.395 96.264C239.782 96.0805 240.175 96.2415 240.513 96.4682C240.879 96.7139 241.098 96.9963 241.226 97.4172C241.351 97.8245 240.858 98.1401 240.516 97.9406Z" fill="#263238"/>
<path d="M234.237 96.0455C234.535 96.0816 234.816 96.0651 235.115 96.0704C235.452 96.0763 235.72 96.116 236.015 95.9253C236.174 95.8229 236.228 95.5512 236.143 95.3878C235.946 95.0077 235.535 94.8976 235.13 94.8739C234.69 94.8485 234.344 94.9408 233.987 95.1984C233.642 95.4488 233.844 95.9982 234.237 96.0455Z" fill="#263238"/>
<path d="M237.62 105.599C237.449 105.74 237.272 105.939 237.031 105.938C236.8 105.937 236.539 105.809 236.336 105.71C236.316 105.7 236.293 105.721 236.305 105.741C236.454 106.009 236.801 106.2 237.111 106.173C237.415 106.147 237.585 105.902 237.681 105.635C237.695 105.597 237.646 105.579 237.62 105.599Z" fill="#263238"/>
<path d="M237.35 103.537C236.834 103.986 236.222 104.136 235.624 104.081C235.356 104.059 235.088 103.99 234.834 103.891C234.783 103.875 234.605 103.794 234.557 103.769C234.486 103.736 234.463 103.663 234.47 103.589L234.472 103.585C234.479 103.562 234.908 102.236 234.908 102.236C234.703 102.273 233.671 102.419 233.759 102.167C234.5 100.085 235.325 97.7689 236.502 95.8526C236.538 95.7874 236.64 95.8348 236.614 95.9029C235.981 97.9329 234.995 99.8373 234.326 101.866C234.65 101.84 235.184 101.773 235.439 101.852C235.474 101.872 234.862 103.493 234.862 103.508C235.655 103.852 236.348 103.784 237.307 103.462C237.365 103.439 237.402 103.497 237.35 103.537Z" fill="#263238"/>
<path d="M235.141 103.73C235.141 103.73 235.403 104.451 235.939 104.843C236.136 104.988 236.365 105.091 236.634 105.098C237.186 105.117 237.34 104.65 237.365 104.22C237.388 103.866 237.319 103.535 237.319 103.535C237.319 103.535 236.363 104.013 235.141 103.73Z" fill="#263238"/>
<path d="M235.94 104.843C236.137 104.988 236.366 105.091 236.635 105.098C237.187 105.117 237.341 104.65 237.366 104.22C236.8 104.112 236.145 104.323 235.94 104.843Z" fill="#FF9CBD"/>
<path d="M248.543 104.635C245.838 104.219 245.167 100.73 246.369 98.3171C246.369 98.3171 239.077 97.6528 240.025 91.8927C240.025 91.8927 237.742 94.0766 234.512 93.4336L233.579 95.3168C232.901 94.9427 232.595 92.7037 234.739 91.4872C234.739 91.4872 235.503 88.6823 237.976 87.4545C240.45 86.2272 242.271 87.815 242.271 87.815C242.271 87.815 244.245 86.805 246.778 87.7297C249.311 88.6544 249.845 91.2758 249.845 91.2758C249.845 91.2758 253.2 92.7404 253.233 95.3665C253.266 97.9926 251.6 99.3714 251.6 99.3714C251.6 99.3714 252.259 100.549 251.33 102.574C250.734 103.875 249.354 104.76 248.543 104.635Z" fill="#263238"/>
<path d="M240.297 91.4231C240.145 91.876 240.021 92.3371 239.967 92.8072C239.889 93.2731 239.883 93.7449 239.919 94.2079C240.01 95.132 240.407 96.0117 241.096 96.6185C241.749 97.2815 242.676 97.5722 243.558 97.8646C244.019 97.9546 244.479 98.0784 244.949 98.1429C245.42 98.2009 245.894 98.2477 246.37 98.3158C245.893 98.3235 245.413 98.3092 244.931 98.3069C244.452 98.2749 243.977 98.1784 243.497 98.1162C242.571 97.8664 241.602 97.5639 240.869 96.8653C240.137 96.1875 239.7 95.2083 239.663 94.2262C239.629 93.2453 239.865 92.2774 240.297 91.4231Z" fill="#263238"/>
<path d="M235.903 93.8812C236.756 93.7723 237.574 93.5764 238.312 93.2111C238.687 93.0394 239.022 92.7997 239.337 92.5344C239.662 92.2734 239.906 91.9336 240.176 91.5938C240.032 91.9975 239.827 92.3989 239.519 92.7186C239.225 93.0489 238.86 93.3206 238.461 93.5124C238.061 93.7031 237.637 93.8386 237.202 93.896C236.769 93.9552 236.329 93.9671 235.903 93.8812Z" fill="#263238"/>
<path d="M245.506 103.084C245.506 103.084 248.128 100.269 249.434 101.247C250.741 102.224 248.464 106.517 246.714 106.903C244.965 107.288 244.576 105.675 244.576 105.675L245.506 103.084Z" fill="#AD6359"/>
<path d="M248.751 102.462C248.778 102.463 248.778 102.501 248.753 102.507C247.521 102.816 246.755 103.81 246.168 104.87C246.575 104.488 247.081 104.318 247.601 104.812C247.628 104.838 247.592 104.881 247.56 104.87C247.097 104.701 246.741 104.735 246.365 105.072C246.098 105.31 245.894 105.631 245.686 105.921C245.617 106.017 245.437 105.935 245.493 105.821C245.497 105.812 245.502 105.803 245.506 105.795C245.686 104.304 247.134 102.387 248.751 102.462Z" fill="#263238"/>
<path d="M201.869 79.3261C202.638 86.6799 209.227 92.0204 216.58 91.2514C219.552 90.9406 222.194 89.679 224.24 87.7953L230.939 88.7786L227.587 82.9876C228.401 81.0092 228.743 78.8075 228.506 76.5402C227.737 69.1863 221.148 63.8459 213.795 64.6149C206.441 65.3839 201.1 71.9723 201.869 79.3261Z" fill="white"/>
<path d="M205.877 68.2683C207.331 66.8492 209.105 65.7534 211.041 65.1022C212.978 64.4581 215.066 64.2734 217.096 64.5428C219.123 64.8175 221.103 65.5374 222.81 66.687C224.519 67.8331 225.966 69.3694 227.004 71.1525C229.086 74.7134 229.452 79.2647 227.829 83.0866L227.813 82.8575L231.145 88.6597L231.391 89.0877L230.905 89.0131L224.213 87.9854L224.372 87.9369C222.518 89.617 220.198 90.7637 217.748 91.2077C217.135 91.3201 216.516 91.3864 215.895 91.4007C215.274 91.4551 214.654 91.3989 214.034 91.3651C212.806 91.2171 211.574 90.9874 210.43 90.5055C209.28 90.0527 208.179 89.4619 207.2 88.7071C206.686 88.3601 206.252 87.9161 205.787 87.5106C205.376 87.0495 204.924 86.6238 204.573 86.1135C203.044 84.1664 202.151 81.7706 201.871 79.3262C201.435 75.2947 202.921 71.0785 205.877 68.2683ZM204.612 86.0827C204.965 86.5883 205.419 87.0098 205.83 87.4656C206.296 87.8658 206.73 88.3051 207.244 88.6461C208.22 89.395 209.328 89.9574 210.474 90.3866C211.616 90.8442 212.837 91.049 214.05 91.1739C214.662 91.1958 215.273 91.2414 215.883 91.1769C216.494 91.1526 217.1 91.0768 217.699 90.9561C220.095 90.4789 222.338 89.3174 224.11 87.6533L224.176 87.5911L224.268 87.6042L230.973 88.5431L230.734 88.8965L227.362 83.1168L227.298 83.0073L227.347 82.8877C228.091 81.046 228.415 79.0385 228.289 77.0547C228.13 75.0774 227.604 73.1079 226.59 71.3893C225.594 69.6666 224.217 68.1664 222.584 67.0197C220.946 65.8748 219.031 65.1389 217.054 64.8352C215.075 64.5369 213.02 64.6807 211.098 65.2816C209.18 65.8908 207.403 66.9416 205.935 68.328C202.978 71.1004 201.462 75.2906 201.869 79.3256C202.166 81.7694 203.075 84.1534 204.612 86.0827Z" fill="#263238"/>
<path d="M213.183 85.5694L207.463 79.7802L209.385 77.8823L212.726 81.2638L219.666 70.3828L221.944 71.835L213.183 85.5694Z" fill="#4FAA89"/>
</svg>
