<svg width="222" height="218" viewBox="0 0 222 218" fill="none" xmlns="http://www.w3.org/2000/svg">
<g clip-path="url(#clip0_637_5649)">
<path d="M8.04688 101.545C37.5942 128.949 82.6713 139.238 115.398 136.356C128.165 135.225 162.024 132.247 182.865 105.725C183.223 105.261 184.175 104.01 185.45 102.081L8.04688 101.545Z" fill="white"/>
<path d="M55.2558 103.152C55.2081 103.152 55.1644 103.14 55.1248 103.116C54.9937 103.045 54.9461 102.878 55.0176 102.759L55.7083 101.497C55.7917 101.366 55.9465 101.318 56.0775 101.39C56.2085 101.461 56.2561 101.628 56.1847 101.759L55.482 103.009C55.4344 103.105 55.351 103.152 55.2558 103.152Z" fill="#0E1412"/>
<path d="M4.16429 104.224C4.10871 104.224 4.05711 104.208 4.00947 104.177C3.89037 104.105 3.85465 103.938 3.93801 103.807L4.45012 103.021C4.53348 102.902 4.70022 102.867 4.81931 102.95C4.95031 103.033 4.98604 103.2 4.90268 103.319L4.39057 104.105C4.33102 104.177 4.24766 104.224 4.16429 104.224Z" fill="#0E1412"/>
<path d="M164.43 96.7569L60.8418 98.4123C60.8418 98.4123 66.5583 75.0579 70.8457 68.4124C74.8592 62.2076 88.1263 52.3228 88.8409 44.9747C89.1624 41.7115 89.9961 38.7222 91.0917 36.0664C91.5324 34.9827 92.0207 33.9466 92.5447 32.9819C96.5344 25.4909 98.6423 23.4424 101.131 20.5842C105.776 15.2607 113.874 10.3183 117.614 15.9633C117.646 16.003 117.674 16.0467 117.697 16.0943C117.753 16.1817 117.809 16.269 117.864 16.3563C117.948 16.5945 120.806 24.2523 124.426 29.7544C125.617 31.5647 126.891 33.1486 128.178 34.1609C142.409 45.332 164.43 96.7569 164.43 96.7569Z" fill="white"/>
<path fill-rule="evenodd" clip-rule="evenodd" d="M60.8417 98.6743C60.7583 98.6743 60.6749 98.6386 60.6273 98.579C60.5797 98.5076 60.5558 98.4242 60.5797 98.3527C60.8059 97.3881 66.3557 74.8673 70.6193 68.2695C72.0842 66.0186 74.74 63.2795 77.5625 60.3855C82.5168 55.3121 88.1262 49.5598 88.5787 44.9509C88.8765 41.914 89.6387 38.889 90.8415 35.9592C91.2703 34.9112 91.7704 33.8632 92.3064 32.8509C95.903 26.0982 97.9753 23.7521 100.179 21.263C100.425 20.9851 100.675 20.6993 100.929 20.4055C104.228 16.6302 109.384 12.9383 113.481 13.2003C115.303 13.3313 116.768 14.2007 117.84 15.8204C117.864 15.8442 117.9 15.8919 117.924 15.9395C117.983 16.0348 118.043 16.13 118.09 16.2253C118.09 16.2253 118.102 16.2372 118.102 16.2491C118.233 16.5826 121.068 24.157 124.652 29.6115C125.951 31.5885 127.189 33.0414 128.344 33.9465C142.469 45.0342 164.454 96.1376 164.68 96.6497C164.716 96.733 164.704 96.8283 164.656 96.9117C164.609 96.9831 164.525 97.0308 164.43 97.0308L60.8417 98.6743ZM113.041 13.7243C109.194 13.7243 104.43 17.2019 101.334 20.7628C101.08 21.0566 100.83 21.3424 100.583 21.6203C98.404 24.0855 96.3437 26.4079 92.7827 33.101C92.2468 34.1014 91.7585 35.1375 91.3417 36.1736C90.1508 39.0438 89.4005 42.0211 89.1146 44.9985C88.6383 49.798 82.9575 55.6217 77.9436 60.7666C75.1449 63.6368 72.501 66.3521 71.0719 68.5554C67.1298 74.653 61.9016 95.2444 61.187 98.1384L164.025 96.4949C162 91.8502 141.397 44.8794 128.011 34.3753C126.808 33.4344 125.534 31.9339 124.2 29.8973C120.639 24.4905 117.816 17.0113 117.614 16.4754C117.566 16.3881 117.519 16.3047 117.471 16.2253C117.447 16.1856 117.423 16.1499 117.4 16.1181C116.423 14.6533 115.089 13.8553 113.446 13.7363C113.311 13.7283 113.176 13.7243 113.041 13.7243Z" fill="#0E1412"/>
<path d="M124.437 29.7902C124.437 29.7902 124.116 33.4464 122.984 33.637C120.138 34.0776 116.446 26.5271 113.588 26.9677C111.253 27.3131 110.134 34.2563 107.776 34.3873C105.585 34.5064 103.798 28.5517 101.654 28.1467C98.4032 27.5394 91.0908 36.0665 91.0908 36.0665L92.5438 32.982C96.5334 25.4909 98.8915 23.1686 101.381 20.2984C106.013 14.9868 113.874 10.3183 117.613 15.9634C117.645 16.0031 117.673 16.0468 117.696 16.0944C117.752 16.1817 117.808 16.2691 117.863 16.3564C117.947 16.5946 120.805 24.2524 124.425 29.7545L124.437 29.7902Z" fill="white"/>
<path fill-rule="evenodd" clip-rule="evenodd" d="M91.0908 36.3288C91.0352 36.3288 90.9876 36.3169 90.9479 36.2931C90.8288 36.2216 90.7931 36.0787 90.8407 35.9477L92.3056 32.8632C95.9022 26.0986 98.2008 23.5024 100.416 20.9895C100.67 20.7037 100.924 20.4139 101.178 20.1201C104.144 16.7259 109.122 12.8673 113.397 13.1412C115.243 13.2603 116.744 14.1654 117.839 15.8208C117.863 15.8446 117.899 15.8922 117.923 15.9399C117.982 16.0352 118.042 16.1304 118.089 16.2257C118.089 16.2257 118.101 16.2376 118.101 16.2495C118.232 16.583 121.067 24.1574 124.652 29.6119C124.652 29.6198 124.656 29.6318 124.663 29.6476L124.675 29.6715C124.699 29.7191 124.707 29.7667 124.699 29.8144C124.652 30.4575 124.306 33.6968 123.02 33.8993C121.46 34.1494 119.816 32.363 118.089 30.4813C116.529 28.7902 114.91 27.0395 113.635 27.23C112.623 27.3848 111.778 29.1117 110.968 30.7909C110.027 32.7441 109.146 34.5781 107.788 34.6496C106.49 34.733 105.442 33.1133 104.334 31.3983C103.441 30.0168 102.512 28.5877 101.595 28.4091C99.0582 27.9327 93.2941 33.8993 91.2933 36.2455C91.2456 36.305 91.1623 36.3288 91.0908 36.3288ZM112.957 13.6652C109.217 13.6652 104.584 17.0356 101.583 20.4774C101.329 20.7711 101.075 21.0609 100.821 21.3468C98.6176 23.8358 96.3429 26.4083 92.782 33.1014L92.115 34.5305C94.3659 32.1129 99.1416 27.3968 101.702 27.885C102.834 28.0994 103.786 29.5643 104.787 31.1125C105.751 32.5893 106.74 34.1256 107.704 34.1256C107.72 34.1256 107.736 34.1216 107.752 34.1137C108.8 34.066 109.658 32.2796 110.491 30.5647C111.396 28.6711 112.266 26.8966 113.552 26.6941C115.112 26.4559 116.756 28.2423 118.483 30.1121C120.043 31.8152 121.65 33.5658 122.937 33.3634C123.568 33.2681 124.02 31.2792 124.163 29.8501C120.614 24.4313 117.816 17.0117 117.613 16.4758C117.565 16.3885 117.518 16.3051 117.47 16.2257C117.446 16.186 117.423 16.1503 117.399 16.1185C116.398 14.606 115.041 13.7843 113.361 13.6771C113.226 13.6692 113.092 13.6652 112.957 13.6652Z" fill="#0E1412"/>
<path d="M84.4931 98.222L4.16406 98.8652C4.16406 98.8652 12.0124 84.8954 15.2398 79.953C16.9548 77.321 23.6955 72.4143 24.9579 68.4723C25.3271 67.3171 25.9583 65.8999 26.7324 64.3993C28.364 61.2314 30.5911 57.7538 32.2465 55.9317C35.7598 52.0254 37.2723 48.2858 37.3199 48.1667C39.8923 44.2366 47.562 44.189 50.2297 48.0834L50.2535 48.1191C50.6108 48.5478 54.4218 53.2163 55.9462 55.4553C56.506 56.2532 57.3635 57.3251 58.34 58.7185C59.8525 60.8741 61.6151 63.8038 62.8299 67.722C65.7477 77.1185 84.4931 98.222 84.4931 98.222Z" fill="white"/>
<path fill-rule="evenodd" clip-rule="evenodd" d="M4.16454 99.1387C4.06927 99.1387 3.97399 99.0791 3.92635 99.0077C3.87872 98.9243 3.87872 98.8171 3.92635 98.7338C4.00972 98.5909 11.8104 84.6926 15.014 79.7978C15.681 78.7974 17.0029 77.5112 18.5392 76.0225C21.064 73.5811 23.9342 70.7942 24.7083 68.4005C25.0656 67.281 25.6849 65.8637 26.4947 64.2798C28.1859 60.9809 30.4129 57.551 32.0445 55.7526C35.534 51.8702 37.0584 48.1068 37.0703 48.0711C37.0782 48.0472 37.0901 48.0234 37.106 47.9996C38.3565 46.106 40.8218 44.9508 43.7038 44.9151C46.5859 44.8912 49.1584 46.0465 50.4446 47.9282L50.4922 47.9877C51.4688 49.1906 54.7796 53.2636 56.173 55.3001C56.4231 55.6693 56.7447 56.098 57.1139 56.5863C57.5426 57.158 58.0309 57.813 58.5549 58.5633C59.8768 60.445 61.7824 63.4342 63.0924 67.6383C65.9626 76.88 84.5055 97.8287 84.6961 98.043C84.7556 98.1264 84.7795 98.2336 84.7318 98.3288C84.6961 98.4241 84.6008 98.4837 84.4936 98.4837L4.16454 99.1387ZM37.5586 48.2973C37.3918 48.6904 35.8793 52.3108 32.4494 56.1099C30.8417 57.8844 28.6384 61.2667 26.9711 64.518C26.1732 66.0781 25.5658 67.4715 25.2204 68.5553C24.4106 71.092 21.4809 73.9145 18.9084 76.4155C17.4555 77.8089 16.0978 79.1428 15.4666 80.0955C12.5845 84.502 5.93905 96.2685 4.6171 98.5909L83.8982 97.9597C81.1233 94.7917 65.2837 76.5108 62.5803 67.805C61.2941 63.6724 59.4124 60.7189 58.1142 58.8729C57.6021 58.1226 57.1139 57.4795 56.6851 56.9079C56.3159 56.4077 55.9825 55.9789 55.7324 55.5978C54.3509 53.5851 51.052 49.524 50.0754 48.3212L50.0158 48.2616C48.8368 46.5228 46.4668 45.451 43.811 45.451C43.7713 45.451 43.7356 45.455 43.7038 45.4629C41.048 45.4867 38.69 46.5705 37.5586 48.2973Z" fill="#0E1412"/>
<path d="M58.1614 64.3159C55.2912 65.1496 50.6466 57.7538 47.6573 57.8491C45.2992 57.9324 43.358 64.4112 40.9999 64.5303C39.0825 64.6255 36.9864 59.8499 35.0809 59.6831C32.699 59.4807 28.5307 65.9356 26.7324 64.3993C28.364 61.2314 30.5911 57.7538 32.2465 55.9317C35.7598 52.0254 37.2723 48.2858 37.3199 48.1667C39.8923 44.2366 47.562 44.189 50.2297 48.0834L50.2535 48.1191C50.6108 48.5478 54.4218 53.2163 55.9462 55.4553C56.506 56.2532 57.3635 57.3251 58.34 58.7185C59.7811 60.9336 59.0784 64.0539 58.1614 64.3159Z" fill="white"/>
<path fill-rule="evenodd" clip-rule="evenodd" d="M27.3881 64.911C27.0904 64.911 26.8046 64.8157 26.5664 64.6014C26.4711 64.518 26.4354 64.387 26.4949 64.2798C28.1861 60.9809 30.4131 57.551 32.0447 55.7526C35.5342 51.8702 37.0586 48.1068 37.0705 48.0711C37.0784 48.0472 37.0904 48.0234 37.1062 47.9996C38.3567 46.106 40.822 44.9508 43.7041 44.9151C46.5861 44.8912 49.1586 46.0465 50.4448 47.9282L50.4924 47.9877C51.469 49.1906 54.7798 53.2636 56.1732 55.3001C56.4233 55.6693 56.7449 56.098 57.1141 56.5863C57.5428 57.158 58.0311 57.813 58.5551 58.5633C59.615 60.183 59.5912 62.2552 59.1387 63.4938C58.9124 64.0892 58.5908 64.4703 58.2336 64.5775C56.5781 65.0539 54.5893 63.2318 52.4932 61.3024C50.7663 59.7185 48.968 58.075 47.6699 58.1226C46.6219 58.1583 45.5619 59.778 44.5377 61.3382C43.4063 63.0769 42.3226 64.7324 41.0125 64.7919C39.893 64.8514 38.845 63.601 37.7374 62.2671C36.8204 61.1595 35.8677 60.0281 35.0578 59.9567C34.0812 59.8733 32.6164 61.1714 31.2111 62.4338C29.8058 63.6962 28.4481 64.911 27.3881 64.911ZM27.0904 64.3036C27.9241 64.6609 29.4127 63.327 30.8538 62.0289C32.4139 60.6355 33.8788 59.3136 35.1054 59.4207C36.1416 59.5041 37.1181 60.6831 38.1543 61.9217C39.1308 63.0889 40.1312 64.3036 40.9887 64.256C42.0248 64.2083 43.0729 62.6006 44.0971 61.0404C45.2404 59.2897 46.3241 57.6343 47.6461 57.5867C47.6699 57.5867 47.6937 57.5867 47.7175 57.5867C49.23 57.5867 50.9926 59.1945 52.8505 60.8975C54.756 62.6482 56.7211 64.4584 58.0906 64.0654C58.2336 64.0178 58.4479 63.8034 58.6266 63.3032C59.0434 62.1837 59.0672 60.314 58.1145 58.861C57.6024 58.1226 57.1141 57.4795 56.6853 56.9079C56.3161 56.4077 55.9827 55.9789 55.7326 55.5978C54.3511 53.5851 51.0522 49.524 50.0756 48.3212L50.016 48.2616C48.837 46.5228 46.467 45.451 43.8112 45.451C43.7715 45.451 43.7358 45.455 43.7041 45.4629C41.0483 45.4867 38.6902 46.5705 37.5588 48.2973C37.3921 48.6904 35.8796 52.3108 32.4496 56.1099C30.8776 57.8487 28.7458 61.1119 27.0904 64.3036Z" fill="#0E1412"/>
<path d="M138.407 198.428L9.0113 199.166C7.66554 199.166 6.45077 197.904 6.3555 196.403L0.281691 94.7802C0.198325 93.4107 1.10344 92.3388 2.33011 92.3388L131.547 92.0887C132.893 92.0887 134.334 93.6131 134.429 95.1137L140.503 196.725C140.575 198.106 139.646 198.428 138.407 198.428Z" fill="#0E1412"/>
<path d="M143.303 198.797H13.859C12.5132 198.797 11.2985 197.546 11.2032 196.058L5.06984 95.1849C4.98647 93.8272 5.87968 92.7792 7.11826 92.7792H136.55C137.908 92.7792 139.122 94.0297 139.218 95.5183L145.351 196.391C145.422 197.737 144.529 198.797 143.303 198.797Z" fill="white"/>
<path d="M140.384 115.038C140.241 115.038 140.122 114.931 140.11 114.788L138.943 95.5302C138.86 94.1845 137.764 93.0412 136.55 93.0412H128.177C128.022 93.0412 127.903 92.9221 127.903 92.7792C127.903 92.6243 128.022 92.5052 128.177 92.5052H136.55C138.038 92.5052 139.384 93.8748 139.479 95.4945L140.646 114.752C140.658 114.907 140.551 115.038 140.396 115.038C140.396 115.038 140.392 115.038 140.384 115.038Z" fill="#0E1412"/>
<path d="M13.8589 199.059C12.3702 199.059 11.0364 197.701 10.9411 196.082L4.80774 95.1968C4.7601 94.4227 4.99829 93.72 5.47467 93.2079C5.90341 92.7553 6.48697 92.5052 7.11817 92.5052H80.0039C80.1468 92.5052 80.2659 92.6243 80.2659 92.7792C80.2659 92.9221 80.1468 93.0412 80.0039 93.0412H7.11817C6.62988 93.0412 6.18923 93.2317 5.86768 93.5771C5.48658 93.982 5.29603 94.5418 5.34366 95.173L11.477 196.046C11.5485 197.392 12.6441 198.523 13.8589 198.523L109.48 198.416C109.623 198.416 109.742 198.535 109.742 198.69C109.742 198.833 109.623 198.952 109.48 198.952L13.8589 199.059Z" fill="#0E1412"/>
<path d="M140.491 194.879H16.3476C15.0971 194.879 13.9657 193.723 13.8823 192.342L8.20153 98.9244C8.13008 97.662 8.96374 96.6854 10.0951 96.6854H134.251C135.501 96.6854 136.621 97.8526 136.704 99.2221L142.385 192.652C142.468 193.902 141.635 194.879 140.491 194.879Z" fill="white"/>
<path fill-rule="evenodd" clip-rule="evenodd" d="M140.492 195.153H16.3479C14.9545 195.153 13.7159 193.879 13.6206 192.366L7.93984 98.9366C7.8922 98.222 8.11848 97.5551 8.57104 97.0787C8.96405 96.65 9.51188 96.4237 10.0954 96.4237H134.251C135.633 96.4237 136.883 97.698 136.978 99.2105L142.659 192.64C142.707 193.355 142.481 194.021 142.028 194.498C141.635 194.915 141.087 195.153 140.492 195.153ZM10.0954 96.9596C9.6548 96.9596 9.24988 97.1264 8.95214 97.4479C8.60677 97.8171 8.44003 98.3292 8.47576 98.9009L14.1566 192.33C14.228 193.569 15.2284 194.617 16.3479 194.617H140.492C140.932 194.617 141.349 194.438 141.635 194.129C141.98 193.759 142.159 193.235 142.123 192.664L136.443 99.2462C136.371 98.0077 135.359 96.9596 134.251 96.9596H10.0954Z" fill="#0E1412"/>
<path fill-rule="evenodd" clip-rule="evenodd" d="M114.433 169.357C114.517 170.667 114.183 171.917 113.493 172.918L109.932 178.182H141.515L141.766 182.564H108.467C107.502 182.564 106.657 183.005 106.133 183.767L98.5939 194.879H91.6507L100.011 182.564H54.1122L62.7942 194.879H55.851L47.169 182.564H27.1016L27.8638 194.879H23.4931L22.7309 182.564H13.251L13.0247 178.182H22.4569L21.7186 166.141C21.6352 164.784 22.5999 163.712 23.9218 163.712H33.89L31.0794 159.734C30.2219 158.519 29.7217 157.126 29.6383 155.709L28.6737 139.964C28.626 139.25 28.0067 138.642 27.316 138.642H10.619L10.2021 131.771H28.1735L26.0179 96.6854H32.9611L34.9618 129.317L46.0495 112.989C46.907 111.727 47.3119 110.179 47.2047 108.547L46.4783 96.6854H50.849L51.7303 111.084H103.989L103.119 96.6854H110.063L110.932 111.084H137.431L137.693 115.467H111.194L114.433 169.357ZM52.0161 115.455L53.4929 139.357H105.704L104.263 115.455H52.0161ZM40.8332 163.712H47.7645C49.3842 163.712 50.5513 162.414 50.456 160.758L47.955 120.421L36.7125 136.915C35.9503 138.035 35.593 139.428 35.6764 140.869L36.5696 155.435C36.6649 157.019 37.2365 158.603 38.1893 159.96L40.8332 163.712ZM44.0845 178.182L36.9864 168.094H27.4827C26.7682 168.094 26.2441 168.666 26.2918 169.404L26.8396 178.182H44.0845ZM53.6716 178.182H102.988L106.275 173.335C107.157 172.036 107.574 170.441 107.478 168.773L105.966 143.751H53.7668L55.0054 163.712C55.1721 166.165 53.4215 168.094 51.0396 168.094H43.9177L49.3842 175.835C50.3965 177.288 52.0281 178.182 53.6716 178.182Z" fill="white"/>
<path fill-rule="evenodd" clip-rule="evenodd" d="M98.5944 195.153H91.6512C91.544 195.153 91.4607 195.093 91.413 195.01C91.3654 194.915 91.3654 194.819 91.4249 194.736L99.4995 182.839H54.6367L63.009 194.724C63.0686 194.807 63.0805 194.915 63.0329 195.01C62.9852 195.093 62.8899 195.153 62.7947 195.153H55.8515C55.7681 195.153 55.6847 195.105 55.6371 195.034L47.0266 182.839H27.3879L28.1382 194.867C28.1382 194.938 28.1144 195.01 28.0668 195.069C28.0191 195.117 27.9477 195.153 27.8643 195.153H23.4935C23.3625 195.153 23.2435 195.046 23.2315 194.903L22.4812 182.839H13.2514C13.1085 182.839 12.9894 182.719 12.9894 182.577L12.7512 178.194C12.7512 178.122 12.7751 178.051 12.8227 177.991C12.8822 177.944 12.9537 177.908 13.0252 177.908H22.1716L21.4451 166.153C21.3975 165.415 21.6357 164.712 22.124 164.212C22.5765 163.712 23.2196 163.45 23.9223 163.45H33.3665L30.8655 159.889C29.9723 158.627 29.4602 157.198 29.3649 155.733L28.4002 139.976C28.3645 139.405 27.8643 138.917 27.3165 138.917H10.6195C10.4765 138.917 10.3575 138.809 10.3575 138.666L9.92871 131.783C9.92871 131.711 9.95253 131.64 10.0002 131.58C10.0478 131.533 10.1193 131.497 10.2026 131.497H27.8881L25.7563 96.7095C25.7444 96.6381 25.7802 96.5547 25.8278 96.5071C25.8754 96.4475 25.9469 96.4237 26.0183 96.4237H32.9615C33.1045 96.4237 33.2236 96.5309 33.2355 96.6738L35.1886 128.52L45.8237 112.835C46.6574 111.62 47.0385 110.143 46.9432 108.571L46.2048 96.7095C46.2048 96.6381 46.2286 96.5547 46.2763 96.5071C46.3239 96.4475 46.3954 96.4237 46.4787 96.4237H50.8495C50.9805 96.4237 51.0996 96.5309 51.1115 96.6738L51.9928 110.81H103.704L102.858 96.7095C102.846 96.6381 102.882 96.5547 102.929 96.5071C102.977 96.4475 103.049 96.4237 103.12 96.4237H110.063C110.206 96.4237 110.325 96.5309 110.337 96.6738L111.183 110.81H137.431C137.574 110.81 137.693 110.917 137.705 111.06L137.967 115.455C137.967 115.526 137.943 115.598 137.896 115.646C137.836 115.705 137.776 115.729 137.693 115.729H111.48L114.696 169.345C114.779 170.715 114.446 172.001 113.719 173.073L110.432 177.908H141.516C141.647 177.908 141.766 178.027 141.778 178.158L142.028 182.553C142.028 182.624 142.004 182.696 141.957 182.743C141.909 182.803 141.838 182.839 141.766 182.839H108.467C107.598 182.839 106.824 183.232 106.359 183.922L98.8088 195.034C98.7611 195.105 98.6778 195.153 98.5944 195.153ZM92.1514 194.617H98.4515L105.907 183.625C106.478 182.779 107.419 182.291 108.467 182.291H141.48L141.254 178.444H109.932C109.825 178.444 109.742 178.396 109.694 178.301C109.646 178.218 109.646 178.11 109.706 178.027L113.279 172.775C113.934 171.798 114.243 170.631 114.16 169.381L110.933 115.479C110.921 115.407 110.956 115.336 111.004 115.276C111.052 115.229 111.123 115.193 111.195 115.193H137.407L137.181 111.346H110.933C110.79 111.346 110.671 111.239 110.671 111.096L109.813 96.9596H103.406L104.263 111.06C104.263 111.144 104.239 111.215 104.192 111.263C104.132 111.322 104.061 111.346 103.989 111.346H51.7308C51.5998 111.346 51.4807 111.239 51.4688 111.096L50.5875 96.9596H46.7646L47.4791 108.536C47.5863 110.227 47.1695 111.823 46.2763 113.145L35.1886 129.472C35.1171 129.568 34.9981 129.603 34.8909 129.58C34.7837 129.544 34.7003 129.449 34.7003 129.341L32.7114 96.9596H26.3042L28.436 131.747C28.4479 131.819 28.4121 131.89 28.3645 131.95C28.3169 132.009 28.2454 132.033 28.174 132.033H10.4885L10.8696 138.381H27.3165C28.1382 138.381 28.8885 139.095 28.9362 139.953L29.9008 155.697C29.9842 157.067 30.4725 158.4 31.2942 159.579L34.1048 163.557C34.1644 163.641 34.1763 163.748 34.1287 163.843C34.081 163.926 33.9858 163.986 33.8905 163.986H23.9223C23.3745 163.986 22.8743 164.188 22.5051 164.581C22.1359 164.974 21.9453 165.522 21.9811 166.13L22.7313 178.158C22.7313 178.241 22.7075 178.313 22.6599 178.361C22.6123 178.42 22.5408 178.444 22.4574 178.444H13.311L13.5134 182.291H22.7313C22.8743 182.291 22.9934 182.41 23.0053 182.553L23.7556 194.617H27.5785L26.8401 182.577C26.8282 182.505 26.8639 182.434 26.9116 182.386C26.9592 182.326 27.0306 182.291 27.1021 182.291H47.1695C47.2529 182.291 47.3362 182.338 47.3958 182.41L55.9944 194.617H62.2706L53.8983 182.719C53.8388 182.636 53.8269 182.529 53.8745 182.445C53.9221 182.35 54.0174 182.291 54.1127 182.291H100.012C100.107 182.291 100.202 182.35 100.25 182.434C100.297 182.529 100.286 182.636 100.226 182.719L92.1514 194.617ZM102.989 178.444H53.684C51.9571 178.444 50.2302 177.503 49.1584 175.991L43.7038 168.249C43.6443 168.166 43.6443 168.059 43.6919 167.976C43.7277 167.88 43.8229 167.833 43.9301 167.833H51.0401C52.1 167.833 53.0527 167.428 53.7435 166.689C54.4581 165.927 54.8034 164.903 54.7439 163.783C54.7439 163.768 54.7399 163.748 54.732 163.724L53.4934 143.764C53.4934 143.692 53.5172 143.621 53.5768 143.561C53.6244 143.514 53.6959 143.478 53.7673 143.478H105.966C106.109 143.478 106.228 143.597 106.24 143.74L107.741 168.75C107.848 170.5 107.419 172.132 106.502 173.49L103.215 178.325C103.168 178.396 103.084 178.444 102.989 178.444ZM49.599 175.681C50.5637 177.062 52.1357 177.908 53.684 177.908H102.846L106.062 173.18C106.907 171.929 107.3 170.405 107.205 168.785L105.716 144.014H54.0531L55.2679 163.641C55.2758 163.656 55.2798 163.676 55.2798 163.7C55.3632 164.986 54.9583 166.177 54.1365 167.059C53.3505 167.904 52.2429 168.369 51.0401 168.369H44.4422L49.599 175.681ZM44.0849 178.444H26.8401C26.6972 178.444 26.5781 178.325 26.5662 178.182L26.0183 169.405C25.9945 168.976 26.1374 168.571 26.4233 168.273C26.6853 167.976 27.0664 167.821 27.4832 167.821H36.9869C37.0703 167.821 37.1537 167.868 37.2013 167.94L44.2993 178.015C44.3589 178.099 44.3708 178.206 44.3231 178.289C44.2755 178.384 44.1802 178.444 44.0849 178.444ZM27.0902 177.896H43.5728L36.844 168.357H27.4832C27.2212 168.357 26.983 168.452 26.8044 168.642C26.6257 168.833 26.5424 169.095 26.5543 169.381L27.0902 177.896ZM47.7769 163.962H40.8456C40.7503 163.962 40.6789 163.914 40.6193 163.843L37.9754 160.103C36.9869 158.686 36.4034 157.078 36.3081 155.435L35.4149 140.87C35.3196 139.357 35.7007 137.928 36.4986 136.749L47.7292 120.254C47.8007 120.159 47.9198 120.112 48.027 120.147C48.1342 120.171 48.2175 120.266 48.2294 120.385L50.7304 160.723C50.778 161.616 50.4922 162.45 49.9206 163.057C49.3727 163.641 48.6105 163.962 47.7769 163.962ZM40.9766 163.426H47.7769C48.4557 163.426 49.0869 163.164 49.5395 162.688C50.0039 162.188 50.2421 161.509 50.1945 160.758L47.7411 121.207L36.9393 137.059C36.2128 138.131 35.8674 139.441 35.9508 140.846L36.844 155.399C36.9393 156.947 37.4871 158.46 38.4161 159.794L40.9766 163.426ZM105.704 139.607H53.4934C53.3505 139.607 53.2433 139.5 53.2314 139.357L51.7427 115.455C51.7427 115.384 51.7665 115.312 51.8142 115.264C51.8737 115.205 51.9452 115.169 52.0166 115.169H104.263C104.406 115.169 104.525 115.288 104.537 115.431L105.978 139.333C105.978 139.405 105.954 139.476 105.895 139.524C105.847 139.583 105.776 139.607 105.704 139.607ZM53.7554 139.071H105.419L104.013 115.717H52.3025L53.7554 139.071Z" fill="#0E1412"/>
<path d="M200.718 106.189C200.718 139.965 173.481 167.344 139.884 167.344C106.288 167.344 79.0508 139.965 79.0508 106.189C79.0508 72.4263 106.288 45.0465 139.884 45.0465C173.481 45.0465 200.718 72.4263 200.718 106.189Z" fill="white"/>
<path fill-rule="evenodd" clip-rule="evenodd" d="M131.738 64.7684C131.651 64.7684 131.56 64.7565 131.464 64.7327C130.547 64.566 129.618 63.5775 128.975 62.0769C128.487 60.9574 128.523 58.8733 128.558 56.8606C128.582 55.2528 128.618 53.7165 128.356 53.0377C127.88 51.7991 127.415 51.811 126.296 51.8348C126.129 51.8427 125.954 51.8467 125.772 51.8467C124.652 51.8467 123.914 51.2155 123.628 50.6677C123.449 50.3342 123.437 50.0246 123.58 49.8102C125.617 46.7971 132.226 47.5593 135.775 47.9642C141.397 48.6074 141.956 51.4537 141.802 53.0853C141.516 55.9078 135.787 59.1234 135.132 59.4807C134.489 59.8379 134.203 60.8622 133.93 61.8625C133.668 62.7677 133.406 63.7085 132.858 64.2683C132.524 64.5898 132.143 64.7684 131.738 64.7684ZM126.689 51.2989C127.618 51.2989 128.32 51.4537 128.856 52.8352C129.154 53.6331 129.13 55.2052 129.094 56.8725C129.059 58.7304 129.023 60.8502 129.463 61.8625C130.023 63.1607 130.845 64.0777 131.56 64.2087C131.893 64.2683 132.191 64.173 132.477 63.8872C132.929 63.4346 133.179 62.5652 133.405 61.7196C133.715 60.6121 134.037 59.4688 134.882 59.0162C137.157 57.7657 141.063 55.098 141.266 53.0377C141.516 50.5129 139.598 48.9408 135.716 48.5002C132.274 48.1072 125.891 47.3688 124.021 50.1079C124.009 50.1437 124.021 50.3104 124.164 50.5248C124.426 50.9059 124.974 51.3108 125.772 51.3108C125.954 51.3108 126.125 51.3068 126.284 51.2989C126.419 51.2989 126.554 51.2989 126.689 51.2989Z" fill="#0E1412"/>
<path fill-rule="evenodd" clip-rule="evenodd" d="M119.233 161.294C118.602 161.294 117.852 160.913 117.34 160.389C116.173 159.21 114.077 154.351 113.088 151.374C112.326 149.075 111.933 141.953 111.671 137.237C111.587 135.82 111.516 134.605 111.468 133.891C111.266 131.509 110.385 131.128 108.038 130.139C107.645 129.973 107.217 129.794 106.752 129.58C103.298 128.031 102.965 126.495 103.036 123.351C103.036 123.065 103.013 122.696 102.989 122.255C102.87 120.374 102.691 117.527 104.466 115.741C106.002 114.193 106.812 109.155 106.728 107.035C106.693 106.273 107.086 105.57 107.753 105.189C109.015 104.486 111.147 103.879 114.136 105.01C115.398 105.487 115.97 106.261 116.518 107.011C116.982 107.642 117.423 108.238 118.281 108.726C118.888 109.072 119.638 109.286 120.377 109.488C121.961 109.929 123.604 110.394 123.211 112.228C122.758 114.395 125.259 116.658 129.297 117.742C131.714 118.373 133.525 120.159 133.715 122.077C133.834 123.363 133.179 124.447 131.929 125.042C128.975 126.471 129.023 127.448 129.368 129.21C129.499 129.854 129.737 130.544 129.976 131.199C130.404 132.462 130.785 133.545 130.297 134.129C129.618 134.951 127.427 135.713 126.462 135.951C125.593 136.177 124.557 137.321 124.331 139.322C124.069 141.513 120.984 146.955 119.102 149.349C117.483 151.41 118.161 153.184 119.531 156.721C119.642 157.015 119.757 157.321 119.876 157.638C120.579 159.484 120.579 160.663 119.876 161.116C119.686 161.235 119.46 161.294 119.233 161.294ZM110.956 104.915C109.682 104.915 108.705 105.272 108.015 105.654C107.526 105.939 107.241 106.451 107.264 107.023C107.348 108.929 106.621 114.336 104.847 116.122C103.239 117.73 103.406 120.433 103.525 122.231C103.549 122.672 103.572 123.053 103.572 123.363C103.501 126.388 103.775 127.662 106.967 129.091C107.431 129.294 107.86 129.472 108.241 129.639C110.67 130.663 111.778 131.14 111.992 133.855C112.052 134.57 112.123 135.737 112.207 137.214C112.445 141.608 112.862 148.98 113.6 151.207C114.648 154.375 116.72 159.008 117.721 160.008C118.257 160.544 119.162 160.937 119.579 160.663C119.793 160.532 120.198 159.984 119.376 157.829C119.257 157.511 119.142 157.206 119.031 156.912C117.637 153.303 116.875 151.314 118.674 149.016C120.472 146.729 123.545 141.322 123.795 139.25C124.057 136.987 125.259 135.701 126.331 135.439C127.498 135.141 129.368 134.415 129.88 133.796C130.178 133.438 129.821 132.39 129.464 131.378C129.225 130.699 128.987 129.996 128.844 129.306C128.463 127.4 128.463 126.126 131.702 124.566C132.751 124.054 133.275 123.184 133.179 122.124C133.048 120.743 131.726 118.944 129.166 118.254C124.771 117.087 122.163 114.621 122.687 112.12C122.961 110.834 121.925 110.477 120.222 110.001C119.46 109.786 118.674 109.572 118.019 109.191C117.054 108.655 116.566 107.976 116.077 107.333C115.553 106.606 115.053 105.939 113.946 105.511C112.814 105.082 111.814 104.915 110.956 104.915Z" fill="#0E1412"/>
<path fill-rule="evenodd" clip-rule="evenodd" d="M166.061 143.501C165.668 143.501 165.287 143.311 164.965 142.93C163.298 140.988 162.869 133.7 165.406 129.925C168.133 125.875 166.585 122.755 165.418 121.243C164.668 120.278 164.548 116.122 164.584 112.787V112.608C164.584 112.561 164.588 112.497 164.596 112.418C164.644 111.906 164.763 110.727 163.822 109.857C162.655 108.75 160.261 108.499 156.724 109.095C153.604 109.619 151.293 109.143 149.864 107.702C148.292 106.094 147.828 103.39 148.506 99.6508C148.828 97.8882 148.53 96.4591 148.28 95.2086C148.125 94.4583 147.982 93.7437 147.982 93.053C147.982 90.8854 150.888 89.099 153.33 87.9795C154.771 87.3245 155.795 86.5385 156.783 85.7763C157.712 85.0617 158.594 84.3948 159.689 83.9422C161.345 83.2515 162.012 84.3948 162.655 85.5024C163 86.0859 163.346 86.6814 163.858 87.1102C164.406 87.5627 164.751 87.4079 165.311 87.1459C166.085 86.7886 167.133 86.3003 169.014 87.4793C171.17 88.8251 173.588 88.2535 174.552 87.4436C174.791 87.2412 175.172 86.8243 174.981 86.3718C174.731 85.7763 174.219 85.5858 173.552 85.3357C172.73 85.026 171.706 84.6449 171.087 83.2515C170.408 81.6914 171.67 80.691 172.778 79.8097C173.528 79.2142 174.302 78.5949 174.445 77.8684C174.588 77.142 174.243 76.2011 173.481 75.2722C172.718 74.3313 171.682 73.6287 171.075 73.6287C170.765 73.6287 170.658 74.379 170.551 75.1531C170.36 76.5227 170.098 78.3805 168.443 78.9641C166.99 79.4762 165.596 78.714 164.239 77.9637C163.06 77.3206 161.845 76.6537 160.618 76.8919C159.249 77.142 158.01 78.7855 156.7 80.5123C155.545 82.0367 154.342 83.6088 152.925 84.4186C151.865 85.0141 150.924 84.895 150.329 84.0733C149.412 82.787 149.626 80.024 151.186 78.6426C153.044 76.9871 152.961 74.7363 152.925 73.5334C152.917 73.3667 152.913 73.2238 152.913 73.1047C152.913 72.7593 152.996 71.8661 153.782 71.1515C154.664 70.3536 156.081 70.044 157.998 70.2226C159.499 70.3774 160.642 70.163 161.297 69.6033C161.809 69.1746 161.857 68.6744 161.857 68.6505C162.417 64.7562 161.809 63.6843 161.404 63.3866C161.059 63.1365 160.618 63.2794 160.309 63.4342C160.178 63.5176 159.808 64.1607 159.487 64.7204C158.475 66.4473 157.093 68.8054 155.783 68.5434C154.866 68.3528 154.283 66.9951 153.949 64.2679C153.473 60.4211 153.925 57.9797 155.295 56.9912C156.486 56.1337 157.915 56.7411 158.082 56.8126C160.63 57.7177 162.607 57.682 163.965 56.7054C165.918 55.312 166.097 52.3346 166.073 51.1199C166.073 51.0246 166.12 50.9412 166.204 50.8936C166.287 50.846 166.382 50.834 166.466 50.8698C174.433 54.7522 181.615 60.4569 187.224 67.3643C192.905 74.3552 197.037 82.6441 199.193 91.3618C199.201 91.4015 199.201 91.4412 199.193 91.4809C198.859 93.2554 198.157 95.7207 196.704 97.3999C195.525 98.7576 195.703 100.091 195.87 101.27C195.989 102.164 196.108 103.021 195.537 103.664C195.37 103.843 195.203 104.093 195.048 104.331C194.632 104.95 194.215 105.582 193.619 105.463C192.929 105.332 192.119 104.272 190.785 97.5309C189.118 89.0395 185.366 88.5393 183.83 88.706C183.782 88.7179 183.77 88.7417 183.77 88.7656C183.762 88.7973 183.77 88.8211 183.794 88.837C184.806 89.6111 186.557 91.1713 186.807 93.0172C186.926 93.9223 186.676 94.7679 186.081 95.5539C183.866 98.4479 183.27 100.973 184.401 102.676C185.557 104.415 185.711 105.701 185.08 107.987C184.854 108.821 184.163 109.702 183.425 110.631C182.043 112.37 180.483 114.335 181.686 116.515C183.746 120.254 178.864 131.747 175.517 134.331C173.981 135.522 172.587 137.237 171.23 138.892C169.658 140.822 168.169 142.632 166.656 143.358C166.458 143.454 166.259 143.501 166.061 143.501ZM159.987 108.249C161.916 108.249 163.334 108.654 164.191 109.464C165.323 110.524 165.18 111.929 165.132 112.465C165.124 112.529 165.12 112.576 165.12 112.608V112.799C165.061 119.206 165.608 120.611 165.847 120.921C166.847 122.219 168.872 125.744 165.858 130.222C163.477 133.759 163.834 140.798 165.37 142.584C165.811 143.084 166.18 142.989 166.418 142.87C167.824 142.203 169.276 140.429 170.813 138.547C172.182 136.868 173.612 135.141 175.195 133.902C178.649 131.235 183.02 120.028 181.222 116.777C179.84 114.287 181.591 112.072 183.008 110.298C183.711 109.417 184.366 108.583 184.568 107.844C185.223 105.474 184.89 104.391 183.961 102.974C183.222 101.866 182.472 99.4007 185.652 95.2324C186.164 94.5655 186.378 93.839 186.271 93.0887C186.045 91.4333 184.413 89.9803 183.473 89.2658C183.27 89.1109 183.187 88.8608 183.246 88.6227C183.318 88.3726 183.52 88.2058 183.77 88.1701C185.449 87.9795 189.558 88.5036 191.321 97.4356C192.5 103.474 193.286 104.855 193.715 104.939C193.965 104.986 194.322 104.45 194.596 104.033C194.775 103.771 194.941 103.509 195.132 103.307C195.549 102.843 195.453 102.176 195.334 101.342C195.168 100.115 194.953 98.5908 196.299 97.0426C197.657 95.4825 198.335 93.1363 198.657 91.4333C194.346 74.0098 182.675 59.4922 166.609 51.5486C166.573 53.0254 166.228 55.7526 164.275 57.146C162.762 58.2298 160.618 58.2893 157.891 57.3128C157.883 57.3128 157.875 57.3128 157.867 57.3128C157.855 57.3009 156.593 56.7173 155.604 57.4319C154.783 58.0273 153.925 59.6828 154.485 64.2083C154.866 67.3405 155.533 67.936 155.89 68.0074C156.819 68.2099 158.248 65.7566 159.022 64.4465C159.57 63.4938 159.832 63.065 160.059 62.9578C160.69 62.6363 161.273 62.6363 161.714 62.9578C162.631 63.6129 162.845 65.4945 162.393 68.7101C162.393 68.7101 162.345 69.4127 161.654 70.0082C160.88 70.6751 159.63 70.9252 157.951 70.7585C156.212 70.5918 154.902 70.8657 154.152 71.5445C153.52 72.1162 153.449 72.8308 153.449 73.1047C153.449 73.2158 153.453 73.3508 153.461 73.5096C153.508 74.8077 153.592 77.2253 151.543 79.0356C150.198 80.2265 149.983 82.6679 150.769 83.7517C151.305 84.502 152.091 84.2757 152.651 83.9542C153.985 83.192 155.14 81.6675 156.271 80.1908C157.653 78.3686 158.951 76.6537 160.523 76.3559C161.928 76.0939 163.238 76.8085 164.501 77.4992C165.799 78.2138 167.038 78.8927 168.264 78.452C169.61 77.9756 169.836 76.3798 170.015 75.0816C170.17 74.0217 170.301 73.0928 171.075 73.0928C171.849 73.0928 173.004 73.855 173.897 74.9268C174.398 75.5461 175.219 76.7609 174.969 77.9756C174.791 78.8927 173.945 79.5715 173.111 80.2265C171.837 81.2388 171.099 81.9415 171.587 83.0371C172.111 84.2162 172.945 84.5258 173.743 84.8355C174.433 85.0856 175.136 85.3595 175.481 86.1693C175.708 86.7291 175.493 87.3364 174.898 87.8485C173.778 88.7894 171.134 89.4444 168.729 87.9319C167.097 86.9077 166.275 87.2888 165.537 87.6342C164.941 87.9081 164.322 88.1939 163.512 87.5151C162.929 87.0387 162.536 86.3599 162.19 85.7763C161.488 84.5615 161.059 83.9542 159.892 84.4305C158.856 84.8593 158.01 85.5143 157.117 86.205C156.14 86.9434 155.045 87.789 153.544 88.4678C150.305 89.9565 148.518 91.5762 148.518 93.053C148.518 93.6961 148.661 94.3749 148.804 95.1014C149.066 96.3995 149.364 97.8763 149.03 99.7461C148.387 103.307 148.804 105.856 150.245 107.32C151.543 108.642 153.699 109.059 156.641 108.559C157.887 108.353 159.003 108.249 159.987 108.249Z" fill="#0E1412"/>
<path fill-rule="evenodd" clip-rule="evenodd" d="M101.322 107.606C101.012 107.606 100.671 107.499 100.298 107.285C97.9753 105.903 89.6744 93.9463 90.0317 87.3365C90.0635 86.8125 90.0912 86.3084 90.1151 85.824C90.4128 80.1432 90.5914 76.7133 94.1404 70.5085C95.2242 68.5911 95.7601 66.364 95.7006 63.8869C95.7006 63.8154 95.7244 63.7559 95.772 63.6963C98.1777 61.1834 100.822 58.8492 103.62 56.765C103.68 56.7174 103.763 56.6936 103.847 56.7174C105.633 57.1223 109.254 57.5511 113.35 55.9076C116.006 54.8357 117.554 54.0735 118.591 53.5614C119.948 52.8945 120.46 52.6444 121.377 52.7992C123.057 53.0731 124.45 54.4546 124.307 55.6932C124.105 57.5749 122.235 58.5276 118.745 58.5276C116.078 58.5276 114.648 60.4331 114.16 61.243C113.386 62.5411 113.136 64.006 113.565 64.8158C113.958 65.5423 114.267 65.8757 114.66 65.971C115.315 66.1258 116.387 65.6018 118.471 64.1012C120.008 63.0056 121.401 62.5649 122.628 62.8031C123.866 63.0532 124.533 63.9345 124.771 64.3037C125.26 65.1016 124.7 66.4117 124.057 67.9361C123.783 68.5673 123.509 69.2342 123.319 69.8535C122.985 70.9253 122.985 71.9376 122.997 72.7475C122.997 73.4263 122.997 73.9622 122.806 74.3434C122.533 74.915 121.615 75.2961 120.353 75.8201C119.686 76.1059 118.924 76.4156 118.138 76.8205C115.756 78.0115 114.113 78.9642 113.088 81.1436C112.398 82.5966 111.147 83.4541 110.147 84.1448C109.504 84.5855 108.944 84.9666 108.777 85.3477C108.622 85.7049 108.575 86.3838 108.527 87.1103C108.444 88.5394 108.336 90.171 107.324 90.7903C106.014 91.5882 103.489 90.4568 102.489 89.3373C102.084 88.8729 101.56 88.6704 101.048 88.7776C100.607 88.8729 100.262 89.1825 100.119 89.6112C99.6664 90.9451 99.9642 92.7553 100.965 94.9824C102.394 98.1384 103.12 100.83 103.12 102.997C103.12 105.534 102.727 106.999 101.917 107.452C101.735 107.555 101.536 107.606 101.322 107.606ZM96.2365 63.9941C96.2841 66.5189 95.7244 68.7936 94.6049 70.7705C91.1155 76.8682 90.9487 80.0599 90.651 85.8479C90.6272 86.3322 90.5994 86.8363 90.5676 87.3604C90.1984 94.1011 98.6541 105.689 100.572 106.82C101.024 107.082 101.381 107.142 101.655 106.987C102.072 106.749 102.584 105.856 102.584 102.997C102.584 100.913 101.87 98.2932 100.476 95.2087C99.4163 92.8506 99.1186 90.9094 99.6069 89.4445C99.8093 88.8252 100.31 88.3846 100.941 88.2536C101.643 88.1106 102.37 88.3846 102.894 88.98C103.847 90.0519 106.074 90.9213 107.038 90.3377C107.824 89.8613 107.92 88.3131 107.991 87.0745C108.051 86.2647 108.086 85.5739 108.289 85.1333C108.515 84.6093 109.134 84.1805 109.849 83.6923C110.79 83.0491 111.981 82.2393 112.6 80.9174C113.779 78.4045 115.875 77.3564 117.888 76.3322C118.698 75.9273 119.46 75.6057 120.139 75.3318C121.211 74.8793 122.14 74.4863 122.33 74.1052C122.461 73.8432 122.461 73.3311 122.449 72.7594C122.449 71.9019 122.449 70.842 122.806 69.6868C123.009 69.0437 123.295 68.3767 123.569 67.7217C124.105 66.4593 124.652 65.1493 124.307 64.5895C124.116 64.2799 123.557 63.5415 122.521 63.339C121.449 63.1247 120.198 63.5296 118.781 64.5419C116.494 66.1854 115.387 66.6975 114.541 66.495C113.851 66.3283 113.434 65.709 113.1 65.0659C112.576 64.0893 112.814 62.4339 113.696 60.9691C114.839 59.0755 116.673 57.9917 118.745 57.9917C121.913 57.9917 123.604 57.1938 123.783 55.6336C123.878 54.6928 122.652 53.5495 121.294 53.3232C120.544 53.1922 120.139 53.3947 118.829 54.0497C117.793 54.5618 116.232 55.324 113.553 56.4078C109.408 58.0751 105.74 57.6821 103.847 57.2652C101.131 59.2898 98.5708 61.5526 96.2365 63.9941Z" fill="#0E1412"/>
<path fill-rule="evenodd" clip-rule="evenodd" d="M182.234 150.349C182.21 150.349 182.186 150.349 182.163 150.349C182.067 150.314 181.996 150.242 181.972 150.147C181.65 148.753 181.65 146.979 181.65 145.55V145.133C181.65 142.596 184.163 141.084 185.664 140.179C187.248 139.226 189.63 136.606 189.725 134.033C189.808 131.58 194.346 128.245 196.025 128.138C196.716 128.091 196.835 128.555 196.847 128.686C196.855 128.734 196.851 128.781 196.835 128.829C192.19 140.75 190.535 142.37 182.532 150.171L182.425 150.278C182.377 150.325 182.305 150.349 182.234 150.349ZM196.12 128.674C196.104 128.674 196.085 128.674 196.061 128.674C194.596 128.757 190.332 131.925 190.261 134.057C190.154 136.856 187.677 139.595 185.938 140.631C184.449 141.536 182.186 142.894 182.186 145.133V145.55C182.186 146.788 182.186 148.301 182.401 149.551C190.094 142.036 191.773 140.333 196.299 128.722C196.287 128.698 196.239 128.674 196.12 128.674Z" fill="#0E1412"/>
<path d="M139.884 167.607C121.365 167.607 104.049 159.294 92.3777 144.812C92.2824 144.693 92.2944 144.526 92.4135 144.431C92.5325 144.336 92.6993 144.359 92.7945 144.479C104.359 158.829 121.532 167.071 139.884 167.071C173.278 167.071 200.456 139.762 200.456 106.19C200.456 72.629 173.278 45.3088 139.884 45.3088C106.49 45.3088 79.325 72.629 79.325 106.19C79.325 110.299 79.7299 114.407 80.5397 118.409C80.5755 118.552 80.4802 118.695 80.3373 118.718C80.1825 118.754 80.0515 118.659 80.0157 118.516C79.2059 114.479 78.7891 110.334 78.7891 106.19C78.7891 89.7905 85.1368 74.3678 96.677 62.768C108.217 51.1682 123.569 44.7728 139.884 44.7728C156.212 44.7728 171.552 51.1682 183.092 62.768C194.632 74.3678 200.992 89.7905 200.992 106.19C200.992 122.601 194.632 138.024 183.092 149.623C171.552 161.223 156.212 167.607 139.884 167.607Z" fill="#0E1412"/>
<path d="M144.148 194.676V176.443H135.787V194.676C123.568 195.081 114.243 197.285 114.243 199.928C114.243 202.858 125.748 205.24 139.944 205.24C154.128 205.24 165.632 202.858 165.632 199.928C165.632 197.285 156.331 195.093 144.148 194.676Z" fill="white"/>
<path fill-rule="evenodd" clip-rule="evenodd" d="M139.944 205.514C127.177 205.514 113.981 203.418 113.981 199.928C113.981 196.665 125.093 194.795 135.514 194.414V176.443C135.514 176.3 135.633 176.181 135.788 176.181H144.148C144.291 176.181 144.41 176.3 144.41 176.443V194.414C154.807 194.795 165.895 196.677 165.895 199.928C165.895 203.418 152.699 205.514 139.944 205.514ZM136.05 176.717V194.676C136.05 194.819 135.942 194.938 135.8 194.95C122.473 195.391 114.517 197.832 114.517 199.928C114.517 202.358 124.736 204.978 139.944 204.978C155.152 204.978 165.359 202.358 165.359 199.928C165.359 197.832 157.427 195.403 144.136 194.95C143.993 194.938 143.874 194.819 143.874 194.676V176.717H136.05Z" fill="#0E1412"/>
<path d="M100.167 164.272C98.809 166.272 99.4045 169 101.477 170.262C112.684 177.062 125.832 180.981 139.885 180.981C180.984 180.981 214.295 147.503 214.295 106.189C214.295 82.0967 202.969 60.6716 185.367 46.9877C183.449 45.499 180.663 45.9277 179.293 47.9285C178.019 49.7626 178.412 52.2755 180.174 53.657C195.811 65.7808 205.875 84.8001 205.875 106.189C205.875 142.823 176.339 172.525 139.885 172.525C127.439 172.525 115.792 169.059 105.859 163.033C103.93 161.866 101.441 162.414 100.167 164.272Z" fill="white"/>
<path fill-rule="evenodd" clip-rule="evenodd" d="M139.885 181.254C126.26 181.254 112.934 177.527 101.334 170.488C100.262 169.845 99.5355 168.821 99.2735 167.594C99.0115 166.38 99.2497 165.141 99.9523 164.117C101.298 162.14 103.954 161.568 106.002 162.807C116.197 168.988 127.916 172.251 139.885 172.251C176.125 172.251 205.613 142.62 205.613 106.189C205.613 85.5622 196.276 66.4833 180.008 53.8593C178.126 52.4064 177.709 49.7267 179.067 47.7736C179.781 46.7494 180.853 46.0706 182.092 45.88C183.318 45.6895 184.545 46.011 185.533 46.7732C194.37 53.6449 201.671 62.5651 206.673 72.569C211.913 83.0612 214.569 94.3752 214.569 106.189C214.569 126.245 206.804 145.086 192.691 159.27C178.59 173.442 159.833 181.254 139.885 181.254ZM100.393 164.415C99.7737 165.32 99.5593 166.415 99.7975 167.487C100.024 168.559 100.679 169.464 101.608 170.036C113.124 177.027 126.367 180.719 139.885 180.719C180.77 180.719 214.033 147.289 214.033 106.189C214.033 82.9421 203.517 61.4456 185.2 47.2019C184.331 46.5231 183.259 46.2492 182.175 46.4159C181.079 46.5827 180.139 47.1662 179.507 48.0713C178.316 49.7982 178.686 52.1563 180.341 53.4425C188.189 59.5282 194.692 67.448 199.134 76.3324C203.791 85.6456 206.149 95.6971 206.149 106.189C206.149 123.982 199.253 140.703 186.736 153.279C174.231 165.867 157.582 172.787 139.885 172.787C127.82 172.787 116.006 169.5 105.717 163.271C103.918 162.176 101.572 162.676 100.393 164.415Z" fill="#0E1412"/>
<path d="M196.561 207.634C196.561 207.634 201.861 209.432 204.958 208.634C204.958 208.634 208.816 211.885 208.757 213.6L195.287 213.35L196.561 207.634Z" fill="white"/>
<path fill-rule="evenodd" clip-rule="evenodd" d="M208.756 213.874L195.287 213.624C195.203 213.624 195.132 213.576 195.072 213.517C195.025 213.457 195.013 213.374 195.025 213.291L196.299 207.574C196.311 207.503 196.359 207.431 196.43 207.395C196.502 207.36 196.573 207.348 196.644 207.384C196.704 207.395 201.908 209.134 204.898 208.372C204.981 208.348 205.064 208.372 205.136 208.42C205.541 208.765 209.078 211.814 209.03 213.612C209.018 213.755 208.899 213.874 208.756 213.874ZM195.62 213.088L208.471 213.326C208.197 212.016 205.922 209.813 204.886 208.92C202.123 209.563 197.895 208.336 196.764 207.979L195.62 213.088Z" fill="#0E1412"/>
<path d="M202.337 208.039C202.337 208.039 205.66 204.18 207.136 204.108C208.375 204.049 218.248 212.898 221.392 215.851C221.952 216.375 221.714 217.304 220.963 217.483C219.117 217.947 214.889 217.935 205.386 214.744C204.886 214.577 204.528 214.148 204.457 213.636L204.052 210.813L206.041 210.563L202.337 208.039Z" fill="white"/>
<path fill-rule="evenodd" clip-rule="evenodd" d="M218.856 217.971C216.343 217.971 212.175 217.304 205.303 214.994C204.707 214.803 204.279 214.291 204.195 213.684L203.778 210.849C203.766 210.778 203.79 210.706 203.838 210.647C203.874 210.587 203.945 210.552 204.017 210.54L205.303 210.385L202.182 208.265C202.123 208.217 202.075 208.146 202.075 208.074C202.063 207.991 202.087 207.92 202.135 207.86C202.48 207.455 205.577 203.906 207.125 203.847C207.125 203.847 207.129 203.847 207.137 203.847C208.852 203.847 221.452 215.542 221.571 215.661C221.905 215.97 222.036 216.423 221.928 216.864C221.809 217.304 221.476 217.638 221.023 217.745C220.499 217.876 219.785 217.971 218.856 217.971ZM204.35 211.04L204.719 213.6C204.779 214.017 205.065 214.351 205.469 214.494C214.759 217.614 218.987 217.697 220.904 217.233C221.154 217.161 221.345 216.983 221.404 216.733C221.476 216.482 221.392 216.22 221.202 216.042C216.807 211.921 208.137 204.371 207.149 204.382C206.101 204.43 203.778 206.812 202.742 207.991L206.196 210.349C206.291 210.409 206.327 210.516 206.303 210.635C206.279 210.742 206.184 210.814 206.077 210.837L204.35 211.04Z" fill="#0E1412"/>
<path d="M212.068 216.971C212.044 216.971 212.016 216.967 211.984 216.959C211.841 216.911 211.77 216.768 211.817 216.625L212.663 214.017C212.711 213.874 212.854 213.791 212.996 213.838C213.139 213.886 213.211 214.041 213.175 214.184L212.33 216.792C212.282 216.899 212.187 216.971 212.068 216.971Z" fill="#0E1412"/>
<path d="M210.412 216.28C210.38 216.28 210.353 216.272 210.329 216.256C210.186 216.22 210.103 216.066 210.15 215.923L210.996 213.314C211.043 213.172 211.198 213.088 211.341 213.136C211.472 213.183 211.555 213.338 211.508 213.481L210.662 216.089C210.627 216.197 210.519 216.28 210.412 216.28Z" fill="#0E1412"/>
<path d="M219.332 216.328C219.273 216.328 219.213 216.304 219.166 216.268L206.542 205.776C206.423 205.681 206.411 205.514 206.506 205.407C206.601 205.288 206.768 205.276 206.887 205.371L219.499 215.851C219.618 215.947 219.63 216.113 219.535 216.232C219.487 216.292 219.404 216.328 219.332 216.328Z" fill="#0E1412"/>
<path d="M152.579 215.601C152.567 214.375 152.544 212.434 152.508 209.933L148.744 210.457L145.636 207.682C145.636 207.682 136.704 210.85 132.381 214.863C131.571 215.613 131.976 216.947 133.072 217.102C136.371 217.59 144.016 218.055 151.067 217.269C151.936 217.173 152.579 216.459 152.579 215.601Z" fill="white"/>
<path fill-rule="evenodd" clip-rule="evenodd" d="M142.849 217.971C138.717 217.971 135.096 217.674 133.036 217.376C132.429 217.281 131.94 216.864 131.762 216.28C131.583 215.709 131.75 215.089 132.202 214.673C136.514 210.659 145.172 207.551 145.541 207.42C145.636 207.396 145.743 207.408 145.815 207.479L148.828 210.171L152.472 209.671C152.544 209.659 152.627 209.682 152.687 209.73C152.734 209.778 152.77 209.849 152.77 209.933C152.806 212.422 152.83 214.375 152.841 215.601C152.853 216.59 152.103 217.424 151.103 217.543C148.328 217.852 145.481 217.971 142.849 217.971ZM145.577 207.979C144.386 208.42 136.49 211.409 132.56 215.066C132.262 215.339 132.155 215.744 132.274 216.125C132.393 216.518 132.703 216.78 133.119 216.84C136.454 217.34 143.981 217.793 151.043 217.007C151.77 216.923 152.317 216.316 152.306 215.601C152.294 214.422 152.282 212.588 152.246 210.242L148.78 210.719C148.709 210.73 148.626 210.707 148.566 210.659L145.577 207.979Z" fill="#0E1412"/>
<path d="M141.992 216.137C139.479 216.137 136.585 216.03 133.81 215.696C133.667 215.684 133.56 215.553 133.572 215.398C133.596 215.255 133.727 215.148 133.87 215.16C141.016 216.03 148.947 215.339 149.031 215.339C149.185 215.315 149.305 215.434 149.316 215.577C149.34 215.732 149.221 215.863 149.078 215.875C149.031 215.875 145.994 216.137 141.992 216.137Z" fill="#0E1412"/>
<path d="M140.23 213.874C140.099 213.874 139.991 213.779 139.968 213.66L139.253 210.361C139.229 210.206 139.313 210.063 139.456 210.04C139.61 210.004 139.753 210.099 139.777 210.242L140.492 213.541C140.527 213.684 140.432 213.827 140.289 213.862C140.265 213.87 140.246 213.874 140.23 213.874Z" fill="#0E1412"/>
<path d="M141.885 213.172C141.766 213.172 141.659 213.088 141.623 212.957L140.921 209.658C140.885 209.516 140.98 209.373 141.123 209.337C141.266 209.301 141.409 209.396 141.445 209.539L142.147 212.838C142.183 212.993 142.088 213.136 141.945 213.16C141.929 213.168 141.909 213.172 141.885 213.172Z" fill="#0E1412"/>
<path d="M179.316 176.086C179.137 175.931 162.202 164.033 157.581 165.32C149.685 167.499 151.222 190.592 151.388 196.701C151.543 202.644 180.257 184.792 181.15 183.231C182.02 181.683 182.555 178.754 179.316 176.086Z" fill="#4FAA89"/>
<path d="M151.651 195.165C151.619 195.189 151.592 195.212 151.568 195.236C146.614 199.583 144.577 203.906 144.934 209.468C145.28 214.911 153.152 218.805 178.626 215.97C183.985 215.208 194.728 214.613 199.372 214.47C200.337 214.434 201.099 213.66 201.087 212.707L201.016 208.396C201.004 207.789 200.682 207.241 200.146 206.931C197.336 205.3 190.083 201.143 178.126 201.584C177.733 201.608 177.804 201.191 178.185 201.108C184.748 199.69 194.871 199.035 197.705 196.701C203.183 192.175 202.171 184.149 200.98 179.254C197.514 164.962 175.887 179.885 175.732 179.921C175.696 179.944 172.802 181.588 169.003 183.851L151.651 195.165Z" fill="#4FAA89"/>
<path d="M163.501 204.549C163.417 204.549 163.322 204.502 163.274 204.418C163.203 204.287 163.239 204.12 163.37 204.049C163.56 203.93 168.288 201.191 179.84 200.929C179.995 200.917 180.114 201.048 180.114 201.191C180.126 201.334 180.007 201.465 179.852 201.465C168.467 201.727 163.691 204.478 163.644 204.513C163.596 204.537 163.548 204.549 163.501 204.549Z" fill="white"/>
<path d="M153.068 194.307C152.985 194.307 152.901 194.26 152.854 194.2C152.758 194.081 152.782 193.902 152.901 193.819C153.044 193.712 166.835 183.398 176.482 181.052C176.625 181.016 176.768 181.112 176.804 181.254C176.839 181.397 176.756 181.54 176.613 181.576C167.074 183.898 153.366 194.14 153.223 194.248C153.175 194.283 153.116 194.307 153.068 194.307Z" fill="white"/>
<path d="M204.1 148.468C206.136 150.218 213.449 159.413 212.246 174.895C212.234 175.121 212.294 175.359 212.413 175.562C213.068 176.562 215.057 179.885 214.413 181.969C213.675 184.375 211.162 189.627 210.424 182.16C210.412 181.981 210.162 181.945 210.09 182.1C209.781 182.731 209.292 183.589 208.971 183.47C208.209 183.196 208.471 179.266 208.673 176.943C208.887 174.621 209.197 173.704 206.851 168.095C205.398 164.641 200.599 158.924 198.776 157.15C198.776 157.15 203.874 148.277 204.1 148.468Z" fill="white"/>
<path fill-rule="evenodd" clip-rule="evenodd" d="M211.853 186.28C211.829 186.28 211.805 186.28 211.781 186.28C210.972 186.197 210.471 184.994 210.186 182.493C209.673 183.494 209.269 183.863 208.876 183.72C208.363 183.529 207.911 182.577 208.411 176.92C208.427 176.745 208.443 176.582 208.459 176.431C208.637 174.502 208.756 173.335 206.601 168.202C205.207 164.891 200.587 159.282 198.598 157.341C198.502 157.257 198.491 157.114 198.55 157.007C203.564 148.277 203.885 148.23 204.04 148.194C204.112 148.182 204.207 148.206 204.267 148.266C206.779 150.421 213.675 159.937 212.52 174.907C212.508 175.098 212.544 175.264 212.639 175.419C213.473 176.693 215.33 179.909 214.675 182.041C214.664 182.088 213.365 186.28 211.853 186.28ZM210.245 181.731C210.277 181.731 210.305 181.735 210.328 181.743C210.531 181.779 210.674 181.934 210.698 182.136C211.019 185.411 211.65 185.733 211.829 185.745C211.837 185.745 211.849 185.745 211.865 185.745C212.52 185.745 213.592 183.732 214.163 181.886C214.759 179.909 212.806 176.658 212.198 175.705C212.032 175.455 211.96 175.169 211.984 174.871C213.091 160.461 206.684 151.219 204.1 148.825C203.421 149.719 200.801 154.173 199.122 157.102C200.884 158.889 205.624 164.486 207.089 167.988C209.304 173.252 209.185 174.466 208.995 176.479C208.979 176.638 208.963 176.801 208.947 176.967C208.471 182.35 208.923 183.101 209.042 183.196C209.114 183.16 209.376 182.958 209.852 181.981C209.924 181.826 210.078 181.731 210.245 181.731Z" fill="#0E1412"/>
<path d="M158.034 145.574C158.034 145.574 150.913 147.873 147.983 147.575C143.85 147.17 139.289 134.808 138.979 133.962C138.658 133.105 137.562 128.555 136.49 127.031C135.49 125.59 134.763 124.066 134.358 123.113C134.12 122.553 133.668 122.327 133.263 122.458C132.917 122.565 132.31 123.101 132.655 123.958C133.06 124.935 133.441 125.935 133.787 126.781C133.894 127.043 134.049 127.281 133.811 127.114C133.287 126.733 132.608 126.388 132.167 126.638C131.333 127.091 130.893 130.163 132.227 132.319C133.561 134.474 135.037 133.974 135.478 135.022C135.931 136.07 139.622 149.659 141.147 152.005C143.326 155.387 158.582 155.757 160.881 155.685C163.167 155.626 158.034 145.574 158.034 145.574Z" fill="white"/>
<path fill-rule="evenodd" clip-rule="evenodd" d="M160.774 155.959C159.249 155.959 143.291 155.828 140.921 152.148C139.813 150.445 137.693 143.299 136.288 138.571C135.764 136.808 135.359 135.415 135.228 135.129C135.085 134.784 134.787 134.653 134.347 134.45C133.704 134.164 132.81 133.771 132.001 132.461C131.048 130.913 130.953 128.924 131.286 127.638C131.405 127.197 131.631 126.626 132.036 126.399C132.386 126.209 132.842 126.256 133.406 126.542C133.319 126.336 133.231 126.122 133.144 125.899C132.918 125.304 132.667 124.684 132.417 124.053C132.203 123.553 132.298 123.16 132.405 122.91C132.596 122.517 132.941 122.279 133.18 122.207C133.739 122.017 134.335 122.35 134.609 123.017C135.037 124.006 135.752 125.494 136.717 126.876C137.538 128.055 138.36 130.913 138.848 132.628C139.015 133.2 139.146 133.652 139.23 133.867L139.241 133.902C140.051 136.082 144.291 146.943 148.007 147.312C150.853 147.598 157.892 145.335 157.963 145.312C158.082 145.276 158.213 145.323 158.285 145.443C158.713 146.312 162.548 153.91 161.56 155.566C161.417 155.816 161.191 155.947 160.893 155.959C160.885 155.959 160.845 155.959 160.774 155.959ZM132.501 126.816C132.421 126.816 132.354 126.832 132.298 126.864C132.155 126.947 131.953 127.221 131.81 127.781C131.512 128.912 131.584 130.77 132.453 132.175C133.18 133.355 133.942 133.688 134.561 133.962C135.037 134.176 135.502 134.379 135.728 134.915C135.859 135.236 136.252 136.57 136.8 138.416C138.11 142.834 140.313 150.218 141.361 151.862C143.326 154.887 157.296 155.518 160.869 155.411C160.988 155.411 161.048 155.375 161.107 155.292C161.715 154.256 159.511 149.063 157.904 145.895C156.665 146.288 150.651 148.11 147.959 147.848C144.029 147.455 139.908 137.225 138.741 134.093L138.729 134.045C138.646 133.819 138.503 133.355 138.336 132.771C137.86 131.092 137.05 128.281 136.276 127.174C135.288 125.756 134.549 124.244 134.12 123.22C133.942 122.827 133.644 122.624 133.346 122.707C133.227 122.755 133.001 122.898 132.894 123.136C132.798 123.351 132.802 123.589 132.906 123.851C133.168 124.482 133.418 125.101 133.644 125.697C133.775 126.042 133.906 126.364 134.037 126.673C134.049 126.733 134.085 126.792 134.109 126.84C134.192 127.019 134.275 127.221 134.097 127.376C133.918 127.519 133.727 127.388 133.656 127.34C133.18 126.995 132.775 126.816 132.501 126.816Z" fill="#0E1412"/>
<path d="M199.372 159.389C199.026 159.139 198.133 158.412 197.883 158.269C197.49 158.043 197.002 158.317 196.99 158.769C196.954 161.675 197.002 170.071 198.502 172.894C199.134 174.085 199.729 175.002 200.194 176.098C200.991 178.003 201.075 178.48 200.872 178.98C200.67 179.492 198.991 179.956 198.312 180.218C192.047 182.576 179.65 185.101 178.018 178.301C177.089 174.442 176.422 171.715 173.54 166.689C172.79 165.367 171.242 165.772 169.027 163.724C167.752 162.533 167.74 161.401 167.228 159.627C166.859 158.376 166.561 158.15 160.809 156.959C160.678 156.935 154.985 144.693 154.985 144.693C154.985 144.693 170.36 138.523 177.828 137.583C193.786 135.594 200.98 142.573 205.839 149.635C206.029 149.909 199.634 159.579 199.372 159.389Z" fill="#0E1412"/>
<path fill-rule="evenodd" clip-rule="evenodd" d="M186.033 182.981C183.961 182.981 182.032 182.659 180.519 181.873C179.054 181.099 178.126 179.92 177.756 178.372C176.839 174.573 176.172 171.834 173.314 166.82C172.993 166.26 172.492 166.046 171.79 165.76C171.004 165.427 170.015 165.01 168.848 163.926C167.776 162.926 167.538 161.961 167.24 160.746C167.157 160.413 167.074 160.067 166.966 159.698C166.657 158.614 166.442 158.4 160.75 157.221C160.571 157.185 160.547 157.173 157.606 150.933C156.165 147.86 154.735 144.811 154.735 144.811C154.712 144.74 154.7 144.656 154.735 144.597C154.759 144.525 154.807 144.466 154.878 144.442C155.033 144.383 170.384 138.249 177.792 137.32C193.941 135.308 201.146 142.334 206.053 149.48C206.184 149.658 206.291 149.825 203.302 154.386C201.849 156.59 200.17 159.031 199.67 159.508C199.467 159.71 199.312 159.674 199.217 159.603C199.086 159.519 198.884 159.353 198.657 159.186C198.312 158.912 197.895 158.579 197.752 158.495C197.645 158.448 197.526 158.448 197.419 158.507C197.371 158.531 197.264 158.614 197.264 158.769C197.228 161.342 197.24 169.952 198.729 172.763C198.943 173.168 199.158 173.537 199.348 173.882C199.753 174.585 200.122 175.252 200.444 175.99C201.254 177.919 201.373 178.467 201.123 179.075C200.92 179.563 200.027 179.908 198.884 180.301C198.705 180.361 198.538 180.42 198.407 180.468C195.394 181.6 190.392 182.981 186.033 182.981ZM160.976 156.721C166.514 157.876 167.062 158.114 167.479 159.543C167.598 159.936 167.681 160.282 167.764 160.615C168.05 161.794 168.265 162.64 169.217 163.521C170.313 164.545 171.254 164.938 172.004 165.26C172.731 165.569 173.362 165.831 173.779 166.558C176.685 171.631 177.351 174.406 178.28 178.241C178.614 179.634 179.448 180.694 180.769 181.397C184.688 183.457 192.56 182.1 198.217 179.968C198.348 179.908 198.526 179.849 198.717 179.789C199.253 179.611 200.503 179.182 200.622 178.884C200.789 178.479 200.718 178.027 199.944 176.205C199.646 175.49 199.277 174.835 198.884 174.156C198.681 173.799 198.479 173.418 198.264 173.025C196.704 170.095 196.692 161.365 196.728 158.769C196.728 158.459 196.895 158.186 197.157 158.043C197.419 157.888 197.74 157.876 198.014 158.031C198.181 158.126 198.526 158.388 198.991 158.757C199.134 158.864 199.265 158.972 199.372 159.055C200.313 158.043 205.148 150.73 205.553 149.694C200.73 142.715 193.655 135.879 177.864 137.856C171.051 138.702 157.415 144.025 155.343 144.835C157.451 149.361 160.523 155.899 160.976 156.721Z" fill="#0E1412"/>
<path d="M194.477 170.691C194.382 170.691 194.298 170.643 194.251 170.56C192.631 167.94 190.69 164.284 190.106 159.175C189.153 150.957 184.628 144.86 184.58 144.8C184.485 144.681 184.509 144.514 184.628 144.431C184.747 144.336 184.914 144.359 185.009 144.478C185.057 144.538 189.678 150.755 190.642 159.103C191.214 164.117 193.107 167.714 194.703 170.274C194.775 170.405 194.739 170.572 194.62 170.643C194.572 170.675 194.525 170.691 194.477 170.691Z" fill="#0E1412"/>
<path d="M177.279 113.335C176.517 113.538 175.815 114.002 175.35 114.705C174.552 115.872 174.624 117.36 175.41 118.444C174.802 118.944 174.374 119.647 174.243 120.469C174.04 121.862 174.743 123.172 175.934 123.827C175.6 124.53 175.517 125.352 175.755 126.15C176.172 127.495 177.387 128.401 178.744 128.508C178.756 129.282 179.03 130.056 179.602 130.675C180.078 131.199 180.686 131.545 181.341 131.699C181.428 131.795 181.527 131.882 181.638 131.961C182.77 132.843 184.294 132.89 185.473 132.223C185.938 132.855 186.628 133.331 187.45 133.533C188.867 133.855 190.273 133.283 191.047 132.188C191.738 132.569 192.571 132.724 193.405 132.557C194.822 132.283 195.858 131.175 196.084 129.877C196.882 129.937 197.692 129.734 198.383 129.234C199.55 128.401 200.003 126.983 199.633 125.697C200.384 125.435 201.039 124.911 201.444 124.185C202.134 122.946 201.932 121.469 201.051 120.457C201.599 119.909 201.968 119.171 202.015 118.337C202.111 116.932 201.277 115.681 200.038 115.133C200.312 114.407 200.324 113.585 200.003 112.811C199.479 111.501 198.181 110.703 196.823 110.715C196.739 109.941 196.394 109.203 195.775 108.619C194.727 107.654 193.202 107.464 191.976 108.035C191.571 107.368 190.928 106.833 190.118 106.571C188.748 106.13 187.295 106.582 186.414 107.595C185.771 107.154 184.949 106.94 184.104 107.035C182.663 107.19 181.543 108.202 181.198 109.488C180.412 109.357 179.578 109.488 178.852 109.929C177.613 110.655 177.041 112.037 177.279 113.335Z" fill="#0E1412"/>
<path d="M176.399 123.279C176.065 123.077 175.613 123.232 175.494 123.601C175.422 123.791 175.351 123.994 175.291 124.137C175.16 124.494 174.886 125.709 173.743 126.912C173.636 127.031 173.636 127.209 173.731 127.328C173.969 127.602 174.362 128.055 174.529 128.257C174.589 128.317 174.612 128.4 174.601 128.484C174.529 128.996 174.279 130.866 174.291 131.235C174.303 131.64 174.589 132.045 174.743 132.164C175.136 132.45 177.054 132.473 177.054 132.473C177.054 132.473 177.554 132.592 178.173 135.355C178.602 137.297 175.613 139.309 175.613 139.309C175.613 139.309 182.318 141.941 187.951 139.655C188.308 139.512 188.32 139.024 188.022 138.809C186.82 137.928 184.247 135.796 183.211 133.021C183.152 132.854 183.032 132.723 182.866 132.652C182.175 132.366 180.317 131.854 180.651 128.805C180.651 128.722 180.686 128.65 180.734 128.591C181.127 128.055 182.937 125.423 179.829 125.792C177.78 126.042 177.161 124.577 176.982 123.91C176.923 123.696 176.78 123.506 176.578 123.386L176.399 123.279Z" fill="white"/>
<path fill-rule="evenodd" clip-rule="evenodd" d="M182.734 140.869C178.9 140.869 175.708 139.631 175.517 139.559C175.422 139.524 175.362 139.44 175.351 139.345C175.339 139.238 175.386 139.143 175.47 139.095C175.493 139.071 178.292 137.154 177.911 135.403C177.447 133.355 177.054 132.807 177.006 132.747C176.482 132.735 175.005 132.688 174.576 132.378C174.362 132.211 174.04 131.735 174.029 131.235C174.017 130.889 174.219 129.341 174.338 128.448L173.528 127.495C173.338 127.269 173.35 126.947 173.552 126.733C174.505 125.721 174.826 124.72 174.981 124.232C175.005 124.153 175.025 124.089 175.041 124.041C175.088 123.91 175.16 123.708 175.231 123.505C175.327 123.255 175.517 123.065 175.767 122.97C176.029 122.886 176.303 122.91 176.541 123.053L176.72 123.16C176.982 123.315 177.173 123.553 177.244 123.839C177.435 124.565 178.018 125.733 179.805 125.53C180.829 125.399 181.46 125.578 181.746 126.066C182.21 126.876 181.341 128.21 180.948 128.746C180.932 128.769 180.92 128.797 180.912 128.829C180.626 131.485 182.044 132.045 182.818 132.342C182.865 132.366 182.913 132.386 182.961 132.402C183.199 132.497 183.377 132.7 183.473 132.926C184.485 135.677 187.105 137.797 188.177 138.595C188.415 138.761 188.534 139.035 188.498 139.321C188.463 139.583 188.296 139.809 188.058 139.905C186.295 140.619 184.449 140.869 182.734 140.869ZM176.184 139.226C177.792 139.762 183.223 141.286 187.855 139.405C187.939 139.369 187.963 139.309 187.963 139.262C187.974 139.19 187.951 139.083 187.867 139.023C186.748 138.202 184.032 135.998 182.961 133.116C182.925 133.021 182.853 132.938 182.758 132.902C182.718 132.886 182.671 132.866 182.615 132.842C181.853 132.545 180.043 131.842 180.376 128.769C180.388 128.65 180.436 128.531 180.519 128.424C181.067 127.686 181.52 126.745 181.281 126.328C181.127 126.066 180.626 125.971 179.864 126.054C177.601 126.328 176.911 124.696 176.72 123.982C176.684 123.827 176.589 123.708 176.446 123.613L176.268 123.505C176.172 123.446 176.053 123.446 175.946 123.482C175.851 123.517 175.779 123.589 175.744 123.684C175.672 123.887 175.601 124.089 175.553 124.232C175.537 124.272 175.517 124.327 175.493 124.399C175.327 124.923 174.981 126.006 173.933 127.102C173.921 127.114 173.921 127.138 173.933 127.15L174.731 128.079C174.838 128.198 174.886 128.353 174.862 128.519C174.672 129.96 174.553 130.996 174.564 131.223C174.576 131.544 174.803 131.878 174.898 131.937C175.1 132.092 176.184 132.199 177.065 132.211C177.081 132.211 177.101 132.211 177.125 132.211C177.363 132.271 177.863 132.747 178.435 135.296C178.792 136.939 177.018 138.559 176.184 139.226Z" fill="#0E1412"/>
<path fill-rule="evenodd" clip-rule="evenodd" d="M180.007 129.115C179.928 129.115 179.86 129.107 179.805 129.091C179.388 129.032 178.983 128.758 178.912 128.508C178.876 128.365 178.959 128.222 179.102 128.186C179.233 128.15 179.364 128.21 179.424 128.341C179.471 128.4 179.71 128.579 180.007 128.579C180.015 128.579 180.019 128.579 180.019 128.579C180.293 128.567 180.543 128.412 180.746 128.091C180.829 127.972 180.996 127.936 181.115 128.019C181.246 128.091 181.282 128.258 181.198 128.389C180.805 128.984 180.341 129.115 180.007 129.115Z" fill="#0E1412"/>
<path d="M178.959 129.842C179.019 129.58 179.293 129.401 179.567 129.461C179.841 129.52 180.019 129.794 179.96 130.068C179.9 130.33 179.626 130.509 179.352 130.449C179.066 130.389 178.9 130.116 178.959 129.842Z" fill="#0E1412"/>
<path d="M166.859 38.6272C166.82 38.6272 166.784 38.6193 166.752 38.6034C166.621 38.5558 166.55 38.389 166.609 38.258L173.231 22.4066C173.29 22.2637 173.445 22.2041 173.588 22.2637C173.719 22.3113 173.79 22.478 173.731 22.6091L167.109 38.4605C167.062 38.5677 166.966 38.6272 166.859 38.6272Z" fill="#0E1412"/>
<path d="M164.751 38.6272C164.744 38.6272 164.74 38.6272 164.74 38.6272C164.597 38.6272 164.478 38.5081 164.478 38.3652L164.573 18.1549C164.573 18.0119 164.692 17.8929 164.835 17.8929C164.835 17.8929 164.839 17.8929 164.847 17.8929C164.99 17.8929 165.109 18.0119 165.109 18.1549L165.013 38.3652C165.013 38.5081 164.894 38.6272 164.751 38.6272Z" fill="#0E1412"/>
<path d="M162.643 38.627C162.536 38.627 162.441 38.5674 162.393 38.4602L155.926 22.704C155.879 22.573 155.938 22.4063 156.081 22.3587C156.212 22.2991 156.367 22.3587 156.427 22.5016L162.893 38.2578C162.953 38.4007 162.881 38.5555 162.75 38.6031C162.711 38.619 162.675 38.627 162.643 38.627Z" fill="#0E1412"/>
<path d="M174.696 17.6662C174.696 22.9659 170.265 28.2537 164.811 28.2537C159.344 28.2537 154.914 22.9659 154.914 17.6662C154.914 12.3665 159.344 8.06723 164.811 8.06723C170.265 8.06723 174.696 12.3665 174.696 17.6662Z" fill="white"/>
<path fill-rule="evenodd" clip-rule="evenodd" d="M164.81 28.516C162.143 28.516 159.582 27.3131 157.605 25.1218C155.723 23.0376 154.64 20.3104 154.64 17.6665C154.64 12.2239 159.201 7.79358 164.81 7.79358C170.408 7.79358 174.969 12.2239 174.969 17.6665C174.969 20.3104 173.885 23.0376 172.004 25.1218C170.027 27.3131 167.466 28.516 164.81 28.516ZM164.81 8.3295C159.499 8.3295 155.176 12.5216 155.176 17.6665C155.176 22.5375 159.296 27.9801 164.81 27.9801C170.312 27.9801 174.433 22.5375 174.433 17.6665C174.433 12.5216 170.11 8.3295 164.81 8.3295Z" fill="#0E1412"/>
<path d="M166.859 41.8425H162.644V38.365H166.859V41.8425Z" fill="white"/>
<path fill-rule="evenodd" clip-rule="evenodd" d="M166.859 42.1165H162.643C162.5 42.1165 162.381 41.9974 162.381 41.8426V38.365C162.381 38.2102 162.5 38.0911 162.643 38.0911H166.859C167.002 38.0911 167.121 38.2102 167.121 38.365V41.8426C167.121 41.9974 167.002 42.1165 166.859 42.1165ZM162.917 41.5806H166.585V38.627H162.917V41.5806Z" fill="#0E1412"/>
<path d="M155.915 18.3571C155.855 18.3571 155.796 18.3452 155.748 18.3094C155.629 18.2142 155.605 18.0474 155.7 17.9283C155.736 17.8926 158.964 13.9506 164.811 17.4639C165.68 16.7731 170.051 13.6648 173.862 17.7497C173.958 17.8569 173.958 18.0236 173.85 18.1308C173.743 18.2261 173.565 18.2261 173.469 18.1189C169.599 13.9625 165.192 17.8212 165.014 17.9879C164.918 18.0713 164.787 18.0832 164.692 18.0236C159.166 14.5937 156.236 18.107 156.117 18.2618C156.07 18.3333 155.986 18.3571 155.915 18.3571Z" fill="#0E1412"/>
<path d="M37.2246 113.454C37.2246 118.587 29.019 130.925 27.0658 133.807C26.8634 134.105 26.4227 134.105 26.2203 133.807C24.815 131.747 20.2179 124.827 17.7169 119.182C16.7165 116.943 16.0615 114.907 16.0615 113.454C16.0615 107.618 20.8015 102.89 26.6371 102.89C32.4846 102.89 37.2246 107.618 37.2246 113.454Z" fill="#0E1412"/>
<path d="M31.4841 113.455C31.4841 116.122 29.3166 118.278 26.637 118.278C23.9693 118.278 21.8018 116.122 21.8018 113.455C21.8018 110.787 23.9693 108.619 26.637 108.619C29.3166 108.619 31.4841 110.787 31.4841 113.455Z" fill="white"/>
<path fill-rule="evenodd" clip-rule="evenodd" d="M26.6376 134.296C26.3875 134.296 26.1493 134.177 26.0064 133.962C24.6368 131.95 19.9802 124.971 17.4673 119.29C16.3597 116.789 15.7881 114.812 15.7881 113.454C15.7881 107.476 20.659 102.617 26.6376 102.617C32.628 102.617 37.4871 107.476 37.4871 113.454C37.4871 118.575 29.6745 130.449 27.2807 133.962C27.1378 134.177 26.8996 134.296 26.6376 134.296ZM26.6376 103.153C20.9568 103.153 16.324 107.773 16.324 113.454C16.324 114.74 16.8838 116.634 17.9556 119.075C20.4566 124.709 25.0893 131.664 26.447 133.653C26.5304 133.796 26.7448 133.796 26.84 133.653C28.5312 131.175 36.9511 118.551 36.9511 113.454C36.9511 107.773 32.3303 103.153 26.6376 103.153Z" fill="#0E1412"/>
<path d="M57.2682 166.808C57.2682 171.905 49.1221 184.172 47.1809 187.042C46.9784 187.328 46.5378 187.328 46.3472 187.042C44.9419 184.982 40.3687 178.122 37.8916 172.513C36.9031 170.286 36.248 168.261 36.248 166.808C36.248 161.008 40.9523 156.316 46.7641 156.316C52.564 156.316 57.2682 161.008 57.2682 166.808Z" fill="#0E1412"/>
<path d="M51.564 166.808C51.564 169.464 49.4203 171.608 46.7645 171.608C44.1087 171.608 41.9531 169.464 41.9531 166.808C41.9531 164.153 44.1087 162.009 46.7645 162.009C49.4203 162.009 51.564 164.153 51.564 166.808Z" fill="white"/>
<path fill-rule="evenodd" clip-rule="evenodd" d="M46.7646 187.531C46.5025 187.531 46.2644 187.4 46.1214 187.185C44.7638 185.196 40.1429 178.253 37.6419 172.62C36.5344 170.119 35.9746 168.166 35.9746 166.808C35.9746 160.877 40.8098 156.042 46.7646 156.042C52.7074 156.042 57.5426 160.877 57.5426 166.808C57.5426 171.906 49.7776 183.696 47.3957 187.185C47.2528 187.4 47.0146 187.531 46.7646 187.531ZM46.7646 156.578C41.1076 156.578 36.5105 161.163 36.5105 166.808C36.5105 168.095 37.0584 169.976 38.1302 172.406C40.6193 178.003 45.2163 184.911 46.5621 186.888C46.6574 187.019 46.8598 187.019 46.9551 186.888C48.6343 184.422 57.0067 171.882 57.0067 166.808C57.0067 161.163 52.4096 156.578 46.7646 156.578Z" fill="#0E1412"/>
<path d="M93.5324 134.033C93.5324 140.262 83.5761 155.244 81.1942 158.746C80.9441 159.103 80.4201 159.103 80.17 158.746C78.467 156.233 72.8814 147.848 69.8445 141C68.6417 138.273 67.8438 135.796 67.8438 134.033C67.8438 126.947 73.596 121.207 80.6821 121.207C87.7801 121.207 93.5324 126.947 93.5324 134.033Z" fill="#0E1412"/>
<path d="M86.5542 134.034C86.5542 137.273 83.9342 139.893 80.6829 139.893C77.4435 139.893 74.8115 137.273 74.8115 134.034C74.8115 130.794 77.4435 128.162 80.6829 128.162C83.9342 128.162 86.5542 130.794 86.5542 134.034Z" fill="white"/>
<path fill-rule="evenodd" clip-rule="evenodd" d="M80.6826 159.281C80.3968 159.281 80.1228 159.139 79.9561 158.9C78.3007 156.459 72.6556 147.991 69.6068 141.108C68.2611 138.059 67.5703 135.689 67.5703 134.033C67.5703 126.816 73.4536 120.933 80.6826 120.933C87.9116 120.933 93.7949 126.816 93.7949 134.033C93.7949 140.238 84.315 154.637 81.421 158.9C81.2542 159.139 80.9803 159.281 80.6826 159.281ZM80.6826 121.481C73.7513 121.481 68.1062 127.102 68.1062 134.033C68.1062 135.606 68.7732 137.916 70.0951 140.881C73.132 147.729 78.7414 156.173 80.3968 158.591C80.4682 158.686 80.5635 158.746 80.6826 158.746C80.8017 158.746 80.9089 158.686 80.9684 158.591C83.0287 155.578 93.2589 140.238 93.2589 134.033C93.2589 127.102 87.6139 121.481 80.6826 121.481Z" fill="#0E1412"/>
<path d="M61.4729 11.4738L60.008 9.74689C58.8171 8.35349 56.7806 7.99621 55.1609 8.88941L47.0625 13.3674L53.1244 20.5011L55.6968 18.4408L61.4729 11.4738Z" fill="white"/>
<path fill-rule="evenodd" clip-rule="evenodd" d="M53.1238 20.7752C53.0405 20.7752 52.969 20.7395 52.9214 20.6799L46.8595 13.5462C46.8118 13.4866 46.788 13.4032 46.7999 13.3199C46.8118 13.2365 46.8595 13.177 46.9309 13.1293L55.0293 8.65139C56.7681 7.68672 58.9356 8.07973 60.2099 9.58032L61.6748 11.2953C61.7582 11.4025 61.7582 11.5454 61.6748 11.6407L55.8987 18.6196C55.8908 18.6275 55.8789 18.6394 55.863 18.6553L53.2905 20.7156C53.2429 20.7514 53.1834 20.7752 53.1238 20.7752ZM47.4787 13.439L53.1595 20.1321L55.5057 18.2504L61.115 11.4739L59.805 9.92569C58.6974 8.62757 56.8038 8.28219 55.2913 9.11585L47.4787 13.439Z" fill="#0E1412"/>
<path d="M53.1239 20.5008C52.8262 20.739 51.2184 19.3456 49.5511 17.3686C47.8719 15.4036 46.7643 13.6052 47.062 13.367C47.3598 13.1289 48.9675 14.5342 50.6349 16.4992C52.3141 18.4762 53.4217 20.2626 53.1239 20.5008Z" fill="#0E1412"/>
<path d="M50.3131 16.7614C49.8368 16.1897 49.3723 15.6776 48.9316 15.237C48.2409 15.7253 47.5263 16.2969 46.7999 16.9638C44.287 19.2743 42.7864 21.7276 41.917 23.514C42.7387 23.3354 43.6915 23.0853 44.7038 22.7042C46.1091 22.1683 47.2524 21.549 48.1456 20.9773C47.7169 21.2631 47.1333 21.7276 46.6093 22.4184C46.2878 22.8352 46.0615 23.2401 45.9067 23.5736C46.9428 23.1329 48.1694 22.4898 49.4557 21.6085C50.5632 20.8344 51.4803 20.0365 52.2306 19.2981C51.778 18.5835 51.1111 17.6903 50.3131 16.7614Z" fill="white"/>
<path fill-rule="evenodd" clip-rule="evenodd" d="M45.9067 23.8476C45.8352 23.8476 45.7637 23.8238 45.7161 23.7642C45.6327 23.6808 45.6089 23.5617 45.6566 23.4665C45.859 23.0377 46.0972 22.6447 46.383 22.2636C45.867 22.5177 45.339 22.7479 44.7991 22.9544C43.8821 23.2997 42.9293 23.5737 41.9765 23.7761C41.8694 23.7999 41.7622 23.7642 41.7026 23.6808C41.6431 23.5975 41.6312 23.4903 41.6788 23.395C42.9055 20.8702 44.5728 18.6432 46.6212 16.7615C47.2881 16.1422 48.0146 15.5586 48.7768 15.0108C48.884 14.9393 49.0269 14.9512 49.1222 15.0465C49.5867 15.511 50.0511 16.0231 50.5275 16.5828C51.2897 17.4879 51.9805 18.405 52.4568 19.1553C52.5283 19.2624 52.5045 19.3934 52.4211 19.4887C51.5517 20.3462 50.6109 21.1322 49.6105 21.823C48.4791 22.609 47.2762 23.2759 46.0138 23.8238C45.9741 23.8396 45.9384 23.8476 45.9067 23.8476ZM48.8959 15.5824C48.229 16.0826 47.5859 16.6066 46.9785 17.1545C45.1206 18.8694 43.5843 20.8702 42.4172 23.133C43.1556 22.9425 43.894 22.7162 44.6085 22.4542C45.7995 22.0016 46.9428 21.43 48.0027 20.7511C48.1337 20.6678 48.3005 20.7035 48.3719 20.8226C48.4553 20.9536 48.4195 21.1084 48.3005 21.1918C47.7288 21.5729 47.2286 22.0373 46.8237 22.5733C46.7205 22.7082 46.6212 22.8512 46.5259 23.002C47.4906 22.5375 48.4315 21.9897 49.3008 21.3823C50.2179 20.7511 51.0873 20.0366 51.8852 19.2624C51.4326 18.5717 50.8133 17.7499 50.1107 16.9282C49.7058 16.4518 49.3008 15.9993 48.8959 15.5824Z" fill="#0E1412"/>
<path d="M69.2849 20.6794L70.7498 22.4063C71.9288 23.7997 71.905 25.8124 70.7021 27.182L64.6164 34.0537L58.5664 26.92L61.1388 24.8477L69.2849 20.6794Z" fill="white"/>
<path fill-rule="evenodd" clip-rule="evenodd" d="M64.6169 34.3158C64.5335 34.3158 64.4621 34.28 64.4144 34.2205L58.3525 27.0867C58.3168 27.0272 58.293 26.9557 58.293 26.8843C58.3049 26.8128 58.3406 26.7533 58.4002 26.7056L60.9726 24.6453C60.9885 24.6294 61.0043 24.6175 61.0202 24.6096L69.1663 20.4413C69.2735 20.3936 69.4045 20.4175 69.4878 20.5127L70.9527 22.2277C72.227 23.7283 72.2032 25.8958 70.8931 27.3606L64.8193 34.2324C64.7717 34.28 64.7002 34.3158 64.6169 34.3158ZM58.948 26.9557L64.6288 33.6369L70.5001 27.0153C71.6196 25.741 71.6434 23.8712 70.5478 22.585L69.2139 21.0248L61.2822 25.074L58.948 26.9557Z" fill="#0E1412"/>
<path d="M58.5671 26.9202C58.2575 27.1584 59.377 28.9448 61.0443 30.9218C62.7235 32.8869 64.3194 34.2922 64.6171 34.054C64.9148 33.8039 63.8073 32.0175 62.14 30.0524C60.4607 28.0755 58.8649 26.6701 58.5671 26.9202Z" fill="#0E1412"/>
<path d="M61.8178 30.3025C62.2942 30.8623 62.7229 31.4101 63.0921 31.9103C62.4609 32.482 61.7464 33.0536 60.9365 33.6133C58.114 35.5784 55.351 36.5312 53.374 37.0194C53.7075 36.2691 54.1481 35.4117 54.7317 34.5185C55.5415 33.2799 56.3871 32.3033 57.1374 31.5649C56.7563 31.9222 56.1846 32.3867 55.3867 32.7559C54.8984 32.9821 54.4578 33.1251 54.0767 33.2084C54.7317 32.3033 55.6011 31.2553 56.7444 30.1953C57.7329 29.2902 58.7214 28.5637 59.6146 27.9921C60.2458 28.5637 61.0199 29.3617 61.8178 30.3025Z" fill="white"/>
<path fill-rule="evenodd" clip-rule="evenodd" d="M53.3739 37.2813C53.3024 37.2813 53.231 37.2575 53.1714 37.1861C53.1119 37.1146 53.0881 37.0074 53.1357 36.9121C53.5168 36.0308 53.9813 35.1734 54.5053 34.3754C54.8149 33.8991 55.1444 33.4425 55.4938 33.0058C55.065 33.2083 54.6006 33.3631 54.1361 33.4703C54.0289 33.4941 53.9098 33.4465 53.8503 33.3512C53.7907 33.2678 53.7907 33.1368 53.8622 33.0535C54.6482 31.9459 55.5652 30.9217 56.5656 30.0047C57.4588 29.1829 58.4354 28.4326 59.4715 27.7657C59.5668 27.7061 59.6978 27.7181 59.7931 27.7895C60.46 28.385 61.246 29.2186 62.0201 30.1238C62.4846 30.6835 62.9252 31.2313 63.3063 31.7554C63.3897 31.8625 63.3659 32.0174 63.2706 32.1126C62.5799 32.7319 61.8415 33.3155 61.0912 33.8395C58.8046 35.4235 56.2321 36.5787 53.4453 37.2813C53.4215 37.2813 53.3977 37.2813 53.3739 37.2813ZM57.1373 31.2909C57.2087 31.2909 57.2802 31.3147 57.3278 31.3743C57.435 31.4814 57.435 31.6482 57.3278 31.7554C56.4346 32.6367 55.6367 33.6251 54.9578 34.6613C54.5529 35.2925 54.1837 35.9475 53.8622 36.6144C56.3751 35.9237 58.6974 34.8399 60.7815 33.3989C61.4604 32.9225 62.1035 32.4223 62.7228 31.8744C62.3893 31.4219 62.0082 30.9455 61.6152 30.481C60.9125 29.6474 60.198 28.8971 59.5906 28.3373C58.6378 28.9447 57.7446 29.6355 56.9348 30.3977C56.1488 31.1122 55.4342 31.8864 54.7792 32.72C54.9459 32.6565 55.1127 32.585 55.2794 32.5056C55.8987 32.2198 56.4584 31.8387 56.9586 31.3623C57.0063 31.3147 57.0777 31.2909 57.1373 31.2909Z" fill="#0E1412"/>
<path d="M80.206 12.4144L84.6363 2.38664C85.1365 1.26716 84.1242 0.0762129 82.8976 0.326311L71.9052 2.64865C68.8802 3.27985 66.0457 4.6137 63.64 6.53112C62.0441 7.81734 60.6627 9.34175 59.5551 11.0448L54.827 18.0714C54.4936 18.3334 55.6964 20.2627 57.4948 22.3826C59.2931 24.5024 61.0199 26.0149 61.3415 25.7529L69.3565 22.585C71.2859 21.8586 73.0961 20.8343 74.692 19.5481C77.0858 17.6307 78.9794 15.1893 80.206 12.4144Z" fill="white"/>
<path fill-rule="evenodd" clip-rule="evenodd" d="M61.2822 26.0391C60.3294 26.0391 58.0309 23.419 57.2925 22.5615C56.2207 21.2991 54.4224 18.9529 54.5057 18.1669C54.5176 18.0359 54.5653 17.9526 54.6129 17.9049L59.341 10.8903C60.4604 9.1634 61.8538 7.62708 63.4735 6.32895C65.8911 4.38772 68.797 3.03004 71.8578 2.38693L82.8383 0.0645953C83.5171 -0.0783179 84.2078 0.17178 84.6485 0.695795C85.0653 1.21981 85.1487 1.88674 84.8867 2.49412L80.4445 12.5219C79.2059 15.3206 77.2766 17.8216 74.8589 19.7628C73.2393 21.0609 71.4171 22.097 69.4521 22.8354L61.4608 25.9914C61.4053 26.0232 61.3457 26.0391 61.2822 26.0391ZM55.0417 18.2384C55.0417 18.548 55.8039 19.9772 57.6975 22.2161C59.46 24.2765 60.8773 25.4555 61.2226 25.515C61.2306 25.515 61.2385 25.5111 61.2465 25.5031L69.2615 22.3352C71.1789 21.6087 72.9415 20.6084 74.5255 19.346C76.8716 17.4524 78.7533 15.0228 79.9562 12.3075L84.3984 2.27975C84.577 1.85101 84.5175 1.39845 84.2317 1.04117C83.922 0.660067 83.4337 0.493335 82.9574 0.60052L71.965 2.91095C68.9876 3.53024 66.1651 4.86409 63.8189 6.74578C62.2349 8.00818 60.8773 9.50877 59.7816 11.188L55.0417 18.2265C55.0417 18.2265 55.0417 18.2304 55.0417 18.2384Z" fill="#0E1412"/>
<path d="M61.0673 25.5148C60.7696 25.753 59.1737 24.3596 57.4945 22.3826C55.8272 20.4176 54.7077 18.6192 55.0173 18.3811C55.3151 18.1429 56.9109 19.5482 58.5782 21.5132C60.2575 23.4902 61.365 25.2766 61.0673 25.5148Z" fill="#0E1412"/>
<path d="M59.9957 24.1216C59.5432 23.4428 58.9239 22.6091 58.1855 21.7397C57.4233 20.8465 56.6849 20.0843 56.0775 19.5246C54.7317 20.3225 53.2669 21.3586 51.802 22.6687C47.598 26.432 45.5019 30.648 44.4658 33.28C48.261 30.2629 50.3134 28.9052 50.623 29.2069C50.8215 29.4054 50.2935 30.2947 49.039 31.8746C50.4324 31.5174 52.1831 30.8981 54.0172 29.8024C56.9707 28.0279 58.8643 25.8008 59.9957 24.1216Z" fill="white"/>
<path fill-rule="evenodd" clip-rule="evenodd" d="M44.4658 33.5415C44.4182 33.5415 44.3587 33.5296 44.311 33.4938C44.2157 33.4224 44.18 33.2914 44.2157 33.1842C45.8592 29.004 48.3483 25.4073 51.6234 22.4657C52.9453 21.2867 54.3983 20.2148 55.9346 19.2859C56.0418 19.2263 56.1728 19.2382 56.2562 19.3216C56.8993 19.9052 57.6615 20.7031 58.388 21.5606C59.1025 22.4061 59.7456 23.2636 60.222 23.9782C60.2816 24.0735 60.2816 24.1807 60.2101 24.2759C58.6142 26.6459 56.5777 28.5871 54.1482 30.0282C52.6 30.9571 50.8969 31.6717 49.1105 32.1361C49.0033 32.1719 48.8842 32.1242 48.8247 32.029C48.7532 31.9337 48.7651 31.8027 48.8366 31.7074C49.9799 30.2783 50.2895 29.6828 50.3729 29.4565C49.968 29.5637 48.6937 30.2664 44.6326 33.4819C44.5849 33.5295 44.5254 33.5415 44.4658 33.5415ZM56.0418 19.8575C54.5888 20.7388 53.2312 21.7511 51.9807 22.8706C49.0271 25.5264 46.7167 28.7301 45.1089 32.4339C50.2181 28.4323 50.5635 28.7658 50.8136 29.0159C51.0398 29.2422 51.1113 29.5994 49.7536 31.3978C51.2066 30.9452 52.5881 30.3378 53.8743 29.5756C56.1728 28.1941 58.1259 26.3601 59.6742 24.1211C59.2216 23.4542 58.6261 22.6801 57.9711 21.9059C57.3161 21.1318 56.6373 20.4173 56.0418 19.8575Z" fill="#0E1412"/>
<path d="M80.9688 10.2588C80.8616 10.2588 80.7663 10.1993 80.7187 10.0921C80.5043 9.57998 80.2542 9.06788 79.9922 8.5915C79.9207 8.4605 79.9684 8.29377 80.0994 8.22231C80.2304 8.15085 80.3971 8.19849 80.4566 8.32949C80.7306 8.82969 80.9926 9.3537 81.2189 9.88963C81.2784 10.0206 81.2069 10.1755 81.0759 10.235C81.0442 10.2509 81.0084 10.2588 80.9688 10.2588Z" fill="#0E1412"/>
<path d="M78.9077 6.68616C78.8243 6.68616 78.741 6.65043 78.6933 6.57897C77.5262 5.04266 76.0733 3.7088 74.3583 2.60123C74.2392 2.51786 74.2035 2.35113 74.2749 2.23203C74.3583 2.10103 74.525 2.0653 74.656 2.14867C76.4186 3.29197 77.9192 4.67347 79.1221 6.25742C79.2054 6.37651 79.1816 6.54325 79.0625 6.62661C79.0149 6.66234 78.9673 6.68616 78.9077 6.68616Z" fill="#0E1412"/>
<path d="M73.7158 17.0948C71.1077 19.1789 67.2609 18.8097 65.1172 16.2849C62.9735 13.7601 63.3427 10.0206 65.9509 7.9364C68.5471 5.85225 72.3939 6.20954 74.5376 8.74625C76.6932 11.271 76.3121 15.0106 73.7158 17.0948Z" fill="white"/>
<path d="M70.7973 18.6431C70.6663 18.6431 70.5591 18.5478 70.5353 18.4168C70.5115 18.262 70.6068 18.131 70.7616 18.1071C71.7739 17.9523 72.7386 17.5236 73.5484 16.8805C73.6675 16.7852 73.8342 16.809 73.9295 16.9162C74.0129 17.0353 74.001 17.202 73.8819 17.2973C73.0006 18 71.9525 18.4644 70.845 18.6312C70.8291 18.6391 70.8132 18.6431 70.7973 18.6431ZM67.6294 18.3096C67.5977 18.3096 67.5659 18.3056 67.5342 18.2977C66.5218 17.9166 65.6048 17.2854 64.9141 16.4636L64.8307 16.3684C64.7354 16.2493 64.7593 16.0825 64.8664 15.9873C64.9855 15.892 65.1523 15.9039 65.2475 16.023L65.319 16.1064C65.9621 16.8686 66.7958 17.4521 67.7247 17.7975C67.8676 17.8451 67.9272 18 67.8795 18.1429C67.8438 18.2501 67.7366 18.3096 67.6294 18.3096ZM75.2396 15.5347C75.1999 15.5347 75.1602 15.5228 75.1205 15.499C74.9895 15.4275 74.9418 15.2727 75.0014 15.1417C75.442 14.3319 75.6683 13.4267 75.6683 12.5097C75.6683 12.3986 75.6643 12.2874 75.6564 12.1762C75.6445 12.0214 75.7636 11.9023 75.9065 11.8904C76.0613 11.8785 76.1804 11.9976 76.1923 12.1405C76.2002 12.2675 76.2042 12.3906 76.2042 12.5097C76.2042 13.5101 75.9541 14.5105 75.4777 15.3918C75.4301 15.4752 75.3348 15.5347 75.2396 15.5347ZM63.7708 13.5458C63.6398 13.5458 63.5207 13.4506 63.5088 13.3076C63.473 13.0456 63.4492 12.7836 63.4492 12.5216C63.4492 11.6522 63.6398 10.8067 63.9851 10.0206C64.0566 9.88963 64.2114 9.83009 64.3424 9.88963C64.4853 9.94918 64.5449 10.104 64.4853 10.2469C64.1519 10.9615 63.9851 11.7237 63.9851 12.5216C63.9851 12.7598 64.001 13.002 64.0328 13.2481C64.0566 13.391 63.9494 13.522 63.8065 13.5458C63.7986 13.5458 63.7867 13.5458 63.7708 13.5458ZM74.8704 9.42517C74.787 9.42517 74.7036 9.38944 74.6441 9.31798C74.5488 9.17507 74.4456 9.0401 74.3344 8.91306C73.7747 8.25804 73.0959 7.73403 72.2979 7.37675C72.1669 7.3172 72.1074 7.16238 72.1669 7.03137C72.2265 6.88846 72.3813 6.82891 72.5242 6.88846C73.3817 7.28147 74.132 7.85312 74.7513 8.56769C74.8704 8.7106 74.9815 8.85748 75.0847 9.00834C75.1681 9.12743 75.1443 9.29416 75.0252 9.37753C74.9775 9.41326 74.918 9.42517 74.8704 9.42517ZM66.2718 7.96031C66.1884 7.96031 66.105 7.92458 66.0574 7.84121C65.974 7.72212 65.9978 7.55539 66.1169 7.47202C67.0459 6.82891 68.1177 6.4359 69.2491 6.34063C69.392 6.32872 69.523 6.4359 69.5349 6.57881C69.5468 6.73364 69.4397 6.86464 69.2967 6.87655C68.2606 6.97183 67.2721 7.32911 66.4266 7.91267C66.3789 7.94443 66.3273 7.96031 66.2718 7.96031Z" fill="#0E1412"/>
<path d="M72.9655 16.2016C70.8694 17.8808 67.7611 17.595 66.0223 15.5584C64.2954 13.5219 64.5932 10.4969 66.7011 8.81771C68.7972 7.13848 71.9056 7.43621 73.6324 9.47273C75.3593 11.5092 75.0615 14.5223 72.9655 16.2016Z" fill="#0E1412"/>
<path d="M73.2751 12.0095C73.2672 12.0095 73.2592 12.0095 73.2513 12.0095L66.9989 11.4259C66.8559 11.414 66.7488 11.283 66.7607 11.1282C66.7726 10.9852 66.9036 10.8781 67.0465 10.89L73.2989 11.4735C73.4538 11.4854 73.561 11.6164 73.549 11.7713C73.5371 11.9023 73.418 12.0095 73.2751 12.0095Z" fill="white"/>
<path d="M70.4045 13.4623C70.3965 13.4623 70.3886 13.4623 70.3807 13.4623L65.8075 13.0336C65.6645 13.0217 65.5574 12.8906 65.5693 12.7358C65.5812 12.5929 65.7241 12.4857 65.867 12.4976L70.4283 12.9264C70.5831 12.9383 70.6903 13.0693 70.6784 13.2241C70.6665 13.3551 70.5474 13.4623 70.4045 13.4623Z" fill="white"/>
<path d="M49.1705 28.0517C49.0872 28.0517 49.0038 28.016 48.9562 27.9564C48.8609 27.8373 48.8847 27.6706 48.9919 27.5753L56.0661 21.9183C56.1852 21.8231 56.3519 21.8469 56.4472 21.9541C56.5425 22.0732 56.5187 22.2399 56.3996 22.3352L49.3373 27.9921C49.2777 28.0398 49.2182 28.0517 49.1705 28.0517Z" fill="#0E1412"/>
<path d="M54.779 24.8244C54.6957 24.8244 54.6242 24.8006 54.5646 24.7291C54.4694 24.61 54.4932 24.4433 54.6123 24.348L57.4825 22.0495C57.6016 21.9661 57.7683 21.978 57.8517 22.0971C57.9469 22.2162 57.935 22.3829 57.8159 22.4782L54.9457 24.7767C54.8981 24.8125 54.8386 24.8244 54.779 24.8244Z" fill="#0E1412"/>
<path d="M45.2992 20.3463C45.2277 20.3463 45.1444 20.3106 45.0967 20.2511C45.0014 20.132 45.0134 19.9652 45.1324 19.87L49.2769 16.5472C49.396 16.4639 49.5628 16.4758 49.658 16.5949C49.7533 16.714 49.7295 16.8807 49.6223 16.976L45.4659 20.2868C45.4183 20.3344 45.3587 20.3463 45.2992 20.3463Z" fill="#0E1412"/>
<path d="M47.1569 20.0007C47.0736 20.0007 46.9902 19.965 46.9426 19.9054C46.8473 19.7863 46.8711 19.6196 46.9902 19.5243L49.0863 17.8451C49.2054 17.7498 49.3721 17.7736 49.4674 17.8808C49.5507 17.9999 49.5388 18.1666 49.4197 18.2619L47.3237 19.9411C47.276 19.9888 47.2165 20.0007 47.1569 20.0007Z" fill="#0E1412"/>
<path d="M59.0786 31.2192C59.0071 31.2192 58.9237 31.1835 58.8761 31.112C58.7808 31.0048 58.8046 30.8381 58.9118 30.7428L60.1147 29.7781C60.2219 29.6829 60.4005 29.7067 60.4839 29.8258C60.5791 29.9449 60.5672 30.1116 60.4481 30.195L59.2453 31.1596C59.1976 31.1954 59.1381 31.2192 59.0786 31.2192Z" fill="#0E1412"/>
<path d="M56.351 35.2688C56.2796 35.2688 56.1962 35.2331 56.1486 35.1616C56.0533 35.0544 56.0771 34.8758 56.1843 34.7924L60.5193 31.3149C60.6384 31.2196 60.8051 31.2434 60.9004 31.3625C60.9957 31.4816 60.9719 31.6483 60.8528 31.7317L56.5177 35.2092C56.4701 35.245 56.4106 35.2688 56.351 35.2688Z" fill="#0E1412"/>
<path d="M10.2022 84.4066C10.1705 84.4066 10.1427 84.4026 10.1189 84.3947C9.97594 84.3471 9.89258 84.2042 9.94021 84.0612C10.226 83.1323 10.5238 82.2034 10.8572 81.2983C10.9049 81.1553 11.0597 81.0839 11.1907 81.1315C11.3336 81.1792 11.4051 81.334 11.3574 81.4769C11.0359 82.3701 10.7381 83.2871 10.4523 84.2161C10.4166 84.3352 10.3094 84.4066 10.2022 84.4066ZM12.2745 78.6544C12.2427 78.6544 12.207 78.6464 12.1673 78.6305C12.0363 78.571 11.9767 78.4162 12.0244 78.2852C12.4531 77.2848 12.9057 76.2963 13.382 75.3435C13.4416 75.2006 13.6083 75.153 13.7393 75.2125C13.8703 75.284 13.9299 75.4388 13.8584 75.5817C13.3939 76.5226 12.9414 77.4991 12.5246 78.4876C12.4769 78.5948 12.3816 78.6544 12.2745 78.6544ZM43.108 75.9628C42.846 75.9628 42.584 75.9549 42.3219 75.939C42.179 75.939 42.0599 75.808 42.0719 75.6651C42.0719 75.5103 42.2029 75.4031 42.3458 75.4031C43.4176 75.4507 44.4895 75.4031 45.5137 75.2483C45.6566 75.2244 45.7995 75.3316 45.8114 75.4745C45.8352 75.6175 45.74 75.7604 45.5851 75.7842C44.7872 75.9033 43.9535 75.9628 43.108 75.9628ZM39.154 75.5222C39.1302 75.5222 39.1104 75.5222 39.0945 75.5222C38.0346 75.284 36.9865 74.9624 35.9742 74.5694C35.8313 74.5099 35.7599 74.3551 35.8194 74.2241C35.879 74.0811 36.0338 74.0097 36.1648 74.0692C37.1533 74.4622 38.1775 74.7719 39.2017 74.9982C39.3446 75.022 39.4399 75.1649 39.416 75.3078C39.3803 75.4388 39.2731 75.5222 39.154 75.5222ZM48.6697 74.9863C48.5625 74.9863 48.4553 74.9267 48.4196 74.8195C48.36 74.6766 48.4315 74.5218 48.5744 74.4742C49.5391 74.105 50.4799 73.6167 51.3612 73.0212C51.4922 72.9378 51.6589 72.9617 51.7423 73.0808C51.8257 73.2118 51.7899 73.3785 51.6708 73.4618C50.7538 74.093 49.7772 74.5932 48.7649 74.9743C48.7332 74.9823 48.7014 74.9863 48.6697 74.9863ZM33.1755 73.176C33.1279 73.176 33.0842 73.1601 33.0445 73.1284C32.0918 72.5806 31.1985 71.9374 30.3768 71.2467C30.2696 71.1514 30.2577 70.9847 30.353 70.8656C30.4483 70.7584 30.615 70.7465 30.7222 70.8418C31.5201 71.5087 32.3895 72.128 33.3184 72.6758C33.4375 72.7473 33.4852 72.914 33.4137 73.045C33.3542 73.1284 33.2708 73.176 33.1755 73.176ZM15.1327 72.8902C15.093 72.8902 15.0494 72.8783 15.0017 72.8545C14.8707 72.7711 14.835 72.6163 14.9064 72.4853C15.4424 71.5444 16.014 70.6155 16.6095 69.7342C16.6929 69.6032 16.8477 69.5675 16.9787 69.6508C17.0978 69.7342 17.1335 69.9009 17.0501 70.02C16.4666 70.9013 15.9068 71.8183 15.3709 72.7473C15.3233 72.8426 15.228 72.8902 15.1327 72.8902ZM53.9336 71.3777C53.8622 71.3777 53.8026 71.3658 53.755 71.3182C53.6359 71.2229 53.624 71.0442 53.7312 70.9371C54.4577 70.1153 55.0293 69.234 55.4223 68.317C55.4819 68.1741 55.6486 68.1145 55.7796 68.1741C55.9106 68.2336 55.9821 68.3884 55.9225 68.5313C55.4938 69.496 54.8983 70.4249 54.1361 71.2943C54.0766 71.3539 54.0051 71.3777 53.9336 71.3777ZM28.2926 69.0315C28.2093 69.0315 28.1378 68.9958 28.0783 68.9244C27.3756 68.0669 26.7682 67.1499 26.268 66.209C26.2085 66.078 26.2561 65.9113 26.3871 65.8398C26.5181 65.7803 26.6849 65.8279 26.7444 65.9589C27.2327 66.8759 27.8163 67.7572 28.4951 68.5909C28.5904 68.6981 28.5785 68.8767 28.4594 68.972C28.4117 69.0077 28.3522 69.0315 28.2926 69.0315ZM18.6936 67.5191C18.6341 67.5191 18.5865 67.5071 18.5269 67.4714C18.4197 67.3761 18.3959 67.2094 18.4793 67.0903C19.1462 66.2209 19.8369 65.3873 20.5396 64.5893C20.6349 64.4702 20.8016 64.4583 20.9207 64.5655C21.0279 64.6608 21.0398 64.8275 20.9445 64.9466C20.2419 65.7326 19.563 66.5663 18.908 67.4119C18.8604 67.4833 18.777 67.5191 18.6936 67.5191ZM56.3513 65.554C56.2083 65.554 56.0892 65.4468 56.0892 65.3039C56.0892 65.292 56.0892 65.2682 56.0892 65.2682C56.0892 64.2678 55.863 63.2555 55.4104 62.2908C55.3509 62.1598 55.4104 62.005 55.5414 61.9335C55.6724 61.874 55.8391 61.9335 55.8987 62.0645C56.3751 63.1007 56.6252 64.1844 56.6252 65.2801C56.6252 65.4349 56.5061 65.554 56.3513 65.554ZM25.3391 63.3507C25.22 63.3507 25.1128 63.2793 25.089 63.1602C24.9104 62.529 24.7794 61.874 24.6841 61.1951C24.1601 61.6477 23.648 62.1241 23.1478 62.6243C23.0406 62.7195 22.8619 62.7195 22.7667 62.6124C22.6595 62.5052 22.6595 62.3384 22.7667 62.2313C23.3621 61.6477 23.9814 61.088 24.6007 60.552C24.5769 60.3456 24.5571 60.1392 24.5412 59.9327C24.5293 59.7898 24.6484 59.6588 24.7913 59.6469C24.9342 59.635 25.0652 59.7541 25.0771 59.897C25.085 59.9764 25.093 60.0558 25.1009 60.1352C25.1247 60.1114 25.1486 60.0876 25.1724 60.0637C25.2915 59.9685 25.4582 59.9923 25.5535 60.0995C25.6488 60.2186 25.6368 60.3853 25.5177 60.4806C25.3987 60.5759 25.2835 60.6751 25.1724 60.7783C25.2676 61.5524 25.4106 62.3027 25.6011 63.0173C25.6368 63.1602 25.5535 63.3031 25.4106 63.3507C25.3867 63.3507 25.3629 63.3507 25.3391 63.3507ZM53.9336 59.7303C53.8622 59.7303 53.7788 59.6946 53.7193 59.6231C53.0643 58.7656 52.3378 57.9915 51.5637 57.3127C51.4565 57.2174 51.4446 57.0507 51.5398 56.9316C51.6351 56.8244 51.8138 56.8125 51.9209 56.9077C52.7189 57.6104 53.4692 58.4202 54.148 59.3015C54.2433 59.4206 54.2195 59.5874 54.1004 59.6707C54.0527 59.7184 53.9932 59.7303 53.9336 59.7303ZM27.9115 58.5989C27.8282 58.5989 27.7448 58.5512 27.6972 58.4798C27.6019 58.3607 27.6376 58.194 27.7567 58.1106C28.6618 57.4794 29.5908 56.9077 30.5197 56.3956C30.6507 56.3242 30.8055 56.3718 30.8889 56.5028C30.9604 56.6338 30.9127 56.7887 30.7817 56.8601C29.8647 57.3722 28.9596 57.932 28.0664 58.5512C28.0187 58.5751 27.9592 58.5989 27.9115 58.5989ZM24.827 56.9673C24.827 56.9673 24.823 56.9673 24.8151 56.9673C24.6603 56.9554 24.5531 56.8244 24.565 56.6815C24.6484 55.6215 24.8151 54.5378 25.0533 53.454C25.0771 53.3111 25.22 53.2158 25.3629 53.2516C25.5177 53.2873 25.6011 53.4302 25.5773 53.5731C25.3391 54.633 25.1843 55.693 25.1009 56.7172C25.089 56.8601 24.9699 56.9673 24.827 56.9673ZM49.1103 55.5382C49.0627 55.5382 49.019 55.5263 48.9793 55.5024C48.0623 55.0022 47.0738 54.6092 46.0615 54.3234C45.9186 54.2758 45.8352 54.1329 45.871 53.9899C45.9186 53.847 46.0615 53.7637 46.2044 53.7994C47.2644 54.0971 48.2886 54.514 49.2413 55.038C49.3723 55.1094 49.42 55.2642 49.3485 55.3953C49.3009 55.4905 49.2056 55.5382 49.1103 55.5382ZM33.5447 55.5024C33.4375 55.5024 33.3422 55.431 33.2946 55.3357C33.247 55.1928 33.3065 55.038 33.4494 54.9784C34.4736 54.5616 35.5098 54.2043 36.5221 53.9304C36.665 53.8947 36.8079 53.978 36.8555 54.1209C36.8913 54.2639 36.8079 54.4068 36.665 54.4425C35.6646 54.7164 34.6523 55.0618 33.6519 55.4786C33.6201 55.4945 33.5844 55.5024 33.5447 55.5024ZM39.7495 53.8589C39.6185 53.8589 39.4994 53.7518 39.4875 53.6207C39.4637 53.4659 39.5709 53.3349 39.7257 53.323C40.8333 53.192 41.9289 53.1682 42.9889 53.2516C43.1318 53.2516 43.239 53.3826 43.239 53.5374C43.2271 53.6803 43.0961 53.7875 42.9531 53.7756C41.9289 53.7041 40.8571 53.7279 39.7852 53.847C39.7694 53.855 39.7575 53.8589 39.7495 53.8589ZM26.1728 50.6791C26.141 50.6791 26.1132 50.6751 26.0894 50.6672C25.9465 50.6196 25.875 50.4647 25.9227 50.3218C26.268 49.3095 26.673 48.2972 27.1255 47.3088C27.1851 47.1777 27.3518 47.1182 27.4828 47.1777C27.6138 47.2373 27.6734 47.404 27.6138 47.535C27.1612 48.4997 26.7682 49.5001 26.4229 50.5005C26.3871 50.6077 26.28 50.6791 26.1728 50.6791ZM28.8643 44.8316C28.8167 44.8316 28.773 44.8197 28.7333 44.7959C28.6023 44.7244 28.5547 44.5577 28.638 44.4267C29.1859 43.4858 29.7932 42.5807 30.4244 41.7232C30.5078 41.6041 30.6745 41.5803 30.7936 41.6637C30.9127 41.759 30.9484 41.9257 30.8532 42.0448C30.2339 42.8904 29.6384 43.7836 29.0906 44.7006C29.0429 44.784 28.9596 44.8316 28.8643 44.8316ZM32.6991 39.6748C32.6277 39.6748 32.5681 39.651 32.5086 39.6034C32.4014 39.4962 32.4014 39.3294 32.4967 39.2223C33.2708 38.4005 34.0687 37.6502 34.8786 36.9952C34.9857 36.8999 35.1644 36.9118 35.2477 37.0309C35.343 37.15 35.3311 37.3167 35.212 37.412C34.426 38.0551 33.64 38.7935 32.8897 39.5914C32.842 39.6391 32.7706 39.6748 32.6991 39.6748ZM37.7011 35.6494C37.6058 35.6494 37.5105 35.6018 37.4629 35.5184C37.3914 35.3874 37.4391 35.2207 37.5701 35.1492C38.5705 34.5895 39.5828 34.1607 40.5832 33.8749C40.7261 33.8392 40.869 33.9106 40.9166 34.0536C40.9524 34.1965 40.869 34.3513 40.7261 34.387C39.7733 34.6609 38.7968 35.0778 37.8321 35.6137C37.7845 35.6375 37.7408 35.6494 37.7011 35.6494Z" fill="#0E1412"/>
<path d="M197.573 27.5395C197.514 27.5395 197.442 27.5157 197.383 27.4681C197.287 27.3609 197.287 27.1942 197.394 27.087L198.859 25.6221C198.966 25.5149 199.133 25.5149 199.24 25.6221C199.348 25.7174 199.348 25.896 199.24 25.9913L197.764 27.4681C197.716 27.5157 197.645 27.5395 197.573 27.5395Z" fill="#0E1412"/>
<path d="M194.156 30.9694C194.084 30.9694 194.013 30.9456 193.965 30.8861C193.858 30.7789 193.858 30.6121 193.965 30.505L195.43 29.0401C195.537 28.9329 195.704 28.9329 195.811 29.0401C195.918 29.1473 195.918 29.314 195.811 29.4212L194.346 30.8861C194.287 30.9456 194.215 30.9694 194.156 30.9694Z" fill="#0E1412"/>
<path d="M195.621 27.5395C195.549 27.5395 195.49 27.5157 195.43 27.4681L193.965 25.9913C193.858 25.896 193.858 25.7174 193.965 25.6221C194.06 25.5149 194.239 25.5149 194.346 25.6221L195.811 27.087C195.918 27.1942 195.918 27.3609 195.811 27.4681C195.763 27.5157 195.692 27.5395 195.621 27.5395Z" fill="#0E1412"/>
<path d="M199.05 30.9694C198.978 30.9694 198.907 30.9456 198.859 30.8861L197.394 29.4212C197.287 29.314 197.287 29.1473 197.383 29.0401C197.49 28.9329 197.668 28.9329 197.764 29.0401L199.24 30.505C199.348 30.6121 199.348 30.7789 199.24 30.8861C199.193 30.9456 199.121 30.9694 199.05 30.9694Z" fill="#0E1412"/>
<path d="M206.839 42.9623C208.042 42.4264 209.436 42.9742 209.972 44.2009C210.496 45.4276 209.948 46.8567 208.757 47.3926C207.554 47.9286 206.149 47.3807 205.613 46.1541C205.089 44.9274 205.637 43.4983 206.839 42.9623Z" fill="white"/>
<path fill-rule="evenodd" clip-rule="evenodd" d="M207.792 47.8691C207.471 47.8691 207.161 47.8095 206.851 47.6904C206.184 47.4284 205.66 46.9282 205.375 46.2613C204.779 44.9036 205.398 43.3078 206.72 42.7123C207.363 42.4265 208.078 42.4146 208.733 42.6647C209.4 42.9267 209.924 43.4269 210.222 44.0938C210.805 45.4515 210.198 47.0473 208.864 47.6428C208.519 47.7976 208.161 47.8691 207.792 47.8691ZM206.947 43.2006C205.875 43.6889 205.398 44.9632 205.863 46.0469C206.089 46.5829 206.506 46.9878 207.042 47.1902C207.566 47.3927 208.126 47.3808 208.638 47.1545C209.71 46.6662 210.198 45.3919 209.722 44.3082C209.495 43.7722 209.078 43.3673 208.542 43.1648C208.018 42.9624 207.459 42.9743 206.947 43.2006Z" fill="#0E1412"/>
<path d="M136.395 8.0675C136.395 10.1278 134.716 11.7952 132.656 11.7952C130.583 11.7952 128.916 10.1278 128.916 8.0675C128.916 6.00717 130.583 4.32794 132.656 4.32794C134.716 4.32794 136.395 6.00717 136.395 8.0675Z" fill="white"/>
<path fill-rule="evenodd" clip-rule="evenodd" d="M132.655 12.0686C130.44 12.0686 128.642 10.2702 128.642 8.067C128.642 5.86375 130.44 4.06543 132.655 4.06543C134.858 4.06543 136.657 5.86375 136.657 8.067C136.657 10.2702 134.858 12.0686 132.655 12.0686ZM132.655 4.60135C130.738 4.60135 129.178 6.14958 129.178 8.067C129.178 9.97251 130.738 11.5326 132.655 11.5326C134.573 11.5326 136.121 9.97251 136.121 8.067C136.121 6.14958 134.573 4.60135 132.655 4.60135Z" fill="#0E1412"/>
</g>
<defs>
<clipPath id="clip0_637_5649">
<rect width="221.754" height="217.943" fill="white" transform="translate(0.246094 0.0287476)"/>
</clipPath>
</defs>
</svg>
