<svg width="292" height="301" viewBox="0 0 292 301" fill="none" xmlns="http://www.w3.org/2000/svg">
<path d="M46.7162 270.16H207.728C212.161 270.16 215.869 266.558 216.017 262.117L223.465 36.9264C223.548 30.9064 220.779 27.4688 215.77 27.4688H54.7577C50.7699 27.4688 47.2764 30.3801 46.5184 34.344L38.9548 262.117C38.8065 266.558 42.2834 270.16 46.7162 270.16Z" fill="#0E1412"/>
<path d="M40.4214 271.146H201.433C205.866 271.146 209.574 267.511 209.722 263.038L217.385 35.9881C217.467 29.9023 214.682 26.4482 209.689 26.4482H48.6607C45.1178 26.4482 41.9375 28.7839 40.751 32.1393C40.5203 32.7972 40.4214 33.5045 40.3885 34.2117L32.6765 263.038C32.5117 267.511 35.9887 271.146 40.4214 271.146Z" fill="white"/>
<path fill-rule="evenodd" clip-rule="evenodd" d="M201.434 271.525H40.4225C38.1979 271.525 36.1216 270.653 34.5891 269.074C33.0401 267.462 32.2162 265.307 32.2986 263.021L40.027 34.1952C40.0435 33.3892 40.1754 32.6655 40.4061 32.0076C41.6749 28.4548 44.9871 26.0698 48.6618 26.0698H209.69C212.014 26.0698 213.892 26.7771 215.276 28.1752C216.941 29.8693 217.798 32.5833 217.748 35.988L210.102 263.037C209.954 267.709 206.065 271.525 201.434 271.525ZM48.6618 26.81C45.3002 26.81 42.2681 28.9976 41.1146 32.2543C40.9004 32.83 40.7851 33.5044 40.7686 34.2281L33.0401 263.037C32.9742 265.126 33.7158 267.084 35.1329 268.548C36.5171 269.979 38.3957 270.768 40.4225 270.768H201.434C205.653 270.768 209.212 267.297 209.361 263.021L217.007 35.9716C217.056 32.7642 216.265 30.2476 214.733 28.7015C213.497 27.4515 211.799 26.81 209.69 26.81H48.6618Z" fill="#0E1412"/>
<path d="M97.4711 43.2751H164.209C165.94 43.2751 167.373 41.8606 167.439 40.1171L167.966 24.4585C168.016 22.715 166.681 21.3169 164.951 21.3169H98.2127C96.4989 21.3169 95.0488 22.715 94.9994 24.4585L94.472 40.1171C94.4061 41.8606 95.7574 43.2751 97.4711 43.2751Z" fill="white"/>
<path fill-rule="evenodd" clip-rule="evenodd" d="M164.209 43.6528H97.4712C96.5484 43.6528 95.6915 43.2909 95.0488 42.633C94.3897 41.9586 94.0601 41.0704 94.0931 40.1165L94.6204 24.4414C94.6863 22.517 96.3012 20.938 98.2127 20.938H164.951C165.89 20.938 166.747 21.2998 167.39 21.9578C168.032 22.6321 168.378 23.5203 168.345 24.4743L167.818 40.1329C167.752 42.0738 166.137 43.6528 164.209 43.6528ZM98.2127 21.6782C96.6967 21.6782 95.4114 22.9282 95.3619 24.4743L94.8346 40.1329C94.8181 40.8895 95.0818 41.5803 95.5926 42.1067C96.087 42.6166 96.7461 42.8962 97.4712 42.8962H164.209C165.742 42.8962 167.011 41.6461 167.06 40.1165L167.587 24.4414C167.62 23.7013 167.357 22.994 166.846 22.4841C166.352 21.9742 165.676 21.6782 164.951 21.6782H98.2127Z" fill="#0E1412"/>
<path fill-rule="evenodd" clip-rule="evenodd" d="M144.187 16.1681L143.545 35.1163C143.495 36.8105 142.078 38.1921 140.397 38.1921H121.562C119.882 38.1921 118.563 36.8105 118.613 35.1163L119.255 16.1681C119.486 9.17767 125.254 3.51953 132.142 3.51953C139.046 3.51953 144.418 9.17767 144.187 16.1681ZM136.789 16.4148C137.316 13.0594 134.613 10.2304 131.285 10.658C129.011 10.9376 127.116 12.7798 126.753 15.0825C126.226 18.4379 128.928 21.267 132.257 20.8394C134.531 20.5433 136.426 18.7011 136.789 16.4148Z" fill="white"/>
<path fill-rule="evenodd" clip-rule="evenodd" d="M140.397 38.5703H121.562C120.655 38.5703 119.798 38.2084 119.172 37.567C118.546 36.909 118.217 36.0373 118.233 35.0997L118.876 16.1516C119.123 8.98018 125.072 3.14111 132.141 3.14111C135.536 3.14111 138.699 4.47341 141.039 6.89128C143.429 9.35849 144.681 12.6481 144.566 16.1844L143.923 35.1162C143.857 37.0242 142.275 38.5703 140.397 38.5703ZM132.141 3.89773C125.467 3.89773 119.848 9.40784 119.634 16.1844L118.991 35.1162C118.958 35.8564 119.222 36.5307 119.716 37.0406C120.194 37.5505 120.853 37.8301 121.562 37.8301H140.397C141.88 37.8301 143.116 36.5965 143.182 35.0997L143.808 16.1516C143.923 12.829 142.753 9.72035 140.496 7.40117C138.304 5.14778 135.338 3.89773 132.141 3.89773ZM131.597 21.2505C130.163 21.2505 128.812 20.6912 127.824 19.6714C126.637 18.4543 126.11 16.7601 126.39 15.0166C126.769 12.5823 128.812 10.5921 131.235 10.2796C132.932 10.0658 134.563 10.625 135.717 11.8257C136.903 13.0429 137.431 14.737 137.15 16.4641C136.771 18.9148 134.728 20.905 132.306 21.2011C132.075 21.234 131.839 21.2505 131.597 21.2505ZM131.943 10.9869C131.734 10.9869 131.531 10.9978 131.333 11.0197C129.224 11.2829 127.461 13.01 127.131 15.1318C126.884 16.6285 127.346 18.0924 128.367 19.1451C129.356 20.1649 130.757 20.6583 132.207 20.461C134.316 20.1978 136.079 18.4707 136.409 16.3489C136.656 14.8522 136.195 13.3883 135.189 12.3356C134.333 11.4638 133.163 10.9869 131.943 10.9869Z" fill="#0E1412"/>
<path fill-rule="evenodd" clip-rule="evenodd" d="M71.22 104.791H57.6747C56.7684 104.791 55.9115 104.429 55.2853 103.787C54.6426 103.13 54.313 102.241 54.346 101.304L54.8074 87.6025C54.8733 85.6946 56.4553 84.1484 58.3503 84.1484H71.8792C72.802 84.1484 73.6424 84.4938 74.2851 85.1518C74.9112 85.8097 75.2573 86.6979 75.2243 87.6354L74.7629 101.32C74.697 103.228 73.0986 104.791 71.22 104.791ZM58.3503 84.8886C56.8672 84.8886 55.5984 86.1222 55.5489 87.6354L55.0875 101.32C55.0711 102.06 55.3347 102.751 55.8291 103.261C56.3069 103.771 56.9661 104.051 57.6747 104.051H71.22C72.7031 104.051 73.9555 102.817 74.0049 101.304L74.4663 87.6025C74.4993 86.8624 74.2356 86.188 73.7413 85.6617C73.2469 85.1682 72.5878 84.8886 71.8792 84.8886H58.3503Z" fill="#0E1412"/>
<path d="M63.1298 100.316C63.0529 100.316 62.976 100.306 62.8991 100.284C62.5201 100.201 62.207 99.9217 62.0916 99.5434L59.9494 93.326C59.8835 93.1287 59.9988 92.9148 60.1801 92.849C60.3778 92.7832 60.5921 92.8819 60.658 93.0793L62.8167 99.3131C62.8661 99.4941 62.9979 99.5434 63.0639 99.5599C63.1792 99.5763 63.311 99.5434 63.3934 99.4447L70.2485 88.9344C70.3638 88.7699 70.5946 88.7206 70.7758 88.8357C70.9406 88.9344 70.99 89.1647 70.8747 89.3456L64.0031 99.8724C63.9921 99.8833 63.9812 99.8943 63.9702 99.9053C63.756 100.168 63.4429 100.316 63.1298 100.316Z" fill="#0E1412"/>
<path fill-rule="evenodd" clip-rule="evenodd" d="M69.9681 139.941H56.4227C55.5164 139.941 54.6595 139.579 54.0333 138.921C53.3907 138.263 53.0611 137.391 53.094 136.454L53.5554 122.752C53.6214 120.844 55.2033 119.282 57.0983 119.282H70.6272C71.55 119.282 72.3904 119.644 73.0331 120.302C73.6593 120.959 74.0053 121.831 73.9724 122.769L73.511 136.47C73.4451 138.378 71.8466 139.941 69.9681 139.941ZM57.0983 120.038C55.6153 120.038 54.3464 121.256 54.297 122.769L53.8356 136.47C53.8191 137.21 54.0828 137.901 54.5771 138.411C55.055 138.904 55.7141 139.184 56.4227 139.184H69.9681C71.4512 139.184 72.7035 137.95 72.753 136.454L73.2144 122.752C73.2473 122.012 72.9837 121.321 72.4893 120.811C71.9949 120.318 71.3358 120.038 70.6272 120.038H57.0983Z" fill="#0E1412"/>
<path d="M61.8768 135.45C61.7999 135.45 61.723 135.444 61.6461 135.433C61.2671 135.351 60.954 135.072 60.8552 134.677L58.6965 128.476C58.6306 128.279 58.7459 128.065 58.9272 127.999C59.1249 127.933 59.3391 128.032 59.405 128.229L61.5637 134.463C61.6132 134.644 61.745 134.693 61.8109 134.693C61.9263 134.726 62.0581 134.677 62.1405 134.595L68.9956 124.084C69.1109 123.903 69.3416 123.854 69.5229 123.969C69.6877 124.084 69.7371 124.315 69.6218 124.496L62.7502 135.022C62.7392 135.033 62.7337 135.044 62.7337 135.055C62.503 135.318 62.1899 135.45 61.8768 135.45Z" fill="#0E1412"/>
<path d="M60.5204 169.506C60.4435 169.506 60.3666 169.5 60.2897 169.489C59.9107 169.407 59.5976 169.127 59.4987 168.733L57.34 162.532C57.2741 162.334 57.3895 162.12 57.5707 162.055C57.7685 161.989 57.9827 162.087 58.0486 162.285L60.2073 168.519C60.2567 168.7 60.3886 168.749 60.4545 168.749C60.5698 168.782 60.7017 168.733 60.784 168.65L67.6391 158.14C67.7545 157.959 67.9852 157.91 68.1664 158.025C68.3312 158.14 68.3807 158.37 68.2653 158.551L61.3937 169.078C61.3828 169.089 61.3773 169.1 61.3773 169.111C61.1466 169.374 60.8335 169.506 60.5204 169.506Z" fill="#0E1412"/>
<path fill-rule="evenodd" clip-rule="evenodd" d="M68.7983 174.252H55.2694C54.3631 174.252 53.5062 173.89 52.88 173.248C52.2373 172.59 51.9078 171.702 51.9407 170.765L52.4021 157.063C52.468 155.155 54.05 153.609 55.945 153.609H69.4739C70.3967 153.609 71.2371 153.971 71.8633 154.613C72.506 155.271 72.8355 156.159 72.8191 157.096L72.3577 170.798C72.2917 172.706 70.6933 174.252 68.7983 174.252ZM55.945 154.35C54.4455 154.35 53.1931 155.583 53.1437 157.096L52.6823 170.798C52.6658 171.521 52.913 172.212 53.4238 172.722C53.9017 173.232 54.5608 173.512 55.2694 173.512H68.7983C70.2978 173.512 71.5502 172.278 71.5996 170.765L72.061 157.063C72.094 156.34 71.8303 155.649 71.336 155.139C70.8416 154.629 70.1825 154.35 69.4739 154.35H55.945Z" fill="#0E1412"/>
<path fill-rule="evenodd" clip-rule="evenodd" d="M68.7983 209.7H55.2694C54.3631 209.7 53.5062 209.338 52.88 208.697C52.2373 208.039 51.9078 207.15 51.9407 206.213L52.4021 192.512C52.468 190.604 54.05 189.058 55.945 189.058H69.4739C70.3967 189.058 71.2371 189.419 71.8633 190.061C72.506 190.719 72.8355 191.607 72.8191 192.545L72.3577 206.246C72.2917 208.154 70.6933 209.7 68.7983 209.7ZM55.945 189.798C54.4455 189.798 53.1931 191.031 53.1437 192.545L52.6823 206.246C52.6658 206.97 52.913 207.66 53.4238 208.17C53.9017 208.68 54.5608 208.96 55.2694 208.96H68.7983C70.2978 208.96 71.5502 207.726 71.5996 206.213L72.061 192.512C72.094 191.788 71.8303 191.097 71.336 190.587C70.8416 190.077 70.1825 189.798 69.4739 189.798H55.945Z" fill="#0E1412"/>
<path fill-rule="evenodd" clip-rule="evenodd" d="M68.7983 248.258H55.2694C54.3631 248.258 53.5062 247.896 52.88 247.255C52.2373 246.597 51.9078 245.709 51.9407 244.771L52.4021 231.07C52.468 229.162 54.05 227.616 55.945 227.616H69.4739C70.3967 227.616 71.2371 227.978 71.8633 228.619C72.506 229.277 72.8355 230.165 72.8191 231.103L72.3577 244.804C72.2917 246.712 70.6933 248.258 68.7983 248.258ZM55.945 228.356C54.4455 228.356 53.1931 229.589 53.1437 231.103L52.6823 244.804C52.6658 245.528 52.913 246.219 53.4238 246.728C53.9017 247.238 54.5608 247.518 55.2694 247.518H68.7983C70.2978 247.518 71.5502 246.284 71.5996 244.771L72.061 231.07C72.094 230.346 71.8303 229.655 71.336 229.145C70.8416 228.636 70.1825 228.356 69.4739 228.356H55.945Z" fill="#0E1412"/>
<path fill-rule="evenodd" clip-rule="evenodd" d="M169.317 67.1903H92.3951C91.5382 67.1903 90.7308 66.8613 90.1375 66.2363C89.5443 65.6277 89.2312 64.7889 89.2477 63.9007L89.3301 61.4828C89.396 59.69 90.8956 58.2261 92.6752 58.2261H169.597C170.454 58.2261 171.245 58.5715 171.838 59.1801C172.448 59.8051 172.761 60.6275 172.728 61.5157L172.646 63.9336C172.596 65.7264 171.097 67.1903 169.317 67.1903ZM92.6752 58.9827C91.291 58.9827 90.1375 60.1176 90.0881 61.5157L90.0057 63.9336C89.9728 64.6079 90.2199 65.2494 90.6813 65.7264C91.1262 66.1869 91.736 66.4501 92.3951 66.4501H169.317C170.701 66.4501 171.855 65.3152 171.904 63.9007L171.987 61.4828C172.003 60.8084 171.772 60.1669 171.311 59.69C170.85 59.2294 170.24 58.9827 169.597 58.9827H92.6752Z" fill="#0E1412"/>
<path fill-rule="evenodd" clip-rule="evenodd" d="M196.984 98.4248H88.8355C87.9786 98.4248 87.1712 98.0793 86.578 97.4708C85.9847 96.8457 85.6716 96.0233 85.6881 95.1351C85.754 93.3423 87.2536 91.8784 89.0333 91.8784H197.182C198.039 91.8784 198.846 92.2074 199.44 92.8324C200.033 93.441 200.362 94.2798 200.329 95.168C200.264 96.9609 198.764 98.4248 196.984 98.4248ZM89.0333 92.6186C87.6491 92.6186 86.4956 93.7699 86.4461 95.168C86.4132 95.8424 86.6604 96.4839 87.1218 96.9609C87.5667 97.4214 88.1764 97.6681 88.8355 97.6681H196.984C198.369 97.6681 199.538 96.5332 199.571 95.1351C199.604 94.4608 199.357 93.8193 198.896 93.3423C198.451 92.8818 197.841 92.6186 197.182 92.6186H89.0333Z" fill="#0E1412"/>
<path fill-rule="evenodd" clip-rule="evenodd" d="M181.214 113.376H88.3413C87.4844 113.376 86.6934 113.031 86.1002 112.422C85.4905 111.797 85.1774 110.975 85.2104 110.087C85.2598 108.294 86.7594 106.83 88.539 106.83H181.396C182.269 106.83 183.06 107.159 183.653 107.784C184.263 108.393 184.576 109.231 184.543 110.12C184.477 111.913 182.994 113.376 181.214 113.376ZM88.539 107.57C87.1713 107.57 86.0013 108.722 85.9519 110.12C85.9354 110.794 86.1661 111.436 86.6275 111.913C87.0889 112.373 87.6986 112.636 88.3413 112.636H181.214C182.582 112.636 183.752 111.485 183.802 110.087C183.818 109.412 183.571 108.771 183.126 108.294C182.665 107.833 182.055 107.57 181.396 107.57H88.539Z" fill="#0E1412"/>
<path fill-rule="evenodd" clip-rule="evenodd" d="M187.971 133.822H87.7651C86.9082 133.822 86.1173 133.493 85.524 132.884C84.9143 132.259 84.6012 131.42 84.6342 130.549C84.6836 128.739 86.1832 127.275 87.9629 127.275H188.153C189.026 127.275 189.817 127.621 190.41 128.229C191.02 128.854 191.333 129.677 191.3 130.565C191.234 132.358 189.751 133.822 187.971 133.822ZM87.9629 128.032C86.5787 128.032 85.4252 129.167 85.3757 130.565C85.3593 131.239 85.59 131.881 86.0514 132.358C86.5128 132.818 87.1225 133.082 87.7651 133.082H187.971C189.339 133.082 190.509 131.947 190.558 130.549C190.575 129.858 190.328 129.233 189.883 128.756C189.421 128.279 188.812 128.032 188.153 128.032H87.9629Z" fill="#0E1412"/>
<path fill-rule="evenodd" clip-rule="evenodd" d="M143.759 148.494H87.3862C86.5293 148.494 85.7384 148.165 85.1451 147.556C84.5354 146.931 84.2223 146.092 84.2553 145.22C84.3047 143.411 85.8043 141.947 87.584 141.947H143.957C144.814 141.947 145.605 142.293 146.198 142.901C146.808 143.526 147.121 144.349 147.088 145.237C147.039 147.03 145.539 148.494 143.759 148.494ZM87.584 142.704C86.1998 142.704 85.0463 143.839 84.9968 145.237C84.9803 145.928 85.2111 146.553 85.6725 147.03C86.1339 147.49 86.7436 147.753 87.3862 147.753H143.759C145.144 147.753 146.297 146.619 146.346 145.22C146.363 144.53 146.132 143.905 145.671 143.428C145.209 142.951 144.6 142.704 143.957 142.704H87.584Z" fill="#0E1412"/>
<path fill-rule="evenodd" clip-rule="evenodd" d="M194.661 167.408H86.5123C85.6554 167.408 84.8479 167.063 84.2547 166.454C83.6615 165.829 83.3484 165.007 83.3649 164.119C83.4308 162.326 84.9303 160.862 86.71 160.862H194.859C195.716 160.862 196.523 161.191 197.116 161.799C197.71 162.424 198.039 163.263 198.006 164.135C197.94 165.944 196.441 167.408 194.661 167.408ZM86.71 161.602C85.3258 161.602 84.1723 162.737 84.1229 164.135C84.0899 164.826 84.3371 165.451 84.7985 165.928C85.2434 166.405 85.8531 166.652 86.5123 166.652H194.661C196.045 166.652 197.215 165.517 197.248 164.119C197.281 163.428 197.034 162.803 196.573 162.326C196.128 161.865 195.518 161.602 194.859 161.602H86.71Z" fill="#0E1412"/>
<path fill-rule="evenodd" clip-rule="evenodd" d="M178.891 182.36H86.0181C85.1612 182.36 84.3702 182.014 83.777 181.406C83.1673 180.781 82.8542 179.958 82.8871 179.07C82.9366 177.277 84.4361 175.813 86.2158 175.813H179.072C179.946 175.813 180.737 176.142 181.33 176.751C181.94 177.376 182.253 178.215 182.22 179.087C182.154 180.896 180.671 182.36 178.891 182.36ZM86.2158 176.554C84.8316 176.554 83.6781 177.689 83.6287 179.087C83.6122 179.777 83.8429 180.402 84.3043 180.879C84.7657 181.356 85.3754 181.603 86.0181 181.603H178.891C180.259 181.603 181.429 180.468 181.478 179.07C181.495 178.379 181.248 177.754 180.786 177.277C180.341 176.817 179.732 176.554 179.072 176.554H86.2158Z" fill="#0E1412"/>
<path fill-rule="evenodd" clip-rule="evenodd" d="M191.168 202.805H85.2104C84.3535 202.805 83.5626 202.476 82.9693 201.851C82.3596 201.243 82.0466 200.404 82.0795 199.516C82.1289 197.723 83.6285 196.259 85.4082 196.259H191.365C192.222 196.259 193.03 196.604 193.623 197.213C194.216 197.838 194.546 198.66 194.513 199.548C194.447 201.341 192.947 202.805 191.168 202.805ZM85.4082 196.999C84.0405 196.999 82.8705 198.15 82.821 199.548C82.8046 200.223 83.0353 200.864 83.4967 201.341C83.9581 201.802 84.5678 202.065 85.2104 202.065H191.168C192.552 202.065 193.705 200.914 193.755 199.516C193.788 198.841 193.54 198.2 193.079 197.723C192.634 197.262 192.024 196.999 191.365 196.999H85.4082Z" fill="#0E1412"/>
<path fill-rule="evenodd" clip-rule="evenodd" d="M141.468 216.457H85.0952C84.2383 216.457 83.4473 216.128 82.8541 215.503C82.2444 214.894 81.9313 214.056 81.9643 213.167C82.0137 211.375 83.5133 209.911 85.2929 209.911H141.666C142.523 209.911 143.314 210.256 143.907 210.865C144.517 211.49 144.83 212.312 144.797 213.2C144.748 214.993 143.248 216.457 141.468 216.457ZM85.2929 210.651C83.9252 210.651 82.7552 211.802 82.7058 213.2C82.6893 213.875 82.92 214.516 83.3814 214.993C83.8428 215.454 84.4525 215.717 85.0952 215.717H141.468C142.853 215.717 144.006 214.565 144.055 213.167C144.072 212.493 143.841 211.852 143.38 211.375C142.918 210.914 142.309 210.651 141.666 210.651H85.2929Z" fill="#0E1412"/>
<path fill-rule="evenodd" clip-rule="evenodd" d="M192.7 236.047H84.5511C83.6942 236.047 82.8868 235.701 82.2936 235.093C81.6839 234.468 81.3708 233.645 81.4037 232.757C81.4696 230.964 82.9692 229.5 84.7489 229.5H192.898C193.755 229.5 194.545 229.829 195.139 230.438C195.748 231.063 196.062 231.902 196.029 232.774C195.979 234.583 194.48 236.047 192.7 236.047ZM84.7489 230.241C83.3647 230.241 82.1947 231.376 82.1453 232.774C82.1288 233.464 82.376 234.089 82.8374 234.566C83.2823 235.043 83.892 235.29 84.5511 235.29H192.7C194.084 235.29 195.238 234.155 195.287 232.757C195.304 232.066 195.073 231.441 194.611 230.964C194.15 230.504 193.557 230.241 192.898 230.241H84.7489Z" fill="#0E1412"/>
<path fill-rule="evenodd" clip-rule="evenodd" d="M176.913 250.998H84.0562C83.1993 250.998 82.3919 250.652 81.7987 250.044C81.2054 249.418 80.8923 248.596 80.9088 247.708C80.9747 245.915 82.4743 244.451 84.254 244.451H177.111C177.968 244.451 178.775 244.78 179.368 245.389C179.961 246.014 180.291 246.853 180.258 247.724C180.192 249.534 178.693 250.998 176.913 250.998ZM84.254 245.191C82.8698 245.191 81.7163 246.326 81.6668 247.724C81.6339 248.415 81.8811 249.057 82.3425 249.517C82.7874 249.994 83.3971 250.241 84.0562 250.241H176.913C178.297 250.241 179.451 249.106 179.5 247.708C179.533 247.034 179.286 246.392 178.824 245.915C178.379 245.455 177.77 245.191 177.111 245.191H84.254Z" fill="#0E1412"/>
<path d="M174.791 119.739H103.851C102.236 119.739 100.935 118.39 100.935 116.746V78.8492C100.935 77.2044 102.236 75.8721 103.851 75.8721H174.676C175.566 75.8721 176.39 76.2668 176.95 76.9741L193.165 97.2875C194.088 98.4388 194.022 100.117 193.033 101.202L176.934 118.785C176.39 119.394 175.615 119.739 174.791 119.739Z" fill="white"/>
<path d="M114.543 100.822V89.1859H116.651V99.0552H121.776V100.822H114.543ZM127.322 100.993C126.469 100.993 125.731 100.805 125.106 100.43C124.481 100.055 123.996 99.5306 123.651 98.8564C123.31 98.1821 123.14 97.3942 123.14 96.4927C123.14 95.5912 123.31 94.8014 123.651 94.1234C123.996 93.4454 124.481 92.9189 125.106 92.5439C125.731 92.1689 126.469 91.9814 127.322 91.9814C128.174 91.9814 128.913 92.1689 129.538 92.5439C130.163 92.9189 130.646 93.4454 130.986 94.1234C131.331 94.8014 131.503 95.5912 131.503 96.4927C131.503 97.3942 131.331 98.1821 130.986 98.8564C130.646 99.5306 130.163 100.055 129.538 100.43C128.913 100.805 128.174 100.993 127.322 100.993ZM127.333 99.345C127.795 99.345 128.181 99.2181 128.492 98.9643C128.803 98.7067 129.034 98.362 129.185 97.9302C129.341 97.4984 129.418 97.0173 129.418 96.487C129.418 95.9529 129.341 95.47 129.185 95.0382C129.034 94.6026 128.803 94.256 128.492 93.9984C128.181 93.7408 127.795 93.612 127.333 93.612C126.86 93.612 126.466 93.7408 126.151 93.9984C125.841 94.256 125.608 94.6026 125.452 95.0382C125.301 95.47 125.225 95.9529 125.225 96.487C125.225 97.0173 125.301 97.4984 125.452 97.9302C125.608 98.362 125.841 98.7067 126.151 98.9643C126.466 99.2181 126.86 99.345 127.333 99.345ZM137.045 104.277C136.306 104.277 135.672 104.176 135.141 103.976C134.611 103.779 134.185 103.514 133.863 103.18C133.541 102.847 133.317 102.478 133.192 102.072L135.045 101.623C135.128 101.794 135.249 101.962 135.408 102.129C135.567 102.3 135.781 102.44 136.05 102.55C136.323 102.663 136.666 102.72 137.079 102.72C137.662 102.72 138.145 102.578 138.528 102.294C138.91 102.014 139.101 101.551 139.101 100.907V99.2541H138.999C138.893 99.4662 138.738 99.684 138.533 99.9075C138.333 100.131 138.065 100.318 137.732 100.47C137.403 100.622 136.988 100.697 136.488 100.697C135.817 100.697 135.209 100.54 134.664 100.226C134.122 99.9075 133.69 99.434 133.369 98.8052C133.05 98.1726 132.891 97.381 132.891 96.4302C132.891 95.4719 133.05 94.6632 133.369 94.0041C133.69 93.3412 134.124 92.8393 134.67 92.4984C135.215 92.1537 135.823 91.9814 136.494 91.9814C137.005 91.9814 137.425 92.0685 137.755 92.2427C138.088 92.4132 138.353 92.6196 138.55 92.862C138.747 93.1007 138.897 93.3261 138.999 93.5382H139.113V92.095H141.141V100.964C141.141 101.711 140.963 102.328 140.607 102.817C140.251 103.305 139.764 103.671 139.147 103.913C138.53 104.156 137.829 104.277 137.045 104.277ZM137.062 99.0836C137.497 99.0836 137.869 98.9776 138.175 98.7654C138.482 98.5533 138.715 98.2484 138.874 97.8507C139.033 97.4529 139.113 96.9757 139.113 96.4189C139.113 95.8696 139.033 95.3886 138.874 94.9757C138.719 94.5628 138.488 94.2427 138.181 94.0154C137.878 93.7844 137.505 93.6689 137.062 93.6689C136.603 93.6689 136.221 93.7882 135.914 94.0268C135.607 94.2654 135.376 94.5931 135.221 95.0098C135.065 95.4226 134.988 95.8923 134.988 96.4189C134.988 96.9529 135.065 97.4208 135.221 97.8223C135.38 98.22 135.613 98.5306 135.92 98.7541C136.23 98.9738 136.611 99.0836 137.062 99.0836ZM147.056 100.993C146.204 100.993 145.465 100.805 144.84 100.43C144.215 100.055 143.73 99.5306 143.386 98.8564C143.045 98.1821 142.874 97.3942 142.874 96.4927C142.874 95.5912 143.045 94.8014 143.386 94.1234C143.73 93.4454 144.215 92.9189 144.84 92.5439C145.465 92.1689 146.204 91.9814 147.056 91.9814C147.908 91.9814 148.647 92.1689 149.272 92.5439C149.897 92.9189 150.38 93.4454 150.721 94.1234C151.065 94.8014 151.238 95.5912 151.238 96.4927C151.238 97.3942 151.065 98.1821 150.721 98.8564C150.38 99.5306 149.897 100.055 149.272 100.43C148.647 100.805 147.908 100.993 147.056 100.993ZM147.067 99.345C147.53 99.345 147.916 99.2181 148.226 98.9643C148.537 98.7067 148.768 98.362 148.92 97.9302C149.075 97.4984 149.153 97.0173 149.153 96.487C149.153 95.9529 149.075 95.47 148.92 95.0382C148.768 94.6026 148.537 94.256 148.226 93.9984C147.916 93.7408 147.53 93.612 147.067 93.612C146.594 93.612 146.2 93.7408 145.886 93.9984C145.575 94.256 145.342 94.6026 145.187 95.0382C145.035 95.47 144.959 95.9529 144.959 96.487C144.959 97.0173 145.035 97.4984 145.187 97.9302C145.342 98.362 145.575 98.7067 145.886 98.9643C146.2 99.2181 146.594 99.345 147.067 99.345ZM158.546 97.1518V92.095H160.603V100.822H158.609V99.2711H158.518C158.321 99.7598 157.997 100.159 157.546 100.47C157.099 100.781 156.548 100.936 155.893 100.936C155.321 100.936 154.815 100.809 154.376 100.555C153.94 100.298 153.599 99.9245 153.353 99.4359C153.107 98.9435 152.984 98.3488 152.984 97.6518V92.095H155.04V97.3336C155.04 97.8867 155.192 98.3261 155.495 98.6518C155.798 98.9776 156.196 99.1404 156.688 99.1404C156.991 99.1404 157.285 99.0666 157.569 98.9189C157.853 98.7711 158.086 98.5514 158.268 98.2598C158.453 97.9643 158.546 97.595 158.546 97.1518ZM167.076 92.095V93.6859H162.059V92.095H167.076ZM163.297 90.0041H165.354V98.1973C165.354 98.4738 165.396 98.6859 165.479 98.8336C165.566 98.9776 165.68 99.0761 165.82 99.1291C165.96 99.1821 166.116 99.2086 166.286 99.2086C166.415 99.2086 166.532 99.1992 166.638 99.1802C166.748 99.1613 166.832 99.1442 166.888 99.1291L167.235 100.737C167.125 100.775 166.968 100.817 166.763 100.862C166.563 100.907 166.316 100.934 166.025 100.942C165.51 100.957 165.046 100.879 164.633 100.709C164.22 100.534 163.892 100.265 163.65 99.9018C163.411 99.5382 163.294 99.0836 163.297 98.5382V90.0041Z" fill="#0E1412"/>
<path fill-rule="evenodd" clip-rule="evenodd" d="M175.201 119.808H104.261C102.448 119.808 100.965 118.311 100.965 116.452V78.5561C100.965 76.7139 102.448 75.2007 104.261 75.2007H175.085C176.091 75.2007 177.013 75.6612 177.64 76.4507L193.871 96.7641C194.893 98.0635 194.827 99.955 193.723 101.172L177.623 118.739C176.997 119.43 176.124 119.808 175.201 119.808ZM104.261 75.9573C102.86 75.9573 101.706 77.1251 101.706 78.5561V116.452C101.706 117.9 102.86 119.068 104.261 119.068H175.201C175.909 119.068 176.585 118.772 177.063 118.245L193.162 100.662C194.036 99.7083 194.085 98.2444 193.278 97.2247L177.063 76.9113C176.568 76.3027 175.86 75.9573 175.085 75.9573H104.261Z" fill="#0E1412"/>
<path d="M239.483 277.562V287.743L244.378 287.447L245.35 277.562H239.483Z" fill="white"/>
<path fill-rule="evenodd" clip-rule="evenodd" d="M239.483 288.122C239.384 288.122 239.285 288.089 239.219 288.023C239.153 287.941 239.104 287.842 239.104 287.743V277.562C239.104 277.365 239.268 277.184 239.483 277.184H245.349C245.448 277.184 245.547 277.233 245.629 277.315C245.695 277.397 245.728 277.496 245.711 277.595L244.756 287.48C244.739 287.661 244.591 287.809 244.41 287.826L239.499 288.122C239.488 288.122 239.483 288.122 239.483 288.122ZM239.862 277.94V287.349L244.047 287.102L244.937 277.94H239.862Z" fill="#0E1412"/>
<path d="M245.119 300.441C243.125 300.655 237.621 300.819 236.056 300.145C234.672 299.536 233.452 296.707 234.144 295.654C235.891 293.023 237.077 288.434 238.099 284.864C238.165 284.651 238.429 284.618 238.56 284.782L239.599 286.361L240.357 284.519C240.488 284.305 240.703 284.174 240.95 284.157L242.664 284.124C243.059 284.075 243.471 284.47 243.718 284.815L244.954 286.361L245.646 285.111C245.762 284.897 246.075 284.963 246.108 285.193L247.541 297.069C247.591 298.977 246.272 300.309 245.119 300.441Z" fill="white"/>
<path fill-rule="evenodd" clip-rule="evenodd" d="M240.867 301C238.857 301 236.797 300.869 235.891 300.474C234.886 300.03 234.078 298.681 233.749 297.595C233.485 296.707 233.518 295.934 233.831 295.457C235.38 293.122 236.468 289.273 237.423 285.884C237.533 285.501 237.643 285.122 237.753 284.749C237.819 284.519 238 284.355 238.247 284.305C238.494 284.272 238.725 284.371 238.857 284.585L239.516 285.572L240.01 284.371C240.021 284.36 240.032 284.344 240.043 284.322C240.225 284.009 240.554 283.812 240.9 283.779L242.647 283.746C243.207 283.697 243.735 284.19 244.031 284.618L244.888 285.703L245.316 284.93C245.448 284.684 245.712 284.569 245.976 284.618C246.239 284.667 246.437 284.881 246.47 285.144L247.92 297.02C247.97 299.125 246.519 300.671 245.152 300.819C244.278 300.901 242.598 301 240.867 301ZM238.395 285.226C238.308 285.501 238.225 285.786 238.148 286.082C237.176 289.536 236.056 293.45 234.457 295.868C234.276 296.148 234.276 296.724 234.474 297.398C234.787 298.467 235.528 299.503 236.204 299.799C237.572 300.392 242.812 300.309 245.086 300.063C246.091 299.964 247.212 298.697 247.162 297.069L245.778 285.638L245.284 286.542C245.218 286.657 245.102 286.723 244.987 286.74C244.855 286.756 244.74 286.707 244.657 286.608L243.421 285.062C243.191 284.717 242.878 284.47 242.696 284.486L240.95 284.519C240.867 284.536 240.752 284.601 240.702 284.684L239.944 286.509C239.895 286.641 239.78 286.723 239.631 286.74C239.5 286.756 239.368 286.69 239.285 286.575L238.395 285.226Z" fill="#0E1412"/>
<path d="M241.032 298.73C239.746 298.73 238.247 298.582 236.665 298.171C236.467 298.121 236.352 297.924 236.401 297.71C236.451 297.513 236.665 297.398 236.862 297.447C241.444 298.664 245.316 297.414 245.349 297.398C245.547 297.332 245.761 297.447 245.827 297.628C245.893 297.825 245.794 298.039 245.596 298.105C245.481 298.138 243.668 298.73 241.032 298.73Z" fill="#0E1412"/>
<path d="M243.175 293.401H238.692C238.495 293.401 238.313 293.237 238.313 293.023C238.313 292.809 238.495 292.645 238.692 292.645H243.175C243.372 292.645 243.537 292.809 243.537 293.023C243.537 293.237 243.372 293.401 243.175 293.401Z" fill="#0E1412"/>
<path d="M275.538 272.183L276.988 284.453L281.586 284.288V272.183H275.538Z" fill="white"/>
<path fill-rule="evenodd" clip-rule="evenodd" d="M276.989 284.831C276.792 284.831 276.643 284.683 276.61 284.502L275.16 272.215C275.16 272.117 275.193 272.002 275.259 271.936C275.325 271.854 275.424 271.804 275.539 271.804H281.587C281.785 271.804 281.949 271.969 281.949 272.183V284.288C281.949 284.486 281.801 284.667 281.603 284.667L277.006 284.831C276.995 284.831 276.989 284.831 276.989 284.831ZM275.968 272.544L277.319 284.074L281.208 283.926V272.544H275.968Z" fill="#0E1412"/>
<path d="M275.488 281.525C275.488 281.525 275.307 286.97 275.488 289.174C275.62 290.736 277.762 295.473 278.981 298.039C279.492 299.108 280.53 299.914 281.552 300.161C283.496 300.605 284.436 300.572 286.215 300.276C288.638 299.898 289.379 297.694 288.671 295.588C288.011 293.648 286.924 291.509 285.128 288.878C283.809 286.97 282.623 281.312 282.623 281.312H278.882L277.828 284.453L275.488 281.525Z" fill="white"/>
<path fill-rule="evenodd" clip-rule="evenodd" d="M284.09 300.869C283.315 300.869 282.541 300.77 281.47 300.523C280.3 300.244 279.179 299.339 278.652 298.204C277.103 294.948 275.241 290.737 275.109 289.207C274.928 287.003 275.109 281.74 275.109 281.526C275.109 281.361 275.224 281.23 275.373 281.18C275.521 281.131 275.669 281.18 275.768 281.296L277.696 283.681L278.52 281.197C278.586 281.049 278.718 280.95 278.882 280.95H282.623C282.804 280.95 282.953 281.065 282.986 281.246C283.002 281.296 284.189 286.839 285.424 288.664C287.171 291.214 288.325 293.369 289.017 295.457C289.462 296.773 289.379 298.073 288.786 299.06C288.259 299.915 287.402 300.474 286.281 300.655C285.441 300.787 284.765 300.869 284.09 300.869ZM275.834 282.562C275.785 284.24 275.719 287.562 275.85 289.141C275.949 290.227 277.218 293.418 279.327 297.892C279.756 298.813 280.695 299.569 281.634 299.783C283.513 300.227 284.419 300.194 286.166 299.915C287.056 299.767 287.731 299.339 288.143 298.665C288.621 297.875 288.687 296.79 288.308 295.704C287.633 293.681 286.512 291.576 284.815 289.076C283.645 287.365 282.59 282.908 282.326 281.69H279.146L278.174 284.569C278.141 284.7 278.026 284.799 277.894 284.815C277.762 284.848 277.614 284.799 277.531 284.684L275.834 282.562Z" fill="#0E1412"/>
<path d="M284.684 298.615C284.272 298.615 283.942 298.582 283.744 298.549C282.657 298.418 281.652 297.891 280.91 297.085C280.35 296.477 279.921 295.901 279.674 295.375C279.196 294.437 278.718 293.368 278.372 292.578C278.142 292.052 277.895 291.509 277.829 291.378C277.713 291.246 277.697 291.049 277.812 290.901C277.944 290.736 278.191 290.72 278.339 290.851C278.455 290.95 278.521 291.065 279.064 292.282C279.411 293.055 279.872 294.108 280.333 295.046C280.564 295.506 280.943 296.016 281.47 296.592C282.08 297.266 282.937 297.694 283.843 297.809C284.371 297.891 285.722 297.908 286.579 297.579C286.776 297.513 286.991 297.595 287.057 297.792C287.139 297.99 287.04 298.204 286.842 298.269C286.183 298.533 285.343 298.615 284.684 298.615Z" fill="#0E1412"/>
<path d="M285.459 293.549H281.372C281.158 293.549 280.993 293.384 280.993 293.17C280.993 292.973 281.158 292.809 281.372 292.809H285.459C285.673 292.809 285.838 292.973 285.838 293.17C285.838 293.384 285.673 293.549 285.459 293.549Z" fill="#0E1412"/>
<path d="M231.606 175.765C231.606 175.765 232.101 213.234 233.666 237.626C235.018 258.597 237.506 275.325 238.181 279.602C238.28 280.26 238.791 280.753 239.45 280.852C240.736 281.016 242.944 281.197 245.069 280.786C245.663 280.687 246.141 280.243 246.272 279.651C247.195 275.457 250.985 257.923 250.985 251.212C250.985 243.959 249.683 242.133 249.535 236.212C249.42 231.787 250.903 216.03 251.661 208.381C251.76 207.378 253.16 207.214 253.49 208.168C255.912 215.092 261.054 230.06 265.865 245.439C266.113 246.228 267.332 252.939 267.579 253.729C270.562 263.318 273.38 271.032 274.401 275.539C274.566 276.263 275.176 276.822 275.901 276.954C277.334 277.184 279.74 277.381 281.866 276.723C282.624 276.477 283.135 275.753 283.135 274.947C283.085 269.98 282.904 251.508 282.492 248.416C281.586 241.771 276.379 235.208 275.456 228.152C274.517 221.096 273.973 203.365 271.402 192.723C268.832 182.097 263.789 170.14 263.789 170.14L231.606 175.765Z" fill="#4FAA89"/>
<path d="M248.694 103.229C245.778 102.209 241.839 104.166 241.296 108.706C240.851 112.423 244.459 114.282 245.827 116.585C250.309 124.019 246.964 143.181 254.495 150.616C260.51 156.537 273.544 158.692 282.508 151.751C291.044 145.139 294.999 133.477 289.001 126.289C283.612 119.841 277.894 125.006 272.012 118.789C266.211 112.654 268.98 108.361 265.156 105.532C259.949 101.65 256.967 106.074 248.694 103.229Z" fill="#0E1412"/>
<path d="M265.948 189.679C265.893 189.679 265.844 189.673 265.8 189.662C258.928 186.85 256.967 180.32 256.885 180.04C256.819 179.843 256.934 179.646 257.132 179.58C257.33 179.53 257.544 179.646 257.593 179.843C257.626 179.909 259.554 186.291 266.08 188.972C266.278 189.037 266.36 189.268 266.294 189.449C266.228 189.597 266.096 189.679 265.948 189.679Z" fill="white"/>
<path d="M202.489 98.4912L204.384 103.639C205.01 105.251 204.829 107.044 203.906 108.475L202.192 111.206C201.912 111.65 201.862 112.192 201.879 112.719C201.912 113.903 202.192 115.712 202.192 115.712L197.809 116.008C197.809 116.008 198.171 113.673 198.352 112.867C198.583 111.847 198.534 110.745 198.056 109.808C196.49 106.847 196.754 103.788 196.754 103.788L199.786 104.429C199.786 104.429 200.643 102.817 200.313 100.07C200.247 99.3959 200.297 98.886 200.412 98.4912C200.709 97.455 202.175 97.4714 202.489 98.4912Z" fill="white"/>
<path fill-rule="evenodd" clip-rule="evenodd" d="M197.808 116.37C197.709 116.37 197.61 116.337 197.544 116.255C197.462 116.173 197.429 116.057 197.445 115.942C197.462 115.844 197.808 113.59 197.989 112.784C198.22 111.764 198.121 110.761 197.725 109.988C196.127 106.962 196.358 103.886 196.374 103.754C196.391 103.639 196.44 103.54 196.522 103.491C196.621 103.425 196.72 103.392 196.836 103.425L199.571 104.001C199.769 103.458 200.181 102.093 199.95 100.119C199.868 99.4449 199.901 98.8692 200.049 98.3757C200.23 97.7672 200.774 97.356 201.417 97.356C201.428 97.356 201.433 97.356 201.433 97.356C202.092 97.356 202.636 97.7507 202.834 98.3757L204.745 103.524C205.404 105.218 205.207 107.143 204.218 108.689L202.521 111.403C202.323 111.715 202.224 112.126 202.257 112.702C202.29 113.853 202.554 115.63 202.554 115.663C202.57 115.761 202.537 115.86 202.471 115.942C202.405 116.025 202.306 116.074 202.208 116.09L197.841 116.37C197.83 116.37 197.819 116.37 197.808 116.37ZM197.116 104.248C197.099 105.169 197.231 107.439 198.385 109.643C198.879 110.564 198.994 111.748 198.714 112.949C198.599 113.524 198.368 114.873 198.253 115.597L201.763 115.367C201.68 114.758 201.532 113.59 201.499 112.735C201.483 112.274 201.515 111.6 201.878 111.008L203.575 108.277C204.449 106.945 204.613 105.267 204.037 103.787L202.125 98.6225C202.125 98.6115 202.125 98.606 202.125 98.606C202.01 98.2277 201.697 98.0797 201.417 98.0961C201.169 98.0961 200.873 98.2277 200.757 98.5896C200.659 98.9679 200.626 99.4613 200.692 100.021C201.021 102.85 200.148 104.527 200.115 104.61C200.032 104.758 199.868 104.823 199.703 104.79L197.116 104.248Z" fill="#0E1412"/>
<path d="M253.918 130.713C247.985 128.361 237.274 128.196 229.513 131.157C224.421 132.719 216.577 134.841 211.172 129.841C204.12 123.295 203.329 114.166 203.329 114.166L196.721 113.936C196.721 113.936 192.749 124.89 198.072 137.16C203.015 148.559 222.806 152.342 226.267 152.918L226.53 158.23C226.64 160.555 226.662 162.885 226.596 165.221C226.333 172.869 226.102 192.031 229.875 195.041C238.741 202.13 269.193 198.725 272.341 189.761C275.785 179.958 266.491 135.713 253.918 130.713Z" fill="#0E1412"/>
<path fill-rule="evenodd" clip-rule="evenodd" d="M246.058 199.236C239.318 199.236 233.023 198.035 229.645 195.338C225.904 192.344 225.888 175.173 226.217 165.205C226.283 162.902 226.267 160.567 226.151 158.248L225.921 153.231C221.422 152.458 202.604 148.56 197.726 137.309C192.403 125.039 196.342 113.92 196.375 113.805C196.424 113.657 196.572 113.558 196.737 113.558L203.345 113.805C203.526 113.805 203.675 113.953 203.691 114.134C203.708 114.232 204.565 123.213 211.436 129.562C216.891 134.628 225.031 132.144 229.398 130.812C237.604 127.671 248.381 128.131 254.05 130.368C267.051 135.533 276.114 180.156 272.703 189.894C271.665 192.838 267.743 195.42 261.663 197.147C256.983 198.496 251.38 199.236 246.058 199.236ZM197.001 114.315C196.457 116.025 193.656 126.059 198.418 137.013C203.263 148.165 222.526 151.915 226.333 152.54C226.514 152.573 226.646 152.721 226.646 152.902L226.909 158.215C227.025 160.55 227.041 162.919 226.959 165.222C226.415 181.703 227.602 192.739 230.106 194.762C235.89 199.384 251.265 199.351 261.449 196.44C267.298 194.762 271.039 192.344 271.995 189.647C273.659 184.91 272.275 171.538 268.781 158.527C264.728 143.461 259.125 133.197 253.77 131.059C248.249 128.871 237.703 128.444 229.645 131.519C225.097 132.901 216.693 135.467 210.925 130.121C204.598 124.249 203.213 116.239 202.999 114.529L197.001 114.315Z" fill="#0E1412"/>
<path d="M231.145 154.414C230.453 155.187 231.821 156.256 232.365 157.128C232.711 157.671 232.282 158.049 231.705 157.802C230.008 157.095 224.438 154.644 223.202 156.174C222.774 156.7 223.054 157.835 223.928 158.888C225.724 161.092 231.293 163.773 234.408 164.497C236.27 164.924 239.269 166.635 239.599 166.536C240.966 166.174 240.802 164.48 241.098 162.885C241.131 162.72 238.61 161.174 235.957 157.358C234.573 155.368 231.788 153.707 231.145 154.414Z" fill="white"/>
<path fill-rule="evenodd" clip-rule="evenodd" d="M239.566 166.916C239.335 166.916 238.956 166.768 237.868 166.258C236.814 165.764 235.364 165.09 234.325 164.86C230.98 164.086 225.46 161.356 223.631 159.119C222.642 157.918 222.346 156.636 222.906 155.945C224.092 154.464 227.965 155.813 231.574 157.343L231.837 157.458C232.018 157.524 232.101 157.507 232.117 157.491C232.117 157.491 232.117 157.425 232.051 157.326C231.92 157.113 231.722 156.882 231.524 156.636C230.898 155.895 230.14 154.974 230.865 154.168C230.997 154.02 231.26 153.856 231.705 153.872C232.958 153.954 235.133 155.517 236.253 157.145C238.214 159.974 240.109 161.537 240.917 162.195C241.378 162.573 241.51 162.688 241.461 162.952C241.411 163.281 241.362 163.626 241.329 163.955C241.181 165.221 241.016 166.554 239.697 166.899C239.654 166.91 239.61 166.916 239.566 166.916ZM224.62 156.043C224.07 156.032 223.697 156.153 223.499 156.405C223.219 156.751 223.417 157.672 224.208 158.659C225.905 160.715 231.277 163.396 234.507 164.136C235.594 164.383 237.094 165.073 238.181 165.583C238.725 165.83 239.351 166.126 239.549 166.175C240.291 165.929 240.423 165.139 240.587 163.856C240.62 163.577 240.653 163.281 240.703 162.984C240.637 162.935 240.538 162.853 240.439 162.771C239.615 162.08 237.671 160.484 235.644 157.573C234.556 156.01 232.579 154.678 231.672 154.629C231.524 154.612 231.442 154.645 231.425 154.662C231.145 154.974 231.508 155.451 232.101 156.159C232.299 156.405 232.529 156.668 232.678 156.932C232.958 157.376 232.875 157.754 232.678 157.968C232.447 158.264 232.002 158.33 231.557 158.149L231.277 158.034C228.13 156.701 225.905 156.043 224.62 156.043Z" fill="#0E1412"/>
<path d="M238.082 167.902L241.856 161.651C241.856 161.651 252.616 164.777 256.884 162.902C264.349 159.612 262.948 148.164 261.679 142.457C260.394 136.749 253.226 131.206 253.226 131.206C253.226 131.206 265.766 135.236 271.154 144.216C276.147 152.539 279.328 173.28 263.756 176.734C253.572 178.988 238.082 167.902 238.082 167.902Z" fill="#0E1412"/>
<path d="M260.79 177.409C250.853 177.409 238.445 168.626 237.868 168.214C237.704 168.099 237.671 167.886 237.769 167.721L241.543 161.454C241.625 161.306 241.807 161.24 241.972 161.29C242.07 161.323 252.633 164.366 256.736 162.556C260.675 160.829 262.537 156.553 262.29 149.858C262.29 149.645 262.454 149.48 262.652 149.464C262.866 149.464 263.031 149.628 263.048 149.826C263.295 156.767 261.218 161.405 257.033 163.247C253.029 165.007 243.801 162.573 242.037 162.079L238.593 167.803C240.521 169.119 251.892 176.652 260.839 176.652C261.812 176.652 262.767 176.57 263.674 176.356C268.288 175.336 271.534 172.721 273.314 168.56C276.741 160.615 273.858 149.447 270.825 144.414C265.569 135.664 253.243 131.617 253.111 131.568C252.913 131.502 252.814 131.289 252.864 131.108C252.93 130.91 253.144 130.795 253.342 130.861C253.474 130.894 266.08 135.039 271.468 144.019C274.583 149.2 277.532 160.681 274.006 168.856C272.111 173.248 268.7 176.011 263.839 177.096C262.866 177.31 261.845 177.409 260.79 177.409Z" fill="#0E1412"/>
<path d="M260.889 177.393C250.936 177.393 238.445 168.231 237.868 167.803C237.704 167.688 237.671 167.491 237.769 167.326L241.23 161.537C241.312 161.389 241.477 161.323 241.642 161.356C241.757 161.389 252.633 164.366 256.736 162.556C263.41 159.629 262.685 149.809 261.647 144.217C261.614 144.003 261.746 143.822 261.944 143.773C262.158 143.74 262.355 143.871 262.388 144.069C263.46 149.891 264.185 160.106 257.033 163.247C253.029 165.007 243.504 162.622 241.724 162.162L238.577 167.409C240.703 168.905 254.512 178.396 263.674 176.356C265.684 175.929 267.447 175.188 268.914 174.185C269.095 174.07 269.326 174.119 269.441 174.284C269.557 174.465 269.507 174.695 269.342 174.81C267.777 175.863 265.931 176.636 263.839 177.096C262.899 177.294 261.911 177.393 260.889 177.393Z" fill="#0E1412"/>
<path d="M251.215 117.982C250.951 118.015 250.721 117.801 250.737 117.521C250.819 116.255 251.1 113.837 249.831 112.834C248.199 111.534 245.497 109.577 244.541 110.909C243.717 112.077 242.943 114.396 240.85 115.35C240.652 115.433 240.636 115.729 240.751 115.926L241.245 117.028C241.361 117.258 241.295 117.785 241.213 118.015C240.949 118.739 240.339 120.235 240.487 120.548C240.784 121.124 243.173 122.094 243.173 122.094L241.987 129.364C241.938 129.644 241.789 130.104 241.509 130.038L238.675 130.4C238.675 130.4 239.054 134.282 245.151 135.055C253.143 136.075 254.016 132.654 254.016 132.654C254.016 132.654 246.173 130.992 249.122 122.39C249.188 122.209 249.336 122.061 249.534 122.028C250.292 121.88 252.352 121.37 252.665 120.005C253.028 118.558 252.138 117.9 251.215 117.982Z" fill="white"/>
<path fill-rule="evenodd" clip-rule="evenodd" d="M247.903 135.614C247.079 135.614 246.156 135.565 245.118 135.433C238.774 134.627 238.313 130.614 238.296 130.433C238.28 130.236 238.428 130.055 238.626 130.022L241.46 129.676C241.471 129.676 241.482 129.676 241.493 129.676C241.542 129.611 241.592 129.463 241.625 129.298L242.745 122.324C241.971 121.995 240.438 121.288 240.158 120.712C239.993 120.367 240.191 119.709 240.719 118.261C240.773 118.119 240.823 117.993 240.867 117.883C240.933 117.686 240.949 117.307 240.916 117.209L240.405 116.074C240.29 115.876 240.274 115.613 240.356 115.383C240.405 115.218 240.537 115.07 240.686 115.005C242.152 114.347 242.943 112.916 243.586 111.781C243.816 111.386 244.014 111.008 244.245 110.695C244.476 110.366 244.805 110.169 245.217 110.12C246.255 109.955 247.755 110.712 250.062 112.537C251.38 113.59 251.232 115.761 251.133 117.192L251.116 117.554C251.116 117.565 251.122 117.582 251.133 117.603C251.149 117.603 251.166 117.62 251.182 117.62C251.792 117.554 252.336 117.768 252.698 118.179C252.995 118.508 253.275 119.1 253.044 120.087C252.682 121.567 250.737 122.16 249.617 122.39C249.551 122.406 249.485 122.456 249.469 122.521C248.579 125.137 248.612 127.341 249.6 129.068C251.051 131.617 254.066 132.292 254.099 132.292C254.198 132.308 254.28 132.374 254.346 132.456C254.396 132.538 254.412 132.653 254.379 132.752C254.346 132.884 253.572 135.614 247.903 135.614ZM239.12 130.713C239.384 131.65 240.504 134.101 245.201 134.693C251.232 135.45 253.012 133.673 253.506 132.9C252.534 132.604 250.227 131.683 248.958 129.43C247.854 127.505 247.788 125.104 248.76 122.275C248.875 121.962 249.139 121.732 249.469 121.666C250.227 121.502 252.039 121.025 252.303 119.923C252.435 119.38 252.385 118.952 252.138 118.673C251.94 118.442 251.611 118.327 251.248 118.36C251.018 118.377 250.787 118.294 250.622 118.13C250.441 117.965 250.358 117.735 250.375 117.505L250.391 117.143C250.474 115.942 250.606 113.919 249.6 113.13C247.557 111.501 246.107 110.745 245.316 110.843C245.118 110.876 244.97 110.975 244.855 111.123C244.657 111.403 244.459 111.764 244.245 112.143C243.553 113.376 242.696 114.89 241.048 115.663C241.048 115.679 241.065 115.728 241.081 115.745L241.592 116.88C241.773 117.225 241.658 117.867 241.559 118.13C241.526 118.25 241.482 118.382 241.427 118.525C241.246 119.002 240.834 120.104 240.834 120.4C241.015 120.663 242.136 121.271 243.306 121.748C243.47 121.814 243.569 121.979 243.536 122.143L242.35 129.413C242.333 129.578 242.235 130.088 241.905 130.318C241.79 130.4 241.641 130.433 241.509 130.417L239.12 130.713Z" fill="#0E1412"/>
<path fill-rule="evenodd" clip-rule="evenodd" d="M105.578 289.865H37.6534C37.4392 289.865 37.2744 289.684 37.2744 289.487V274.075C37.2744 273.861 37.4392 273.697 37.6534 273.697H105.578C105.792 273.697 105.957 273.861 105.957 274.075V289.487C105.957 289.684 105.792 289.865 105.578 289.865ZM38.0159 289.109H105.215V274.453H38.0159V289.109Z" fill="#0E1412"/>
<path d="M131.599 222.937C131.599 228.266 135.916 232.592 141.255 232.592C146.611 232.592 150.928 228.266 150.928 222.937C150.928 217.608 146.611 213.282 141.255 213.282C135.916 213.282 131.599 217.608 131.599 222.937Z" fill="white"/>
<path fill-rule="evenodd" clip-rule="evenodd" d="M141.254 232.971C135.717 232.971 131.219 228.464 131.219 222.938C131.219 217.411 135.717 212.921 141.254 212.921C146.807 212.921 151.306 217.411 151.306 222.938C151.306 228.464 146.807 232.971 141.254 232.971ZM141.254 213.661C136.129 213.661 131.96 217.822 131.96 222.938C131.96 228.053 136.129 232.215 141.254 232.215C146.396 232.215 150.565 228.053 150.565 222.938C150.565 217.822 146.396 213.661 141.254 213.661Z" fill="#0E1412"/>
<path d="M62.7512 36.9428H19.0995C18.3085 36.9428 17.6164 36.2026 17.4681 35.1828L17.1221 15.5273H65.1571L64.6792 34.9525C64.465 36.1203 63.674 36.9428 62.7512 36.9428Z" fill="#0E1412"/>
<path d="M19.7088 34.7882C19.0497 34.7882 18.5059 34.2454 18.5059 33.5875V18.8335C18.5059 18.1756 19.0497 17.6328 19.7088 17.6328C20.3679 17.6328 20.9117 18.1756 20.9117 18.8335V33.5875C20.9117 34.2454 20.3679 34.7882 19.7088 34.7882Z" fill="white"/>
<path d="M33.9462 34.7882C33.2871 34.7882 32.7598 34.2454 32.7598 33.5875V18.8335C32.7598 18.1756 33.2871 17.6328 33.9462 17.6328C34.6218 17.6328 35.1492 18.1756 35.1492 18.8335V33.5875C35.1492 34.2454 34.6218 34.7882 33.9462 34.7882Z" fill="white"/>
<path d="M26.827 34.7882C26.1678 34.7882 25.624 34.2454 25.624 33.5875V18.8335C25.624 18.1756 26.1678 17.6328 26.827 17.6328C27.4861 17.6328 28.0299 18.1756 28.0299 18.8335V33.5875C28.0299 34.2454 27.4861 34.7882 26.827 34.7882Z" fill="white"/>
<path d="M41.0809 34.919C40.4052 34.919 39.8779 34.3927 39.8779 33.7183V18.9644C39.8779 18.3065 40.4052 17.7637 41.0809 17.7637C41.74 17.7637 42.2838 18.3065 42.2838 18.9644V33.7183C42.2838 34.3927 41.74 34.919 41.0809 34.919Z" fill="white"/>
<path d="M48.199 34.7882C47.5399 34.7882 46.9961 34.2454 46.9961 33.5875V18.8335C46.9961 18.1756 47.5399 17.6328 48.199 17.6328C48.8582 17.6328 49.402 18.1756 49.402 18.8335V33.5875C49.402 34.2454 48.8582 34.7882 48.199 34.7882Z" fill="white"/>
<path d="M55.3182 34.7882C54.659 34.7882 54.1152 34.2454 54.1152 33.5875V18.8335C54.1152 18.1756 54.659 17.6328 55.3182 17.6328C55.9938 17.6328 56.5211 18.1756 56.5211 18.8335V33.5875C56.5211 34.2454 55.9938 34.7882 55.3182 34.7882Z" fill="white"/>
<path d="M62.4529 34.7882C61.7773 34.7882 61.25 34.2454 61.25 33.5875V18.8335C61.25 18.1756 61.7773 17.6328 62.4529 17.6328C63.1121 17.6328 63.6394 18.1756 63.6394 18.8335V33.5875C63.6394 34.2454 63.1121 34.7882 62.4529 34.7882Z" fill="white"/>
<path d="M63.0808 37.2385H19.2148C18.0613 37.2385 17.1221 36.301 17.1221 35.1661V34.0147C17.1221 32.8633 18.0613 31.9258 19.2148 31.9258H63.0808C64.2343 31.9258 65.1571 32.8633 65.1571 34.0147V35.1661C65.1571 36.301 64.2343 37.2385 63.0808 37.2385Z" fill="white"/>
<path fill-rule="evenodd" clip-rule="evenodd" d="M63.0799 37.6164H19.214C17.8463 37.6164 16.7422 36.5144 16.7422 35.1656V34.0142C16.7422 32.6655 17.8463 31.5635 19.214 31.5635H63.0799C64.4311 31.5635 65.5352 32.6655 65.5352 34.0142V35.1656C65.5352 36.5144 64.4311 37.6164 63.0799 37.6164ZM19.214 32.3036C18.2582 32.3036 17.5002 33.0767 17.5002 34.0142V35.1656C17.5002 36.1031 18.2582 36.8598 19.214 36.8598H63.0799C64.0192 36.8598 64.7937 36.1031 64.7937 35.1656V34.0142C64.7937 33.0767 64.0192 32.3036 63.0799 32.3036H19.214Z" fill="#0E1412"/>
<path d="M74.1871 20.313H7.44892C6.22951 20.313 5.17488 19.6879 4.9277 18.8326L4.40039 2.20361H77.8783L77.1532 18.6353C76.8072 19.6221 75.5878 20.313 74.1871 20.313Z" fill="white"/>
<path fill-rule="evenodd" clip-rule="evenodd" d="M74.1863 20.6912H7.44817C6.03101 20.6912 4.86104 19.9674 4.56442 18.9312C4.56442 18.8983 4.56442 18.8654 4.56442 18.8325L4.03711 2.21995C4.03711 2.12126 4.07007 2.02257 4.13598 1.94033C4.20189 1.87454 4.30077 1.8252 4.41612 1.8252H77.8775C77.9764 1.8252 78.0753 1.87454 78.1412 1.94033C78.2071 2.02257 78.2565 2.12126 78.24 2.21995L77.515 18.6516C77.515 18.6845 77.5095 18.7174 77.4985 18.7503C77.1195 19.9016 75.7518 20.6912 74.1863 20.6912ZM5.30596 18.7667C5.52018 19.4575 6.41002 19.951 7.44817 19.951H74.1863C75.3893 19.951 76.4768 19.3589 76.7735 18.5529L77.482 2.58181H4.79512L5.30596 18.7667Z" fill="#0E1412"/>
<path d="M77.5322 5.6747H4.66407C3.51057 5.6747 2.57129 4.75361 2.57129 3.60224V2.45088C2.57129 1.29951 3.51057 0.378418 4.66407 0.378418H77.5322C78.6857 0.378418 79.6085 1.29951 79.6085 2.45088V3.60224C79.6085 4.75361 78.6857 5.6747 77.5322 5.6747Z" fill="white"/>
<path fill-rule="evenodd" clip-rule="evenodd" d="M77.5314 6.0529H4.66319C3.29547 6.0529 2.19141 4.95087 2.19141 3.60213V2.45077C2.19141 1.10202 3.29547 0 4.66319 0H77.5314C78.8826 0 79.9867 1.10202 79.9867 2.45077V3.60213C79.9867 4.95087 78.8826 6.0529 77.5314 6.0529ZM4.66319 0.740164C3.70743 0.740164 2.94942 1.51322 2.94942 2.45077V3.60213C2.94942 4.53967 3.70743 5.31273 4.66319 5.31273H77.5314C78.4706 5.31273 79.2451 4.53967 79.2451 3.60213V2.45077C79.2451 1.51322 78.4706 0.740164 77.5314 0.740164H4.66319Z" fill="#0E1412"/>
<path d="M255.715 34.6402C255.616 34.6402 255.517 34.6073 255.451 34.525C255.303 34.377 255.303 34.1467 255.451 33.9987L278.834 10.6589C278.982 10.5108 279.213 10.5108 279.361 10.6589C279.51 10.8069 279.51 11.0372 279.361 11.1852L255.978 34.525C255.912 34.6073 255.814 34.6402 255.715 34.6402Z" fill="#0E1412"/>
<path d="M237.505 72.8973C237.406 72.8973 237.307 72.8644 237.241 72.7986C237.093 72.6506 237.093 72.4039 237.241 72.2559L273.593 35.9714C273.741 35.8233 273.972 35.8233 274.12 35.9714C274.268 36.1194 274.268 36.3497 274.12 36.4977L237.768 72.7986C237.686 72.8644 237.587 72.8973 237.505 72.8973Z" fill="#0E1412"/>
<path d="M258.533 22.5995C256.753 22.5995 255.303 21.1521 255.303 19.3757C255.303 17.5993 256.753 16.1519 258.533 16.1519C258.747 16.1519 258.912 16.3163 258.912 16.5137C258.912 16.7275 258.747 16.892 258.533 16.892C257.165 16.892 256.061 18.0105 256.061 19.3757C256.061 20.7409 257.165 21.8593 258.533 21.8593C259.917 21.8593 261.021 20.7409 261.021 19.3757C261.021 19.1619 261.186 18.9974 261.4 18.9974C261.598 18.9974 261.779 19.1619 261.779 19.3757C261.779 21.1521 260.329 22.5995 258.533 22.5995Z" fill="#0E1412"/>
<path d="M38.2131 81.9281C38.0813 81.9281 37.9495 81.8459 37.8836 81.7143C37.7847 81.5334 37.8671 81.3031 38.0484 81.2209C38.0978 81.188 43.8818 78.1944 43.8818 72.1415C43.8818 69.1644 42.0362 66.7794 40.0752 64.2793C38.1472 61.7957 36.1533 59.2462 36.1533 56.0717C36.1533 49.657 40.7014 47.3872 40.8827 47.3049C41.0804 47.2062 41.2946 47.2885 41.3935 47.4694C41.4759 47.6668 41.3935 47.8806 41.2122 47.9793C41.031 48.0615 36.9113 50.134 36.9113 56.0717C36.9113 58.9831 38.724 61.3351 40.6684 63.8188C42.6129 66.3189 44.6233 68.9013 44.6233 72.1415C44.6233 78.6714 38.4438 81.8459 38.3779 81.8788C38.323 81.9117 38.2681 81.9281 38.2131 81.9281Z" fill="#0E1412"/>
<path d="M51.1827 75.0201C51.0508 75.0201 50.9355 74.9543 50.8531 74.8392C50.7542 74.6582 50.8201 74.428 51.0014 74.3293C51.0344 74.2964 55.5165 71.6482 55.5165 66.2697C55.5165 63.638 53.6709 61.5326 51.7265 59.2957C49.7985 57.0917 47.7881 54.8054 47.7881 51.9599C47.7881 46.203 52.501 44.1141 52.5339 44.0977C52.7317 44.0154 52.9459 44.1141 53.0283 44.2951C53.1107 44.4924 53.0283 44.7063 52.8305 44.7885C52.6657 44.8707 48.5461 46.7129 48.5461 51.9599C48.5461 54.5258 50.3587 56.6147 52.2867 58.8187C54.2477 61.0557 56.2745 63.3584 56.2745 66.2697C56.2745 72.0923 51.5617 74.8556 51.3639 74.9707C51.309 75.0036 51.2486 75.0201 51.1827 75.0201Z" fill="#0E1412"/>
<path d="M27.7823 73.9014C27.6505 73.9014 27.5186 73.8356 27.4527 73.7205C27.3538 73.5396 27.4197 73.3093 27.5845 73.2106C27.634 73.1777 32.1161 70.5296 32.1161 65.1511C32.1161 62.5194 30.2705 60.414 28.3261 58.1771C26.3816 55.973 24.3877 53.6867 24.3877 50.8412C24.3877 45.0844 29.0841 42.9955 29.1335 42.979C29.3313 42.8968 29.5455 42.9955 29.6279 43.1764C29.7103 43.3738 29.6279 43.5876 29.4301 43.6698C29.2653 43.7356 25.1457 45.5778 25.1457 50.8412C25.1457 53.4071 26.9584 55.4796 28.8863 57.6836C30.8473 59.9206 32.8577 62.2397 32.8577 65.1511C32.8577 70.9737 28.1613 73.737 27.9635 73.8521C27.9086 73.885 27.8482 73.9014 27.7823 73.9014Z" fill="#0E1412"/>
<path d="M120.211 175.682C120.134 175.682 120.063 175.66 119.997 175.616C119.832 175.501 119.782 175.27 119.898 175.089L135.042 153.246C135.157 153.065 135.404 153.033 135.569 153.148C135.734 153.263 135.783 153.493 135.668 153.658L120.524 175.517C120.442 175.616 120.326 175.682 120.211 175.682Z" fill="#0E1412"/>
<path d="M124.727 180.337C124.612 180.337 124.497 180.288 124.431 180.172C124.315 180.008 124.348 179.778 124.513 179.663L138.816 169.267C138.981 169.152 139.212 169.185 139.344 169.35C139.459 169.514 139.426 169.744 139.261 169.876L124.958 180.255C124.892 180.304 124.81 180.337 124.727 180.337Z" fill="#0E1412"/>
<path fill-rule="evenodd" clip-rule="evenodd" d="M145.753 168.823C143.957 168.823 142.375 167.524 142.078 165.698C141.914 164.728 142.161 163.741 142.738 162.935C143.314 162.129 144.171 161.603 145.16 161.438C147.17 161.126 149.082 162.491 149.411 164.514C149.741 166.537 148.357 168.445 146.346 168.774C146.138 168.807 145.94 168.823 145.753 168.823ZM145.753 162.145C145.588 162.145 145.429 162.156 145.275 162.178C144.484 162.31 143.809 162.737 143.347 163.379C142.886 164.02 142.688 164.793 142.82 165.583C143.084 167.195 144.6 168.297 146.215 168.034C147.846 167.771 148.934 166.241 148.67 164.629C148.439 163.182 147.187 162.145 145.753 162.145Z" fill="#0E1412"/>
<path d="M118.069 168.56C117.97 168.56 117.871 168.511 117.805 168.445C115.993 166.553 115.333 165.073 115.762 163.889C116.108 162.951 116.981 162.639 117.838 162.326C118.629 162.03 119.371 161.751 119.733 161.027C120.162 160.155 119.717 159.201 119.239 158.198C118.728 157.079 118.184 155.928 118.744 154.727C119.255 153.675 120.293 153.329 121.2 153.017C122.073 152.737 122.815 152.49 123.078 151.734C123.293 151.092 123.029 150.467 122.749 149.793C122.419 148.987 122.04 148.082 122.551 147.145C122.815 146.651 123.194 146.405 123.507 146.174C123.82 145.977 124.067 145.812 124.199 145.434C124.413 144.842 124.215 144.069 123.589 143.148C123.474 142.967 123.523 142.737 123.704 142.622C123.869 142.506 124.1 142.556 124.215 142.737C124.973 143.872 125.204 144.858 124.907 145.697C124.693 146.289 124.281 146.569 123.935 146.799C123.639 146.997 123.391 147.161 123.21 147.49C122.864 148.132 123.128 148.773 123.441 149.497C123.737 150.237 124.083 151.076 123.787 151.98C123.408 153.066 122.37 153.428 121.447 153.724C120.59 154.02 119.783 154.283 119.42 155.056C119.008 155.928 119.453 156.882 119.931 157.885C120.442 159.004 120.986 160.155 120.409 161.339C119.914 162.343 118.959 162.705 118.102 163.017C117.344 163.297 116.685 163.543 116.47 164.152C116.157 165.007 116.8 166.307 118.349 167.919C118.481 168.067 118.481 168.313 118.332 168.445C118.267 168.527 118.168 168.56 118.069 168.56Z" fill="#0E1412"/>
</svg>
