<svg width="241" height="176" viewBox="0 0 241 176" fill="none" xmlns="http://www.w3.org/2000/svg">
<path d="M42.4686 61.1066C42.9607 59.6435 44.3574 58.5395 45.7806 58.0473C46.4324 57.7813 46.6053 58.8321 46.0067 59.005C44.8362 59.3641 43.7189 60.0292 43.0937 61.1066C43.0804 61.5323 42.4287 61.5722 42.4686 61.1066Z" fill="white"/>
<path d="M46.7251 61.0403C47.3635 60.6678 47.7094 61.6787 47.1507 61.9847C46.1531 62.6763 45.3949 63.6739 44.8363 64.738C44.7964 64.911 44.6102 65.044 44.4372 64.9775C43.8653 64.1528 45.9403 61.5457 46.7251 61.0403Z" fill="white"/>
<path d="M49.1726 35.5548C48.1616 34.5439 51.7796 35.0493 52.2452 34.9429C52.724 34.9961 53.7083 34.8498 53.6152 35.5814C53.5753 35.8075 53.3758 36.0602 53.123 36.0469C51.7929 35.9405 50.4761 35.7676 49.1726 35.5548Z" fill="white"/>
<path d="M48.7999 45.358C48.2679 44.387 50.1966 44.4668 50.7286 44.1742C51.4336 44.1343 53.6682 42.8707 53.8411 43.8949C53.8677 44.1609 53.6948 44.4402 53.4421 44.52C52.0986 44.959 50.7153 45.1984 49.3054 45.3181C49.1857 45.4777 48.9329 45.5309 48.7999 45.358Z" fill="white"/>
<path d="M56.3018 26.0443C55.9559 24.6876 58.6827 27.6937 58.829 28.0129C59.1616 28.4253 58.5231 29.1169 58.1507 28.6647C57.5388 27.7868 57.1531 26.7227 56.3018 26.0443Z" fill="white"/>
<path d="M59.5204 37.7362C58.8155 32.3757 66.2509 30.5135 69.8556 33.2669C72.2232 35.0227 71.6114 38.9466 69.1772 40.3698C69.1639 40.3831 69.1506 40.3964 69.124 40.4097C68.0333 41.0349 67.182 41.9527 66.9692 43.2296C66.5303 44.3469 66.9027 46.4885 65.6258 46.7146C65.5593 47.2466 65.3198 47.8585 65.3198 48.2442C65.3198 48.2176 65.3331 48.2043 65.3331 48.1777C65.1469 49.4547 64.269 50.7715 62.8192 50.399C61.3693 50.3192 61.3028 48.6965 61.5955 47.6058C61.7285 47.1934 61.7418 46.7013 61.9014 46.2889C61.6354 46.1027 61.5422 45.8101 61.795 45.3445C62.1674 41.4472 59.8131 41.1413 59.5204 37.7362Z" fill="white"/>
<path d="M70.3477 27.0819C70.5605 26.1508 71.2123 25.3793 71.4783 24.4615C71.5448 24.1689 71.9838 24.1423 72.0104 24.4615C71.9306 25.3926 71.4251 26.2306 71.332 27.1617C71.2522 27.84 70.2147 27.8134 70.3477 27.0819Z" fill="white"/>
<path d="M70.4947 46.2891C71.1331 46.6216 71.5721 47.3399 72.2638 47.6458C73.8333 48.2843 73.1682 49.5213 72.3835 49.069C71.612 48.404 70.9868 47.6325 70.4149 46.7945C70.2287 46.6748 70.2153 46.3157 70.4947 46.2891Z" fill="white"/>
<path d="M74.5244 41.9526C74.0455 40.6225 76.3334 41.7132 76.9319 41.7664C77.6103 42.0724 79.3927 42.3251 79.0601 43.3493C78.9537 43.5887 78.6611 43.8015 78.3951 43.7084C77.1315 43.0301 75.8013 42.498 74.5244 41.9526Z" fill="white"/>
<path d="M76.2004 33.8523C77.5305 33.5597 78.8074 32.9478 80.1775 32.8281C80.6563 32.8148 80.7627 33.4665 80.4568 33.7459C80.1509 34.0252 79.6986 33.9055 79.3129 33.9587C78.4084 33.972 77.5039 34.2114 76.5994 34.2114C76.4265 34.1848 76.227 34.1981 76.054 34.1449C75.8944 34.0651 76.0275 33.8257 76.2004 33.8523Z" fill="white"/>
<path d="M89.7815 25.2994C89.05 24.5545 89.0234 23.1579 89.2096 22.147C89.3692 21.7612 89.3825 20.2981 89.9677 20.4976C90.021 21.2026 89.5953 22.014 89.6884 22.7721C89.4756 23.5303 91.0452 25.2462 89.7815 25.2994Z" fill="white"/>
<path d="M91.8828 23.9427C91.9493 23.0781 92.1089 21.0164 92.9735 20.6572C93.2129 20.6838 93.1996 21.043 93.0001 21.1361C92.641 21.9475 92.5346 22.8919 92.6277 23.7697C92.7208 24.2486 91.936 24.5013 91.8828 23.9427Z" fill="white"/>
<path d="M98.454 21.3623C98.4407 21.3889 98.4274 21.4288 98.4141 21.4555C99.4117 17.8375 105.424 13.7141 108.443 17.2655C109.162 10.9607 116.797 8.0344 122.436 8.87238C126.56 9.39113 129.1 13.2485 129.553 17.1325C131.468 13.9801 135.498 12.6633 138.957 13.8338C143.413 15.6561 145.913 20.8303 146.073 25.4725V25.4858C146.339 36.4461 131.973 37.0845 123.899 36.8983C117.262 36.619 110.159 36.5392 104.2 33.2936C104.187 33.2803 104.16 33.267 104.147 33.267C104.041 33.2005 103.921 33.1473 103.814 33.0808C99.6911 30.9393 96.8313 25.938 98.454 21.3623Z" fill="white"/>
<path d="M147.589 32.1896C147.137 31.4048 148.946 30.7265 149.158 29.8752C149.424 29.4628 149.424 28.9175 149.677 28.5184C150.116 28.412 149.73 29.7022 149.691 29.955C149.491 30.5402 148.334 32.8414 147.589 32.1896Z" fill="white"/>
<path d="M153.149 29.7953C153.149 29.8086 153.135 29.8219 153.135 29.8352C153.242 29.5426 153.295 29.2234 153.362 28.9175C153.441 28.8642 153.508 28.8376 153.548 28.8376C154.266 28.8376 152.457 34.1183 151.553 33.2005C150.675 32.429 153.069 30.8861 153.149 29.7953Z" fill="white"/>
<path d="M150.262 51.6892C151.113 49.6807 151.18 46.7411 153.175 45.2514C154.306 44.3602 155.902 44.5198 157.086 43.7084C158.123 43.4158 157.924 41.8329 158.881 42.1788C159.467 42.6842 159.147 43.6552 159.121 44.3336C160.012 49.0556 156.913 50.8779 152.736 51.4498C152.217 51.6094 151.685 51.7424 151.207 51.9952C150.94 52.1415 150.661 52.5272 150.342 52.2745C150.169 52.1415 150.156 51.8755 150.262 51.6892Z" fill="white"/>
<path d="M169.164 83.3332C168.778 83.7721 168.459 84.2643 168.193 84.783C167.9 85.222 167.98 86.193 167.302 86.1664C166.291 85.6742 168.419 82.7745 169.124 82.4819C169.763 82.3755 169.63 83.1736 169.164 83.3332Z" fill="white"/>
<path d="M160.611 12.743C160.398 12.2642 160.757 11.6922 160.916 11.2267C161.01 9.20486 161.595 7.11655 163.59 6.22536C165.213 5.6534 165.399 4.04394 166.051 2.6739C166.437 1.94233 168.458 0.120041 169.203 0.944724C169.855 1.23735 169.336 2.20835 169.655 2.76701C169.655 2.74041 169.642 2.7138 169.642 2.7005C170.001 4.16365 170.507 5.6667 170.214 7.19636C170.201 7.23626 170.201 7.27616 170.188 7.31607C170.188 7.28946 170.201 7.27616 170.201 7.24956C169.456 11.3464 165.865 11.2666 162.592 12.0114C161.887 12.0646 161.249 13.2751 160.611 12.743Z" fill="white"/>
<path d="M171.81 83.014C171.797 83.014 171.797 83.014 171.784 83.014C172.316 83.014 172.156 83.8653 171.677 83.7722C170.999 84.384 170.414 85.1156 170.015 85.9403C169.921 86.2196 169.709 86.5388 169.376 86.4723C168.126 86.06 171.105 82.9209 171.81 83.014Z" fill="white"/>
<path d="M187.4 45.4908C187.414 45.4775 187.414 45.4642 187.427 45.4509C187.041 45.8233 186.988 46.781 186.336 46.7278C185.192 46.249 188.411 43.1631 189.13 43.2296C189.555 43.2562 189.409 43.9212 189.023 43.868C188.331 44.174 187.839 44.8789 187.4 45.4908Z" fill="white"/>
<path d="M185.604 32.5754C185.644 31.897 186.709 32.2162 187.147 31.8837C187.799 31.631 188.451 31.3516 189.103 31.0989C189.382 30.9393 189.768 30.9659 189.848 31.325C189.888 32.4024 187.733 32.3359 186.961 32.6685C186.961 32.6685 186.961 32.6685 186.975 32.6685H186.961C186.948 32.6685 186.948 32.6685 186.935 32.6685C186.536 32.7084 185.738 33.1207 185.604 32.5754Z" fill="white"/>
<path d="M186.376 23.7566C186.322 23.0516 189.581 23.4374 190.1 23.5837C190.685 23.7566 190.353 24.7276 189.794 24.5813C188.743 24.3019 187.706 23.9827 186.628 23.8497C186.549 23.9295 186.389 23.8763 186.376 23.7566Z" fill="white"/>
<path d="M192.055 45.7437C191.989 45.9299 191.696 46.0097 191.603 45.7969C191.217 46.0097 190.885 46.329 190.592 46.6615C190.007 47.0738 189.834 48.404 189.089 48.3375C187.466 47.7256 192.428 43.7485 192.055 45.7437Z" fill="white"/>
<path d="M191.909 13.5678C193.212 14.0865 194.29 15.1506 195.314 16.0817C195.753 16.5074 195.128 17.3587 194.622 16.933C193.771 16.0817 193.053 15.0974 192.162 14.286C192.042 15.3768 191.111 13.5146 191.909 13.5678Z" fill="white"/>
<path d="M199.145 31.4447C198.866 29.4362 196.259 28.3455 196.658 25.2862C197.163 20.2316 205.955 20.2982 206.966 25.0068C207.671 29.9549 204.333 28.6381 203.016 31.1254C202.391 32.8812 202.71 34.238 202.098 34.8232C202.045 36.4992 201.02 39.7048 198.919 38.7471C198.094 38.388 198.44 36.2465 198.972 35.036C198.812 33.8655 199.012 32.6285 199.145 31.4447Z" fill="white"/>
<path d="M208.403 12.038C208.562 11.8384 208.483 11.4527 208.762 11.3729C208.882 11.3463 209.001 11.466 208.988 11.5857C208.868 12.2641 208.456 12.8493 208.323 13.5277C208.243 13.8735 208.243 14.4854 207.751 14.4588C206.847 14.0066 208.19 12.6764 208.403 12.038Z" fill="white"/>
<path d="M210.118 33.3601C210.797 33.8922 211.648 34.4242 212.406 34.9696C212.898 35.3154 212.313 36.2199 211.821 35.7943C211.555 35.2888 209.201 33.7458 210.118 33.3601Z" fill="white"/>
<path d="M212.367 21.1095C212.34 20.4711 213.165 20.4844 213.604 20.2848C214.615 20.0055 215.559 19.4735 216.596 19.3005C217.315 19.3005 217.222 20.4312 216.583 20.4977C215.812 20.3912 212.287 22.0539 212.367 21.1095Z" fill="white"/>
<path d="M212.034 28.9972C211.887 28.1592 212.725 28.505 213.177 28.6646C214.109 29.1435 217.381 28.4784 216.942 30.1012C216.809 30.4071 216.45 30.6066 216.13 30.4736C214.84 29.8352 213.177 29.8219 212.034 28.9972Z" fill="white"/>
<path d="M227.743 89.7577C227.783 89.106 228.807 89.0394 228.728 89.7577C228.688 90.4228 227.677 90.4893 227.743 89.7577Z" fill="white"/>
<path d="M229.033 85.0092C229.14 84.6501 229.246 84.0781 229.725 84.0781C230.217 84.118 230.071 84.6501 229.951 84.956C229.805 85.5014 229.964 86.5256 229.193 86.5788C228.421 86.4325 228.94 85.4881 229.033 85.0092Z" fill="white"/>
<path d="M229.299 81.2183C229.232 80.5798 228.753 79.9015 228.9 79.2896C229.512 78.691 229.791 80.5133 230.017 80.8858C230.177 81.3114 229.472 81.7237 229.299 81.2183Z" fill="white"/>
<path d="M234.087 77.1216C234.127 76.4299 235.218 76.3501 235.138 77.1216C235.098 77.8266 234.007 77.8931 234.087 77.1216Z" fill="white"/>
<path d="M240.233 134.69C239.993 134.517 239.634 134.344 239.288 134.264C239.275 134.264 239.262 134.251 239.235 134.251H239.222C239.209 134.251 239.182 134.251 239.169 134.238C239.142 134.238 239.116 134.224 239.089 134.224C238.969 134.211 238.85 134.211 238.73 134.224C238.397 134.251 238.051 134.317 237.732 134.304C229.432 134.504 221.132 134.73 212.832 135.022C213.058 134.61 213.071 133.958 213.178 133.546C214.747 127.294 216.237 121.029 217.541 114.724C217.541 114.698 217.554 114.671 217.554 114.645C217.581 114.512 217.621 114.379 217.647 114.246C217.647 114.232 217.647 114.232 217.647 114.219C218.379 110.628 219.922 107.249 220.361 103.591C223.885 96.6613 227.078 88.7204 226.133 80.7795C226.133 80.8061 226.147 80.846 226.147 80.8726C225.482 74.2219 219.11 75.6451 214.309 76.124C215.027 74.9402 215.865 72.7055 214.202 71.9341C212.952 71.6813 211.675 72.2001 210.425 72.2533C209.959 72.3464 209.36 72.2666 208.855 72.3597C209.254 70.2315 209.52 68.09 209.839 65.9485C209.946 65.9086 210.065 65.8687 210.172 65.8154C210.398 65.7223 210.624 65.6159 210.837 65.4962L210.85 65.4829H210.863C212.18 64.8444 212.42 62.9823 211.156 62.1576C211.768 60.9073 212.247 59.5904 212.805 58.3002C213.737 56.7838 216.822 50.6386 213.045 51.0776C213.085 50.9312 213.125 50.7849 213.165 50.6253V50.612C213.165 50.5987 213.165 50.5987 213.165 50.5854C213.165 50.5588 213.178 50.5322 213.178 50.5056C213.244 50.1864 213.244 49.8538 213.218 49.5213C213.218 49.5346 213.218 49.5479 213.218 49.5612C213.191 46.861 210.677 47.3266 209.015 48.3774C209.68 44.3737 204.16 45.4245 202.364 47.2734C202.776 43.948 196.844 46.7147 195.873 48.0582C195.926 45.0654 192.933 46.9275 192.042 48.3774C190.606 50.1066 189.821 52.4476 189.94 54.6822C189.462 55.6399 189.289 56.7173 188.969 57.7415C188.57 57.9011 188.278 58.513 188.717 58.7923C187.945 62.0379 188.171 65.4563 188.504 68.7417C188.65 72.5193 188.983 72.8386 192.827 73.0115C192.76 73.7297 192.641 74.448 192.521 75.1796C191.763 74.7805 190.127 75.4057 189.355 75.419C187.134 75.3791 186.509 76.3767 186.402 78.5049C184.088 78.8907 181.747 79.1168 179.499 79.7686C175.442 81.3913 172.343 84.9827 170.826 89.0263C169.443 93.0832 168.579 97.313 166.703 101.197C165.413 104.137 164.109 107.196 161.968 109.643C160.385 111.359 158.363 112.463 156.222 113.328C155.889 112.45 155.61 111.08 154.971 110.628C154.758 110.215 154.2 110.441 153.827 110.481C152.604 110.508 151.38 110.441 150.156 110.548C146.498 110.468 142.84 110.814 139.196 110.934C134.78 110.907 130.35 111.213 126.001 111.998C124.445 111.652 125.562 113.873 125.761 114.565C126.174 115.868 126.427 117.278 127.038 118.489C126.879 118.608 126.786 118.821 126.786 119.021C125.722 120.072 125.349 121.681 127.225 122.014C126.387 122.985 126.586 124.381 128.009 124.554C127.398 125.698 127.73 126.962 129.246 126.536C129.672 129.462 130.749 132.375 131.508 135.248C132.013 136.618 132.026 138.308 132.665 139.638C124.538 139.984 116.397 140.13 108.27 140.356C106.913 140.463 105.557 140.569 104.2 140.649C104.426 140.077 104.652 139.518 104.892 138.946C107.884 131.724 111.063 124.567 113.817 117.252C114.429 115.416 115.227 113.66 115.932 111.865C116.065 111.133 116.796 110.242 116.397 109.537C116.451 109.085 116.557 108.353 115.945 108.26C114.695 108.1 113.431 108.22 112.168 108.127C104.905 107.409 97.1104 108.047 89.7015 108.38C89.5685 108.393 89.4222 108.406 89.2892 108.406C89.2759 108.406 89.2493 108.406 89.236 108.406C87.9192 108.46 86.6156 108.699 85.2988 108.832C85.1392 108.061 84.4076 109.231 84.3278 109.51C82.9844 112.623 81.867 115.908 80.8694 119.234C79.5393 120.75 78.3023 122.359 77.0653 123.956C76.8923 124.288 76.2539 125.126 75.5356 126.097C77.2515 116.414 78.7811 106.651 78.7412 96.781C78.4619 89.9175 77.6106 87.9356 70.2683 88.5341C69.3505 88.5607 68.4327 88.6539 67.5149 88.6405C67.5282 88.6006 67.5415 88.5607 67.5415 88.5208C67.7543 87.6696 68.2066 86.8316 68.2465 85.9537C70.3348 86.3394 72.5029 85.8739 73.2212 83.5328C73.2079 83.5594 73.2079 83.5727 73.1946 83.5993C73.7 82.2692 74.1523 80.8992 74.4715 79.5025C77.4909 78.9572 79.0339 73.4238 76.0943 71.7877C76.8391 67.5845 77.185 62.7295 72.8221 60.721C72.5694 60.5348 72.2901 60.4018 72.0107 60.2688C70.7205 58.2071 68.4992 57.4489 66.1981 57.5287C65.3069 57.3824 64.3093 57.3824 63.0989 57.5952C57.4325 57.1563 48.188 64.3523 46.2194 69.4866C45.6741 70.8833 45.3682 72.373 45.0888 73.8362C44.8627 75.9511 44.477 78.7842 41.8167 78.904C40.4999 79.0636 39.0101 78.7976 37.8662 79.5956C37.8529 79.6089 37.8396 79.6089 37.8263 79.6222C37.813 79.6355 37.7997 79.6355 37.7997 79.6488C36.1902 80.7262 35.2857 82.6017 35.0729 84.4772C35.1394 90.8486 27.5444 87.7228 24.4984 95.9031C23.7136 97.6988 23.9796 99.6541 23.8865 101.543C23.0618 106.491 17.422 103.804 20.0025 112.756C20.4414 115.682 17.0496 117.079 16.3712 119.673C14.815 123.61 16.2382 128.598 20.3749 130.207C22.6628 131.005 24.8575 129.848 26.294 128.079C26.2674 128.332 26.2408 128.584 26.2009 128.824C25.8019 133.705 23.0884 142.91 29.4731 144.786C32.8117 145.397 35.9508 143.509 39.0633 142.591C39.05 142.91 39.1032 143.269 39.05 143.575C39.0367 144.174 38.9968 144.786 39.0101 145.384C38.7441 145.411 38.4781 145.437 38.212 145.464C32.8516 145.57 27.5045 145.61 22.1706 146.209C16.8368 146.342 11.5295 146.621 6.27552 147.632C5.98289 147.738 2.75066 148.231 1.06139 148.683C0.928376 148.656 0.848568 148.683 0.782062 148.763C0.183501 148.936 -0.135731 149.108 0.156898 149.241C0.250008 149.228 0.343117 149.215 0.436227 149.202C0.396323 149.228 0.36972 149.255 0.329816 149.281C-0.0958271 149.76 0.409624 151.104 0.649048 152.115C0.782062 154.828 1.1279 157.568 2.1255 160.082C6.16911 168.222 15.5066 171.814 24.0993 172.652C38.8904 174.807 53.0164 168.528 67.1824 165.349C67.1957 165.349 67.2223 165.336 67.2356 165.336C72.0906 164.086 77.0786 163.434 82.0533 162.902C82.0267 162.902 82.0001 162.902 81.9734 162.915C87.6797 162.263 93.4259 162.357 99.1455 162.609C109.84 162.796 120.095 166.081 130.084 169.619C138.158 171.96 146.325 174.461 154.758 174.94C154.891 174.94 154.998 174.9 155.091 174.847C156.474 175.059 158.323 175.152 158.642 175.192C159.281 175.232 159.919 175.232 160.558 175.166C163.391 174.833 166.224 174.301 168.871 173.25C173.553 171.415 177.903 168.888 182.053 166.068C186.589 163.022 190.951 159.563 196.112 157.608C201.193 155.653 206.727 155.347 212.074 154.602C215.612 154.283 219.124 153.724 222.595 152.953C227.424 151.875 232.465 150.651 236.269 147.299C239.501 144.214 242.321 139.039 240.233 134.69ZM174.418 115.23C173.473 118.835 174.644 122.612 173.407 126.164C172.822 128.704 172.29 131.245 171.744 133.785C171.744 133.825 171.744 133.878 171.744 133.918C168.645 134.118 165.533 134.371 162.447 134.65C161.569 131.391 160.598 128.146 159.68 124.9C166.038 123.078 172.356 119.101 174.418 115.23Z" fill="white"/>
<path d="M200.502 94.5995V94.5463C200.516 94.4665 200.516 94.3867 200.529 94.2936C200.516 94.4 200.502 94.4931 200.502 94.5995ZM226.161 80.7794C226.161 80.806 226.174 80.8459 226.174 80.8725C225.509 74.2218 219.138 75.6451 214.336 76.1239C215.054 74.9401 215.892 72.7055 214.229 71.934C212.979 71.6813 211.702 72.2 210.452 72.2532C209.986 72.3463 209.388 72.2665 208.882 72.3596C208.537 72.4262 208.244 72.5858 208.071 72.9449C207.858 73.9026 207.632 74.9534 207.845 75.9244C207.765 76.0175 207.672 76.1106 207.579 76.2037C203.096 80.806 196.752 83.1204 192.163 87.6429C191.897 84.956 191.245 82.3223 190.926 79.6355C190.912 79.4759 190.886 79.3162 190.872 79.1566C191.537 79.0768 192.016 78.9305 192.362 78.7044C192.655 78.5049 192.841 78.2654 192.947 77.9728C193.187 77.321 193.027 76.4299 192.801 75.3657C192.735 75.2859 192.655 75.2194 192.575 75.1795C191.817 74.7805 190.181 75.4057 189.409 75.419C187.188 75.3791 186.563 76.3766 186.456 78.5049C184.142 78.8906 181.801 79.1167 179.553 79.7685C175.496 81.3913 172.397 84.9826 170.88 89.0262C169.497 93.0831 168.632 97.313 166.757 101.197C165.467 104.137 164.163 107.196 162.022 109.643C160.439 111.359 158.417 112.463 156.276 113.328C154.453 114.059 152.538 114.631 150.716 115.27C147.137 116.294 142.668 120.338 146.206 123.889C149.199 126.483 154.453 126.43 159.681 124.927C166.052 123.104 172.37 119.127 174.432 115.256C173.487 118.861 174.658 122.639 173.421 126.19C172.836 128.731 172.304 131.271 171.758 133.812C171.758 133.852 171.758 133.905 171.758 133.945C171.692 134.836 170.867 136.419 171.772 136.871C171.851 136.911 171.931 136.938 172.038 136.964C175.217 136.805 178.396 136.818 181.575 136.831C182.865 136.845 184.155 136.845 185.445 136.858C185.844 136.858 186.257 136.858 186.656 136.858C186.776 136.858 186.882 136.858 187.002 136.858C193.719 136.233 200.516 136.712 207.22 135.913C208.869 135.9 210.478 135.302 212.115 135.408C212.5 135.461 212.713 135.315 212.859 135.049C213.086 134.637 213.099 133.985 213.205 133.572C214.775 127.321 216.265 121.056 217.568 114.751C217.568 114.724 217.581 114.698 217.581 114.671C217.608 114.538 217.648 114.405 217.675 114.272C217.675 114.259 217.675 114.259 217.675 114.246C218.406 110.654 219.949 107.276 220.388 103.618C223.913 96.6612 227.105 88.7203 226.161 80.7794ZM196.153 87.1108C196.446 86.8182 196.672 86.3527 196.871 86.0467C197.137 85.9669 197.284 86.1797 197.496 86.2861C197.59 86.3127 197.656 86.3128 197.736 86.2995C197.802 86.2862 197.856 86.2595 197.909 86.2329C198.308 85.9802 198.507 85.2486 199.053 85.222C199.093 85.222 199.132 85.222 199.172 85.222C199.172 85.2752 199.186 85.3285 199.186 85.3817C199.186 85.5945 199.172 85.794 199.146 86.0068C199.146 86.0201 199.146 86.0201 199.146 86.0334C199.146 86.0201 199.146 86.0201 199.146 86.0068C199.079 86.2861 199.172 86.6586 199.492 86.7251C199.505 86.7251 199.518 86.7251 199.531 86.7251C200.01 86.7251 200.25 86.1797 200.702 86.0467C201.567 87.0443 200.582 88.5208 200.33 89.6115C199.611 91.7131 199.239 93.9211 198.999 96.1291C198.827 96.209 198.654 96.2888 198.481 96.3553C196.392 97.2731 194.238 98.0711 192.309 99.2816C192.083 99.4146 191.87 99.5609 191.657 99.7205C191.657 99.7205 191.644 99.7205 191.644 99.7338C191.644 99.6939 191.644 99.654 191.63 99.6141C191.604 99.1618 191.617 98.7096 191.657 98.2574C191.657 98.2441 191.657 98.2441 191.657 98.2308C191.87 95.6902 192.868 93.3093 193.812 90.9682C194.357 89.7179 194.437 88.308 195.076 87.0842C195.488 87.5099 195.834 87.4035 196.126 87.1241C196.14 87.1374 196.14 87.1241 196.153 87.1108ZM215.772 116.041C215.746 116.188 215.706 116.321 215.679 116.467C215.706 116.321 215.733 116.174 215.772 116.041Z" fill="#4FAA89"/>
<path d="M68.3264 85.8339C68.3264 85.8738 68.3264 85.9138 68.3264 85.967C68.2865 86.8448 67.8343 87.6828 67.6215 88.5341C67.6082 88.574 67.6082 88.6139 67.5949 88.6538C67.5151 88.88 67.3554 89.0795 67.1559 89.1726C67.0495 89.2258 66.9165 89.2391 66.7968 89.1992C66.7436 89.1859 66.7037 89.1593 66.6505 89.1327C66.4642 89.013 66.3977 88.8001 66.3711 88.5873C66.2514 88.6272 66.1317 88.6139 66.0253 88.574C65.9588 88.5474 65.9056 88.5208 65.8524 88.4676C64.908 87.6828 65.0144 83.9319 66.5042 84.8097C67.116 84.4373 67.8343 84.9827 67.8875 85.6344C67.9939 85.4748 68.2732 85.4748 68.3397 85.6743C68.3264 85.7275 68.3264 85.7807 68.3264 85.8339Z" fill="#4FAA89"/>
<path d="M73.288 61.0802C73.1683 60.9472 73.0353 60.8408 72.9023 60.7344C72.6496 60.5481 72.3702 60.4151 72.0909 60.2821C71.8648 60.189 71.6254 60.0959 71.3992 60.0294C69.4705 58.8057 68.0739 57.848 66.2782 57.542C65.387 57.3957 64.3894 57.3957 63.179 57.6085C57.5126 57.1696 48.2682 64.3656 46.2996 69.4999C45.7542 70.8966 45.4483 72.3863 45.169 73.8495C44.9429 75.9644 44.5571 78.7976 41.8969 78.9173C40.58 79.0769 39.0903 78.8109 37.9464 79.609C37.9331 79.6223 37.9198 79.6223 37.9065 79.6356C37.8932 79.6489 37.8798 79.6489 37.8798 79.6622C36.2704 80.7396 35.3659 82.6151 35.1531 84.4906C35.2196 90.8619 27.6245 87.7361 24.5785 95.9164C23.7937 97.7121 24.0598 99.6674 23.9666 101.556C23.142 106.504 17.5022 103.817 20.0827 112.769C20.5216 115.696 17.1298 117.092 16.4514 119.686C14.8951 123.623 16.3184 128.611 20.4551 130.221C22.7429 131.019 24.9376 129.861 26.3742 128.092C26.7732 127.6 27.1191 127.055 27.3851 126.496C27.5713 126.124 27.7442 125.751 27.8905 125.366C29.0345 122.413 29.0079 119.087 29.4335 115.962C29.4468 115.842 29.4601 115.735 29.4867 115.616C30.1651 110.894 31.1095 106.198 32.4795 101.636C32.8519 100.505 33.2377 99.2816 33.6899 98.0579C34.5678 95.6637 35.7117 93.3093 37.5207 91.7664C39.9017 90.0904 42.8812 91.1412 45.5414 91.1013C51.9128 90.9151 53.8548 85.5414 55.012 80.008C55.5573 77.4009 55.9298 74.754 56.5017 72.5992C57.0737 71.0828 57.6722 69.5665 58.3107 68.0767C58.6033 67.385 58.9093 66.7067 59.2285 66.0283C60.0798 65.1371 61.1838 64.5518 62.0484 63.6873C62.0484 63.6873 62.0617 63.6873 62.0617 63.674C62.075 63.6607 62.0883 63.6474 62.1016 63.6474C63.751 61.9049 65.693 60.5481 68.2202 60.9339C68.2335 60.9339 68.2468 60.9339 68.2468 60.9339C69.0715 60.9871 69.9095 60.9472 70.6943 61.2797C71.2396 61.3861 71.8648 61.732 72.4234 61.5324C72.5432 61.6255 72.7028 61.6788 72.8358 61.6921C73.1683 61.7453 73.4609 61.5058 73.288 61.0802ZM67.1029 58.8057C67.6483 59.085 68.7124 59.4308 68.8853 59.8831C68.5395 59.8033 68.1936 59.7501 67.8478 59.6969C67.7813 59.3111 67.3955 59.0451 67.1029 58.8057Z" fill="#4FAA89"/>
<path d="M65.1607 76.8289C64.376 76.6693 63.1389 76.5496 62.9793 75.5786C62.9527 75.0864 63.1123 74.4214 63.7242 74.4214C66.4643 73.0114 70.1886 77.627 65.1607 76.8289Z" fill="#4FAA89"/>
<path d="M73.5806 78.7444C73.0352 78.5581 72.3834 78.3187 72.0376 77.8399C71.6386 77.095 71.9977 76.2703 72.9022 76.3634C74.086 76.2836 75.1368 78.5581 73.5806 78.7444Z" fill="#4FAA89"/>
<path d="M189.342 65.5362C188.038 65.0972 188.85 63.3813 189.967 63.4079C190.752 63.1685 191.962 63.7538 192.002 64.6184C191.816 65.7091 190.193 65.8421 189.342 65.5362Z" fill="#4FAA89"/>
<path d="M198.52 65.1104C195.328 64.3788 196.552 62.357 199.252 62.3836C200.569 62.1309 204.612 63.2482 202.271 64.8443C201.114 65.4163 199.757 65.3764 198.52 65.1104Z" fill="#4FAA89"/>
<path d="M69.8693 33.2669C66.2514 30.5135 58.8292 32.3757 59.5342 37.7362C59.8268 41.1413 62.1812 41.4606 61.822 45.3312C61.5693 45.7968 61.6491 46.0894 61.9284 46.2756C62.1014 46.3953 62.3408 46.4619 62.6201 46.5151C63.1921 46.6082 63.9103 46.6082 64.4291 46.6215C64.6419 46.6348 64.8148 46.6348 64.9478 46.6614C65.2405 46.7279 65.4666 46.7412 65.6661 46.7146C66.943 46.4885 66.5706 44.3469 67.0095 43.2296C67.2224 41.9527 68.0737 41.0349 69.1644 40.4097C69.1777 40.3964 69.191 40.3831 69.2176 40.3698C71.6118 38.9333 72.2237 35.0094 69.8693 33.2669ZM67.5815 40.3299C66.0385 41.6069 65.8922 43.7617 65.5331 45.5973C65.3203 45.5707 65.1075 45.5574 64.8946 45.5441C64.7084 45.5441 64.5089 45.5441 64.3227 45.5441C64.1099 45.5441 63.9103 45.5441 63.7108 45.5441C63.4847 45.5441 63.2719 45.5175 63.059 45.4776C62.793 45.4243 62.5403 45.3445 62.3009 45.2115C63.5911 41.4472 60.8776 40.4629 60.7313 37.0977C60.6116 32.9477 66.8898 32.1496 69.4969 34.3576C71.399 36.712 69.8427 39.0264 67.5815 40.3299Z" fill="#4FAA89"/>
<path d="M63.0459 45.7703C63.1523 42.5248 63.272 39.2393 63.8174 36.0337C63.9903 34.9962 65.2938 34.3444 65.3869 35.8076C67.6482 33.8124 66.2914 38.3614 66.0254 39.2659C65.5466 41.2744 65.1741 43.3095 65.0278 45.3845C63.2587 47.6458 65.1741 40.2236 65.2938 39.7049C65.2938 39.7182 65.2938 39.7182 65.2938 39.7315C65.4667 38.9467 65.6929 38.1619 65.8791 37.3771C65.8791 37.3771 65.8791 37.3771 65.8791 37.3904C65.8791 37.3771 65.8924 37.3638 65.8924 37.3372C65.8924 37.3505 65.8924 37.3505 65.8924 37.3638C65.9722 36.9382 66.1318 36.5126 66.0786 36.0869C65.6131 36.446 65.6131 37.1377 65.1874 37.5102C64.7352 37.7496 64.5756 37.1776 64.6288 36.8318C64.4824 39.8379 64.1765 42.844 63.6711 45.7969C63.5647 46.0629 63.1257 46.1028 63.0459 45.7703Z" fill="#4FAA89"/>
<path d="M53.4421 44.52C52.0986 44.959 50.7153 45.1984 49.3054 45.3181C49.1857 45.4777 48.9329 45.5309 48.7999 45.358C48.2679 44.387 50.1966 44.4668 50.7286 44.1742C51.4336 44.1343 53.6682 42.8707 53.8411 43.8949C53.8677 44.1609 53.7081 44.4402 53.4421 44.52Z" fill="#4FAA89"/>
<path d="M53.6152 35.5814C53.5753 35.8075 53.3758 36.0602 53.123 36.0469C51.8062 35.9405 50.4761 35.7676 49.1726 35.5548C48.1616 34.5439 51.7796 35.0493 52.2452 34.9429C52.724 34.9828 53.7083 34.8365 53.6152 35.5814Z" fill="#4FAA89"/>
<path d="M58.151 28.6647C57.5525 27.7868 57.1534 26.7227 56.3154 26.0443C55.9696 24.6876 58.6964 27.6937 58.8427 28.0129C59.1619 28.4253 58.5235 29.1169 58.151 28.6647Z" fill="#4FAA89"/>
<path d="M72.0113 24.4615C71.9314 25.3926 71.426 26.2306 71.3329 27.1617C71.2531 27.84 70.2289 27.8001 70.3486 27.0819C70.5614 26.1508 71.2132 25.3793 71.4792 24.4615C71.5457 24.1689 71.9847 24.1423 72.0113 24.4615Z" fill="#4FAA89"/>
<path d="M80.4577 33.7458C80.1518 34.0251 79.6995 33.9054 79.3138 33.9586C78.4093 33.9719 77.5048 34.2113 76.6003 34.2113C76.4274 34.1847 76.2279 34.198 76.0549 34.1448C75.882 34.0517 76.015 33.8123 76.2013 33.8389C77.5314 33.5463 78.8083 32.9344 80.1784 32.8147C80.6572 32.8147 80.7636 33.4665 80.4577 33.7458Z" fill="#4FAA89"/>
<path d="M79.0474 43.3361C78.941 43.5755 78.6484 43.7883 78.3824 43.6952C77.132 43.0302 75.8019 42.4981 74.5117 41.9395C74.0328 40.6093 76.3207 41.7 76.9192 41.7532C77.5976 42.0725 79.38 42.3119 79.0474 43.3361Z" fill="#4FAA89"/>
<path d="M72.3839 49.0689C71.6125 48.4039 70.9873 47.6324 70.4153 46.7944C70.2158 46.6747 70.2158 46.3288 70.4951 46.3022C71.1336 46.6348 71.5725 47.3531 72.2642 47.659C73.8338 48.2974 73.1687 49.5212 72.3839 49.0689Z" fill="#4FAA89"/>
<path d="M206.966 25.0203C205.955 20.3116 197.163 20.2318 196.658 25.2996C196.259 28.3589 198.866 29.4497 199.145 31.4582C199.012 32.642 198.812 33.879 198.985 35.0628C198.985 35.0894 198.985 35.1027 198.999 35.1293C199.092 35.2889 199.278 35.2357 199.358 35.1027C199.384 35.0628 199.398 35.0096 199.411 34.9697C199.531 34.9963 199.65 35.0096 199.757 35.0362C200.262 35.1293 200.675 35.1692 201.007 35.1692C201.553 35.1692 201.885 35.0628 202.098 34.85C202.71 34.2647 202.391 32.908 203.016 31.1522C204.333 28.6516 207.671 29.9551 206.966 25.0203ZM205.849 27.521C203.362 30.2876 202.47 28.5053 201.646 33.4268C201.592 33.6529 201.539 33.879 201.486 34.1051C201.26 34.1051 201.047 34.0652 200.834 34.0253C200.675 33.9987 200.528 33.9588 200.369 33.9189C200.116 33.8657 199.863 33.8125 199.611 33.7992C199.73 32.642 200.409 31.4848 200.036 30.3275C198.746 28.053 195.899 24.9671 199.438 23.0916C202.364 21.6418 207.299 23.8099 205.849 27.521Z" fill="#4FAA89"/>
<path d="M200.635 34.4775C199.997 34.4509 200.715 31.0192 200.662 30.3674C200.662 30.3408 200.662 30.3275 200.662 30.3009C200.675 30.2344 200.675 30.1546 200.688 30.0881C200.688 30.0881 200.688 30.0881 200.688 30.1014C200.688 30.0748 200.688 30.0615 200.688 30.0349C200.768 29.1171 200.915 28.186 200.768 27.2682C200.715 26.6696 200.462 26.0179 200.768 25.4459C201.034 24.7542 201.992 24.568 202.218 25.3927C204.36 24.2488 202.364 29.4097 202.218 30.1945C202.218 30.1812 202.231 30.1679 202.231 30.1413C201.979 30.6334 201.766 34.6637 200.888 33.7327C200.875 33.8391 200.848 33.9455 200.835 34.0519C200.981 34.1982 200.848 34.4775 200.635 34.4775C200.648 34.4775 200.648 34.4775 200.648 34.4775H200.635ZM201.3 31.1788C201.207 31.7508 201.127 32.3227 201.034 32.8814C201.393 30.5669 202.378 28.319 202.564 25.9913C202.138 26.6031 201.646 26.4568 201.513 25.7518C201.447 25.8716 201.486 26.0179 201.5 26.1509C201.5 26.1243 201.486 26.111 201.486 26.0844C201.646 27.0155 201.752 27.9599 201.619 28.9043C201.619 28.8777 201.619 28.8644 201.619 28.8378C201.553 29.6358 201.433 30.4073 201.3 31.1788Z" fill="#4FAA89"/>
<path d="M186.961 32.6685C186.948 32.6685 186.948 32.6685 186.935 32.6818C186.549 32.7084 185.738 33.1207 185.604 32.5754C185.644 31.897 186.709 32.2162 187.147 31.8837C187.799 31.631 188.451 31.3516 189.103 31.0989C189.382 30.9393 189.768 30.9659 189.848 31.325C189.888 32.4024 187.733 32.3359 186.961 32.6685Z" fill="#4FAA89"/>
<path d="M189.794 24.5813C188.743 24.3019 187.706 23.9827 186.628 23.8497C186.549 23.9295 186.389 23.8763 186.376 23.7566C186.322 23.0516 189.581 23.4374 190.1 23.5837C190.699 23.7566 190.366 24.7276 189.794 24.5813Z" fill="#4FAA89"/>
<path d="M194.622 16.9329C193.771 16.0816 193.053 15.0973 192.162 14.2859C192.042 15.3633 191.111 13.5011 191.909 13.5543C193.212 14.0731 194.29 15.1372 195.314 16.0683C195.753 16.5072 195.128 17.3585 194.622 16.9329Z" fill="#4FAA89"/>
<path d="M208.988 11.5992C208.869 12.2776 208.456 12.8629 208.323 13.5412C208.243 13.8871 208.243 14.4989 207.751 14.4723C206.847 14.0201 208.203 12.6767 208.403 12.0515C208.563 11.852 208.483 11.4662 208.762 11.3864C208.882 11.3598 208.988 11.4662 208.988 11.5992Z" fill="#4FAA89"/>
<path d="M216.583 20.511C215.798 20.3912 212.287 22.0539 212.367 21.1095C212.34 20.4711 213.165 20.4844 213.604 20.2848C214.615 20.0055 215.559 19.4735 216.596 19.3005C217.315 19.3005 217.222 20.4312 216.583 20.511Z" fill="#4FAA89"/>
<path d="M216.943 30.1014C216.81 30.4074 216.451 30.6069 216.131 30.4739C214.841 29.8354 213.178 29.8221 212.035 28.9974C211.888 28.1594 212.726 28.5053 213.178 28.6649C214.11 29.1304 217.382 28.4787 216.943 30.1014Z" fill="#4FAA89"/>
<path d="M211.821 35.7943C211.555 35.2888 209.201 33.7458 210.118 33.3601C210.797 33.8922 211.648 34.4242 212.406 34.9696C212.898 35.3154 212.313 36.2199 211.821 35.7943Z" fill="#4FAA89"/>
<path d="M202.112 34.5971C201.633 33.9719 201.141 34.5971 201.008 35.1558C200.981 35.2489 200.981 35.3287 200.981 35.4085C200.981 35.3952 200.994 35.3819 200.994 35.3686C200.994 35.3952 200.981 35.4218 200.981 35.4484C200.715 36.1933 200.688 37.4968 199.784 37.6963C199.252 37.3638 199.744 35.7543 199.771 35.0094C199.771 34.9695 199.771 34.9296 199.771 34.8897C200.023 34.7168 199.85 34.2114 199.544 34.2513C199.358 34.3577 199.172 34.6503 198.999 35.0493C198.467 36.2598 198.121 38.4013 198.946 38.7604C201.048 39.7181 202.072 36.4992 202.125 34.8365C202.112 34.7567 202.112 34.6769 202.112 34.5971ZM199.784 37.7229C199.784 37.7096 199.784 37.7229 199.784 37.7229C199.811 37.7229 199.811 37.7229 199.824 37.7229H199.784Z" fill="#0E1412"/>
<path d="M65.6527 46.7013C65.5862 47.2334 65.3468 47.8453 65.3468 48.231C65.3468 48.2044 65.3601 48.1911 65.3601 48.1645C65.1739 49.4414 64.296 50.7583 62.8461 50.3858C61.3963 50.306 61.3298 48.6832 61.6224 47.5925C61.7554 47.1802 61.7687 46.688 61.9283 46.2757C61.9815 46.1427 62.048 46.023 62.1279 45.9166C62.5269 45.6638 62.5535 46.2491 62.6067 46.5018C62.6067 46.5018 62.6067 46.5018 62.6067 46.5151C62.6067 46.5151 62.6067 46.5151 62.62 46.5151C62.7796 46.6348 62.6865 46.9408 62.487 46.9541C62.487 47.0339 62.487 47.1004 62.487 47.1802C62.487 47.2201 62.487 47.2467 62.487 47.2866C62.4604 48.4039 62.4205 49.7074 63.9368 49.0956C64.4157 48.5369 64.2827 47.4329 64.429 46.6348C64.5088 46.1693 64.6817 45.8102 65.1207 45.717C65.6394 45.7968 65.7059 46.2092 65.6527 46.7013Z" fill="#0E1412"/>
<path d="M146.06 25.4989V25.4856C145.9 20.8435 143.413 15.6826 138.944 13.847C135.486 12.6764 131.455 13.9933 129.54 17.1457C129.088 13.2617 126.547 9.39102 122.424 8.88556C116.797 8.04758 109.162 10.9739 108.431 17.2787C105.424 13.7273 99.399 17.8374 98.4014 21.4686C98.4147 21.442 98.428 21.4021 98.4413 21.3755C96.8185 25.9512 99.6916 30.9525 103.775 33.094C103.882 33.1605 104.001 33.2137 104.108 33.2802C104.121 33.2935 104.148 33.3068 104.161 33.3068C110.12 36.5524 117.236 36.6322 123.86 36.9115C131.947 37.111 146.326 36.4725 146.06 25.4989ZM128.25 35.5015C119.444 35.435 100.503 35.9538 99.2926 24.2619C99.2926 24.2885 99.2926 24.3284 99.2926 24.355C99.1596 21.6948 100.49 18.8483 103.07 17.8374C105.89 16.6402 107.007 16.9728 108.67 19.5266C108.75 19.7661 108.776 20.0986 109.003 20.2582C109.189 20.3247 109.255 20.0454 109.189 19.9257C109.189 19.8725 109.189 19.8193 109.189 19.7661C109.189 19.6863 109.189 19.6197 109.189 19.5399C109.721 19.2739 109.654 18.6221 109.282 18.2497C110 12.0646 117.502 9.1915 123.009 10.3886C127.013 11.2798 128.117 15.4697 128.755 18.9813C129.021 19.8858 129.926 19.367 130.072 18.6754C131.415 15.6826 134.967 14.246 138.079 15.0042C142.455 16.4274 144.677 21.5883 144.77 25.9113C144.956 33.932 134.421 35.3552 128.25 35.5015Z" fill="#0E1412"/>
<path d="M93.0007 21.1363C92.6416 21.9477 92.5352 22.8921 92.6283 23.77C92.7081 24.2488 91.9233 24.4883 91.8701 23.9429C91.9366 23.0783 92.0962 21.0166 92.9608 20.6575C93.2136 20.6974 93.2003 21.0565 93.0007 21.1363Z" fill="#0E1412"/>
<path d="M89.7815 25.2996C89.05 24.5548 89.0234 23.1581 89.2096 22.1472C89.3692 21.7615 89.3825 20.2983 89.9677 20.4978C90.021 21.2028 89.5953 22.0142 89.6884 22.7724C89.4756 23.5306 91.0452 25.2464 89.7815 25.2996Z" fill="#0E1412"/>
<path d="M149.691 29.9418C149.491 30.5404 148.347 32.8415 147.589 32.1897C147.137 31.405 148.946 30.7266 149.158 29.8753C149.424 29.463 149.424 28.9176 149.677 28.5186C150.116 28.3989 149.73 29.6891 149.691 29.9418Z" fill="#0E1412"/>
<path d="M151.553 33.2006C150.675 32.4291 153.069 30.8862 153.149 29.7822C153.149 29.7955 153.135 29.8088 153.135 29.8221C153.242 29.5294 153.295 29.2102 153.362 28.9043C153.441 28.8511 153.508 28.8245 153.548 28.8245C154.266 28.8378 152.457 34.1184 151.553 33.2006Z" fill="#0E1412"/>
<path d="M47.1505 61.9847C46.1529 62.6763 45.3947 63.6739 44.8361 64.738C44.7962 64.911 44.6099 65.044 44.437 64.9775C43.8784 64.1528 45.9534 61.5457 46.7248 61.0403C47.35 60.6678 47.7091 61.6787 47.1505 61.9847Z" fill="#0E1412"/>
<path d="M46.0067 59.005C44.8362 59.3642 43.7189 60.0292 43.0937 61.1067C43.0804 61.5323 42.4287 61.5722 42.4686 61.1067C42.9607 59.6435 44.3574 58.5395 45.7806 58.0473C46.4457 57.7946 46.6053 58.8454 46.0067 59.005Z" fill="#0E1412"/>
<path d="M192.056 45.7437C191.99 45.9299 191.697 46.0097 191.604 45.7969C191.218 46.0097 190.886 46.329 190.593 46.6615C190.008 47.0738 189.835 48.404 189.09 48.3375C187.467 47.7256 192.428 43.7485 192.056 45.7437Z" fill="#0E1412"/>
<path d="M189.036 43.855C188.331 44.1742 187.839 44.8792 187.4 45.491C187.414 45.4777 187.414 45.4644 187.427 45.4511C187.041 45.8236 186.988 46.7813 186.336 46.7281C185.192 46.2492 188.411 43.1633 189.13 43.2298C189.568 43.2431 189.422 43.9082 189.036 43.855Z" fill="#0E1412"/>
<path d="M239.515 135.541C239.222 135.621 238.916 135.687 238.61 135.741C236.668 136.073 234.553 135.834 232.598 136.02C219.869 136.219 207.139 136.658 194.423 137.323C182.705 137.816 170.973 138.188 159.308 139.332C141.271 141.407 123.088 141.154 104.985 142.032C104.972 142.032 104.958 142.032 104.958 142.032C104.573 142.072 104.174 142.112 103.775 142.138C97.8955 142.644 91.9764 142.498 86.1238 143.203C77.9168 144.307 69.6168 144.24 61.37 144.772C61.3966 144.772 61.4232 144.772 61.4498 144.759C60.4389 144.839 59.4147 144.905 58.4038 144.972C58.4171 144.972 58.4304 144.972 58.4437 144.972C56.249 145.145 54.0675 145.344 51.8728 145.557C49.8111 145.756 47.7627 145.956 45.7143 146.142C43.7989 146.315 41.8835 146.488 39.9548 146.621C39.7686 146.634 39.5957 146.648 39.4095 146.661C38.372 146.741 37.3478 146.794 36.3102 146.847C29.1807 146.674 22.0778 147.539 14.9483 147.619C14.7089 147.619 14.4694 147.619 14.23 147.619C14.2167 147.619 14.2167 147.619 14.2034 147.619C13.4851 147.685 12.7536 147.752 12.0353 147.818C8.43064 148.177 4.83927 148.669 1.24791 149.135C1.07499 149.162 0.888774 149.188 0.715857 149.201C0.64935 149.215 0.582843 149.215 0.516336 149.228C0.423227 149.241 0.330118 149.255 0.237008 149.268C-0.0556214 149.135 0.25031 148.975 0.862171 148.789C0.955281 148.763 1.04839 148.736 1.1415 148.709C2.83077 148.257 6.063 147.765 6.35563 147.659C11.6097 146.648 16.9169 146.382 22.2507 146.235C27.5846 145.637 32.9317 145.597 38.2921 145.49C38.5582 145.464 38.8242 145.437 39.0902 145.411C39.4627 145.371 39.8351 145.331 40.1942 145.291C43.8654 144.918 47.5366 144.559 51.2211 144.24C59.8802 143.482 68.5527 142.883 77.2385 142.577C81.0693 142.338 84.8734 141.872 88.6909 141.447C93.8652 141.154 99.0527 140.941 104.227 140.609C105.584 140.529 106.94 140.423 108.297 140.316C116.424 140.09 124.565 139.944 132.692 139.598C134.953 139.505 137.228 139.385 139.489 139.265C148.427 139.119 157.286 137.935 166.185 137.137C168.047 137.031 169.896 136.924 171.758 136.818C176.733 136.539 181.707 136.286 186.682 136.046C195.408 135.634 204.12 135.288 212.846 134.996C221.146 134.716 229.446 134.477 237.746 134.277C238.065 134.304 238.411 134.224 238.743 134.198C239.049 134.171 239.342 134.198 239.595 134.37C239.914 134.703 239.834 135.248 239.515 135.541Z" fill="#0E1412"/>
<path d="M155.171 174.873C155.078 174.94 154.972 174.966 154.839 174.966C146.406 174.487 138.239 171.987 130.165 169.646C120.176 166.108 109.92 162.822 99.226 162.636C93.5065 162.383 87.747 162.277 82.054 162.942C82.0806 162.942 82.1072 162.942 82.1338 162.929C77.1591 163.461 72.1711 164.112 67.3161 165.363C67.3028 165.363 67.2762 165.376 67.2629 165.376C53.0837 168.555 38.9577 174.847 24.1799 172.678C15.5872 171.84 6.24965 168.249 2.20604 160.109C1.20844 157.581 0.862606 154.855 0.729593 152.141C0.689689 151.423 0.676387 150.705 0.663086 150C0.689689 149.813 0.676387 149.494 0.716291 149.202C0.716291 149.162 0.729593 149.122 0.742894 149.082C0.769497 148.962 0.809401 148.856 0.862606 148.789C0.929113 148.709 1.02222 148.683 1.14193 148.709C1.15524 148.709 1.16854 148.709 1.18184 148.723C1.19514 148.763 1.19514 148.803 1.20844 148.842C1.22174 148.936 1.24835 149.042 1.26165 149.135C1.28825 149.361 1.31485 149.587 1.32815 149.813C1.39466 150.518 1.42126 151.237 1.58088 151.928C1.58088 151.902 1.58088 151.888 1.56758 151.862C1.7538 152.979 1.94001 154.11 2.11293 155.227C2.44547 157.169 2.93762 159.151 4.01502 160.814C4.01502 160.814 4.01502 160.827 4.02833 160.827C8.7104 168.01 17.3297 170.949 25.5366 171.601C39.1838 173.357 52.2191 167.518 65.2943 164.565C78.0104 161.159 91.325 160.574 104.4 161.665C115.6 162.516 125.909 167.291 136.656 170.138C140.354 171.042 144.012 172.2 147.776 172.772C150.117 173.237 152.485 173.57 154.879 173.676C155.198 173.649 155.398 173.849 155.451 174.088C155.504 174.381 155.411 174.714 155.171 174.873Z" fill="#0E1412"/>
<path d="M236.349 147.339C232.545 150.691 227.504 151.915 222.675 152.993C219.204 153.764 215.705 154.323 212.154 154.642C206.807 155.387 201.273 155.693 196.192 157.648C191.031 159.603 186.669 163.062 182.133 166.108C177.983 168.928 173.633 171.468 168.951 173.29C166.291 174.341 163.458 174.873 160.638 175.206C159.999 175.272 159.361 175.286 158.722 175.232C158.403 175.192 156.554 175.099 155.171 174.887C153.947 174.7 153.083 174.408 153.961 173.969C154.453 174.035 154.945 174.075 155.437 174.115C161.835 174.581 168.206 172.878 173.766 169.659C181.88 165.682 188.411 158.845 197.07 155.932C202.058 154.309 207.379 153.99 212.553 153.298C216.69 152.926 220.773 152.141 224.804 151.184C228.688 150.213 232.638 149.029 235.657 146.275C238.291 143.588 240.286 139.758 239.262 135.94C239.049 135.887 238.81 135.82 238.597 135.727C238.225 135.554 237.945 135.288 238.105 134.783C238.211 134.424 238.451 134.264 238.743 134.211C238.876 134.184 239.023 134.198 239.169 134.224C239.196 134.224 239.209 134.238 239.235 134.238C239.608 134.304 239.98 134.49 240.233 134.677C242.321 139.039 239.502 144.214 236.349 147.339Z" fill="#0E1412"/>
<path d="M51.4606 145.225C51.0616 145.557 49.9842 145.544 49.5452 145.637C48.2683 145.823 46.9914 145.996 45.7145 146.156C39.9284 146.861 34.1157 147.233 28.303 147.566C28.303 147.566 28.3163 147.566 28.3296 147.566C28.303 147.566 28.2764 147.566 28.2631 147.579H28.2764C26.2945 147.792 24.2993 148.018 22.3174 148.231C22.3041 148.231 22.3041 148.231 22.2908 148.231H22.3041C22.2642 148.231 22.211 148.244 22.1711 148.244C22.1179 148.244 22.0647 148.257 22.0115 148.257C15.9327 149.055 9.81413 149.255 3.69551 149.534C2.92404 149.654 2.09935 149.614 1.34118 149.84C1.24807 149.867 1.15496 149.893 1.07515 149.933C1.34118 150.878 1.20816 151.849 1.34118 152.806C2.12596 152.766 1.06185 153.831 0.87563 152.833C0.862328 152.647 0.822424 152.421 0.769219 152.181C0.529795 151.17 0.0243439 149.827 0.449987 149.348C0.489891 149.321 0.516494 149.295 0.556398 149.268C0.622904 149.215 0.702712 149.162 0.769219 149.122C0.915534 149.029 1.07515 148.949 1.23477 148.882C2.69791 148.244 4.63991 148.39 6.15626 148.124C8.12486 148.084 10.0935 147.991 12.0621 147.872C13.0331 147.805 14.0041 147.739 14.9751 147.659C17.5821 147.446 20.1892 147.193 22.7962 146.927C23.049 146.901 23.2884 146.874 23.5411 146.847C23.6209 146.834 23.6874 146.834 23.7672 146.821C24.8713 146.714 25.962 146.608 27.066 146.501C31.083 146.129 35.1266 146.063 39.1569 145.823C39.5027 145.797 39.8486 145.783 40.1944 145.757C40.1678 145.757 40.1545 145.757 40.1279 145.77C40.1678 145.77 40.221 145.757 40.2609 145.757C41.2186 145.663 42.163 145.517 43.1207 145.424C43.1074 145.424 43.1074 145.424 43.0941 145.424C44.4375 145.291 45.7544 145.012 47.0978 144.892C48.4944 144.852 49.9177 144.413 51.2877 144.466C51.3409 144.466 51.3941 144.466 51.4473 144.48C51.6868 144.826 51.6469 145.065 51.4606 145.225Z" fill="#0E1412"/>
<path d="M71.2923 78.4518C70.5873 78.6247 68.4724 76.9487 69.1375 76.3369C69.2705 76.2438 69.4567 76.2837 69.5365 76.4433C69.9222 76.9753 70.3479 77.7335 71.0928 77.7734C70.8001 76.2305 70.441 74.6742 70.4543 73.0914C70.4543 73.1047 70.4543 73.118 70.4543 73.1313C70.5075 72.7588 70.3346 71.6947 70.9597 71.8543C71.0928 71.9208 71.0928 72.1071 71.0263 72.2268C71.013 72.6524 71.0396 73.0914 71.0662 73.517C70.9597 74.3417 72.4894 78.638 71.2923 78.4518Z" fill="#0E1412"/>
<path d="M67.7279 82.1893C67.2757 82.1228 66.8633 79.569 67.5151 79.9547C68.127 81.471 67.954 82.2159 69.3507 80.5666C69.4438 80.4601 69.6167 80.4335 69.7098 80.54C69.9758 81.072 68.3132 82.6549 67.7279 82.1893Z" fill="#0E1412"/>
<path d="M64.6951 73.4637C63.5645 73.6898 61.862 70.2182 62.8729 70.6305C63.6842 72.4262 65.7725 73.5568 67.1426 71.6148C67.249 71.4685 67.4618 71.3754 67.6214 71.5084C68.2067 72.4528 65.5464 73.7829 64.6951 73.4637Z" fill="#0E1412"/>
<path d="M62.5404 73.8626C62.4473 73.3439 63.2853 73.171 63.4316 72.6655C63.5247 72.5325 63.4715 72.3463 63.6178 72.2399C63.7375 72.1334 63.937 72.2133 63.9503 72.3729C63.9503 72.3862 63.9503 72.3862 63.9503 72.3995C63.9503 72.4128 63.9503 72.4128 63.9503 72.4261C63.9902 72.9049 63.0592 74.3282 62.5404 73.8626Z" fill="#0E1412"/>
<path d="M63.432 74.3682C63.2058 73.916 63.9108 73.7564 64.0837 73.4238C64.2434 73.2376 64.2966 72.9982 64.4163 72.7854C64.6158 72.5592 64.9084 72.8386 64.7621 73.0647C64.5892 73.5701 64.0571 74.714 63.432 74.3682Z" fill="#0E1412"/>
<path d="M64.5094 74.9533C64.0571 74.408 65.0015 73.9424 65.1345 73.437C65.2941 73.1843 65.1345 72.7985 65.4272 72.6389L65.4139 72.6522C66.5312 72.3064 65.1478 75.4721 64.5094 74.9533Z" fill="#0E1412"/>
<path d="M70.1624 70.0452C69.0717 67.4381 65.6266 67.3317 63.2191 67.7573C63.1792 67.8372 63.0595 67.7972 62.993 67.7706C62.82 67.3716 63.8575 67.2519 64.1236 67.0657C65.4803 66.6533 66.9301 66.813 68.247 67.2785C69.7633 67.3716 71.6255 70.6038 70.1624 70.0452Z" fill="#0E1412"/>
<path d="M74.5516 79.5159C74.2324 80.9125 73.7801 82.2692 73.2747 83.6127C73.288 83.5861 73.288 83.5728 73.3013 83.5462C72.5697 85.8872 70.4016 86.3394 68.3266 85.967C67.4886 85.8207 66.6639 85.5281 65.9589 85.1689C65.9456 86.2729 65.9722 87.3636 66.0122 88.4677C66.0122 88.4943 66.0122 88.5342 66.0122 88.5608C66.0255 88.8135 66.0255 89.0529 66.0388 89.3056C66.0388 89.3189 66.0388 89.3455 66.0388 89.3588C66.0388 89.9042 65.2141 90.1569 65.0944 89.5185C64.9879 87.9223 65.0146 86.3128 65.0811 84.7034C65.1343 83.5595 66.2516 84.2112 66.89 84.5039C67.9807 84.9428 69.1513 85.3019 70.3351 85.1689C72.5431 85.1024 73.2481 81.6441 73.7003 78.7311C73.7934 78.0926 73.8865 77.4807 73.9797 76.9354C74.0728 76.39 74.1659 75.9112 74.2723 75.5387C74.1925 75.5654 74.0994 75.5787 74.0196 75.592C74.2856 76.9088 73.1417 76.829 73.6471 75.5787C73.3811 75.5254 73.1284 75.3924 72.9156 75.2328C72.9422 75.5121 73.1816 76.5497 72.6229 76.2038C72.5298 75.8447 72.7825 75.4456 72.7293 75.0599C72.3436 74.6609 72.051 74.182 71.9312 73.6367C71.7849 73.5968 71.6253 72.7721 71.8514 72.7721C72.5697 73.3706 73.2215 75.1929 74.4585 74.5678C74.6713 73.344 74.9107 72.1203 75.0305 70.87C74.4718 70.7769 73.8865 70.6572 73.3279 70.7503C73.0619 70.7769 72.6495 71.0828 72.5032 70.7237C71.9179 70.5773 73.0885 69.9921 73.3013 69.9389C73.8732 69.6995 74.525 69.6197 75.1236 69.7793C75.6955 66.7732 75.2699 63.4212 72.849 61.732C72.3037 61.3462 71.6519 61.0536 70.8804 60.8541C70.8804 60.8541 70.8804 60.8541 70.8671 60.8541C70.8272 60.8408 70.7873 60.8408 70.7607 60.8275C70.5612 60.9605 70.3218 60.7743 70.3351 60.5481C65.0811 58.952 59.6674 63.0355 58.1378 68.0102C58.2043 68.0501 58.2575 68.09 58.324 68.1299C63.5381 71.6681 60.6916 80.2341 55.0252 80.0612C54.2937 80.0346 53.5222 79.875 52.7108 79.5292C46.9513 76.8822 49.2525 66.9195 55.7701 67.4515C56.2091 64.1528 58.2176 61.1334 60.9576 59.2579C62.4607 58.2736 64.4027 57.6351 66.2915 57.5686C68.5926 57.4888 70.8139 58.247 72.1042 60.3087C72.1308 60.3619 72.1707 60.4151 72.1973 60.4683C72.45 60.5614 72.6894 60.6546 72.9156 60.761C77.2784 62.7695 76.9326 67.6245 76.1877 71.8277C79.114 73.4504 77.571 78.9705 74.5516 79.5159Z" fill="#0E1412"/>
<path d="M78.8082 96.7809C78.8481 106.651 77.3318 116.4 75.6026 126.097C75.5893 126.19 75.576 126.27 75.5494 126.363C75.5494 126.337 75.5627 126.31 75.5627 126.283C75.31 126.988 75.5893 128.704 74.7646 128.917C74.3789 128.904 74.3523 128.358 74.4454 127.707C74.5385 126.962 74.7779 126.084 74.7513 125.765C75.2435 122.772 75.6159 119.766 76.148 116.773C76.9594 109.311 77.9836 101.756 77.3052 94.2537C77.5845 88.2548 71.5058 90.4761 67.3558 89.7312C67.0499 89.678 66.7705 89.6115 66.4912 89.5184C66.3316 89.4652 66.1853 89.412 66.039 89.3455C65.7995 89.2391 65.5601 89.1061 65.3473 88.9597C65.334 88.9065 65.334 88.8533 65.334 88.8134C65.334 88.5341 65.5468 88.4543 65.8394 88.4543C65.8926 88.4543 65.9458 88.4543 66.0123 88.4676C66.4247 88.5075 66.9035 88.6405 67.143 88.6405C67.2893 88.6405 67.4356 88.6538 67.5819 88.6538C68.4997 88.6538 69.4175 88.574 70.3353 88.5474C77.6776 87.9355 78.5289 89.9174 78.8082 96.7809Z" fill="#0E1412"/>
<path d="M116.451 109.537C116.504 109.085 116.611 108.353 115.999 108.26C114.748 108.1 113.485 108.22 112.221 108.127C104.959 107.409 97.1641 108.047 89.7552 108.38C89.6222 108.393 89.4759 108.406 89.3429 108.406C89.3296 108.406 89.303 108.406 89.2897 108.406C87.9728 108.459 86.6693 108.699 85.3525 108.832C85.1929 108.06 84.4613 109.231 84.3815 109.51C83.0381 112.623 81.9207 115.908 80.9231 119.234C80.6704 120.085 80.4177 120.936 80.1783 121.787C79.6994 123.49 79.2339 125.193 78.7683 126.869C77.8106 130.181 76.7864 133.493 75.8686 136.818C75.7223 137.337 75.5893 137.869 75.4563 138.387C75.2967 138.999 75.1504 139.611 74.9907 140.223C72.7428 140.316 70.4816 140.462 68.2337 140.662C67.9144 140.689 67.6085 140.715 67.2893 140.742C63.8442 141.061 60.4125 141.473 56.994 141.952C55.185 142.245 53.3095 142.258 51.5272 142.524C51.2877 142.697 51.1547 143.548 51.2079 144.293C51.2079 144.36 51.2212 144.413 51.2212 144.466C51.2611 144.772 51.3143 145.051 51.4208 145.238C51.5139 145.397 51.6203 145.49 51.7666 145.477C51.7799 145.517 51.8065 145.544 51.8331 145.57C51.9129 145.65 52.006 145.703 52.1257 145.703C62.4476 145.118 72.7561 144.267 83.0913 143.801H83.1179C83.8095 143.788 84.4879 143.775 85.1796 143.748C85.3791 143.748 85.5786 143.735 85.7781 143.735C91.4578 143.349 97.1907 143.375 102.817 142.511C103.017 142.75 103.402 142.657 103.549 142.391C103.629 142.484 103.775 142.391 103.868 142.378C104.054 142.298 103.908 142.099 103.748 142.205C103.748 142.178 103.735 142.165 103.735 142.138C103.722 142.112 103.695 142.085 103.682 142.059C103.855 141.58 104.028 141.101 104.214 140.635C104.44 140.063 104.666 139.505 104.905 138.933C107.898 131.71 111.077 124.554 113.831 117.238C114.443 115.403 115.241 113.647 115.946 111.851C116.118 111.133 116.837 110.242 116.451 109.537Z" fill="#0E1412"/>
<path d="M68.287 129.25C68.2471 126.509 68.859 123.596 69.2713 120.83C69.3245 119.939 69.9364 119.393 70.5748 118.861C73.8071 115.922 73.4479 112.37 72.2907 108.553C71.9183 108.007 71.5857 102.341 72.8361 103.591C72.8361 103.591 72.8361 103.591 72.8361 103.578C72.9425 110.761 77.5847 114.392 70.4551 120.537C70.0561 122.719 69.8034 124.913 69.4176 127.095C69.2314 127.72 69.3644 129.941 68.287 129.25Z" fill="#0E1412"/>
<path d="M69.869 133.187C70.4543 134.051 70.308 136.1 68.8714 135.315C69.0443 136.406 68.7384 137.071 68.1664 137.031C67.8871 137.017 67.5546 136.845 67.1688 136.472C67.1156 136.419 67.0624 136.379 67.0092 136.313C67.089 136.911 67.2088 138.401 66.2511 138.201C65.5062 137.935 65.147 137.124 64.3756 136.858C62.4203 136.073 60.1989 136.618 58.217 137.097C58.2436 137.097 58.257 137.084 58.2836 137.084C56.1553 137.616 54.0271 138.108 51.8989 138.667H51.9122C48.0016 139.797 44.1176 141.061 40.2336 142.298C39.9011 142.405 39.5686 142.511 39.2227 142.617C39.1961 142.631 39.1695 142.631 39.1429 142.644C36.0304 143.562 32.8913 145.451 29.5526 144.839C23.1813 142.963 25.8815 133.745 26.2805 128.877C26.3071 128.624 26.3337 128.372 26.3736 128.132C26.8791 123.796 27.3978 119.46 28.3422 115.19C28.3821 115.004 28.422 114.818 28.4619 114.631C28.4619 114.618 28.4619 114.605 28.4752 114.591C28.4752 114.565 28.4885 114.538 28.4885 114.512C29.4329 109.896 30.5369 105.32 31.7208 100.758C32.8248 97.1667 33.5297 92.9236 36.8418 90.649C37.1344 90.25 40.3666 89.5051 39.2626 90.4229C36.9349 90.6756 35.5383 92.9102 34.7136 94.9055C34.3278 95.9563 33.9953 97.0204 33.6761 98.0978C32.5721 101.889 31.8139 105.786 30.8296 109.603C30.3374 111.718 29.8586 113.847 29.4329 115.975C28.8078 119.087 28.2624 122.226 27.89 125.379C27.8235 125.964 27.757 126.549 27.7038 127.148C27.3712 131.617 24.272 141.207 29.1935 143.748C29.2068 143.748 29.2201 143.761 29.2334 143.761H29.2201C29.2467 143.775 29.2866 143.788 29.3132 143.788C29.3132 143.788 29.3132 143.788 29.2999 143.788C30.497 144.174 31.774 144.027 32.9578 143.681C32.9711 143.681 32.9711 143.681 32.9844 143.681C39.8346 141.527 46.5518 138.933 53.5084 137.124C53.8941 137.018 54.2798 136.911 54.6656 136.818C55.0247 136.725 55.3972 136.645 55.7563 136.552C56.4347 136.392 57.113 136.233 57.7914 136.06C60.6246 135.288 64.4288 134.583 66.3575 137.39C66.3974 137.137 66.3442 136.884 66.291 136.632C66.3442 135.927 65.1204 134.77 66.1845 134.424C66.9959 134.69 67.3285 135.754 68.1265 136.113C68.233 135.155 67.5147 134.45 67.395 133.572C67.9802 132.176 68.7916 134.277 69.4301 134.583C69.4301 134.543 69.4301 134.504 69.4168 134.464C69.2173 133.692 68.7384 133.067 68.3128 132.402C67.9403 131.617 68.8315 131.258 69.3503 131.843C67.1422 127.707 61.3562 128.425 57.0465 128.997C56.6874 129.05 56.3283 129.09 55.9957 129.13C55.8095 129.156 55.6233 129.183 55.4504 129.196C50.5289 130.021 45.6074 130.965 40.7391 132.096C40.0075 132.296 39.3025 132.548 38.571 132.774C38.3847 132.828 38.2384 132.801 38.132 132.734C37.7729 132.495 37.7729 131.777 38.265 131.577C38.3315 131.551 38.3847 131.537 38.4512 131.511C38.6907 131.431 38.9434 131.364 39.1828 131.285C39.3424 131.231 39.4888 131.192 39.6484 131.125C39.8479 131.072 40.0474 131.019 40.2469 130.965C44.9423 129.715 49.7441 128.864 54.5326 128.039C58.7757 127.414 63.4578 126.483 67.528 128.292C67.7408 128.318 67.9935 128.465 68.2729 128.678C68.4724 128.837 68.6852 129.037 68.898 129.263C70.1616 130.606 71.3322 132.881 69.869 133.187Z" fill="#0E1412"/>
<path d="M37.7862 132.734C36.5093 132.828 36.8684 131.497 36.9749 130.673C37.201 127.853 37.8927 125.086 38.438 122.306C39.2095 118.529 40.114 114.751 41.3377 111.093C41.484 110.694 42.3353 107.808 42.7609 108.393C41.4707 116.108 38.8104 123.65 37.9991 131.484C39.2627 131.324 38.877 133 37.7862 132.734Z" fill="#0E1412"/>
<path d="M35.3257 132.668C34.8202 132.535 33.3438 132.947 33.6896 132.03C34.1286 131.471 34.9 132.136 35.4853 132.043C35.8976 132.109 35.7114 132.761 35.3257 132.668Z" fill="#0E1412"/>
<path d="M33.8898 135.448C33.4641 134.982 34.9938 134.025 35.2598 133.586C36.0978 133.453 34.7543 134.543 34.6346 134.769C34.3819 134.956 34.2755 135.594 33.8898 135.448Z" fill="#0E1412"/>
<path d="M73.674 104.336C73.2616 103.977 73.8868 103.538 74.0863 103.232C74.3523 103.006 74.4587 102.567 74.7647 102.421C75.4696 102.341 74.0065 104.735 73.674 104.336Z" fill="#0E1412"/>
<path d="M74.4581 105.241C74.1522 104.948 74.4448 104.562 74.6976 104.349C74.6843 104.363 74.6843 104.363 74.671 104.376C74.6843 104.363 74.6976 104.349 74.7109 104.336C74.9769 104.11 75.2429 103.831 75.5622 103.671C75.9745 103.551 76.0809 104.19 75.7218 104.336C75.2828 104.576 75.0567 105.6 74.4581 105.241Z" fill="#0E1412"/>
<path d="M82.5857 118.063C82.3728 118.409 82.16 118.741 81.9339 119.074C81.3885 119.992 80.8033 120.896 80.1914 121.774C78.4889 124.235 76.6134 126.589 75.0039 129.116C75.0172 129.103 75.0172 129.09 75.0305 129.063C74.6315 129.662 74.1792 131.098 73.2747 130.766C72.7161 130.5 73.4609 129.143 74.4452 127.707C74.8177 127.161 75.23 126.602 75.6158 126.084C76.334 125.113 76.9725 124.275 77.1454 123.942C78.3691 122.346 79.6062 120.737 80.9496 119.22C81.3486 118.768 81.7477 118.329 82.16 117.89C82.3329 117.637 82.7852 117.677 82.5857 118.063Z" fill="#0E1412"/>
<path d="M39.1698 131.218C38.957 127.52 39.5422 123.836 39.5023 120.138C39.489 119.819 39.8881 119.526 40.1541 119.766C40.46 120.324 40.1674 121.069 40.1807 121.694C40.5265 124.794 40.3536 127.933 40.2738 131.045C40.2206 131.617 39.3294 131.87 39.1698 131.218Z" fill="#0E1412"/>
<path d="M40.2342 145.73C40.2342 145.85 40.2476 145.956 40.2609 146.076C40.2742 146.315 40.1278 146.528 39.9549 146.635C39.782 146.741 39.5692 146.768 39.4096 146.674C39.3298 146.621 39.2499 146.541 39.1967 146.422C39.1701 146.222 39.1435 146.009 39.1302 145.797C39.1169 145.677 39.1169 145.557 39.1169 145.437C39.1036 144.839 39.1435 144.227 39.1568 143.628C39.21 143.322 39.1435 142.963 39.1701 142.644C39.1834 142.431 39.2366 142.218 39.3697 142.046C39.7022 141.673 40.1677 141.913 40.2475 142.298C40.2742 142.391 40.2742 142.498 40.2475 142.604C40.2475 142.591 40.2475 142.578 40.2475 142.564C40.2342 143.482 40.1943 144.4 40.2209 145.318C40.2209 145.464 40.2209 145.597 40.2342 145.73Z" fill="#0E1412"/>
<path d="M67.3956 140.981C67.103 140.157 67.3025 139.199 67.1429 138.334C67.1695 137.669 66.6906 135.887 67.901 136.246C68.4065 136.858 68.0341 137.882 68.2602 138.64C68.2336 139.305 68.6991 141.753 67.3956 140.981Z" fill="#0E1412"/>
<path d="M58.2573 102.58C57.2464 102.314 56.8474 101.091 56.2089 100.359C56.2222 100.386 56.2488 100.412 56.2621 100.425C54.932 98.2308 53.0565 96.4351 51.6865 94.267C51.6998 94.2936 51.7264 94.3202 51.7397 94.3468C50.8086 93.1762 50.0637 91.8993 49.6647 90.4495C49.545 89.8775 50.21 89.7578 50.4495 90.2633C52.7905 93.961 55.9296 97.1001 58.1642 100.891C58.1509 100.864 58.1376 100.838 58.111 100.825C58.2174 100.971 58.3239 101.13 58.4436 101.263C60.8777 98.55 63.2454 95.6636 64.9346 92.4048C65.3736 91.6466 65.7992 90.8751 66.2515 90.1169C66.3978 89.678 66.7436 88.7735 67.3156 89.2923C67.688 90.1302 66.2382 91.6599 65.9322 92.5378C64.3095 95.77 62.1014 98.6032 59.8402 101.41C59.4146 101.875 58.9623 102.58 58.2573 102.58Z" fill="#0E1412"/>
<path d="M49.7583 129.861C49.745 129.675 50.0243 129.635 50.0243 129.835C50.0509 130.008 49.7583 130.061 49.7583 129.861Z" fill="#0E1412"/>
<path d="M55.0521 137.629C53.7486 137.35 56.1162 129.875 56.0896 128.438C56.1561 128.186 56.3956 127.959 56.6749 127.986C57.6725 128.345 56.5951 130.247 56.6749 131.059C56.4621 132.588 56.196 134.091 55.9034 135.608C55.664 136.259 55.9566 137.55 55.0521 137.629Z" fill="#0E1412"/>
<path d="M70.8006 140.037C69.6301 139.971 68.6724 139.212 67.9275 138.361C67.9408 138.388 67.9408 138.428 67.9674 138.454C67.9674 138.454 67.9674 138.454 67.9674 138.441C68.1803 138.587 68.0207 138.973 67.7945 138.787C67.4221 138.388 67.4487 137.403 68.1936 137.776C71.5987 140.33 75.3896 137.563 77.8902 135.049C78.5553 134.025 79.4997 134.929 78.6085 135.674C76.4005 137.669 73.993 140.197 70.8006 140.037Z" fill="#0E1412"/>
<path d="M193.851 69.6063C193.279 69.7393 192.228 68.0367 193.066 68.0633C193.332 68.4357 193.425 69.1274 194.064 69.1008C194.623 69.1141 195.115 68.755 195.354 68.2628C196.498 67.7574 195.048 69.8457 193.851 69.6063Z" fill="#0E1412"/>
<path d="M193.745 65.4562C191.817 65.5626 191.271 64.0064 192.788 62.8625C193.173 62.5166 193.878 62.5033 194.078 62.0112C194.291 61.6387 193.998 60.4017 194.53 60.4416C194.61 60.4948 194.623 60.6012 194.597 60.681C194.53 61.3328 194.73 62.091 194.331 62.6629C193.001 63.5142 191.218 64.7113 194.091 64.8311C194.078 64.8311 194.065 64.8311 194.051 64.8311C194.317 64.871 194.743 64.6448 194.796 65.0306C194.823 65.5626 194.105 65.4296 193.745 65.4562Z" fill="#0E1412"/>
<path d="M200.303 61.5855C199.505 61.519 198.467 61.3993 198.121 60.5613C198.002 60.1623 197.762 59.5371 198.188 59.2445C199.784 58.1671 202.005 58.1139 203.801 58.6592C204.479 58.872 204.054 59.6967 203.721 60.0426C202.936 61.0535 201.593 61.6387 200.303 61.5855ZM200.755 60.947C201.872 60.8805 203.056 60.3219 203.588 59.2977C203.455 59.2711 203.309 59.2578 203.163 59.2312C203.149 59.2312 203.136 59.2312 203.123 59.2312H203.136C202.79 59.178 202.444 59.1647 202.085 59.1647H202.098C201.566 59.1647 201.021 59.1647 200.502 59.2312C200.516 59.2312 200.529 59.2312 200.556 59.2179C200.476 59.2312 200.383 59.2445 200.303 59.2578C200.316 59.2578 200.329 59.2578 200.356 59.2445C200.263 59.2578 200.17 59.2711 200.077 59.2844C200.077 59.2844 200.077 59.2844 200.09 59.2844C200.077 59.2844 200.063 59.2844 200.05 59.2844C200.037 59.2844 200.023 59.2844 200.01 59.2844C199.997 59.2844 199.984 59.2844 199.97 59.2844H199.984C199.757 59.3243 199.518 59.3642 199.292 59.4174C199.106 59.4706 198.919 59.5238 198.733 59.5903C198.72 59.6302 198.693 59.6568 198.667 59.6834C198.64 60.7874 199.944 60.8672 200.755 60.947Z" fill="#0E1412"/>
<path d="M200.569 61.1599C199.677 61.2663 199.159 60.0825 200.023 59.6435C200.635 59.2844 201.779 59.6436 201.646 60.4682C201.766 60.6678 201.579 60.9737 201.34 60.8939C201.127 61.0668 200.861 61.1865 200.569 61.1599Z" fill="#0E1412"/>
<path d="M198.467 57.1296C197.616 56.9168 198.068 55.8527 198.76 55.7596C199.97 55.5468 203.788 54.3896 204.333 55.8128C204.107 57.1696 199.611 57.409 198.467 57.1296Z" fill="#0E1412"/>
<path d="M213.085 51.0776C213.125 50.9312 213.165 50.7849 213.205 50.6253V50.612C213.205 50.5987 213.205 50.5987 213.205 50.5854C213.205 50.5588 213.218 50.5322 213.218 50.5056C213.284 50.1864 213.284 49.8538 213.258 49.5213C213.258 49.5346 213.258 49.5479 213.258 49.5612C213.231 46.861 210.717 47.3266 209.055 48.3774C209.72 44.3737 204.2 45.4245 202.404 47.2734C202.816 43.948 196.884 46.7147 195.913 48.0582C195.966 45.0654 192.973 46.9275 192.082 48.3774C190.646 50.1066 189.861 52.4476 189.98 54.6822C189.502 55.6399 189.329 56.7173 189.009 57.7415C188.61 57.9011 188.318 58.513 188.757 58.7923C187.985 62.0379 188.211 65.4563 188.544 68.7417C188.69 72.5193 189.023 72.8386 192.867 73.0115C192.8 73.7297 192.681 74.448 192.561 75.1796C192.401 76.1373 192.268 77.0817 192.295 78.0261C192.308 78.2522 192.322 78.4783 192.348 78.7044C192.893 79.0769 193.04 78.5049 193.093 77.9862C193.12 77.7734 193.12 77.5738 193.146 77.4408C193.279 76.3235 193.439 75.2062 193.598 74.0889C193.598 73.5036 194.117 72.0139 193.133 72.107C191.989 72.2134 190.459 72.2001 189.595 71.3754C189.302 69.4068 189.116 67.4249 189.076 65.4297C189.076 65.3898 189.076 65.3499 189.076 65.31C189.063 64.9908 189.063 64.6848 189.076 64.3656C189.076 64.1661 189.076 63.9666 189.089 63.767C189.103 63.1552 189.143 62.5433 189.182 61.9315C192.574 64.1262 196.339 58.0209 189.808 60.2954C189.635 60.4018 189.475 60.5215 189.315 60.6412C189.355 59.9895 189.648 59.3909 189.768 58.7524C190.26 58.6593 190.752 58.5662 191.231 58.4332C191.896 58.2736 193.532 57.7548 192.734 56.8769C191.909 56.6242 190.991 56.9302 190.18 57.1164C190.406 56.2119 190.619 55.2675 190.579 54.3231C194.796 53.6048 199.092 53.6846 203.335 53.1925C203.322 53.1925 203.308 53.1925 203.295 53.2058C204.399 53.0462 205.516 53.0462 206.634 53.0329C207.458 53.0595 208.31 53.1393 209.081 53.4452C209.307 54.7221 208.576 55.9991 208.456 57.276C208.456 57.3159 208.443 57.3425 208.443 57.3824V57.3691C208.443 57.3957 208.429 57.4223 208.429 57.4356C206.953 65.0972 207.498 60.4816 211.09 63.102C211.928 64.2858 210.238 64.8977 209.361 65.1637C208.722 66.015 208.962 67.2919 208.669 68.2895C208.257 70.8168 207.964 73.344 207.552 75.8713C207.525 75.991 207.538 76.0974 207.591 76.1639C207.738 76.3767 208.15 76.3501 208.23 76.0043C208.443 74.9535 208.549 73.8761 208.789 72.8253C208.828 72.6523 208.855 72.4927 208.882 72.3198C209.281 70.1916 209.547 68.0501 209.866 65.9086C209.972 65.8687 210.092 65.8287 210.199 65.7755C210.425 65.6824 210.651 65.576 210.864 65.4563L210.877 65.443H210.89C212.207 64.8045 212.446 62.9424 211.183 62.1177C211.795 60.8673 212.274 59.5505 212.832 58.2603C213.763 56.7705 216.849 50.6386 213.085 51.0776ZM189.635 60.9073C190.047 60.7077 190.486 60.6279 190.938 60.5747C191.563 60.4949 192.202 60.5481 192.827 60.6013C192.734 60.9472 192.375 61.16 192.069 61.293C191.949 60.7476 191.084 60.6678 190.699 60.9871C190.433 61.0004 190.207 61.2398 190.207 61.5058C189.954 61.3861 189.635 61.2797 189.488 61.0403C189.555 61.0536 189.635 60.9871 189.635 60.9073ZM189.808 60.3087C189.821 60.3087 189.821 60.3087 189.808 60.3087C189.821 60.3087 189.821 60.2954 189.834 60.2954C189.834 60.2954 189.821 60.2954 189.808 60.3087Z" fill="#0E1412"/>
<path d="M189.049 65.3232C188.65 65.2301 188.916 64.7512 189.023 64.5118C189.023 64.5251 189.009 64.5384 189.009 64.5517C189.129 64.2724 189.608 63.2349 189.794 63.9931C189.515 64.3123 189.462 65.2833 189.049 65.3232Z" fill="#0E1412"/>
<path d="M189.967 65.1637C189.342 65.1637 190.273 63.235 190.579 63.7138C190.686 63.9533 190.459 64.1927 190.406 64.4321C190.3 64.6848 190.353 65.1637 189.967 65.1637Z" fill="#0E1412"/>
<path d="M191.071 64.778C190.646 64.6183 191.151 64.0996 191.178 63.807V63.8203C191.164 63.6473 191.417 63.5675 191.417 63.767C191.337 64.0863 191.47 64.7114 191.071 64.778Z" fill="#0E1412"/>
<path d="M199.052 64.2725C198.441 64.166 199.518 62.6364 199.691 63.3015C199.611 63.5409 199.385 63.7005 199.345 63.9665C199.345 63.9532 199.358 63.9399 199.358 63.9266C199.318 64.0995 199.239 64.2991 199.052 64.2725Z" fill="#0E1412"/>
<path d="M199.851 64.1129C199.904 63.6739 200.263 63.3148 200.582 63.0222C201.048 62.8493 200.968 63.3946 200.702 63.5808C200.489 63.8203 200.489 64.3257 200.13 64.3922C199.97 64.4055 199.837 64.2725 199.851 64.1129Z" fill="#0E1412"/>
<path d="M201.021 64.1927C201.114 63.7671 201.353 63.1818 201.686 62.9158C202.298 63.0222 201.606 63.8602 201.579 64.2193C201.513 64.5518 201.007 64.5651 201.021 64.1927Z" fill="#0E1412"/>
<path d="M191.803 100.319C190.779 97.22 192.548 93.9611 193.745 91.1146C194.264 89.7712 193.944 88.215 194.57 86.9247C195.009 86.1665 195.98 86.539 196.179 87.2839C195.926 85.834 197.283 84.7566 197.815 86.5523C198.281 84.464 199.385 84.6369 199.465 86.7252C200.582 84.7433 201.925 85.7808 201.38 87.7095C200.608 89.8377 199.757 91.9526 199.691 94.2405C199.691 94.2139 199.691 94.1873 199.691 94.174C199.438 95.0252 200.223 96.4751 199.145 96.8741C197.935 96.9672 198.56 94.5198 198.48 93.7483C198.48 93.7749 198.48 93.8148 198.467 93.8414C198.613 92.3916 198.906 90.9151 199.518 89.585C199.917 88.5342 200.901 87.4967 200.688 86.3262C199.571 86.8715 199.731 88.6539 198.733 89.2658C197.456 89.2924 199.278 86.8449 198.666 85.7675C198.188 86.406 198.228 89.2392 197.23 89.0263C197.057 88.9199 197.057 88.7204 197.07 88.5475C197.123 87.8558 197.536 86.7651 196.911 86.2597H196.924C196.897 86.2597 196.884 86.273 196.857 86.273H196.871C196.871 86.273 196.857 86.2729 196.857 86.2863C196.618 87.0311 197.004 89.4254 195.886 89.4387C195.368 88.9465 195.926 87.9622 195.408 87.377C195.421 87.3903 195.421 87.4036 195.434 87.4169C195.394 87.377 195.354 87.3371 195.315 87.3105C195.315 87.3105 195.315 87.3105 195.328 87.3105C195.315 87.3105 195.315 87.2972 195.301 87.2972C195.301 87.2972 195.315 87.2972 195.315 87.3105C195.301 87.3105 195.301 87.2972 195.288 87.2972C195.301 87.3105 195.328 87.3238 195.341 87.3238C195.315 87.3105 195.275 87.2839 195.248 87.2706C194.876 88.5076 195.235 89.9175 194.782 91.1812C194.224 92.7906 193.333 94.2804 192.787 95.8898C192.335 97.0603 192.362 98.324 192.269 99.5477C192.269 99.5344 192.269 99.5078 192.269 99.4945C192.295 99.8403 192.335 100.519 191.803 100.319Z" fill="#0E1412"/>
<path d="M128.754 125.725C128.688 125.711 128.635 125.698 128.568 125.685C128.555 125.685 128.555 125.685 128.541 125.671C128.475 125.033 129.419 124.142 128.608 123.716C128.262 123.623 127.783 123.61 127.584 123.264C127.624 122.665 128.315 122.306 128.275 121.694C128.156 120.923 127.145 121.149 126.693 120.723C126.653 120.284 126.932 119.845 127.171 119.486C127.291 119.54 127.437 119.486 127.557 119.446C128.568 119.154 130.164 119.393 130.364 120.617C130.364 120.63 130.364 120.63 130.364 120.644C129.978 121.056 129.366 121.083 128.94 121.388C128.249 122.546 130.71 122 130.803 123.104C130.39 123.61 129.14 123.384 129.26 124.235C129.539 124.767 130.417 124.647 130.829 125.073C130.696 125.605 129.26 125.632 128.754 125.725ZM130.736 124.049C130.723 124.049 130.723 124.049 130.736 124.049C130.776 124.009 130.829 123.982 130.882 123.942C130.829 123.982 130.776 124.009 130.736 124.049ZM186.695 136.073C186.748 135.195 186.948 134.171 186.243 133.652C184.886 133.413 183.476 133.519 182.106 133.506C178.648 133.546 175.203 133.705 171.757 133.918C168.658 134.118 165.546 134.371 162.46 134.65C161.582 131.391 160.611 128.146 159.693 124.9C159.201 123.158 158.709 121.428 158.243 119.686C157.725 117.611 156.966 115.616 156.408 113.567C156.368 113.487 156.341 113.408 156.301 113.315C155.969 112.437 155.689 111.067 155.051 110.614C154.838 110.202 154.28 110.428 153.907 110.468C152.683 110.495 151.46 110.428 150.236 110.535C146.578 110.455 142.92 110.801 139.276 110.92C134.86 110.894 130.43 111.2 126.081 111.984C124.524 111.639 125.642 113.86 125.841 114.552C126.254 115.855 126.506 117.265 127.118 118.475C126.959 118.595 126.865 118.808 126.865 119.008C125.801 120.058 125.429 121.668 127.304 122C126.466 122.971 126.666 124.368 128.089 124.541C127.477 125.685 127.81 126.948 129.326 126.523C129.752 129.449 130.829 132.362 131.587 135.235C132.093 136.605 132.106 138.294 132.745 139.625C132.878 139.891 133.024 140.157 133.21 140.396C133.623 140.556 134.022 140.157 134.022 139.758C137.014 140.01 140.007 139.492 143 139.558C142.987 139.558 142.987 139.558 142.973 139.558C148.028 139.651 153.069 139.332 158.11 139.159C159.627 139.132 161.143 138.893 162.659 138.813C163.351 138.787 164.508 138.827 164.362 137.829C167.98 137.696 171.598 137.403 175.229 137.27C176.36 137.097 180.244 137.297 181.614 136.805C181.827 136.725 181.973 136.645 182.039 136.539C183.17 136.432 184.314 136.379 185.445 136.419C185.431 136.579 185.445 136.712 185.484 136.831C185.684 137.483 186.455 137.563 186.695 136.831C186.708 136.778 186.735 136.725 186.735 136.658C186.668 136.472 186.682 136.286 186.695 136.073Z" fill="#0E1412"/>
<path d="M190.393 79.5425C189.914 79.1701 190.366 78.4917 190.898 78.4917C191.324 78.1458 192.707 77.8532 193.253 77.9995C193.732 78.239 193.559 78.9572 193.12 79.1301C192.282 79.4627 191.258 79.8085 190.393 79.5425Z" fill="#0E1412"/>
<path d="M171.678 83.7722C171 84.384 170.414 85.1156 170.015 85.9403C169.922 86.2196 169.709 86.5388 169.377 86.4723C168.113 86.06 171.093 82.9209 171.811 83.014C171.798 83.014 171.798 83.014 171.784 83.014C172.33 83.0007 172.17 83.852 171.678 83.7722Z" fill="#0E1412"/>
<path d="M169.164 83.3332C168.778 83.7721 168.459 84.2643 168.193 84.783C167.9 85.222 167.98 86.193 167.302 86.1664C166.291 85.6742 168.419 82.7745 169.124 82.4819C169.763 82.3755 169.63 83.1736 169.164 83.3332Z" fill="#0E1412"/>
<path d="M229.3 81.2183C229.233 80.5798 228.754 79.9015 228.901 79.2896C229.513 78.691 229.792 80.5133 230.018 80.8858C230.178 81.3114 229.473 81.7237 229.3 81.2183Z" fill="#0E1412"/>
<path d="M229.938 84.956C229.792 85.5014 229.952 86.5256 229.18 86.5788C228.409 86.4458 228.941 85.4881 229.021 85.0092C229.127 84.6501 229.233 84.0781 229.712 84.0781C230.204 84.118 230.058 84.6501 229.938 84.956Z" fill="#0E1412"/>
<path d="M228.727 89.7711C228.687 90.4229 227.663 90.4894 227.743 89.7711C227.783 89.1194 228.807 89.0529 228.727 89.7711Z" fill="#0E1412"/>
<path d="M235.139 77.1348C235.099 77.8264 234.008 77.9062 234.088 77.1348C234.128 76.4298 235.219 76.3633 235.139 77.1348Z" fill="#0E1412"/>
<path d="M159.122 44.3339C159.135 43.6555 159.468 42.6845 158.882 42.1791C157.925 41.8465 158.124 43.4161 157.087 43.7087C155.903 44.5201 154.32 44.3605 153.176 45.2517C151.181 46.7281 151.114 49.6677 150.263 51.6895C150.157 51.8757 150.17 52.1418 150.343 52.2748C150.662 52.5142 150.941 52.1285 151.207 51.9954C151.686 51.7427 152.218 51.6097 152.737 51.4501C156.914 50.8914 160.013 49.0559 159.122 44.3339ZM158.137 44.294C158.031 47.6725 153.575 46.4488 151.46 49.5347C152.91 44.5467 154.919 46.5419 158.137 44.294ZM151.5 50.9047C151.966 50.0934 152.671 49.415 153.455 48.8962C153.442 48.9095 153.416 48.9228 153.402 48.9228C154.919 47.8587 157.113 48.0316 158.31 46.5286C158.018 50.0801 154.054 49.9337 151.5 50.9047Z" fill="#0E1412"/>
<path d="M169.63 2.71386C169.63 2.74046 169.643 2.76706 169.643 2.78037C169.337 2.22171 169.842 1.25071 169.191 0.958081C168.459 0.120097 166.437 1.95568 166.038 2.68726C165.386 4.05729 165.2 5.65346 163.578 6.23871C161.582 7.1299 161.01 9.21822 160.904 11.24C160.758 11.7056 160.398 12.2775 160.598 12.7564C161.236 13.2884 161.875 12.078 162.553 12.0248C165.825 11.2799 169.417 11.3597 170.162 7.26292C170.162 7.28952 170.148 7.31612 170.148 7.32942C170.162 7.28952 170.162 7.24962 170.175 7.20971C170.481 5.68006 169.975 4.17701 169.63 2.71386ZM166.437 4.17701C166.437 4.1637 166.451 4.1504 166.451 4.1371C166.517 3.92428 166.584 3.72476 166.677 3.51194C166.757 3.35232 166.823 3.20601 166.916 3.04639C166.916 3.04639 166.916 3.04639 166.916 3.03309C167.222 2.59415 167.674 2.24831 168.127 1.96898C167.927 9.25812 166.264 6.69096 161.635 10.1759C161.915 6.79737 165.905 7.38263 166.437 4.17701ZM167.129 10.0961C165.386 10.708 163.391 10.6016 161.729 11.4395C164.535 8.0344 168.725 9.94979 168.832 3.73806C169.67 5.93278 169.63 9.0719 167.129 10.0961Z" fill="#0E1412"/>
<path d="M200.981 132.069C195.367 131.923 193.838 126.39 193.186 121.761C192.202 116.706 191.67 111.572 191.51 106.424C191.51 106.451 191.51 106.464 191.51 106.491C191.51 106.451 191.51 106.411 191.51 106.358C191.51 106.384 191.51 106.398 191.51 106.424C191.497 106.118 191.497 105.826 191.483 105.52C191.483 105.546 191.483 105.56 191.483 105.586C191.59 105.041 191.031 100.053 192.069 100.878C192.188 100.984 192.175 101.184 192.055 101.29C192.335 107.236 192.787 113.195 193.771 119.074C193.771 119.047 193.758 119.021 193.758 118.994C193.784 119.154 193.811 119.313 193.838 119.473V119.46C193.918 119.952 193.997 120.457 194.077 120.949V120.936C194.077 120.976 194.09 121.016 194.09 121.043V121.029C194.503 123.783 194.902 126.762 196.551 129.09C198.985 131.83 203.029 131.79 205.49 129.103C205.476 129.116 205.463 129.13 205.45 129.143C206.354 128.318 207.086 127.307 207.764 126.297C207.911 126.084 208.044 125.884 208.19 125.671C208.19 125.685 208.177 125.685 208.177 125.698C208.403 125.365 208.629 125.02 208.868 124.687C208.855 124.7 208.842 124.727 208.828 124.74C211.369 120.963 213.883 117.012 215.572 112.769C215.559 112.796 215.559 112.809 215.545 112.836C215.559 112.796 215.572 112.756 215.599 112.703V112.716C216.423 110.721 217.394 108.779 218.219 106.77C218.538 106.305 218.778 104.855 219.363 104.868C219.962 105.28 219.004 106.291 218.897 106.837C218.405 107.981 217.94 109.138 217.501 110.295V110.282C216.038 114.392 214.016 118.076 211.834 121.854C209.161 125.738 206.235 131.857 200.981 132.069Z" fill="white"/>
<path d="M203.149 113.873C202.284 113.235 201.925 110.88 201.579 109.803C200.768 106.212 200.488 102.527 199.61 98.9359C199.61 98.9492 199.624 98.9625 199.624 98.9758C199.597 98.896 199.57 98.8028 199.544 98.723C199.437 98.3772 199.132 97.5924 199.69 97.5126H199.677C199.983 97.5392 199.93 98.2176 200.142 98.4703C200.834 100.519 201.446 102.62 201.805 104.762C202.217 107.236 202.497 109.763 203.242 112.171C204.798 106.797 206.66 101.543 208.363 96.2091C208.762 93.8414 209.879 91.6866 210.451 89.3722C210.903 88.5741 211.023 86.0735 212.1 86.1001C212.38 86.2331 212.353 86.5789 212.207 86.805C211.369 88.8268 210.983 91.0216 210.185 93.07C209.507 94.5863 209.347 96.2224 208.815 97.7786C208.097 100.186 206.993 102.447 206.274 104.855C206.288 104.842 206.288 104.815 206.301 104.802C206.288 104.842 206.274 104.882 206.248 104.935C205.45 107.129 204.785 109.351 204.146 111.599C203.827 112.237 203.987 113.74 203.149 113.873Z" fill="white"/>
<path d="M201.726 84.8364C201.366 84.0516 205.078 82.5086 205.743 81.9234C208.296 80.5666 210.518 78.6113 212.965 77.1482C213.125 77.1881 213.085 77.4275 212.952 77.4807C211.13 79.1434 209.241 80.7529 207.166 82.1096C205.955 82.8811 204.692 83.5727 203.468 84.3176C202.963 84.5304 202.165 85.528 201.726 84.8364Z" fill="white"/>
<path d="M190.446 90.1303C188.796 87.5365 187.599 84.7299 186.815 81.7637C186.775 81.1785 186.016 79.8084 186.642 79.4626C187.081 79.436 186.961 80.6464 187.2 80.9922V80.9789C187.2 80.9922 187.214 81.0055 187.214 81.0188C187.214 81.0188 187.214 81.0189 187.214 81.0056C187.825 82.8012 188.517 84.6102 189.422 86.2862C190.02 87.3769 190.685 88.4277 191.297 89.5184C191.563 90.0239 190.805 90.7022 190.446 90.1303Z" fill="white"/>
<path d="M188.97 79.13C188.943 78.4783 188.65 77.0816 189.236 76.6959C189.502 76.6427 189.621 76.9752 189.448 77.1481C189.276 77.7733 189.954 79.0236 189.409 79.3562C189.222 79.436 188.996 79.3428 188.97 79.13Z" fill="white"/>
<path d="M190.54 77.3611C190.074 76.8955 191.032 76.2969 191.298 75.9378C191.79 75.7117 191.697 76.3369 191.391 76.5231C191.072 76.7359 190.979 77.4409 190.54 77.3611Z" fill="white"/>
<path d="M210.012 75.0998C209.6 74.581 210.704 74.2219 210.704 73.6765C210.704 73.6765 210.704 73.6765 210.704 73.6632C210.704 73.6632 210.704 73.6632 210.704 73.6499C210.704 73.6632 210.704 73.6765 210.704 73.6765C210.704 73.6632 210.704 73.6499 210.704 73.6366C210.557 73.4238 210.93 73.1578 211.01 73.4504C211.01 73.4371 210.996 73.4238 210.996 73.4105C211.249 73.7563 210.424 75.3259 210.012 75.0998Z" fill="white"/>
<path d="M208.536 88.9863C208.363 88.6404 208.084 87.7625 208.643 87.6694C209.002 87.7891 208.723 88.3478 209.015 88.5739C209.255 88.8799 208.762 89.3454 208.536 88.9863Z" fill="white"/>
<path d="M206.714 91.1812C206.607 90.822 207.086 90.423 207.166 90.9285C207.246 91.261 206.82 91.6733 206.714 91.1812Z" fill="white"/>
<path d="M193.066 99.7605C193.585 99.0688 194.729 98.8294 195.487 98.3639C195.647 98.284 195.833 98.3772 195.873 98.5501C195.846 99.255 194.45 99.255 193.931 99.6009C193.665 99.6275 193.16 100.253 193.066 99.7605Z" fill="white"/>
<path d="M210.291 110.335C209.773 110.016 211.036 108.712 211.342 109.231C211.515 109.563 211.143 109.736 210.957 109.949C210.784 110.135 210.597 110.521 210.291 110.335Z" fill="white"/>
<path d="M174.857 114.192C174.445 113.594 174.778 112.703 174.751 111.998C174.977 109.603 175.642 107.289 176.041 104.935C175.882 100.984 176.254 97.0336 176.64 93.0964C176.64 93.123 176.64 93.1496 176.627 93.1762C176.706 92.3914 176.773 91.5933 176.853 90.8085C176.853 90.8351 176.853 90.8617 176.839 90.8883C176.906 90.476 176.839 89.7976 177.411 89.7444C177.664 89.7311 177.837 89.9705 177.824 90.21C177.704 91.9524 177.544 93.6816 177.465 95.4241C177.318 97.6454 177.172 99.8534 177.052 102.075C176.959 103.764 177.105 105.453 176.56 107.103V107.089C176.055 109.284 175.376 111.439 175.097 113.674C175.589 113.66 175.15 114.365 174.857 114.192Z" fill="white"/>
<path d="M179.033 91.8861C179.153 91.3274 178.887 90.1702 179.525 89.9441C179.712 89.9441 179.845 90.1303 179.805 90.3165C179.552 90.822 179.791 91.926 179.313 92.1654C179.153 92.192 179.033 92.0457 179.033 91.8861Z" fill="white"/>
<path d="M174.591 95.1714C174.484 94.9586 174.405 94.7325 174.338 94.5063C174.245 94.1738 174.777 93.9876 174.83 94.3733C174.87 94.6527 175.216 94.9852 174.937 95.2246C174.817 95.3044 174.657 95.2911 174.591 95.1714Z" fill="white"/>
<path d="M195.86 51.3567C195.328 50.9976 196.205 49.6808 196.631 49.4414C196.924 49.4014 197.004 49.7872 196.817 49.9468C196.525 50.266 196.192 50.5986 196.086 51.0242C196.152 51.1705 196.033 51.37 195.86 51.3567Z" fill="white"/>
<path d="M197.895 50.3593C197.482 50.1863 198.014 49.7075 198.121 49.4681C198.121 49.4814 198.107 49.4814 198.107 49.4947C198.254 49.3084 198.44 48.8695 198.733 49.0823C198.852 49.1887 198.812 49.3883 198.706 49.4947C198.693 49.508 198.693 49.508 198.679 49.5213L198.693 49.508C198.413 49.7474 198.267 50.2528 197.895 50.3593Z" fill="white"/>
<path d="M200.303 50.1997C199.904 49.8937 200.635 49.3617 200.848 49.1089C201.101 48.8562 201.38 49.2952 201.114 49.4814C200.795 49.641 200.648 50.1465 200.303 50.1997Z" fill="white"/>
<path d="M40.3542 81.2449C40.3276 80.6331 41.0991 80.6464 41.5247 80.4734C43.1076 79.9813 45.0762 80.4335 46.0073 78.6778C45.994 78.6911 45.994 78.7044 45.9807 78.7044C46.0206 78.6511 46.0605 78.5846 46.1004 78.5314C46.8319 78.0127 46.9783 73.6232 47.2709 74.4612C47.2177 77.4141 46.4462 81.2183 42.7617 81.1385C42.1632 81.1518 40.567 82.0829 40.3542 81.2449Z" fill="white"/>
<path d="M40.1543 85.2088C40.141 83.6791 45.5015 83.9983 46.7651 82.748C46.7518 82.7613 46.7518 82.7613 46.7385 82.7746C46.7784 82.748 46.805 82.7214 46.8449 82.6948C46.8582 82.6815 46.8582 82.6815 46.8715 82.6682C46.8715 82.6682 46.8715 82.6682 46.8582 82.6815C46.8582 82.6815 46.8582 82.6815 46.8449 82.6948C47.0311 82.5485 47.204 82.3889 47.3637 82.2027C47.3503 82.216 47.3503 82.216 47.337 82.2293C47.6829 81.8036 48.1218 81.2982 48.1085 80.7262C48.042 80.4602 48.4145 80.4602 48.3613 80.7395C48.0686 83.7589 44.597 84.4639 42.1362 84.8496C41.5776 84.8496 40.5002 85.7807 40.1543 85.2088Z" fill="white"/>
<path d="M36.6167 86.5789C36.7763 85.6744 37.1088 84.7966 37.7473 84.1182C37.7739 84.0916 37.8005 84.0517 37.8271 84.0251L37.8404 84.0118C38.3724 83.3733 38.4389 83.9852 37.9468 84.3443L37.9601 84.331C37.8271 84.4906 37.7074 84.6502 37.601 84.8232C37.3083 85.3818 37.1753 86.007 37.0423 86.6188C37.0157 86.9115 36.5634 86.8982 36.6167 86.5789Z" fill="white"/>
<path d="M56.9805 77.0684C56.7278 76.6295 58.0845 75.858 58.2175 74.9402C58.2175 74.9535 58.2042 74.9668 58.2042 74.9934C58.6831 73.7032 59.0422 72.0937 58.2175 70.8833C58.3905 70.2581 58.9757 71.402 58.9757 71.6681C59.4812 73.4106 59.0422 75.5521 57.7653 76.8556C57.5658 77.0684 57.2066 77.4143 56.9805 77.0684Z" fill="white"/>
<path d="M26.1343 102.088C24.7642 98.2042 27.1851 94.3468 30.6833 92.5644L30.6966 92.5512C30.9627 92.3649 31.1622 92.1122 31.3617 91.8462C31.9204 91.6467 31.1755 92.5112 31.0292 92.6177C29.8586 93.5355 28.6216 94.3734 27.8102 95.6637C25.4027 98.4436 27.7969 102.62 26.1343 102.088Z" fill="white"/>
<path d="M25.0305 109.883C23.7403 108.473 29.3402 107.488 28.8081 101.091C28.7682 100.838 28.715 99.3348 29.1407 100.04C29.1274 101.25 29.3269 102.461 29.2338 103.684C29.0742 105.799 27.877 107.675 26.2144 108.938C26.2277 108.925 26.241 108.912 26.2543 108.898C25.8286 109.164 25.6158 110.029 25.0305 109.883Z" fill="white"/>
<path d="M21.7586 110.175C21.5989 109.79 23.7272 106.371 23.6473 107.395C23.6473 107.395 23.6473 107.395 23.634 107.395C23.4345 107.555 23.2616 107.741 23.1286 107.954L23.1419 107.941C22.9557 108.233 22.8227 108.553 22.7029 108.872C22.3704 109.364 22.7162 110.388 22.0645 110.588C21.865 110.588 21.7186 110.375 21.7586 110.175Z" fill="white"/>
<path d="M23.6877 121.668C23.1423 121.335 23.7808 120.737 23.8739 120.311C24.3661 119.021 23.967 117.637 24.0468 116.307C23.9537 113.581 25.9888 112.822 25.2839 113.94C23.7675 115.775 25.4834 118.489 24.5789 120.577C24.406 120.976 24.273 121.827 23.6877 121.668Z" fill="white"/>
<path d="M19.8436 122.865C19.551 121.867 20.4821 120.205 21.0806 119.38C21.3599 119.167 21.5994 119.619 21.3333 119.792C21.2136 119.899 21.1604 120.045 21.0673 120.178C20.7348 120.83 20.4688 121.522 20.3756 122.24C20.4288 122.572 20.2559 123.144 19.8436 122.865Z" fill="white"/>
<path d="M49.7442 67.6378C48.9461 67.0526 51.3803 65.3101 51.9123 65.0308C52.2981 65.217 51.6064 65.4564 51.5 65.616C50.8216 66.0151 50.1166 67.7575 49.7442 67.6378Z" fill="white"/>
</svg>
