<svg width="327" height="325" viewBox="0 0 327 325" fill="none" xmlns="http://www.w3.org/2000/svg">
<g clip-path="url(#clip0_616_16475)">
<path d="M265.55 115.135C293.926 110.624 314.617 126.981 317.464 178.217C319.581 216.347 299.655 253.979 267.827 271.579C225.52 294.951 162.468 287.687 141.706 249.699C129.306 227.038 131.013 191.679 148.253 177.471C165.528 163.228 184.814 187.523 216.304 174.008C251.334 158.966 242.652 118.776 265.55 115.135Z" fill="white"/>
<path fill-rule="evenodd" clip-rule="evenodd" d="M213.919 285.361C203.601 285.361 193.353 283.993 183.746 281.205C164.104 275.522 149.445 264.689 141.35 249.895C135.265 238.777 132.401 224.374 133.468 210.38C134.571 195.977 139.873 183.865 148.004 177.169C156.49 170.172 165.492 172.321 175.935 174.825C187.197 177.525 199.989 180.579 216.161 173.635C234.824 165.626 240.891 150.619 246.228 137.388C250.765 126.164 254.679 116.467 265.478 114.745C278.359 112.702 289.069 115.046 297.324 121.689C309.404 131.421 316.307 150.441 317.855 178.199C319.99 216.596 299.957 254.264 268.004 271.917C252.028 280.761 232.849 285.361 213.919 285.361ZM161.418 173.227C156.881 173.227 152.611 174.381 148.502 177.773C140.531 184.344 135.336 196.243 134.251 210.451C133.201 224.286 136.03 238.529 142.043 249.522C150.032 264.12 164.531 274.812 183.959 280.459C211.055 288.309 243.115 284.775 267.631 271.242C299.317 253.731 319.171 216.347 317.072 178.235C315.542 150.708 308.728 131.9 296.826 122.31C288.749 115.792 278.252 113.519 265.603 115.526C255.23 117.178 251.405 126.679 246.957 137.672C241.567 151.045 235.447 166.212 216.464 174.363C200.06 181.414 187.144 178.306 175.74 175.589C170.652 174.363 165.901 173.227 161.418 173.227Z" fill="#0E1412"/>
<path d="M264.963 224.019C264.803 224.019 264.66 223.93 264.589 223.771C260.497 213.505 246.691 211.499 246.549 211.481C246.336 211.445 246.175 211.25 246.211 211.037C246.247 210.824 246.442 210.664 246.656 210.699C246.798 210.717 261.049 212.777 265.319 223.486C265.408 223.682 265.301 223.913 265.105 223.984C265.058 224.007 265.01 224.019 264.963 224.019Z" fill="#0E1412"/>
<path d="M245.553 230.59C245.541 230.59 245.529 230.59 245.517 230.59C245.304 230.572 245.144 230.377 245.161 230.164C246.193 220.183 240.554 213.63 240.5 213.559C240.358 213.399 240.358 213.15 240.536 213.008C240.696 212.866 240.945 212.884 241.087 213.044C241.141 213.115 247.012 219.934 245.944 230.235C245.926 230.448 245.766 230.59 245.553 230.59Z" fill="#0E1412"/>
<path d="M187.607 268.276C186.718 267.37 181.558 251.369 181.558 251.369L171.382 258.633L182.555 273.604L187.607 268.276Z" fill="white"/>
<path fill-rule="evenodd" clip-rule="evenodd" d="M182.554 273.995C182.542 273.995 182.53 273.995 182.519 273.995C182.412 273.995 182.305 273.924 182.234 273.835L171.061 258.863C171.008 258.775 170.972 258.668 170.99 258.561C171.008 258.455 171.061 258.366 171.15 258.313L181.327 251.049C181.433 250.978 181.576 250.96 181.682 250.996C181.807 251.049 181.896 251.138 181.931 251.262C183.906 257.372 187.269 267.317 187.891 268.01C188.034 268.152 188.034 268.4 187.891 268.542L182.839 273.87C182.75 273.959 182.661 273.995 182.554 273.995ZM171.933 258.721L182.59 273L187.109 268.223C185.934 266.074 182.43 255.329 181.362 252.008L171.933 258.721Z" fill="#0E1412"/>
<path d="M169.264 288.504L176.025 288.469C180.508 288.451 184.671 286.178 187.126 282.43L193.816 271.846C195.666 268.915 194.634 265.044 191.574 263.41C188.781 261.936 185.845 260.497 185.169 260.551C183.764 260.693 183.212 267.264 183.212 267.264L177.181 267.495C177.181 267.495 174.192 279.873 171.577 281.276C169.656 282.306 168.321 283.798 167.432 285.183C166.489 286.622 167.538 288.522 169.264 288.504Z" fill="#0E1412"/>
<path d="M169.94 286.266C169.745 286.266 169.584 286.124 169.549 285.929C169.513 285.716 169.673 285.52 169.887 285.485L179.138 284.082C181.113 283.798 182.821 282.643 183.853 280.939L192.037 267.299C192.144 267.104 192.393 267.051 192.571 267.157C192.766 267.264 192.82 267.512 192.713 267.69L184.529 281.347C183.39 283.247 181.469 284.544 179.263 284.863L169.994 286.266C169.982 286.266 169.964 286.266 169.94 286.266Z" fill="white"/>
<path d="M181.381 276.001C181.345 276.001 181.309 275.995 181.274 275.984L176.114 274.581C175.901 274.527 175.776 274.314 175.83 274.101C175.883 273.888 176.114 273.764 176.31 273.817L181.469 275.22C181.683 275.291 181.808 275.504 181.754 275.717C181.701 275.877 181.541 276.001 181.381 276.001Z" fill="white"/>
<path d="M178.693 278.648C178.658 278.648 178.622 278.642 178.586 278.63L175.135 277.795C174.921 277.742 174.797 277.529 174.85 277.316C174.886 277.102 175.117 276.978 175.313 277.031L178.782 277.866C178.996 277.919 179.12 278.133 179.067 278.346C179.031 278.523 178.871 278.648 178.693 278.648Z" fill="white"/>
<path d="M152.861 265.221L141.048 277.085L134.785 274.776L145.673 259.609L152.861 265.221Z" fill="white"/>
<path fill-rule="evenodd" clip-rule="evenodd" d="M141.048 277.475C141 277.475 140.953 277.47 140.905 277.458L134.643 275.149C134.518 275.113 134.429 275.025 134.394 274.9C134.358 274.776 134.376 274.652 134.447 274.545L145.353 259.378C145.424 259.29 145.513 259.236 145.62 259.219C145.727 259.201 145.833 259.236 145.922 259.307L153.11 264.919C153.199 264.99 153.252 265.079 153.252 265.204C153.27 265.31 153.217 265.417 153.146 265.505L141.314 277.351C141.243 277.44 141.154 277.475 141.048 277.475ZM135.39 274.598L140.941 276.623L152.274 265.257L145.762 260.178L135.39 274.598Z" fill="#0E1412"/>
<path d="M144.784 275.22C144.784 275.22 145.354 280.264 144.375 284.721C143.859 287.101 141.724 288.77 139.287 288.77H110.27C108.206 288.77 107.263 286.195 108.846 284.863C114.006 280.548 123.488 273.959 135.159 272.023L138.415 276.57L144.784 275.22Z" fill="#0E1412"/>
<path d="M141.724 285.183H111.657C111.426 285.183 111.248 285.005 111.248 284.792C111.248 284.579 111.426 284.402 111.657 284.402H141.724C141.938 284.402 142.116 284.579 142.116 284.792C142.116 285.005 141.938 285.183 141.724 285.183Z" fill="white"/>
<path d="M128.434 279.855C128.274 279.855 128.131 279.766 128.06 279.607L126.477 275.753C126.388 275.557 126.477 275.326 126.69 275.238C126.886 275.167 127.117 275.255 127.206 275.451L128.789 279.305C128.878 279.518 128.772 279.749 128.576 279.82C128.529 279.843 128.481 279.855 128.434 279.855Z" fill="white"/>
<path d="M123.203 280.868C123.025 280.868 122.883 280.761 122.83 280.601L121.673 277.12C121.602 276.907 121.709 276.694 121.922 276.623C122.118 276.552 122.349 276.659 122.421 276.872L123.577 280.352C123.63 280.548 123.524 280.779 123.31 280.85C123.275 280.862 123.239 280.868 123.203 280.868Z" fill="white"/>
<path d="M215.45 182.249C215.45 182.249 161.418 175.979 145.353 189.85C129.288 203.738 170.705 263.445 170.705 263.445L183.817 253.749L171.381 211.552L221.321 197.38L215.45 182.249Z" fill="#4FAA89"/>
<path d="M245.179 209.723C237.333 212.209 223.278 215.423 203.654 215.157C198.086 215.086 192.926 218.158 190.4 223.131C184.582 234.497 172.004 254.992 151.509 268.276L141.724 263.019L166.702 206.863C168.98 201.749 173.249 197.753 178.533 195.835L228.046 177.702C228.046 177.702 243.4 173.422 250.925 187.097C252.277 189.548 254.768 185.179 255.355 187.15C257.401 193.917 251.922 207.592 245.179 209.723Z" fill="#4FAA89"/>
<path d="M155.405 232.633C155.358 232.633 155.304 232.621 155.245 232.597C155.049 232.508 154.96 232.277 155.049 232.082L166.347 206.704C168.659 201.518 173.054 197.415 178.391 195.462L202.107 186.777C202.302 186.706 202.534 186.813 202.605 187.008C202.676 187.221 202.587 187.434 202.373 187.523L178.658 196.19C173.516 198.09 169.282 202.033 167.058 207.023L155.779 232.402C155.707 232.544 155.565 232.633 155.405 232.633Z" fill="white"/>
<path d="M168.588 254.441C168.5 254.441 168.393 254.406 168.322 254.335C168.162 254.175 168.162 253.926 168.304 253.784C170.563 251.44 172.787 248.918 174.904 246.307C175.047 246.13 175.296 246.112 175.456 246.236C175.634 246.378 175.652 246.627 175.527 246.805C173.392 249.433 171.15 251.973 168.873 254.317C168.802 254.406 168.695 254.441 168.588 254.441Z" fill="white"/>
<path d="M175.207 246.947C175.136 246.947 175.047 246.911 174.976 246.858C174.798 246.716 174.78 246.467 174.905 246.307C175.954 245.011 177.004 243.679 178 242.329C178.125 242.152 178.374 242.116 178.552 242.24C178.73 242.383 178.765 242.631 178.623 242.791C177.627 244.158 176.577 245.49 175.527 246.805C175.438 246.893 175.332 246.947 175.207 246.947Z" fill="white"/>
<path d="M203.174 138.684C203.174 138.684 198.406 181.769 166.507 184.575L203.174 185.108C203.174 185.108 216.749 157.652 217.3 146.96C217.852 136.251 203.174 138.684 203.174 138.684Z" fill="white"/>
<path fill-rule="evenodd" clip-rule="evenodd" d="M203.174 185.499C203.163 185.499 203.157 185.499 203.157 185.499L166.489 184.984C166.294 184.966 166.116 184.806 166.116 184.593C166.098 184.38 166.258 184.202 166.471 184.184C182.768 182.746 191.77 170.474 196.449 160.422C201.538 149.482 202.765 138.756 202.783 138.649C202.801 138.471 202.925 138.329 203.103 138.294C203.441 138.24 211.269 136.997 215.344 140.638C217.034 142.148 217.816 144.279 217.692 146.978C217.14 157.616 204.082 184.149 203.512 185.268C203.459 185.41 203.317 185.499 203.174 185.499ZM171.133 184.256L202.925 184.7C204.206 182.071 216.375 156.906 216.891 146.925C217.034 144.492 216.322 142.574 214.81 141.224C211.447 138.205 204.971 138.844 203.512 139.04C203.281 140.869 201.822 150.725 197.161 160.742C191.13 173.689 182.199 181.734 171.133 184.256Z" fill="#0E1412"/>
<path d="M248.577 111.317C242.385 109.861 239.806 109.843 217.3 110.66C211.803 110.855 205.682 119.451 205.042 124.903C206.785 130.142 214.436 154.277 200.345 174.452C198.352 177.329 195.63 180.455 191.912 183.474C193.994 185.161 197.249 187.363 201.626 188.66C208.885 190.809 212.532 188.482 218.385 188.66C233.863 189.122 239.539 206.331 249.537 204.164C252.206 203.596 255.746 201.518 259.056 194.538C260.941 188.766 262.614 181.982 263.539 174.31C266.065 153.514 261.938 136.198 258.255 125.329C257.152 121.902 255.871 113.022 248.577 111.317Z" fill="#0E1412"/>
<path fill-rule="evenodd" clip-rule="evenodd" d="M247.794 204.75C243.684 204.75 240.268 201.713 236.39 198.268C231.675 194.059 226.338 189.299 218.385 189.05C216.304 188.997 214.471 189.264 212.71 189.512C209.525 189.974 206.234 190.436 201.519 189.033C198.014 188.003 194.688 186.227 191.663 183.776C191.556 183.705 191.503 183.598 191.503 183.474C191.503 183.35 191.556 183.243 191.663 183.172C194.901 180.544 197.712 177.542 200.025 174.239C212.888 155.787 207.55 133.676 204.668 125.027C204.645 124.968 204.639 124.915 204.651 124.867C205.291 119.504 211.447 110.482 217.3 110.269C240.162 109.434 242.51 109.488 248.666 110.926C255.177 112.454 257.045 119.38 258.148 123.518C258.326 124.175 258.469 124.743 258.629 125.205C264.144 141.437 265.923 157.971 263.93 174.346C263.112 181.201 261.582 188.038 259.429 194.663C259.429 194.686 259.423 194.704 259.411 194.716C256.707 200.417 253.398 203.738 249.626 204.555C248.998 204.685 248.387 204.75 247.794 204.75ZM217.763 188.269C217.976 188.269 218.19 188.269 218.403 188.269C226.64 188.518 232.102 193.384 236.924 197.682C241.193 201.482 244.876 204.768 249.448 203.791C252.989 203.027 256.085 199.866 258.7 194.396C260.835 187.825 262.329 181.059 263.148 174.257C265.122 158.007 263.361 141.579 257.881 125.454C257.721 124.956 257.561 124.388 257.383 123.713C256.316 119.753 254.554 113.111 248.488 111.69C242.421 110.269 240.09 110.234 217.318 111.051C211.874 111.246 206.109 119.753 205.451 124.867C208.369 133.694 213.706 156.018 200.665 174.683C198.406 177.915 195.684 180.881 192.535 183.474C195.381 185.694 198.477 187.328 201.733 188.287C206.305 189.637 209.365 189.193 212.585 188.731C214.204 188.5 215.877 188.269 217.763 188.269Z" fill="#0E1412"/>
<path d="M198.976 143.515C198.976 143.515 205.042 113.519 215.539 111.033L210.682 150.21L198.976 143.515Z" fill="#0E1412"/>
<path d="M210.682 150.619C210.623 150.619 210.557 150.601 210.486 150.566L198.78 143.852C198.637 143.781 198.548 143.604 198.584 143.444C198.833 142.201 204.829 113.164 215.45 110.66C215.663 110.607 215.859 110.731 215.913 110.944C215.966 111.157 215.841 111.37 215.628 111.423C206.038 113.697 200.061 140.301 199.42 143.32L210.38 149.589L211.162 143.142C211.198 142.911 211.394 142.769 211.607 142.787C211.821 142.822 211.981 143.018 211.945 143.231L211.073 150.264C211.073 150.388 210.984 150.512 210.86 150.566C210.812 150.601 210.753 150.619 210.682 150.619Z" fill="#0E1412"/>
<path d="M230.127 96.9672L229.38 107.339C229.202 108.689 228.241 109.79 226.925 110.145L223.26 111.086L225.626 112.88C230.892 116.876 238.151 117.693 243.417 113.715L247.171 110.997L242.634 109.861C241.318 109.577 240.321 107.73 240.09 106.415L238.08 92.6872L230.127 96.9672Z" fill="white"/>
<path fill-rule="evenodd" clip-rule="evenodd" d="M235.43 116.734C232.031 116.734 228.491 115.544 225.395 113.199L223.029 111.406C222.905 111.317 222.851 111.157 222.887 111.015C222.905 110.855 223.029 110.749 223.171 110.713L226.819 109.754C227.993 109.452 228.829 108.475 228.989 107.285L229.719 96.9317C229.736 96.7896 229.808 96.683 229.932 96.612L237.902 92.332C238.009 92.2787 238.152 92.2787 238.258 92.332C238.383 92.3852 238.454 92.4918 238.472 92.6339L240.482 106.362C240.678 107.499 241.585 109.221 242.724 109.488L247.261 110.607C247.403 110.66 247.527 110.766 247.545 110.926C247.581 111.068 247.527 111.228 247.403 111.317L243.649 114.034C241.265 115.846 238.401 116.734 235.43 116.734ZM224.15 111.264L225.876 112.578C231.373 116.751 238.312 117.089 243.186 113.395L246.246 111.175L242.528 110.251C240.98 109.896 239.948 107.836 239.699 106.486L237.778 93.291L230.501 97.1981L229.772 107.357C229.576 108.902 228.509 110.127 227.014 110.518L224.15 111.264Z" fill="#0E1412"/>
<path d="M218.315 82.5287C220.805 81.1967 218.795 85.3169 227.014 78.2131C230.288 75.3893 230.413 80.6639 231.249 79.9358C234.398 77.2363 234.291 77.3251 236.266 76.9699C237.582 76.7568 239.344 78.5505 239.86 80.2732C240.553 82.5287 239.041 83.8784 239.557 89.082C239.913 92.7404 241.069 94.5341 240.02 95.5642C238.952 96.612 237.209 95.3333 235.963 96.3989C234.344 97.7664 236.195 100.803 235.003 102.97C234.238 104.337 231.765 105.936 226.552 105.811C225.716 105.794 225.004 105.172 224.862 104.337C224.684 103.272 224.47 101.904 224.364 100.608C223.901 94.3743 225.253 92.2964 223.919 91.2309C221.891 89.597 218.439 92.6339 216.98 91.1953C215.468 89.7035 214.899 84.3224 218.315 82.5287Z" fill="#0E1412"/>
<path d="M230.732 86.0273L230.643 87.7322C230.596 88.5255 230.602 89.3247 230.661 90.1298C230.768 91.6393 230.964 94.2322 230.946 95.6885C230.928 97.8197 224.31 98.2459 224.31 98.2459L223.456 97.3047L222.691 97.3402C222.531 97.3402 222.388 97.3224 222.246 97.2514C221.908 97.0738 221.748 96.7186 221.801 96.3812C222.121 94.4809 222.673 90.3074 222.068 87.0574C222.068 87.0574 225.751 84.0738 230.732 86.0273Z" fill="white"/>
<path fill-rule="evenodd" clip-rule="evenodd" d="M224.309 98.6366C224.185 98.6366 224.078 98.5833 224.007 98.5123L223.295 97.7131L222.708 97.7309C222.477 97.7486 222.246 97.6953 222.068 97.6065C221.587 97.3579 221.321 96.8429 221.41 96.3101C221.694 94.6229 222.281 90.3784 221.676 87.1284C221.641 86.9863 221.694 86.8442 221.819 86.7554C221.961 86.6311 225.733 83.6475 230.892 85.6543C231.035 85.7076 231.141 85.8675 231.141 86.0451L231.035 87.75C230.981 88.5314 230.981 89.3306 231.052 90.0942C231.159 91.5505 231.355 94.2145 231.337 95.6885C231.319 98.0683 225.501 98.5656 224.327 98.6366C224.315 98.6366 224.309 98.6366 224.309 98.6366ZM223.456 96.9139C223.58 96.9139 223.687 96.9672 223.758 97.0382L224.47 97.8374C227.049 97.6421 230.536 96.8784 230.554 95.6885C230.554 94.2322 230.376 91.6038 230.27 90.1653C230.198 89.3483 230.198 88.5136 230.252 87.6967L230.323 86.2937C226.302 84.8552 223.26 86.7022 222.495 87.235C223.029 90.4317 222.548 94.3565 222.192 96.4344C222.157 96.6298 222.264 96.8074 222.424 96.8961C222.495 96.9317 222.578 96.9494 222.673 96.9494L223.456 96.9139Z" fill="#0E1412"/>
<path d="M231.906 91.2664C231.906 91.2664 232.155 87.1817 233.988 87.6967C235.838 88.2117 235.447 92.7049 231.906 91.2664Z" fill="white"/>
<path d="M141.421 188.695H213.867C215.592 188.695 216.998 187.292 216.998 185.552V184.469H138.29V185.552C138.29 187.292 139.696 188.695 141.421 188.695Z" fill="white"/>
<path fill-rule="evenodd" clip-rule="evenodd" d="M213.866 189.086H141.421C139.482 189.086 137.898 187.505 137.898 185.552V184.469C137.898 184.255 138.076 184.078 138.29 184.078H216.998C217.229 184.078 217.389 184.255 217.389 184.469V185.552C217.389 187.505 215.806 189.086 213.866 189.086ZM138.681 184.859V185.552C138.681 187.061 139.909 188.305 141.421 188.305H213.866C215.379 188.305 216.606 187.061 216.606 185.552V184.859H138.681Z" fill="#0E1412"/>
<path d="M138.29 184.54H183.337L169.016 142.503C168.162 141.189 166.667 140.389 165.066 140.389H126.993C125.267 140.389 124.147 142.059 124.716 143.533C124.947 144.119 125.178 144.705 125.374 145.309L138.29 184.54Z" fill="white"/>
<path fill-rule="evenodd" clip-rule="evenodd" d="M183.337 184.948H138.29C138.112 184.948 137.969 184.824 137.916 184.664L125 145.415C124.875 145.007 124.697 144.581 124.537 144.172C124.478 144.006 124.413 143.841 124.341 143.675C124.039 142.858 124.146 141.934 124.662 141.206C125.195 140.425 126.032 139.999 126.992 139.999H165.065C166.809 139.999 168.41 140.851 169.353 142.29C169.365 142.313 169.377 142.343 169.388 142.378L183.71 184.415C183.746 184.54 183.728 184.682 183.657 184.771C183.568 184.877 183.461 184.948 183.337 184.948ZM138.574 184.149H182.785L168.659 142.68C167.876 141.49 166.524 140.78 165.065 140.78H126.992C126.299 140.78 125.694 141.1 125.302 141.65C124.946 142.165 124.857 142.822 125.089 143.391C125.148 143.556 125.213 143.722 125.284 143.888C125.445 144.314 125.605 144.74 125.747 145.184L138.574 184.149Z" fill="#0E1412"/>
<path d="M154.996 161.896C155.547 163.672 154.711 165.501 153.163 165.963C151.616 166.425 149.925 165.359 149.392 163.583C148.858 161.807 149.676 159.996 151.224 159.516C152.772 159.055 154.462 160.12 154.996 161.896Z" fill="#0E1412"/>
<path d="M263.041 151.24C263.041 151.24 260.835 179.176 254.572 189.743C247.118 202.37 209.436 185.357 209.436 185.357L205.06 182.888C202.106 181.219 198.566 180.863 195.328 181.893L188.247 184.184C188.247 184.184 194.1 177.187 199.064 174.505C201.395 173.262 204.419 174.434 206.963 176.051C211.358 178.821 216.517 180.135 221.712 179.975L236.692 179.531C239.219 179.46 241.282 177.507 241.496 175.003L243.755 143.586L263.041 151.24Z" fill="white"/>
<path fill-rule="evenodd" clip-rule="evenodd" d="M243.168 194.822C229.647 194.822 210.397 186.227 209.276 185.729L204.864 183.225C202 181.609 198.584 181.272 195.453 182.266L188.372 184.557C188.212 184.611 188.016 184.54 187.927 184.398C187.82 184.255 187.838 184.06 187.945 183.918C188.194 183.634 193.905 176.85 198.869 174.168C200.968 173.031 203.761 173.564 207.177 175.713C211.429 178.413 216.446 179.745 221.712 179.585L236.693 179.141C239.005 179.07 240.909 177.276 241.105 174.985L243.364 143.568C243.364 143.444 243.435 143.32 243.542 143.249C243.649 143.195 243.773 143.178 243.898 143.231L263.183 150.867C263.344 150.938 263.45 151.098 263.432 151.258C263.344 152.413 261.137 179.407 254.911 189.938C252.793 193.526 248.417 194.822 243.168 194.822ZM199.064 180.917C201.217 180.917 203.352 181.467 205.256 182.551L209.632 185.019C209.97 185.179 247.029 201.731 254.235 189.548C260.034 179.745 262.365 154.49 262.614 151.489L244.111 144.154L241.888 175.038C241.656 177.755 239.432 179.851 236.71 179.922L221.73 180.366C216.304 180.526 211.127 179.158 206.75 176.388C204.58 175.02 201.52 173.635 199.242 174.861C195.56 176.85 191.325 181.325 189.475 183.367L195.204 181.52C196.467 181.112 197.766 180.917 199.064 180.917Z" fill="#0E1412"/>
<path d="M266.546 153.212C266.546 153.212 268.895 135.204 266.297 128.863C260.23 114.087 250.961 112.01 249.467 111.566L240.909 148.115L266.546 153.212Z" fill="#0E1412"/>
<path d="M266.546 153.603C266.522 153.603 266.492 153.603 266.457 153.603L240.837 148.506C240.731 148.488 240.642 148.417 240.588 148.328C240.535 148.239 240.517 148.133 240.535 148.026L242.279 140.567C242.332 140.354 242.545 140.23 242.759 140.283C242.972 140.318 243.097 140.531 243.044 140.745L241.389 147.813L266.208 152.732C266.528 150.015 268.253 134.653 265.941 129.023C263.308 122.63 258.344 114.478 249.573 112.01L249.359 111.939C249.146 111.885 249.021 111.672 249.092 111.459C249.146 111.246 249.377 111.122 249.573 111.193L249.786 111.246C256.974 113.271 262.809 119.309 266.67 128.721C269.268 135.079 267.026 152.519 266.937 153.265C266.919 153.372 266.866 153.46 266.777 153.531C266.706 153.585 266.617 153.603 266.546 153.603Z" fill="#0E1412"/>
<path fill-rule="evenodd" clip-rule="evenodd" d="M24.3536 230.862C22.5389 230.862 21.0801 229.388 21.0801 227.577C21.0801 225.765 22.5389 224.309 24.3536 224.309C26.1683 224.309 27.645 225.765 27.645 227.577C27.645 229.388 26.1683 230.862 24.3536 230.862ZM24.3536 225.09C22.9837 225.09 21.8629 226.209 21.8629 227.577C21.8629 228.962 22.9837 230.063 24.3536 230.063C25.7413 230.063 26.8622 228.962 26.8622 227.577C26.8622 226.209 25.7413 225.09 24.3536 225.09Z" fill="#0E1412"/>
<path d="M27.8406 213.262C27.6271 213.262 27.4492 213.085 27.4492 212.872V209.817C27.4492 209.604 27.6271 209.426 27.8406 209.426C28.0541 209.426 28.232 209.604 28.232 209.817V212.872C28.232 213.085 28.0541 213.262 27.8406 213.262Z" fill="#0E1412"/>
<path d="M27.8406 220.366C27.6271 220.366 27.4492 220.189 27.4492 219.976V216.921C27.4492 216.708 27.6271 216.53 27.8406 216.53C28.0541 216.53 28.232 216.708 28.232 216.921V219.976C28.232 220.189 28.0541 220.366 27.8406 220.366Z" fill="#0E1412"/>
<path d="M25.8128 215.287H22.7527C22.5392 215.287 22.3613 215.109 22.3613 214.896C22.3613 214.683 22.5392 214.506 22.7527 214.506H25.8128C26.0263 214.506 26.2042 214.683 26.2042 214.896C26.2042 215.109 26.0263 215.287 25.8128 215.287Z" fill="#0E1412"/>
<path d="M32.929 215.287H29.8689C29.6554 215.287 29.4775 215.109 29.4775 214.896C29.4775 214.683 29.6554 214.506 29.8689 214.506H32.929C33.1425 214.506 33.3204 214.683 33.3204 214.896C33.3204 215.109 33.1425 215.287 32.929 215.287Z" fill="#0E1412"/>
<path d="M281.384 62.638C281.206 62.638 281.063 62.5314 281.01 62.3716L280.423 60.5957C280.369 60.3825 280.476 60.1694 280.69 60.0984C280.885 60.0273 281.117 60.1517 281.188 60.347L281.757 62.123C281.828 62.3361 281.704 62.5492 281.49 62.6202C281.455 62.6321 281.419 62.638 281.384 62.638Z" fill="#0E1412"/>
<path d="M283.376 68.8539C283.216 68.8539 283.056 68.7473 283.003 68.5875L282.433 66.8115C282.362 66.5984 282.487 66.3853 282.682 66.3143C282.896 66.2432 283.109 66.3675 283.181 66.5629L283.75 68.3389C283.821 68.552 283.714 68.7651 283.501 68.8361C283.465 68.848 283.424 68.8539 283.376 68.8539Z" fill="#0E1412"/>
<path d="M278.092 66.1544C277.932 66.1544 277.772 66.0478 277.718 65.8703C277.647 65.6749 277.772 65.444 277.968 65.373L279.747 64.8047C279.96 64.7336 280.174 64.858 280.245 65.0533C280.316 65.2664 280.191 65.4973 279.996 65.5506L278.217 66.1366C278.169 66.1485 278.128 66.1544 278.092 66.1544Z" fill="#0E1412"/>
<path d="M284.319 64.1475C284.141 64.1475 283.999 64.041 283.946 63.8812C283.875 63.668 283.981 63.4372 284.195 63.3839L285.974 62.7978C286.187 62.7445 286.401 62.8511 286.472 63.0642C286.543 63.2596 286.419 63.4904 286.223 63.5615L284.444 64.1298C284.396 64.1416 284.355 64.1475 284.319 64.1475Z" fill="#0E1412"/>
<path d="M260.871 45.2159C260.782 45.2159 260.693 45.1981 260.622 45.1271C258.825 43.6175 256.974 42.1079 255.106 40.6694C254.946 40.5451 254.911 40.2965 255.053 40.1189C255.178 39.959 255.427 39.9235 255.605 40.0478C257.455 41.5041 259.323 42.9959 261.138 44.5232C261.298 44.6653 261.315 44.914 261.173 45.0738C261.102 45.1804 260.995 45.2159 260.871 45.2159Z" fill="#0E1412"/>
<path d="M255.355 40.7582C255.266 40.7582 255.195 40.7227 255.106 40.6694C229.256 20.6544 198.441 9.21726 168.321 8.47136C168.108 8.47136 167.93 8.29377 167.93 8.08065C167.93 7.86754 168.108 7.68994 168.321 7.68994C168.333 7.68994 168.339 7.68994 168.339 7.68994C183.55 8.06289 198.833 11.0643 213.742 16.6052C228.544 22.1107 242.634 29.996 255.604 40.0479C255.764 40.1899 255.8 40.4386 255.675 40.5984C255.586 40.705 255.48 40.7582 255.355 40.7582Z" fill="#0E1412"/>
<path d="M243.026 41.7172C242.955 41.7172 242.884 41.6936 242.813 41.6462C223.171 28.4864 201.164 20.4768 179.138 18.4522C178.925 18.4344 178.765 18.2391 178.783 18.026C178.8 17.8129 178.996 17.653 179.21 17.6708C201.359 19.6954 223.509 27.7582 243.257 40.9891C243.435 41.1134 243.489 41.362 243.364 41.5396C243.293 41.6462 243.168 41.7172 243.026 41.7172Z" fill="#0E1412"/>
<path fill-rule="evenodd" clip-rule="evenodd" d="M266.564 52.9945C266.226 52.9945 265.888 52.9413 265.567 52.8347C263.966 52.2664 263.112 50.526 263.682 48.9276C264.233 47.347 265.977 46.4945 267.578 47.0451C269.179 47.5956 270.015 49.3361 269.464 50.9344C269.197 51.7159 268.645 52.3374 267.916 52.6926C267.489 52.888 267.026 52.9945 266.564 52.9945ZM266.564 47.6667C265.621 47.6667 264.749 48.2527 264.411 49.194C264.002 50.3661 264.642 51.6803 265.816 52.0888C266.404 52.2842 267.008 52.2486 267.56 51.9822C268.111 51.7159 268.521 51.2541 268.716 50.6858C269.126 49.4959 268.503 48.1995 267.311 47.791C267.062 47.7081 266.813 47.6667 266.564 47.6667Z" fill="#0E1412"/>
<path fill-rule="evenodd" clip-rule="evenodd" d="M163.482 11.1708C163.459 11.1708 163.429 11.1708 163.393 11.1708L158.109 10.0164C157.985 9.98092 157.878 9.89212 157.825 9.7678C157.789 9.64349 157.807 9.50141 157.896 9.39485C159.462 7.42354 161.205 5.59431 161.223 5.57655C161.312 5.48775 161.454 5.43447 161.579 5.46999C161.703 5.48775 161.81 5.57655 161.863 5.70086L163.856 10.638C163.909 10.7801 163.874 10.9222 163.785 11.0287C163.714 11.1175 163.607 11.1708 163.482 11.1708ZM158.91 9.37709L162.842 10.2473L161.365 6.57108C160.831 7.13939 159.871 8.22272 158.91 9.37709Z" fill="#0E1412"/>
<path d="M316.867 293.26H240.668C236.096 293.26 232.68 289.069 233.605 284.593L245.152 228.508C246.13 223.784 250.293 220.41 255.115 220.41H320.461L316.867 293.26Z" fill="white"/>
<path fill-rule="evenodd" clip-rule="evenodd" d="M316.867 293.651H240.668C238.373 293.651 236.22 292.638 234.779 290.845C233.321 289.069 232.751 286.76 233.214 284.522L244.778 228.42C245.774 223.554 250.133 220.002 255.115 220.002H320.461C320.568 220.002 320.675 220.055 320.746 220.126C320.835 220.215 320.87 220.321 320.853 220.428L317.259 293.278C317.241 293.491 317.081 293.651 316.867 293.651ZM255.115 220.801C250.507 220.801 246.468 224.069 245.543 228.58L233.979 284.682C233.57 286.689 234.086 288.767 235.384 290.347C236.683 291.946 238.605 292.869 240.668 292.869H316.494L320.052 220.801H255.115Z" fill="#0E1412"/>
<path d="M326.617 293.26H311.833C307.261 293.26 303.845 289.069 304.752 284.593L317.491 222.808C317.775 221.405 319.021 220.41 320.462 220.41H324.251C325.835 220.41 327.151 221.618 327.276 223.181L332.488 286.902C332.755 290.329 330.051 293.26 326.617 293.26Z" fill="white"/>
<path fill-rule="evenodd" clip-rule="evenodd" d="M326.617 293.651H311.833C309.537 293.651 307.385 292.638 305.926 290.845C304.485 289.069 303.916 286.76 304.378 284.522L317.099 222.737C317.437 221.156 318.842 220.002 320.461 220.002H324.251C326.03 220.002 327.524 221.387 327.667 223.145L332.879 286.866C333.022 288.607 332.417 290.347 331.243 291.626C330.051 292.922 328.36 293.651 326.617 293.651ZM320.461 220.801C319.216 220.801 318.131 221.671 317.882 222.896L305.143 284.682C304.734 286.689 305.232 288.767 306.549 290.347C307.847 291.946 309.769 292.869 311.833 292.869H326.617C328.165 292.869 329.606 292.23 330.655 291.093C331.705 289.957 332.221 288.482 332.097 286.937L326.884 223.216C326.777 221.849 325.621 220.801 324.251 220.801H320.461Z" fill="#0E1412"/>
<path d="M306.477 250.246H246.824C246.611 250.246 246.433 250.069 246.433 249.838C246.433 249.625 246.611 249.447 246.824 249.447H306.477C308.079 249.447 309.449 248.364 309.804 246.819L315.071 224.672C315.124 224.459 315.337 224.317 315.551 224.37C315.764 224.424 315.889 224.637 315.836 224.85L310.587 247.014C310.125 248.914 308.435 250.246 306.477 250.246Z" fill="#0E1412"/>
<path d="M283.456 249.838L281.784 256.569C281.517 257.705 280.503 258.522 279.328 258.522H267.515C266.234 258.522 265.291 257.297 265.647 256.054L267.373 249.838H283.456Z" fill="white"/>
<path fill-rule="evenodd" clip-rule="evenodd" d="M279.329 258.913H267.515C266.768 258.913 266.092 258.575 265.647 257.989C265.202 257.403 265.06 256.657 265.256 255.947L266.982 249.749C267.035 249.571 267.195 249.447 267.373 249.447H283.456C283.581 249.447 283.687 249.5 283.776 249.607C283.847 249.696 283.865 249.82 283.847 249.944L282.175 256.675C281.855 257.989 280.681 258.913 279.329 258.913ZM267.675 250.246L266.021 256.16C265.896 256.64 265.985 257.119 266.27 257.51C266.572 257.901 267.017 258.131 267.515 258.131H279.329C280.325 258.131 281.179 257.457 281.41 256.48L282.958 250.246H267.675Z" fill="#0E1412"/>
<path d="M301.034 288.021H237.662C237.448 288.021 237.271 287.843 237.271 287.63C237.271 287.399 237.448 287.222 237.662 287.222H301.034C301.265 287.222 301.425 287.399 301.425 287.63C301.425 287.843 301.265 288.021 301.034 288.021Z" fill="#0E1412"/>
<path d="M270.166 217.853H265.22C263.886 217.853 262.801 218.936 262.801 220.268H272.586C272.586 218.936 271.501 217.853 270.166 217.853Z" fill="#0E1412"/>
<path fill-rule="evenodd" clip-rule="evenodd" d="M272.586 220.659H262.801C262.587 220.659 262.409 220.481 262.409 220.268C262.409 218.723 263.672 217.462 265.22 217.462H270.166C271.714 217.462 272.977 218.723 272.977 220.268C272.977 220.481 272.799 220.659 272.586 220.659ZM263.228 219.877H272.159C271.981 218.954 271.145 218.243 270.166 218.243H265.22C264.242 218.243 263.423 218.954 263.228 219.877Z" fill="#0E1412"/>
<path d="M309.823 217.853H304.877C303.524 217.853 302.457 218.936 302.457 220.268H312.242C312.242 218.936 311.157 217.853 309.823 217.853Z" fill="#0E1412"/>
<path fill-rule="evenodd" clip-rule="evenodd" d="M312.242 220.659H302.457C302.226 220.659 302.048 220.481 302.048 220.268C302.048 218.723 303.311 217.462 304.877 217.462H309.823C311.37 217.462 312.634 218.723 312.634 220.268C312.634 220.481 312.456 220.659 312.242 220.659ZM302.884 219.877H311.797C311.619 218.954 310.801 218.243 309.823 218.243H304.877C303.88 218.243 303.062 218.954 302.884 219.877Z" fill="#0E1412"/>
<path d="M308.523 217.728L309.324 213.004C309.893 209.648 307.616 206.931 304.271 206.931H274.596C271.251 206.931 268.066 209.648 267.497 213.004L266.696 217.728H268.974L269.596 214.052C270.023 211.441 272.514 209.328 275.111 209.328H302.937C305.552 209.328 307.313 211.441 306.869 214.052L306.246 217.728H308.523Z" fill="white"/>
<path fill-rule="evenodd" clip-rule="evenodd" d="M308.524 218.119H306.246C306.14 218.119 306.033 218.066 305.962 217.977C305.873 217.888 305.855 217.782 305.873 217.657L306.478 213.981C306.673 212.827 306.406 211.743 305.73 210.944C305.072 210.145 304.076 209.719 302.937 209.719H275.112C272.692 209.719 270.379 211.69 269.988 214.105L269.365 217.799C269.33 217.977 269.17 218.119 268.974 218.119H266.697C266.59 218.119 266.465 218.066 266.394 217.977C266.323 217.888 266.288 217.782 266.305 217.657L267.106 212.933C267.711 209.399 271.073 206.54 274.596 206.54H304.271C305.997 206.54 307.509 207.215 308.541 208.422C309.591 209.666 310 211.317 309.716 213.058L308.915 217.799C308.879 217.977 308.719 218.119 308.524 218.119ZM306.727 217.338H308.186L308.933 212.933C309.182 211.406 308.844 209.985 307.936 208.937C307.065 207.89 305.748 207.321 304.271 207.321H274.596C271.429 207.321 268.422 209.896 267.889 213.058L267.159 217.338H268.636L269.205 213.981C269.668 211.193 272.319 208.937 275.112 208.937H302.937C304.307 208.937 305.517 209.47 306.335 210.429C307.171 211.406 307.492 212.72 307.26 214.105L306.727 217.338Z" fill="#0E1412"/>
<path d="M302.795 204.977H276.731C275.682 204.977 274.685 205.829 274.507 206.877L274.134 209.15C273.956 210.198 274.667 211.033 275.717 211.033H301.763C302.813 211.033 303.809 210.198 303.987 209.15L304.379 206.877C304.556 205.829 303.845 204.977 302.795 204.977Z" fill="#0E1412"/>
<path fill-rule="evenodd" clip-rule="evenodd" d="M301.762 211.441H275.716C275.094 211.441 274.542 211.193 274.168 210.749C273.795 210.305 273.635 209.701 273.741 209.079L274.115 206.806C274.329 205.581 275.503 204.586 276.73 204.586H302.794C303.417 204.586 303.968 204.817 304.342 205.261C304.716 205.723 304.858 206.309 304.769 206.931L304.378 209.204C304.164 210.429 303.008 211.441 301.762 211.441ZM276.73 205.368C275.876 205.368 275.04 206.078 274.898 206.931L274.524 209.204C274.453 209.612 274.542 209.967 274.773 210.234C274.987 210.5 275.325 210.642 275.716 210.642H301.762C302.634 210.642 303.453 209.95 303.595 209.079L303.986 206.806C304.057 206.416 303.969 206.043 303.737 205.776C303.506 205.51 303.168 205.368 302.794 205.368H276.73Z" fill="#0E1412"/>
<path d="M311.69 288.021C311.565 288.021 311.423 287.95 311.352 287.825C311.245 287.63 311.316 287.381 311.494 287.275L321.511 281.592V224.761C321.511 224.53 321.689 224.37 321.902 224.37C322.133 224.37 322.293 224.53 322.293 224.761V281.805C322.293 281.947 322.222 282.089 322.098 282.16L311.886 287.967C311.826 288.003 311.761 288.021 311.69 288.021Z" fill="#0E1412"/>
<path d="M96.4628 18.7896C95.8401 29.5342 104.077 38.7514 114.859 39.3552C125.622 39.959 134.838 31.7364 135.443 20.9918C136.066 10.2295 127.828 1.03008 117.047 0.426258C106.283 -0.177568 97.0677 8.04511 96.4628 18.7896Z" fill="white"/>
<path fill-rule="evenodd" clip-rule="evenodd" d="M115.98 39.7814C115.601 39.7814 115.215 39.7695 114.824 39.7458C109.522 39.4439 104.647 37.0997 101.089 33.1393C97.5488 29.1789 95.7697 24.0641 96.0721 18.7718C96.3568 13.4617 98.723 8.59557 102.69 5.06142C106.658 1.5095 111.764 -0.266454 117.083 0.0354588C122.385 0.337371 127.26 2.68163 130.818 6.64202C134.359 10.6024 136.138 15.6994 135.853 21.0095C135.551 26.3196 133.202 31.1857 129.217 34.7199C125.552 38.0054 120.873 39.7814 115.98 39.7814ZM115.927 0.78136C111.23 0.78136 106.747 2.48628 103.206 5.64748C99.3991 9.03956 97.1396 13.7103 96.855 18.8073C96.5703 23.9043 98.2782 28.806 101.676 32.6065C105.092 36.4248 109.771 38.6625 114.877 38.9644C119.983 39.2486 124.894 37.5259 128.701 34.1338C132.508 30.7417 134.768 26.0532 135.052 20.9562C135.355 15.877 133.629 10.9753 130.231 7.15704C126.815 3.3565 122.136 1.10103 117.03 0.81688C116.662 0.7932 116.295 0.78136 115.927 0.78136Z" fill="#0E1412"/>
<path d="M98.3315 18.8962C97.7799 28.6107 105.234 36.9222 114.966 37.4727C124.698 38.0233 133.024 30.5998 133.576 20.8853C134.127 11.1708 126.673 2.84156 116.941 2.30878C107.209 1.75823 98.883 9.18173 98.3315 18.8962Z" fill="white"/>
<path d="M100.377 19.0028C99.8789 27.5984 106.462 34.9686 115.073 35.4481C123.683 35.9276 131.049 29.3566 131.547 20.761C132.027 12.1831 125.445 4.81288 116.834 4.33338C108.223 3.85387 100.857 10.4249 100.377 19.0028Z" fill="white"/>
<path d="M115.98 36.3538C115.66 36.3538 115.34 36.3479 115.02 36.336C110.625 36.0874 106.587 34.1339 103.651 30.8661C100.716 27.5806 99.2389 23.3538 99.488 18.9672C99.488 18.7363 99.6837 18.5765 99.8972 18.5942C100.111 18.5942 100.289 18.7896 100.271 19.0027C100.04 23.194 101.445 27.2076 104.238 30.3333C107.031 33.459 110.874 35.306 115.073 35.5369C119.254 35.7855 123.292 34.3825 126.424 31.5765C129.555 28.7882 131.405 24.9522 131.636 20.7787C131.868 16.5874 130.462 12.5738 127.669 9.44807C124.876 6.32239 121.033 4.47539 116.834 4.22676C111.622 3.9426 106.604 6.25135 103.438 10.4071C103.313 10.5669 103.064 10.6024 102.886 10.4781C102.726 10.3538 102.69 10.1052 102.815 9.92758C106.142 5.55872 111.408 3.14342 116.888 3.44534C121.282 3.69397 125.321 5.62976 128.256 8.91528C131.192 12.2008 132.668 16.4276 132.419 20.8142C132.17 25.2008 130.231 29.2322 126.94 32.1626C123.897 34.8975 120.037 36.3538 115.98 36.3538Z" fill="#0E1412"/>
<path d="M115.162 29.2321L115.037 27.0655C113.507 27.0832 111.995 26.7636 111.105 26.3018L111.639 23.6201C112.618 24.0819 113.987 24.4903 115.482 24.4015C116.763 24.3305 117.635 23.7799 117.581 22.8742C117.528 22.004 116.763 21.5067 115.055 21.0272C112.582 20.3524 110.856 19.3045 110.732 17.1024C110.607 15.0955 111.924 13.4616 114.343 12.8401L114.219 10.6734L116.443 10.5491L116.567 12.5559C118.097 12.5381 119.129 12.8045 119.912 13.1242L119.396 15.7171C118.791 15.504 117.706 15.0422 116.069 15.131C114.592 15.2198 114.148 15.8769 114.183 16.5163C114.219 17.2622 115.055 17.7062 117.03 18.31C119.787 19.1269 120.944 20.2991 121.068 22.3592C121.175 24.366 119.841 26.1775 117.261 26.7813L117.386 29.1078L115.162 29.2321Z" fill="#0E1412"/>
<path d="M63.3188 88.194C58.0348 79.1544 46.4172 76.0642 37.3438 81.3388C28.2703 86.5956 25.1925 98.2104 30.4586 107.268C35.7248 116.307 47.3602 119.398 56.4336 114.123C65.5071 108.866 68.5849 97.2514 63.3188 88.194Z" fill="white"/>
<path fill-rule="evenodd" clip-rule="evenodd" d="M46.9149 117.089C40.2254 117.089 33.7139 113.626 30.1201 107.463C24.7472 98.2282 27.8962 86.347 37.1476 81.0014C41.6131 78.3908 46.8437 77.6981 51.8608 79.0123C56.8601 80.3443 61.0588 83.541 63.6562 87.9987C69.0292 97.2336 65.8801 109.097 56.6288 114.46C53.5687 116.236 50.224 117.089 46.9149 117.089ZM46.8615 79.1544C43.6235 79.1544 40.4211 80.0069 37.539 81.6763C28.6612 86.8265 25.6545 98.2104 30.7961 107.055C35.9555 115.917 47.3596 118.936 56.2374 113.786C65.0973 108.635 68.1218 97.2514 62.9802 88.4071C60.4716 84.1093 56.4509 81.0547 51.6473 79.776C50.0639 79.3498 48.4627 79.1544 46.8615 79.1544Z" fill="#0E1412"/>
<path d="M44.2107 109.061L57.981 101.07C59.4221 100.235 59.9024 98.388 59.0662 96.9672L53.9246 88.1229C53.1062 86.6844 51.256 86.2049 49.8149 87.0396L36.0446 95.0314C34.6035 95.8661 34.1232 97.6953 34.9593 99.1339L40.101 107.978C40.9194 109.399 42.7696 109.896 44.2107 109.061Z" fill="white"/>
<path fill-rule="evenodd" clip-rule="evenodd" d="M42.6983 109.861C41.5241 109.861 40.3855 109.257 39.745 108.173L34.6034 99.3292C34.1586 98.5478 34.0341 97.6421 34.2654 96.7541C34.4967 95.8839 35.0482 95.138 35.8488 94.694L49.6191 86.7022C51.2381 85.7609 53.3374 86.3115 54.2803 87.9276L59.422 96.7541C59.8667 97.5533 59.9913 98.459 59.76 99.347C59.5287 100.217 58.9594 100.945 58.1766 101.407L44.4063 109.399C43.8726 109.719 43.2854 109.861 42.6983 109.861ZM51.327 87.0218C50.8822 87.0218 50.4197 87.1462 50.0105 87.377L36.2402 95.3688C35.6353 95.724 35.2083 96.2923 35.0304 96.9672C34.8525 97.6421 34.9414 98.3347 35.2973 98.9385L40.4389 107.765C40.7769 108.369 41.3462 108.813 42.0223 108.99C42.6983 109.168 43.41 109.061 44.0149 108.724L57.7852 100.732C58.3901 100.377 58.8171 99.8087 58.995 99.1339C59.1729 98.459 59.0839 97.7664 58.7281 97.1625L53.5865 88.3183C53.1061 87.5013 52.2344 87.0218 51.327 87.0218Z" fill="#0E1412"/>
<path d="M47.3068 99.1161C47.2475 99.1161 47.1882 99.0983 47.1288 99.0628C46.9331 98.974 46.8442 98.7254 46.9509 98.5478L50.7226 91.0177C50.8294 90.8224 51.0607 90.7336 51.2564 90.8401C51.4521 90.9289 51.5232 91.1776 51.4343 91.3729L47.6626 98.8852C47.5914 99.0273 47.4491 99.1161 47.3068 99.1161Z" fill="#0E1412"/>
<path d="M47.2531 99.1339C47.2531 99.1339 47.2472 99.1339 47.2353 99.1339L38.8202 98.6722C38.6067 98.6722 38.4287 98.4768 38.4465 98.2637C38.4643 98.0506 38.66 97.8907 38.8557 97.8907L47.2887 98.3525C47.5022 98.3525 47.6623 98.5478 47.6623 98.761C47.6445 98.9741 47.4666 99.1339 47.2531 99.1339Z" fill="#0E1412"/>
<path d="M75.612 33.9563C70.1501 25.485 58.8528 23.0519 50.3665 28.5041C41.8979 33.9563 39.4427 45.2336 44.9046 53.7049C50.3665 62.1585 61.6638 64.6093 70.1501 59.1571C78.6365 53.7049 81.0739 42.4276 75.612 33.9563Z" fill="white"/>
<path fill-rule="evenodd" clip-rule="evenodd" d="M60.2935 62.4604C58.977 62.4604 57.6426 62.3183 56.3083 62.0341C51.4513 60.9686 47.2704 58.0915 44.584 53.918C41.8797 49.7268 40.9724 44.7541 42.0221 39.888C43.0895 35.0218 45.9717 30.8661 50.1526 28.1666C54.3513 25.4672 59.3328 24.5792 64.2075 25.627C69.0823 26.6748 73.2454 29.5519 75.9497 33.7431C81.5183 42.3743 79.0097 53.918 70.3633 59.4767C67.321 61.4481 63.8339 62.4604 60.2935 62.4604ZM60.2223 25.9822C56.842 25.9822 53.5151 26.959 50.5796 28.8238C46.5766 31.4166 43.8012 35.3948 42.8049 40.0478C41.7908 44.7008 42.6626 49.4781 45.2423 53.4918C47.822 57.4877 51.8072 60.2582 56.4862 61.2527C61.1475 62.265 65.9333 61.3948 69.9363 58.8196C78.2269 53.4918 80.6287 42.4453 75.2914 34.1694C72.6939 30.1557 68.7087 27.403 64.0474 26.3907C62.7665 26.1243 61.5033 25.9822 60.2223 25.9822Z" fill="#0E1412"/>
<path d="M57.6965 52.7814C57.7143 54.1844 58.8707 55.321 60.2762 55.3033C61.6817 55.2855 62.8025 54.1311 62.7847 52.7281C62.767 51.3251 61.6105 50.2063 60.205 50.224C58.7995 50.2418 57.6787 51.3784 57.6965 52.7814Z" fill="#0E1412"/>
<path d="M64.7416 49.5492C65.0618 49.5492 65.3999 49.4071 65.6134 49.1407C66.0226 48.6435 65.9514 47.9153 65.471 47.5069C63.8698 46.1927 62.0552 45.5 60.2405 45.5178C58.408 45.5355 56.6289 46.2815 55.0633 47.6489C54.5829 48.0574 54.5295 48.7855 54.9565 49.2651C55.3657 49.7446 56.0951 49.7978 56.5755 49.3716C57.7497 48.3593 58.9773 47.8443 60.2583 47.8265C61.557 47.8088 62.8024 48.306 63.9944 49.2828C64.2079 49.4604 64.4747 49.5492 64.7416 49.5492Z" fill="#0E1412"/>
<path d="M53.1066 45.5356C53.3734 45.5356 53.6403 45.4468 53.8538 45.2514C55.8464 43.5465 57.9813 42.6585 60.2052 42.623C62.4291 42.6052 64.5818 43.4399 66.61 45.0916C67.1082 45.5 67.8376 45.429 68.2468 44.9495C68.656 44.4522 68.5848 43.7241 68.0867 43.3156C65.6493 41.3265 62.9273 40.2965 60.1696 40.3143C57.4298 40.3498 54.7078 41.4686 52.3416 43.511C51.8612 43.9372 51.8078 44.6653 52.217 45.1449C52.4483 45.4112 52.7863 45.5533 53.1066 45.5356Z" fill="#0E1412"/>
<path d="M50.3848 41.4153C50.6517 41.4153 50.9185 41.3265 51.132 41.1311C53.943 38.6625 56.9675 37.3838 60.1343 37.3483C63.3011 37.3128 66.3612 38.5027 69.2255 40.9002C69.7237 41.3087 70.4531 41.2554 70.8623 40.7582C71.2715 40.2786 71.2003 39.5505 70.72 39.142C69.1188 37.8101 67.4286 36.78 65.6851 36.0874C63.8704 35.377 61.9846 35.0218 60.0987 35.0396C58.2307 35.0573 56.3626 35.4658 54.5657 36.2295C52.84 36.9576 51.1676 38.0232 49.602 39.4084C49.1216 39.8169 49.086 40.545 49.4952 41.0245C49.7443 41.2909 50.0646 41.4153 50.3848 41.4153Z" fill="#0E1412"/>
<path d="M74.7918 255.974C74.6139 255.974 74.4419 255.974 74.2759 255.974C74.0446 255.956 73.8845 255.779 73.8845 255.566C73.8845 255.353 74.0624 255.175 74.2759 255.175C75.8059 255.21 77.3715 255.104 78.9371 254.891C79.1506 254.855 79.3463 255.015 79.3819 255.228C79.4175 255.441 79.2574 255.637 79.0439 255.672C77.6206 255.868 76.1973 255.974 74.7918 255.974ZM69.579 255.459C69.5553 255.459 69.5316 255.459 69.5079 255.459C67.8889 255.139 66.3411 254.642 64.9178 254.021C64.7221 253.932 64.6331 253.701 64.7043 253.506C64.7932 253.31 65.0245 253.221 65.238 253.31C66.6079 253.914 68.1024 254.376 69.6502 254.678C69.8637 254.731 70.006 254.944 69.9704 255.157C69.9348 255.335 69.7569 255.459 69.579 255.459ZM83.6162 254.678C83.4383 254.678 83.2782 254.571 83.2248 254.394C83.1714 254.18 83.2959 253.967 83.4916 253.914C84.9861 253.47 86.4628 252.919 87.886 252.28C88.0817 252.191 88.313 252.28 88.402 252.476C88.4909 252.689 88.402 252.919 88.2063 253.008C86.7474 253.665 85.253 254.216 83.7229 254.66C83.6874 254.672 83.6518 254.678 83.6162 254.678ZM61.0215 251.659C60.9326 251.659 60.8436 251.641 60.7724 251.588C59.4915 250.593 58.3529 249.439 57.3921 248.16C57.2676 247.982 57.3032 247.734 57.4633 247.609C57.6412 247.485 57.8903 247.521 58.0148 247.68C58.94 248.924 60.043 250.025 61.2528 250.966C61.4307 251.09 61.4663 251.339 61.324 251.516C61.2528 251.605 61.1283 251.659 61.0215 251.659ZM92.1915 250.788C92.0669 250.788 91.9424 250.735 91.8712 250.611C91.7467 250.433 91.8001 250.185 91.978 250.06C93.3123 249.226 94.5577 248.284 95.7141 247.272C95.8742 247.13 96.1233 247.148 96.2656 247.307C96.408 247.467 96.3902 247.716 96.2301 247.858C95.0558 248.906 93.7749 249.865 92.405 250.735C92.3457 250.771 92.2745 250.788 92.1915 250.788ZM99.2901 244.608C99.2012 244.608 99.1122 244.572 99.0233 244.501C98.8631 244.359 98.8453 244.111 99.0055 243.951C100.02 242.797 101.016 241.571 101.977 240.328C102.101 240.15 102.35 240.115 102.528 240.239C102.688 240.363 102.724 240.612 102.599 240.79C101.639 242.068 100.624 243.312 99.5926 244.466C99.5036 244.555 99.3969 244.608 99.2901 244.608ZM55.364 244.235C55.2038 244.235 55.0615 244.146 55.0081 243.986C54.4032 242.566 53.9407 241.021 53.6204 239.404C53.5849 239.191 53.7272 238.978 53.9407 238.943C54.1542 238.907 54.3677 239.049 54.4032 239.262C54.7057 240.825 55.1505 242.317 55.7376 243.685C55.8087 243.88 55.7198 244.111 55.5241 244.2C55.4648 244.223 55.4114 244.235 55.364 244.235ZM53.5137 235.036C53.3002 235.036 53.1223 234.876 53.1223 234.663C53.1104 234.402 53.1045 234.142 53.1045 233.881C53.1045 232.514 53.2112 231.164 53.4069 229.885C53.4425 229.672 53.6382 229.512 53.8695 229.548C54.083 229.583 54.2253 229.779 54.1897 230.01C53.994 231.253 53.9051 232.549 53.9051 233.881C53.9051 234.13 53.9051 234.379 53.9051 234.627C53.9229 234.858 53.745 235.036 53.5315 235.036C53.5196 235.036 53.5137 235.036 53.5137 235.036ZM55.0081 225.783C54.9607 225.783 54.9133 225.771 54.8658 225.747C54.6523 225.676 54.5634 225.445 54.6345 225.25C55.2216 223.741 55.9689 222.302 56.8762 220.988C56.9829 220.81 57.232 220.775 57.4099 220.899C57.5878 221.023 57.6412 221.254 57.5167 221.45C56.6449 222.693 55.9333 224.078 55.364 225.534C55.3106 225.694 55.1683 225.783 55.0081 225.783ZM60.3099 218.075C60.2031 218.075 60.0964 218.04 60.0074 217.951C59.8651 217.791 59.8829 217.542 60.043 217.383C61.235 216.335 62.5516 215.394 63.9748 214.63C64.1705 214.523 64.4018 214.594 64.5086 214.772C64.6153 214.967 64.5442 215.216 64.3484 215.305C62.9785 216.068 61.7154 216.956 60.5767 217.969C60.4878 218.04 60.3988 218.075 60.3099 218.075ZM90.9461 217.756C90.8572 217.756 90.786 217.72 90.7148 217.667C89.4517 216.743 88.1173 215.926 86.7474 215.251C86.5517 215.163 86.4628 214.914 86.5517 214.719C86.6585 214.523 86.8897 214.452 87.0854 214.541C88.5087 215.251 89.8964 216.086 91.1774 217.045C91.3553 217.169 91.3909 217.418 91.2663 217.596C91.1774 217.685 91.0706 217.756 90.9461 217.756ZM82.5131 213.582C82.4776 213.582 82.442 213.576 82.4064 213.564C80.9119 213.138 79.3641 212.854 77.8341 212.694C77.6206 212.676 77.4605 212.481 77.4783 212.268C77.5138 212.055 77.6918 211.895 77.923 211.913C79.5064 212.072 81.0899 212.374 82.6199 212.818C82.8334 212.872 82.9579 213.085 82.8868 213.298C82.8334 213.476 82.691 213.582 82.5131 213.582ZM68.5116 213.564C68.3514 213.564 68.1913 213.44 68.138 213.28C68.0846 213.067 68.1913 212.854 68.4048 212.783C69.9171 212.339 71.5183 212.037 73.1195 211.895C73.3329 211.877 73.5286 212.037 73.5464 212.25C73.5642 212.463 73.4041 212.659 73.1906 212.676C71.625 212.818 70.095 213.103 68.6361 213.547C68.5887 213.558 68.5471 213.564 68.5116 213.564Z" fill="#0E1412"/>
<path d="M94.6668 191.484C94.6193 191.484 94.5659 191.472 94.5066 191.448C94.3109 191.359 94.222 191.128 94.3109 190.933C94.9514 189.512 95.5207 188.056 96.0367 186.582C96.1078 186.369 96.3391 186.262 96.5526 186.333C96.7483 186.404 96.8551 186.635 96.7839 186.831C96.268 188.34 95.6631 189.814 95.0226 191.253C94.9692 191.395 94.8269 191.484 94.6668 191.484ZM97.798 182.586C97.7624 182.586 97.7328 182.586 97.709 182.586C97.4955 182.515 97.371 182.302 97.4244 182.089C97.8158 180.615 98.1538 179.07 98.4563 177.525C98.4918 177.311 98.6875 177.169 98.9188 177.205C99.1323 177.24 99.2569 177.454 99.2213 177.667C98.9366 179.229 98.5808 180.792 98.1894 182.302C98.136 182.479 97.9759 182.586 97.798 182.586ZM99.5415 173.316C99.5296 173.316 99.5178 173.316 99.5059 173.316C99.2924 173.298 99.1323 173.102 99.1501 172.889C99.328 171.362 99.4703 169.781 99.5593 168.201C99.5771 167.988 99.755 167.828 99.9685 167.828C100.182 167.846 100.36 168.023 100.342 168.254C100.253 169.852 100.111 171.433 99.9329 172.978C99.9151 173.173 99.7372 173.316 99.5415 173.316ZM100.075 163.903C99.8617 163.903 99.6838 163.725 99.6838 163.512C99.6838 161.967 99.6483 160.387 99.5593 158.806C99.5593 158.593 99.7194 158.398 99.9329 158.398C100.146 158.38 100.342 158.557 100.342 158.77C100.431 160.369 100.467 161.967 100.467 163.512C100.467 163.725 100.289 163.903 100.075 163.903ZM99.6127 154.473C99.417 154.473 99.2391 154.313 99.2213 154.117C99.0789 152.59 98.901 151.027 98.6875 149.447C98.652 149.234 98.8121 149.02 99.0256 149.003C99.2391 148.967 99.4348 149.127 99.4703 149.34C99.6838 150.921 99.8617 152.519 100.004 154.046C100.022 154.26 99.8617 154.455 99.6483 154.473C99.6364 154.473 99.6245 154.473 99.6127 154.473ZM98.3673 145.113C98.1894 145.113 98.0115 144.971 97.9759 144.794C97.7268 143.284 97.4422 141.721 97.1397 140.158C97.0863 139.945 97.2287 139.732 97.4422 139.697C97.6557 139.643 97.8691 139.785 97.9047 139.999C98.225 141.579 98.5096 143.142 98.7587 144.652C98.7943 144.865 98.652 145.078 98.4385 145.113C98.4147 145.113 98.391 145.113 98.3673 145.113ZM96.5348 135.861C96.3569 135.861 96.1968 135.736 96.1434 135.541C95.8232 134.085 95.4496 132.54 95.0582 130.959C95.0048 130.746 95.1471 130.533 95.3606 130.479C95.5563 130.444 95.7698 130.568 95.8232 130.781C96.2146 132.344 96.5882 133.907 96.9262 135.381C96.9618 135.594 96.8373 135.79 96.6238 135.843C96.5882 135.855 96.5585 135.861 96.5348 135.861Z" fill="#0E1412"/>
<path d="M87.5143 111.051C87.372 111.051 87.2296 110.962 87.1585 110.82C86.518 109.47 85.8064 108.067 85.0413 106.628C84.9346 106.451 85.0058 106.202 85.2015 106.096C85.3794 106.007 85.6284 106.078 85.7352 106.256C86.5002 107.694 87.2296 109.115 87.8701 110.5C87.9769 110.695 87.8879 110.926 87.6922 111.015C87.6329 111.039 87.5736 111.051 87.5143 111.051ZM83.031 102.739C82.9064 102.739 82.7819 102.668 82.6929 102.544C81.9101 101.23 81.0739 99.8976 80.2022 98.5656C80.0776 98.3703 80.131 98.1394 80.3089 98.0151C80.5046 97.8908 80.7359 97.944 80.8604 98.1216C81.7322 99.4714 82.5862 100.821 83.369 102.153C83.4935 102.331 83.4224 102.579 83.2444 102.686C83.1733 102.721 83.1021 102.739 83.031 102.739ZM77.8893 94.8184C77.7648 94.8184 77.6403 94.7651 77.5513 94.6585C76.6795 93.3976 75.7366 92.1012 74.7937 90.8402C74.6691 90.6626 74.7047 90.414 74.8648 90.2897C75.0428 90.1476 75.2918 90.1831 75.4164 90.3607C76.3771 91.6394 77.32 92.9359 78.2096 94.1968C78.3341 94.3744 78.2807 94.623 78.1028 94.7473C78.0317 94.7947 77.9605 94.8184 77.8893 94.8184ZM72.2318 87.2528C72.1072 87.2528 72.0005 87.1995 71.9115 87.093C70.9508 85.8853 69.9545 84.6599 68.9404 83.4522C68.7981 83.2747 68.8159 83.026 68.9938 82.9017C69.1539 82.7596 69.403 82.7774 69.5453 82.9372C70.5594 84.1449 71.5557 85.388 72.5342 86.6135C72.6765 86.791 72.641 87.0219 72.4631 87.164C72.3919 87.2173 72.3029 87.2528 72.2318 87.2528ZM66.1472 80.0069C66.0405 80.0069 65.9337 79.9714 65.8626 79.8826C64.8129 78.6927 63.7454 77.5206 62.678 76.4017C62.5356 76.2419 62.5356 75.9932 62.6958 75.8334C62.8559 75.6913 63.1049 75.7091 63.2473 75.8512C64.3147 76.9878 65.4 78.1777 66.4497 79.3498C66.592 79.5274 66.5742 79.776 66.4141 79.9181C66.3429 79.9714 66.254 80.0069 66.1472 80.0069ZM59.6713 73.1339C59.5823 73.1339 59.4756 73.0984 59.4044 73.0096C58.248 71.873 57.1094 70.7719 56.0063 69.7419C55.8462 69.5998 55.8284 69.3512 55.9885 69.1913C56.1308 69.0315 56.3799 69.0137 56.54 69.1736C57.6609 70.2036 58.7995 71.3047 59.9559 72.4591C60.116 72.6189 60.116 72.8676 59.9559 73.0096C59.8848 73.0984 59.778 73.1339 59.6713 73.1339Z" fill="#0E1412"/>
<path fill-rule="evenodd" clip-rule="evenodd" d="M76.7129 221.041C77.3652 221.159 77.9939 221.325 78.5988 221.538L80.6625 219.301L83.0999 220.704L82.1926 223.616C82.6907 224.042 83.1473 224.504 83.5625 225.001L86.4802 224.078L87.8857 226.511L85.644 228.571C85.8575 229.175 86.0236 229.802 86.1422 230.454L89.1311 231.129V233.917L86.1422 234.592C86.0236 235.243 85.8575 235.87 85.644 236.474L87.8857 238.552L86.4802 240.967L83.5625 240.062C83.1473 240.559 82.6907 241.015 82.1926 241.429L83.0999 244.359L80.6625 245.745L78.5988 243.507C77.9939 243.72 77.3652 243.886 76.7129 244.004L76.0368 246.988H73.2436L72.5676 244.004C71.9152 243.886 71.2866 243.72 70.6817 243.507L68.6002 245.745L66.1806 244.359L67.0879 241.429C66.5898 241.015 66.1331 240.559 65.718 240.062L62.8003 240.967L61.3948 238.552L63.6365 236.474C63.423 235.87 63.2569 235.243 63.1383 234.592L60.1494 233.917V231.129L63.1383 230.454C63.2569 229.802 63.423 229.175 63.6365 228.571L61.3948 226.511L62.8003 224.078L65.718 225.001C66.1331 224.504 66.5898 224.042 67.0879 223.616L66.1806 220.704L68.6002 219.301L70.6817 221.538C71.2866 221.325 71.9152 221.159 72.5676 221.041L73.2436 218.057H76.0368L76.7129 221.041ZM74.6491 225.339C70.6639 225.339 67.426 228.553 67.426 232.532C67.426 236.51 70.6639 239.724 74.6491 239.724C78.6166 239.724 81.8545 236.51 81.8545 232.532C81.8545 228.553 78.6166 225.339 74.6491 225.339Z" fill="white"/>
<path fill-rule="evenodd" clip-rule="evenodd" d="M76.0366 247.379H73.2434C73.0477 247.379 72.8876 247.254 72.852 247.077L72.2472 244.342C71.749 244.247 71.2627 244.123 70.7883 243.969L68.9024 246.011C68.7779 246.153 68.5644 246.189 68.4043 246.082L65.9847 244.697C65.8246 244.608 65.7534 244.413 65.8068 244.235L66.643 241.571C66.2634 241.24 65.9135 240.884 65.5933 240.506L62.9068 241.34C62.7289 241.394 62.551 241.322 62.4443 241.163L61.0566 238.747C60.9676 238.588 60.9854 238.374 61.1277 238.25L63.1737 236.368C63.0195 235.894 62.895 235.414 62.8001 234.929L60.0603 234.307C59.8824 234.272 59.7578 234.112 59.7578 233.917V231.129C59.7578 230.951 59.8824 230.791 60.0603 230.738L62.8001 230.134C62.895 229.637 63.0195 229.157 63.1737 228.695L61.1277 226.795C60.9854 226.671 60.9676 226.475 61.0566 226.316L62.4443 223.883C62.551 223.723 62.7289 223.652 62.9068 223.705L65.5933 224.54C65.9135 224.173 66.2634 223.823 66.643 223.492L65.8068 220.81C65.7534 220.65 65.8246 220.455 65.9847 220.366L68.4043 218.963C68.5644 218.874 68.7779 218.91 68.9024 219.034L70.7883 221.094C71.2627 220.929 71.749 220.798 72.2472 220.704L72.852 217.986C72.8876 217.791 73.0477 217.667 73.2434 217.667H76.0366C76.2323 217.667 76.3925 217.791 76.4281 217.986L77.0329 220.704C77.5311 220.798 78.0174 220.929 78.4918 221.094L80.3777 219.034C80.5022 218.892 80.7157 218.874 80.8758 218.963L83.2954 220.366C83.4555 220.455 83.5267 220.65 83.4733 220.81L82.6371 223.492C83.0167 223.823 83.3666 224.173 83.6868 224.54L86.3733 223.705C86.5512 223.652 86.7291 223.723 86.818 223.883L88.2235 226.316C88.3125 226.475 88.2947 226.671 88.1524 226.795L86.1064 228.695C86.2606 229.157 86.3851 229.637 86.48 230.134L89.2198 230.738C89.3977 230.791 89.5223 230.951 89.5223 231.129V233.917C89.5223 234.112 89.3977 234.272 89.2198 234.307L86.48 234.929C86.3851 235.414 86.2606 235.894 86.1064 236.368L88.1524 238.25C88.2947 238.374 88.3125 238.588 88.2235 238.747L86.818 241.163C86.7291 241.322 86.5512 241.394 86.3733 241.34L83.6868 240.506C83.3666 240.884 83.0167 241.24 82.6371 241.571L83.4733 244.235C83.5267 244.413 83.4555 244.608 83.2954 244.697L80.8758 246.082C80.7157 246.189 80.5022 246.153 80.3777 246.011L78.4918 243.969C78.0174 244.123 77.5311 244.247 77.0329 244.342L76.4281 247.077C76.3925 247.254 76.2323 247.379 76.0366 247.379ZM73.5459 246.597H75.7164L76.3213 243.915C76.3569 243.773 76.4814 243.649 76.6415 243.613C77.2642 243.507 77.8869 243.347 78.4562 243.134C78.6164 243.081 78.7765 243.134 78.8832 243.241L80.7513 245.247L82.6193 244.164L81.8187 241.553C81.7654 241.394 81.8187 241.234 81.9255 241.127C82.4059 240.736 82.8506 240.292 83.2598 239.813C83.3666 239.689 83.5267 239.635 83.6868 239.689L86.3021 240.506L87.3874 238.623L85.377 236.758C85.2524 236.652 85.2168 236.492 85.2702 236.35C85.4837 235.764 85.6438 235.16 85.7506 234.521C85.7862 234.379 85.8929 234.254 86.053 234.219L88.7395 233.615V231.448L86.053 230.844C85.8929 230.809 85.7862 230.685 85.7506 230.525C85.6438 229.903 85.4837 229.281 85.2702 228.713C85.2168 228.553 85.2524 228.394 85.377 228.287L87.3874 226.422L86.3021 224.557L83.6868 225.374C83.5267 225.41 83.3666 225.374 83.2598 225.25C82.8506 224.771 82.4059 224.327 81.9255 223.918C81.8187 223.812 81.7654 223.652 81.8187 223.492L82.6193 220.881L80.7513 219.798L78.8832 221.805C78.7765 221.929 78.6164 221.965 78.4562 221.911C77.8869 221.698 77.2642 221.538 76.6415 221.432C76.4814 221.396 76.3569 221.29 76.3213 221.13L75.7164 218.466H73.5459L72.9588 221.13C72.9232 221.29 72.7987 221.396 72.6386 221.432C72.0159 221.538 71.3932 221.698 70.8061 221.911C70.6637 221.965 70.5036 221.929 70.3969 221.805L68.5288 219.798L66.6607 220.881L67.4613 223.492C67.5147 223.652 67.4614 223.812 67.3546 223.918C66.8742 224.327 66.4117 224.771 66.0203 225.25C65.9135 225.374 65.7534 225.41 65.5933 225.374L62.978 224.557L61.8927 226.422L63.9031 228.287C64.0277 228.394 64.0633 228.553 64.0099 228.713C63.7964 229.281 63.6363 229.903 63.5295 230.525C63.4939 230.685 63.3694 230.809 63.2271 230.844L60.5406 231.448V233.615L63.2271 234.219C63.3694 234.254 63.4939 234.379 63.5295 234.521C63.6363 235.16 63.7964 235.764 64.0099 236.35C64.0633 236.492 64.0277 236.652 63.9031 236.758L61.8927 238.623L62.978 240.506L65.5933 239.689C65.7534 239.635 65.9135 239.689 66.0203 239.813C66.4117 240.275 66.8742 240.736 67.3546 241.127C67.4614 241.234 67.5147 241.394 67.4613 241.553L66.6607 244.164L68.5288 245.247L70.3969 243.241C70.5036 243.134 70.6637 243.081 70.8061 243.134C71.3932 243.347 72.0159 243.507 72.6386 243.613C72.7987 243.649 72.9232 243.773 72.9588 243.915L73.5459 246.597ZM74.6312 240.133C70.4325 240.133 67.0166 236.723 67.0166 232.531C67.0166 228.358 70.4325 224.948 74.6312 224.948C78.8121 224.948 82.2279 228.358 82.2279 232.531C82.2279 236.723 78.8121 240.133 74.6312 240.133ZM74.6312 225.73C70.8594 225.73 67.7994 228.784 67.7994 232.531C67.7994 236.279 70.8594 239.333 74.6312 239.333C78.3851 239.333 81.4451 236.279 81.4451 232.531C81.4451 228.784 78.3851 225.73 74.6312 225.73Z" fill="#0E1412"/>
<path fill-rule="evenodd" clip-rule="evenodd" d="M62.0355 172.664C63.1504 172.865 64.2238 173.155 65.2557 173.534L68.8139 169.698L72.9592 172.078L71.3936 177.068C72.2476 177.797 73.0304 178.578 73.7598 179.43L78.7591 177.868L81.1609 182.023L77.3181 185.557C77.6857 186.599 77.9704 187.671 78.172 188.772L83.2781 189.926V194.704L78.172 195.858C77.9704 196.971 77.6857 198.048 77.3181 199.09L81.1609 202.624L78.7591 206.762L73.7598 205.217C73.0304 206.052 72.2476 206.851 71.3936 207.562L72.9592 212.552L68.8139 214.95L65.2557 211.113C64.2238 211.48 63.1504 211.765 62.0355 211.966L60.8791 217.063H56.0933L54.9369 211.966C53.822 211.765 52.7486 211.48 51.7167 211.113L48.1585 214.95L44.0132 212.552L45.5788 207.562C44.7248 206.851 43.942 206.052 43.2126 205.217L38.2133 206.762L35.8115 202.624L39.6543 199.09C39.2867 198.048 39.002 196.971 38.8004 195.858L33.6943 194.704V189.926L38.8004 188.772C39.002 187.671 39.2867 186.599 39.6543 185.557L35.8115 182.023L38.2133 177.868L43.2126 179.43C43.942 178.578 44.7248 177.797 45.5788 177.068L44.0132 172.078L48.1585 169.698L51.7167 173.534C52.7486 173.155 53.822 172.865 54.9369 172.664L56.0933 167.567H60.8791L62.0355 172.664ZM58.4951 179.999C51.6811 179.999 46.1481 185.522 46.1481 192.324C46.1481 199.126 51.6811 204.631 58.4951 204.631C65.3091 204.631 70.8243 199.126 70.8243 192.324C70.8243 185.522 65.3091 179.999 58.4951 179.999Z" fill="white"/>
<path fill-rule="evenodd" clip-rule="evenodd" d="M60.8789 217.454H56.0931C55.8974 217.454 55.7373 217.329 55.7017 217.152L54.6164 212.303C53.6557 212.126 52.7306 211.877 51.8232 211.575L48.4607 215.216C48.3362 215.34 48.1227 215.376 47.9626 215.287L43.8173 212.889C43.6571 212.801 43.586 212.605 43.6393 212.445L45.116 207.704C44.3866 207.064 43.7105 206.389 43.0878 205.661L38.3376 207.135C38.1597 207.189 37.964 207.118 37.875 206.958L35.4732 202.82C35.3843 202.66 35.4199 202.465 35.5444 202.34L39.2094 198.966C38.8891 198.078 38.6401 197.137 38.4621 196.195L33.6052 195.094C33.4273 195.059 33.3027 194.899 33.3027 194.704V189.926C33.3027 189.749 33.4273 189.589 33.6052 189.553L38.4621 188.452C38.6401 187.493 38.8891 186.57 39.2094 185.664L35.5444 182.307C35.4199 182.183 35.3843 181.988 35.4732 181.828L37.875 177.672C37.964 177.512 38.1597 177.441 38.3376 177.495L43.0878 178.969C43.7105 178.258 44.3866 177.566 45.116 176.944L43.6393 172.202C43.586 172.025 43.6571 171.829 43.8173 171.74L47.9626 169.361C48.1227 169.254 48.3362 169.29 48.4607 169.432L51.8232 173.072C52.7306 172.771 53.6557 172.522 54.6164 172.327L55.7017 167.496C55.7373 167.301 55.8974 167.176 56.0931 167.176H60.8789C61.0746 167.176 61.2169 167.301 61.2703 167.496L62.3556 172.327C63.3163 172.522 64.2414 172.771 65.1488 173.072L68.5113 169.432C68.6358 169.29 68.8493 169.254 69.0094 169.361L73.1547 171.74C73.3149 171.829 73.386 172.025 73.3326 172.202L71.856 176.944C72.5854 177.566 73.2615 178.258 73.8842 178.969L78.6344 177.495C78.8123 177.441 79.008 177.512 79.097 177.672L81.4988 181.828C81.5877 181.988 81.5521 182.183 81.4276 182.307L77.7626 185.664C78.0829 186.57 78.3319 187.493 78.5099 188.452L83.3668 189.553C83.5447 189.589 83.6693 189.749 83.6693 189.926V194.704C83.6693 194.899 83.5447 195.059 83.3668 195.094L78.5099 196.195C78.3319 197.137 78.0829 198.078 77.7626 198.966L81.4276 202.34C81.5521 202.465 81.5877 202.66 81.4988 202.82L79.097 206.958C79.008 207.118 78.8123 207.189 78.6344 207.135L73.8842 205.661C73.2615 206.389 72.5676 207.064 71.856 207.704L73.3326 212.445C73.386 212.605 73.3149 212.801 73.1547 212.889L69.0094 215.287C68.8493 215.376 68.6358 215.34 68.5113 215.216L65.1488 211.575C64.2414 211.877 63.3163 212.126 62.3556 212.303L61.2703 217.152C61.2169 217.329 61.0746 217.454 60.8789 217.454ZM56.4133 216.672H60.5587L61.6439 211.877C61.6795 211.735 61.804 211.611 61.9642 211.575C63.0494 211.38 64.1169 211.113 65.131 210.74C65.2733 210.687 65.4334 210.723 65.558 210.847L68.8849 214.452L72.4787 212.374L71.0198 207.686C70.9842 207.526 71.0198 207.366 71.1443 207.26C71.9805 206.567 72.7455 205.786 73.4572 204.951C73.5639 204.844 73.7241 204.791 73.8664 204.844L78.581 206.301L80.6626 202.695L77.051 199.374C76.9264 199.268 76.8909 199.09 76.9442 198.948C77.3001 197.936 77.5847 196.87 77.7804 195.787C77.816 195.645 77.9227 195.521 78.0829 195.485L82.8865 194.402V190.246L78.0829 189.163C77.9227 189.127 77.816 189.003 77.7804 188.843C77.5847 187.76 77.3001 186.694 76.9442 185.699C76.8909 185.54 76.9264 185.38 77.051 185.273L80.6626 181.934L78.581 178.347L73.8664 179.803C73.7241 179.857 73.5639 179.803 73.4572 179.679C72.7633 178.862 71.9805 178.081 71.1443 177.37C71.0198 177.281 70.9842 177.104 71.0198 176.962L72.4787 172.273L68.8849 170.195L65.558 173.801C65.4334 173.907 65.2733 173.96 65.131 173.889C64.1169 173.534 63.0494 173.25 61.9642 173.055C61.804 173.037 61.6795 172.913 61.6439 172.753L60.5587 167.975H56.4133L55.3281 172.753C55.2925 172.913 55.168 173.037 55.0078 173.055C53.9226 173.25 52.8551 173.534 51.841 173.889C51.6987 173.96 51.5208 173.907 51.414 173.801L48.0871 170.195L44.4933 172.273L45.9522 176.962C45.9878 177.104 45.9522 177.281 45.8277 177.37C44.9915 178.081 44.2087 178.862 43.5148 179.679C43.4081 179.803 43.2479 179.857 43.0878 179.803L38.391 178.347L36.3094 181.934L39.921 185.273C40.0456 185.38 40.0811 185.54 40.0278 185.699C39.6719 186.694 39.3873 187.76 39.1916 188.843C39.156 189.003 39.0493 189.127 38.8891 189.163L34.0855 190.246V194.402L38.8891 195.485C39.0493 195.521 39.156 195.645 39.1916 195.787C39.3873 196.888 39.6719 197.936 40.0278 198.948C40.0811 199.09 40.0456 199.268 39.921 199.374L36.3094 202.695L38.391 206.301L43.0878 204.844C43.2479 204.791 43.4081 204.844 43.5148 204.951C44.2265 205.786 44.9915 206.567 45.8277 207.26C45.9522 207.366 45.9878 207.526 45.9522 207.686L44.4933 212.374L48.0871 214.452L51.414 210.847C51.5208 210.723 51.6987 210.687 51.841 210.74C52.8551 211.113 53.9226 211.38 55.0078 211.575C55.168 211.611 55.2925 211.735 55.3281 211.877L56.4133 216.672ZM58.4949 205.04C51.4674 205.04 45.7565 199.339 45.7565 192.324C45.7565 188.932 47.0908 185.735 49.4926 183.337C51.8944 180.94 55.0968 179.626 58.4949 179.626C65.5046 179.626 71.2155 185.327 71.2155 192.324C71.2155 199.339 65.5046 205.04 58.4949 205.04ZM58.4949 180.407C55.2925 180.407 52.3036 181.65 50.0441 183.888C47.7847 186.143 46.5393 189.145 46.5393 192.324C46.5393 198.895 51.9122 204.24 58.4949 204.24C65.0776 204.24 70.4327 198.895 70.4327 192.324C70.4327 185.753 65.0776 180.407 58.4949 180.407Z" fill="#0E1412"/>
<path d="M113.33 117H176.541C178.445 117 179.548 115.455 178.996 113.555L166.81 71.8374C166.258 69.9372 164.265 68.3921 162.344 68.3921H99.1323C97.2286 68.3921 96.1256 69.9372 96.6949 71.8374L108.864 113.555C109.416 115.455 111.408 117 113.33 117Z" fill="white"/>
<path fill-rule="evenodd" clip-rule="evenodd" d="M176.541 117.408H113.329C111.248 117.408 109.077 115.721 108.472 113.661L96.3034 71.9617C96.0009 70.8784 96.1433 69.8839 96.7126 69.1202C97.2463 68.3921 98.1181 68.0013 99.1322 68.0013H162.344C164.425 68.0013 166.596 69.6707 167.201 71.7309L179.37 113.448C179.672 114.514 179.53 115.526 178.961 116.29C178.427 117 177.555 117.408 176.541 117.408ZM99.1322 68.7828C98.3672 68.7828 97.7267 69.0669 97.3353 69.5819C96.9261 70.1502 96.8193 70.9139 97.0684 71.7309L109.238 113.448C109.753 115.188 111.586 116.609 113.329 116.609H176.541C177.306 116.609 177.947 116.325 178.338 115.81C178.747 115.26 178.854 114.496 178.605 113.661L166.436 71.9617C165.938 70.2035 164.087 68.7828 162.344 68.7828H99.1322Z" fill="#0E1412"/>
<path fill-rule="evenodd" clip-rule="evenodd" d="M116.407 80.0245H112.937C112.137 80.0245 111.354 79.4207 111.123 78.6393L110.108 75.1584C109.984 74.7322 110.055 74.3237 110.286 74.0218C110.5 73.7199 110.856 73.5601 111.265 73.5601H114.752C115.535 73.5601 116.335 74.1639 116.567 74.9453L117.581 78.4262C117.705 78.8346 117.634 79.2431 117.403 79.5628C117.189 79.8469 116.816 80.0245 116.407 80.0245ZM111.265 74.3415C111.158 74.3415 110.998 74.3592 110.909 74.4836C110.838 74.5901 110.82 74.7499 110.874 74.9453L111.888 78.4262C112.012 78.8524 112.492 79.2431 112.937 79.2431H116.407C116.531 79.2431 116.673 79.2076 116.78 79.0833C116.851 78.9767 116.869 78.8169 116.816 78.6393L115.802 75.1584C115.677 74.7144 115.197 74.3415 114.752 74.3415H111.265Z" fill="#0E1412"/>
<path fill-rule="evenodd" clip-rule="evenodd" d="M109.13 80.0245H105.643C104.86 80.0245 104.077 79.4207 103.846 78.6393L102.832 75.1584C102.708 74.7322 102.779 74.3237 103.01 74.0218C103.224 73.7199 103.579 73.5601 103.989 73.5601H107.476C108.258 73.5601 109.059 74.1639 109.29 74.9453L110.304 78.4262C110.429 78.8346 110.358 79.2431 110.126 79.5628C109.913 79.8469 109.539 80.0245 109.13 80.0245ZM103.989 74.3415C103.882 74.3415 103.722 74.3592 103.633 74.4836C103.562 74.5901 103.544 74.7499 103.597 74.9453L104.611 78.4262C104.736 78.8524 105.216 79.2431 105.643 79.2431H109.13C109.255 79.2431 109.397 79.2076 109.504 79.0833C109.575 78.9767 109.593 78.8169 109.539 78.6393L108.525 75.1584C108.401 74.7144 107.92 74.3415 107.476 74.3415H103.989Z" fill="#0E1412"/>
<path fill-rule="evenodd" clip-rule="evenodd" d="M118.737 87.9808H115.25C114.468 87.9808 113.667 87.377 113.453 86.5956L112.439 83.1147C112.315 82.6885 112.368 82.28 112.6 81.9781C112.831 81.6762 113.187 81.5164 113.596 81.5164H117.083C117.866 81.5164 118.648 82.1202 118.88 82.9016L119.894 86.3825C120.018 86.7909 119.965 87.1994 119.734 87.5191C119.502 87.8032 119.147 87.9808 118.737 87.9808ZM113.596 82.2978C113.471 82.2978 113.329 82.3155 113.24 82.4399C113.151 82.5464 113.133 82.7062 113.187 82.9016L114.201 86.3647C114.343 86.8087 114.806 87.1994 115.25 87.1994H118.737C118.844 87.1994 119.004 87.1639 119.093 87.0396C119.182 86.933 119.2 86.7732 119.147 86.5956L118.133 83.1147C117.99 82.6707 117.51 82.2978 117.083 82.2978H113.596Z" fill="#0E1412"/>
<path fill-rule="evenodd" clip-rule="evenodd" d="M111.461 87.9808H107.974C107.191 87.9808 106.391 87.377 106.177 86.5956L105.163 83.1147C105.038 82.6885 105.092 82.28 105.323 81.9781C105.554 81.6762 105.91 81.5164 106.319 81.5164H109.807C110.589 81.5164 111.372 82.1202 111.603 82.9016L112.618 86.3647C112.742 86.7909 112.689 87.1994 112.457 87.5191C112.226 87.8032 111.87 87.9808 111.461 87.9808ZM106.319 82.2978C106.195 82.2978 106.053 82.3155 105.964 82.4399C105.875 82.5464 105.857 82.7062 105.91 82.9016L106.924 86.3825C107.049 86.8087 107.529 87.1994 107.974 87.1994H111.461C111.568 87.1994 111.728 87.1639 111.817 87.0396C111.906 86.933 111.924 86.7732 111.87 86.5956L110.856 83.1147C110.714 82.6707 110.234 82.2978 109.807 82.2978H106.319Z" fill="#0E1412"/>
<path d="M115.909 89.8633H119.396C120.019 89.8633 120.641 90.3429 120.819 90.9644L121.833 94.4453C122.011 95.0491 121.673 95.5464 121.068 95.5464H117.581C116.958 95.5464 116.318 95.0491 116.14 94.4453L115.126 90.9644C114.948 90.3429 115.304 89.8633 115.909 89.8633Z" fill="white"/>
<path d="M108.632 89.8633H112.119C112.724 89.8633 113.365 90.3429 113.543 90.9644L114.557 94.4453C114.735 95.0491 114.397 95.5464 113.774 95.5464H110.287C109.682 95.5464 109.042 95.0491 108.864 94.4453L107.85 90.9644C107.672 90.3429 108.028 89.8633 108.632 89.8633Z" fill="white"/>
<path d="M118.24 97.8197H121.727C122.332 97.8197 122.972 98.2992 123.15 98.9208L124.164 102.402C124.342 103.005 123.986 103.503 123.381 103.503H119.894C119.29 103.503 118.649 103.005 118.471 102.402L117.457 98.9208C117.279 98.2992 117.635 97.8197 118.24 97.8197Z" fill="white"/>
<path d="M110.962 97.8197H114.45C115.054 97.8197 115.695 98.2992 115.873 98.9208L116.887 102.402C117.065 103.005 116.709 103.503 116.104 103.503H112.617C112.012 103.503 111.372 103.005 111.194 102.402L110.18 98.9208C110.002 98.2992 110.358 97.8197 110.962 97.8197Z" fill="white"/>
<path d="M120.552 105.776H124.039C124.662 105.776 125.285 106.255 125.463 106.877L126.477 110.358C126.655 110.962 126.317 111.459 125.712 111.459H122.225C121.602 111.459 120.962 110.962 120.784 110.358L119.77 106.877C119.592 106.255 119.947 105.776 120.552 105.776Z" fill="white"/>
<path d="M113.276 105.776H116.763C117.368 105.776 118.008 106.255 118.186 106.877L119.2 110.358C119.378 110.962 119.04 111.459 118.418 111.459H114.931C114.326 111.459 113.685 110.962 113.507 110.358L112.493 106.877C112.315 106.255 112.671 105.776 113.276 105.776Z" fill="white"/>
<path fill-rule="evenodd" clip-rule="evenodd" d="M172.093 111.85H131.084C130.907 111.85 130.746 111.725 130.711 111.566L119.752 74.0573C119.734 73.933 119.752 73.8087 119.823 73.7021C119.894 73.6133 120.018 73.5601 120.143 73.5601H161.151C161.329 73.5601 161.489 73.6666 161.525 73.8442L172.484 111.335C172.52 111.459 172.484 111.583 172.413 111.69C172.342 111.779 172.217 111.85 172.093 111.85ZM131.387 111.05H171.577L160.867 74.3415H120.659L131.387 111.05Z" fill="#0E1412"/>
<path d="M164.87 101.851C164.781 101.851 164.71 101.816 164.621 101.762L155.548 94.7295C154.836 94.1967 153.982 93.9481 153.199 94.0546C152.577 94.1612 152.043 94.4631 151.705 94.9604L149.374 98.2281C149.072 98.6543 148.592 98.9385 148.04 99.0273C147.4 99.1161 146.723 98.9207 146.154 98.4945L135.729 90.4139C135.035 89.8811 134.181 89.6325 133.38 89.7568C132.757 89.8456 132.224 90.1653 131.886 90.6448L131.263 91.515C131.138 91.6926 130.889 91.7281 130.712 91.6038C130.534 91.4795 130.498 91.2308 130.623 91.0532L131.245 90.183C131.708 89.5259 132.437 89.0997 133.273 88.9754C134.27 88.8155 135.337 89.1175 136.209 89.7923L146.635 97.8729C147.026 98.1748 147.506 98.3169 147.933 98.2459C148.165 98.2104 148.503 98.1038 148.734 97.7664L151.064 94.4986C151.527 93.8415 152.257 93.4153 153.093 93.2909C154.089 93.1311 155.156 93.433 156.028 94.1079L165.119 101.141C165.28 101.283 165.315 101.531 165.191 101.691C165.102 101.798 164.995 101.851 164.87 101.851Z" fill="#0E1412"/>
<path fill-rule="evenodd" clip-rule="evenodd" d="M153.341 89.1531C150.619 89.1531 147.773 86.9509 146.99 84.2514C146.581 82.8662 146.759 81.552 147.506 80.5752C148.2 79.6339 149.321 79.1367 150.637 79.1367C153.359 79.1367 156.206 81.3211 156.989 84.0205C157.398 85.4235 157.22 86.72 156.49 87.6968C155.779 88.638 154.676 89.1531 153.341 89.1531ZM150.637 79.9181C149.57 79.9181 148.68 80.3088 148.129 81.0369C147.542 81.8183 147.417 82.8839 147.755 84.0205C148.449 86.4181 150.957 88.3539 153.341 88.3539C154.409 88.3539 155.298 87.9632 155.85 87.235C156.437 86.4536 156.579 85.388 156.241 84.2514C155.548 81.8539 153.039 79.9181 150.637 79.9181Z" fill="#0E1412"/>
<path d="M88.4571 85.4767H137.756C139.589 85.4767 141.492 86.9508 142.026 88.78L151.687 121.866C152.22 123.695 151.171 125.169 149.338 125.169H100.039C98.2244 125.169 96.3029 123.695 95.787 121.866L86.1264 88.78C85.5927 86.9508 86.6424 85.4767 88.4571 85.4767Z" fill="white"/>
<path fill-rule="evenodd" clip-rule="evenodd" d="M149.339 125.56H100.04C98.0649 125.56 95.9833 123.962 95.3962 121.973L85.7357 88.8866C85.451 87.8565 85.5755 86.8975 86.1271 86.1516C86.643 85.459 87.4792 85.0861 88.4577 85.0861H137.757C139.749 85.0861 141.831 86.6844 142.4 88.6735L152.061 121.76C152.363 122.79 152.221 123.749 151.669 124.477C151.153 125.187 150.317 125.56 149.339 125.56ZM88.4577 85.8675C87.7283 85.8675 87.1234 86.1339 86.7676 86.6311C86.3584 87.1639 86.2694 87.8743 86.5007 88.6735L96.1612 121.76C96.6416 123.429 98.3851 124.779 100.04 124.779H149.339C150.068 124.779 150.673 124.512 151.047 124.015C151.438 123.482 151.527 122.772 151.296 121.973L141.653 88.8866C141.155 87.2172 139.411 85.8675 137.757 85.8675H88.4577Z" fill="#0E1412"/>
<path d="M142.4 123.216C142.222 123.216 142.062 123.109 142.009 122.932L131.797 87.9277C131.743 87.7323 131.868 87.5014 132.063 87.4482C132.277 87.3771 132.49 87.5014 132.562 87.7146L142.774 122.719C142.827 122.914 142.703 123.145 142.507 123.198C142.471 123.21 142.436 123.216 142.4 123.216Z" fill="#0E1412"/>
<path d="M100.822 119.344H137.507C138.094 119.344 138.432 118.883 138.254 118.279L130.693 92.3675C130.515 91.7637 129.892 91.2842 129.305 91.2842H92.6377C92.0506 91.2842 91.7126 91.7637 91.8727 92.3675L99.4517 118.279C99.6118 118.883 100.235 119.344 100.822 119.344Z" fill="white"/>
<path fill-rule="evenodd" clip-rule="evenodd" d="M142.933 108.316C141.296 108.316 139.66 107.055 139.179 105.438C138.93 104.604 139.055 103.787 139.5 103.201C139.927 102.632 140.603 102.331 141.403 102.331C143.04 102.331 144.695 103.591 145.157 105.208C145.406 106.042 145.282 106.841 144.837 107.445C144.41 108.014 143.734 108.316 142.933 108.316ZM139.944 105.208C140.318 106.486 141.652 107.534 142.933 107.534C143.485 107.534 143.93 107.339 144.214 106.966C144.517 106.575 144.57 106.025 144.41 105.438C144.036 104.142 142.684 103.112 141.403 103.112C140.852 103.112 140.407 103.307 140.122 103.68C139.838 104.071 139.766 104.622 139.944 105.208Z" fill="#0E1412"/>
<path d="M140.585 94.179C140.425 94.179 140.264 94.0547 140.211 93.8948L139.499 91.4263C139.393 91.0533 138.966 90.7336 138.61 90.7336H136.671C136.457 90.7336 136.279 90.556 136.279 90.3429C136.279 90.112 136.457 89.9344 136.671 89.9344H138.61C139.322 89.9344 140.051 90.5028 140.247 91.2131L140.976 93.664C141.03 93.8771 140.905 94.0902 140.709 94.1612C140.674 94.1731 140.632 94.179 140.585 94.179Z" fill="#0E1412"/>
<path d="M141.457 100.519H139.535C138.824 100.519 138.094 99.9686 137.881 99.2582L136.315 93.8948C136.262 93.6817 136.386 93.4686 136.582 93.3976C136.795 93.3443 137.009 93.4686 137.08 93.664L138.646 99.0273C138.753 99.4003 139.162 99.7377 139.535 99.7377H141.457C141.546 99.7377 141.67 99.72 141.741 99.6134C141.813 99.5246 141.83 99.4003 141.777 99.2582C141.724 99.0451 141.848 98.832 142.044 98.7609C142.257 98.7077 142.471 98.832 142.542 99.0273C142.649 99.4181 142.595 99.8088 142.382 100.093C142.168 100.359 141.83 100.519 141.457 100.519Z" fill="#0E1412"/>
<path d="M139.607 94.1789H137.685C137.472 94.1789 137.294 94.0013 137.294 93.7882C137.294 93.5574 137.472 93.3798 137.685 93.3798H139.607C139.82 93.3798 139.998 93.5574 139.998 93.7882C139.998 94.0013 139.82 94.1789 139.607 94.1789Z" fill="#0E1412"/>
<path d="M140.14 96.0259H138.219C138.005 96.0259 137.827 95.8483 137.827 95.6352C137.827 95.4221 138.005 95.2445 138.219 95.2445H140.14C140.371 95.2445 140.549 95.4221 140.549 95.6352C140.549 95.8483 140.371 96.0259 140.14 96.0259Z" fill="#0E1412"/>
<path d="M147.346 120.694H145.424C144.713 120.694 143.983 120.143 143.77 119.433L143.343 117.959C143.289 117.746 143.396 117.533 143.61 117.479C143.823 117.408 144.037 117.533 144.108 117.746L144.535 119.22C144.641 119.593 145.051 119.913 145.424 119.913H147.346C147.577 119.913 147.737 120.09 147.737 120.303C147.737 120.534 147.577 120.694 147.346 120.694Z" fill="#0E1412"/>
<path d="M147.506 117.87C147.346 117.87 147.186 117.764 147.133 117.586L145.389 111.619C145.282 111.246 144.855 110.909 144.5 110.909H142.578C142.471 110.909 142.347 110.926 142.276 111.033C142.222 111.122 142.204 111.246 142.258 111.388L142.596 112.56C142.649 112.773 142.525 112.986 142.329 113.04C142.116 113.111 141.884 112.986 141.831 112.773L141.493 111.619C141.386 111.228 141.439 110.837 141.653 110.553C141.866 110.287 142.187 110.127 142.578 110.127H144.5C145.211 110.127 145.941 110.678 146.136 111.388L147.898 117.373C147.951 117.586 147.826 117.799 147.613 117.852C147.577 117.864 147.542 117.87 147.506 117.87Z" fill="#0E1412"/>
<path d="M145.015 112.684H142.436C142.204 112.684 142.026 112.507 142.026 112.294C142.026 112.081 142.204 111.903 142.436 111.903H145.015C145.229 111.903 145.407 112.081 145.407 112.294C145.407 112.507 145.229 112.684 145.015 112.684Z" fill="#0E1412"/>
<path d="M145.709 115.1H143.13C142.916 115.1 142.738 114.922 142.738 114.709C142.738 114.478 142.916 114.318 143.13 114.318H145.709C145.941 114.318 146.101 114.478 146.101 114.709C146.101 114.922 145.941 115.1 145.709 115.1Z" fill="#0E1412"/>
<path d="M156.081 61.6257H174.815C175.936 61.6257 177.092 62.5136 177.43 63.6325L180.864 75.4249C181.184 76.5437 180.544 77.4317 179.441 77.4317H160.707C159.586 77.4317 158.429 76.5437 158.091 75.4249L154.658 63.6325C154.337 62.5136 154.978 61.6257 156.081 61.6257Z" fill="white"/>
<path fill-rule="evenodd" clip-rule="evenodd" d="M179.441 77.8224H160.707C159.408 77.8224 158.092 76.8279 157.718 75.5314L154.284 63.7391C154.089 63.082 154.178 62.4249 154.533 61.9454C154.889 61.4836 155.441 61.2172 156.081 61.2172H174.815C176.114 61.2172 177.43 62.2295 177.804 63.526L181.238 75.3183C181.433 75.9754 181.344 76.6325 180.989 77.112C180.633 77.5738 180.081 77.8224 179.441 77.8224ZM156.081 62.0164C155.69 62.0164 155.37 62.1585 155.174 62.4071C154.96 62.6913 154.907 63.082 155.031 63.526L158.483 75.3183C158.75 76.2596 159.764 77.041 160.707 77.041H179.441C179.832 77.041 180.152 76.8989 180.348 76.6325C180.562 76.3661 180.615 75.9577 180.491 75.5314L177.039 63.7391C176.772 62.7978 175.758 62.0164 174.815 62.0164H156.081Z" fill="#0E1412"/>
<path d="M180.01 66.6516C179.85 66.6516 179.69 66.5451 179.637 66.3675L179.352 65.3907C179.281 65.1776 179.406 64.9645 179.619 64.8934C179.832 64.8401 180.046 64.9645 180.099 65.1598L180.384 66.1543C180.455 66.3497 180.331 66.5806 180.117 66.6339C180.082 66.6457 180.046 66.6516 180.01 66.6516Z" fill="#0E1412"/>
<path d="M156.811 65.1598C156.633 65.1598 156.491 65.0532 156.437 64.8756L155.566 61.9276C155.37 61.2527 155.477 60.5956 155.832 60.1161C156.171 59.6543 156.722 59.4057 157.38 59.4057H176.114C177.413 59.4057 178.712 60.418 179.085 61.6967L179.708 63.8101C179.761 64.0232 179.655 64.2363 179.441 64.2896C179.228 64.3606 179.014 64.2363 178.961 64.0232L178.338 61.9276C178.071 60.9863 177.039 60.1871 176.114 60.1871H157.38C156.989 60.1871 156.651 60.3292 156.455 60.5956C156.242 60.8797 156.206 61.2705 156.331 61.6967L157.185 64.6625C157.256 64.8756 157.131 65.0888 156.918 65.142C156.882 65.1539 156.847 65.1598 156.811 65.1598Z" fill="#0E1412"/>
<path d="M158.199 69.9194C158.021 69.9194 157.878 69.8128 157.825 69.6352L157.007 66.8647C156.953 66.6516 157.078 66.4385 157.273 66.3675C157.487 66.3142 157.7 66.4385 157.772 66.6339L158.572 69.4221C158.643 69.6175 158.519 69.8483 158.305 69.9016C158.27 69.9135 158.234 69.9194 158.199 69.9194Z" fill="#0E1412"/>
<path d="M133.682 114.389C133.576 114.389 133.469 114.354 133.398 114.283L115.678 96.5943C115.518 96.4345 115.518 96.1858 115.678 96.026C115.838 95.8839 116.087 95.8839 116.229 96.026L133.949 113.715C134.109 113.874 134.109 114.123 133.949 114.283C133.878 114.354 133.771 114.389 133.682 114.389Z" fill="white"/>
<path d="M120.552 106.167C120.463 106.167 120.356 106.131 120.285 106.042L110.02 95.8128C109.878 95.653 109.878 95.4043 110.02 95.2623C110.18 95.1024 110.429 95.1024 110.589 95.2623L120.837 105.492C120.997 105.652 120.997 105.9 120.837 106.042C120.766 106.131 120.659 106.167 120.552 106.167Z" fill="white"/>
<path d="M194.1 84.0027C193.94 84.0027 193.78 83.8962 193.727 83.7186C191.93 78.3552 186.112 74.0041 180.757 74.0041H174.192C168.499 74.0041 162.343 69.3866 160.458 63.7213C160.386 63.526 160.493 63.2951 160.707 63.2241C160.92 63.153 161.134 63.2773 161.205 63.4727C163.002 68.8361 168.819 73.2049 174.192 73.2049H180.757C186.432 73.2049 192.588 77.8224 194.474 83.47C194.545 83.6831 194.438 83.9139 194.225 83.9672C194.189 83.9909 194.148 84.0027 194.1 84.0027Z" fill="#0E1412"/>
<path d="M160.297 64.112C160.92 64.5915 161.667 64.5915 161.987 64.112C162.308 63.6503 162.041 62.8866 161.418 62.4249C160.795 61.9631 160.03 61.9631 159.728 62.4249C159.408 62.8866 159.675 63.6503 160.297 64.112Z" fill="white"/>
<path fill-rule="evenodd" clip-rule="evenodd" d="M161.258 64.8579C160.849 64.8579 160.422 64.7159 160.048 64.4317C159.248 63.8279 158.963 62.8511 159.39 62.2118C159.568 61.9454 159.871 61.75 160.209 61.6967C160.671 61.6257 161.205 61.7678 161.667 62.1052C162.468 62.709 162.753 63.6858 162.308 64.3429C162.13 64.6093 161.845 64.7869 161.507 64.8402C161.424 64.852 161.341 64.8579 161.258 64.8579ZM160.458 62.4604C160.422 62.4604 160.381 62.4663 160.333 62.4782C160.203 62.5018 160.108 62.5551 160.048 62.638C159.888 62.8866 160.031 63.4372 160.529 63.8101C160.813 64.0055 161.134 64.112 161.383 64.0588C161.513 64.0351 161.608 63.9818 161.667 63.8989C161.828 63.6503 161.685 63.0997 161.187 62.7445C160.956 62.567 160.689 62.4604 160.458 62.4604Z" fill="#0E1412"/>
<path d="M193.585 84.4112C194.208 84.873 194.973 84.873 195.293 84.4112C195.595 83.9317 195.346 83.1858 194.724 82.7063C194.101 82.2445 193.336 82.2445 193.033 82.7063C192.713 83.1858 192.962 83.9317 193.585 84.4112Z" fill="white"/>
<path fill-rule="evenodd" clip-rule="evenodd" d="M194.545 85.1571C194.154 85.1571 193.727 84.9973 193.353 84.7131C192.553 84.127 192.268 83.1503 192.695 82.4932C192.873 82.2268 193.157 82.0492 193.495 81.9959C193.976 81.9071 194.51 82.0492 194.954 82.4044C195.755 82.9904 196.04 83.985 195.613 84.6243C195.435 84.8907 195.15 85.0683 194.812 85.1216C194.729 85.1453 194.64 85.1571 194.545 85.1571ZM193.762 82.7596C193.715 82.7596 193.673 82.7596 193.638 82.7596C193.507 82.7832 193.412 82.8424 193.353 82.9372C193.175 83.1858 193.335 83.7186 193.833 84.0915C194.1 84.3046 194.421 84.3934 194.67 84.3579C194.8 84.3342 194.895 84.275 194.954 84.1803C195.132 83.9317 194.972 83.3989 194.492 83.0259C194.243 82.8484 193.994 82.7596 193.762 82.7596Z" fill="#0E1412"/>
<path d="M174.922 73.0273L176.274 71.0205C176.523 70.6831 177.075 70.6653 177.519 70.985L180.081 72.8853C180.544 73.2049 180.704 73.7555 180.473 74.1107L179.103 76.0997C178.872 76.4549 178.302 76.4727 177.857 76.1353L175.296 74.2527C174.851 73.9153 174.673 73.3648 174.922 73.0273Z" fill="white"/>
<path fill-rule="evenodd" clip-rule="evenodd" d="M178.533 76.7746C178.231 76.7746 177.911 76.668 177.626 76.4549L175.064 74.5724C174.441 74.1106 174.228 73.3292 174.601 72.7964L175.954 70.8074C176.114 70.5765 176.363 70.4344 176.647 70.3811C177.003 70.3101 177.412 70.4167 177.768 70.6831L180.312 72.5656C180.953 73.0273 181.149 73.8087 180.793 74.3238L179.423 76.3306C179.281 76.5615 179.031 76.7035 178.747 76.7568C178.676 76.7687 178.604 76.7746 178.533 76.7746ZM175.242 73.2404C175.135 73.4003 175.242 73.7199 175.527 73.933L178.089 75.8156C178.266 75.9399 178.462 76.0109 178.604 75.9754C178.688 75.9636 178.747 75.934 178.782 75.8866L180.135 73.8798C180.241 73.7377 180.135 73.4003 179.85 73.1871L177.288 71.3046C177.128 71.1803 176.932 71.127 176.772 71.1626C176.701 71.1744 176.647 71.204 176.612 71.2514L175.242 73.2404Z" fill="#0E1412"/>
<path fill-rule="evenodd" clip-rule="evenodd" d="M180.26 91.9413L176.15 87.6967C176.008 87.5191 175.936 87.306 175.972 87.1284L177.057 73.8976C177.146 73.3825 177.858 73.3825 178.267 73.8976L188.194 87.1284C188.337 87.306 188.426 87.5191 188.39 87.6967L187.109 91.9413C187.091 92.1899 186.896 92.3497 186.629 92.3497H181.007C180.74 92.3497 180.455 92.1899 180.26 91.9413ZM182.43 88.194C183.658 88.194 184.316 87.2172 183.907 85.9918C183.498 84.7842 182.181 83.7896 180.971 83.7896C179.761 83.7896 179.103 84.7842 179.495 85.9918C179.904 87.2172 181.22 88.194 182.43 88.194Z" fill="white"/>
<path fill-rule="evenodd" clip-rule="evenodd" d="M186.628 92.7404H181.006C180.633 92.7404 180.224 92.5273 179.957 92.2076L175.865 87.9809C175.853 87.969 175.841 87.9572 175.829 87.9453C175.633 87.679 175.527 87.3593 175.58 87.0751L176.665 73.862C176.719 73.5068 176.95 73.2404 177.27 73.1516C177.715 73.0273 178.231 73.2227 178.569 73.6489L188.514 86.8975C188.71 87.1462 188.817 87.4481 188.781 87.75C188.781 87.7737 188.781 87.7973 188.781 87.821L187.5 92.03C187.429 92.4385 187.073 92.7404 186.628 92.7404ZM176.452 87.4481L180.544 91.6749C180.556 91.6867 180.568 91.6985 180.579 91.7104C180.686 91.8525 180.864 91.9412 181.006 91.9412H186.628C186.717 91.9412 186.717 91.9235 186.717 91.9057C186.717 91.882 186.723 91.8584 186.735 91.8347L187.998 87.6257C187.998 87.5724 187.98 87.4836 187.892 87.377L177.964 74.1284C177.804 73.933 177.59 73.8798 177.484 73.9153C177.448 73.9153 177.448 73.9153 177.448 73.9508L176.363 87.1639C176.345 87.235 176.363 87.3415 176.452 87.4481ZM182.43 88.5847C181.042 88.5847 179.583 87.5014 179.121 86.1161C178.889 85.4057 178.96 84.6953 179.334 84.1803C179.69 83.683 180.277 83.3989 180.971 83.3989C182.358 83.3989 183.817 84.4822 184.28 85.8675C184.529 86.5956 184.44 87.306 184.066 87.821C183.711 88.3183 183.141 88.5847 182.43 88.5847ZM179.868 85.8675C180.224 86.9153 181.398 87.8033 182.43 87.8033C182.874 87.8033 183.23 87.6434 183.426 87.3593C183.657 87.0574 183.693 86.6134 183.533 86.1161C183.177 85.0683 182.003 84.1981 180.971 84.1981C180.526 84.1981 180.188 84.3402 179.974 84.6243C179.743 84.944 179.708 85.388 179.868 85.8675Z" fill="#0E1412"/>
<path d="M183.124 96.9672H187.607C188.425 96.9672 188.87 96.3101 188.586 95.4932L188.425 94.9781C188.141 94.1612 187.269 93.4863 186.433 93.4863H181.967C181.149 93.4863 180.704 94.1612 180.971 94.9781L181.149 95.4932C181.416 96.3101 182.305 96.9672 183.124 96.9672Z" fill="#0E1412"/>
<path d="M180.384 82.4221C180.206 82.4221 180.063 82.3155 180.01 82.1557C177.288 74.1639 177.288 74.1639 177.448 73.9507L177.768 74.1816L178.142 74.1106C178.213 74.4303 179.743 78.9412 180.757 81.8893C180.828 82.1024 180.704 82.3155 180.508 82.3865C180.461 82.4102 180.419 82.4221 180.384 82.4221Z" fill="#0E1412"/>
</g>
<defs>
<clipPath id="clip0_616_16475">
<rect width="327" height="325" fill="white"/>
</clipPath>
</defs>
</svg>
