<svg width="51" height="51" viewBox="0 0 51 51" fill="none" xmlns="http://www.w3.org/2000/svg">
<path d="M25.501 42.4892C34.8839 42.4892 42.4902 34.8829 42.4902 25.5C42.4902 16.1171 34.8839 8.51074 25.501 8.51074C16.1181 8.51074 8.51172 16.1171 8.51172 25.5C8.51172 34.8829 16.1181 42.4892 25.501 42.4892Z" fill="white" fill-opacity="0.24"/>
<path d="M18.0674 23.3763L24.213 29.522C24.3375 29.6464 24.5392 29.6464 24.6637 29.522L41.4276 12.7581" stroke="white" stroke-width="2.6"/>
<path d="M41.1261 22.4132C41.8314 25.9835 41.2928 29.6876 39.5998 32.9092C37.9069 36.1308 35.1618 38.6753 31.8213 40.1196C28.4808 41.5637 24.7466 41.8205 21.24 40.847C17.7333 39.8733 14.6658 37.7284 12.548 34.7689C10.4302 31.8091 9.38972 28.2136 9.59982 24.5804C9.80991 20.9472 11.2579 17.4956 13.7028 14.7998C16.1476 12.1041 19.4419 10.327 23.0374 9.76417C26.6328 9.20134 30.3127 9.88677 33.4644 11.7064" stroke="white" stroke-width="2.16667" stroke-linecap="round"/>
</svg>
