<svg width="14" height="13" viewBox="0 0 14 13" fill="none" xmlns="http://www.w3.org/2000/svg">
<path fill-rule="evenodd" clip-rule="evenodd" d="M5.50729 8.41148C5.37929 8.41148 5.25129 8.36281 5.15396 8.26481C4.66196 7.77348 4.39062 7.12015 4.39062 6.42548C4.39062 4.98548 5.56129 3.81415 6.99996 3.81415C7.69196 3.81415 8.36396 4.09348 8.84329 4.58081C9.03662 4.77815 9.03463 5.09415 8.83729 5.28748C8.64062 5.48215 8.32463 5.47881 8.13063 5.28281C7.83796 4.98481 7.42596 4.81415 6.99996 4.81415C6.11263 4.81415 5.39062 5.53681 5.39062 6.42548C5.39062 6.85281 5.55796 7.25548 5.86063 7.55815C6.05596 7.75348 6.05596 8.06948 5.86129 8.26481C5.76329 8.36281 5.63529 8.41148 5.50729 8.41148Z" fill="#979B9A"/>
<path fill-rule="evenodd" clip-rule="evenodd" d="M7.37838 8.99412C7.14171 8.99412 6.93105 8.82479 6.88705 8.58345C6.83771 8.31212 7.01771 8.05145 7.28971 8.00212C7.94305 7.88345 8.46038 7.36479 8.57771 6.71079C8.62705 6.43945 8.88705 6.26079 9.15838 6.30745C9.43038 6.35612 9.61105 6.61612 9.56238 6.88812C9.37105 7.95012 8.52971 8.79279 7.46838 8.98612C7.43838 8.99145 7.40771 8.99412 7.37838 8.99412Z" fill="#979B9A"/>
<mask id="mask0_637_5409" style="mask-type:luminance" maskUnits="userSpaceOnUse" x="0" y="1" width="12" height="10">
<path fill-rule="evenodd" clip-rule="evenodd" d="M0.333008 1.08295H11.0572V10.4817H0.333008V1.08295Z" fill="white"/>
</mask>
<g mask="url(#mask0_637_5409)">
<path fill-rule="evenodd" clip-rule="evenodd" d="M3.43601 10.4817C3.32801 10.4817 3.21934 10.4464 3.12734 10.375C2.00001 9.4897 1.04734 8.1917 0.374008 6.62236C0.319341 6.4957 0.319341 6.35303 0.374008 6.22703C1.05467 4.65103 2.01334 3.34636 3.14667 2.45503C5.45734 0.626365 8.53334 0.620365 10.8673 2.46836C11.084 2.6397 11.1207 2.95436 10.9493 3.17103C10.7773 3.38636 10.464 3.42436 10.2467 3.25236C8.26934 1.68703 5.72201 1.69236 3.76601 3.24036C2.80867 3.9937 1.98667 5.09103 1.38001 6.4257C1.98067 7.75236 2.79534 8.84303 3.74534 9.58836C3.96267 9.75903 4.00001 10.0737 3.82934 10.2904C3.73067 10.4157 3.58401 10.4817 3.43601 10.4817Z" fill="#979B9A"/>
</g>
<mask id="mask1_637_5409" style="mask-type:luminance" maskUnits="userSpaceOnUse" x="4" y="3" width="10" height="9">
<path fill-rule="evenodd" clip-rule="evenodd" d="M4.81152 3.82745H13.6665V11.7929H4.81152V3.82745Z" fill="white"/>
</mask>
<g mask="url(#mask1_637_5409)">
<path fill-rule="evenodd" clip-rule="evenodd" d="M6.99994 11.7929C6.37528 11.7929 5.75394 11.6916 5.15394 11.4923C4.89194 11.4049 4.74994 11.1216 4.83728 10.8596C4.92461 10.5969 5.20661 10.4576 5.46994 10.5429C5.96794 10.7089 6.48261 10.7929 6.99994 10.7929C9.28528 10.7929 11.3739 9.16492 12.6199 6.42426C12.3159 5.75826 11.9619 5.15492 11.5659 4.62826C11.3999 4.40759 11.4439 4.09359 11.6646 3.92759C11.8846 3.76159 12.1986 3.80692 12.3646 4.02692C12.8473 4.66759 13.2713 5.40826 13.6253 6.22559C13.6806 6.35226 13.6806 6.49626 13.6253 6.62226C12.2279 9.86026 9.75128 11.7929 6.99994 11.7929Z" fill="#979B9A"/>
</g>
<mask id="mask2_637_5409" style="mask-type:luminance" maskUnits="userSpaceOnUse" x="1" y="0" width="12" height="13">
<path fill-rule="evenodd" clip-rule="evenodd" d="M1.24219 0.666931H12.7579V12.1823H1.24219V0.666931Z" fill="white"/>
</mask>
<g mask="url(#mask2_637_5409)">
<path fill-rule="evenodd" clip-rule="evenodd" d="M1.74202 12.1823C1.61402 12.1823 1.48602 12.1336 1.38869 12.0356C1.19335 11.8403 1.19335 11.5243 1.38869 11.3289L11.9047 0.812943C12.1 0.61761 12.416 0.61761 12.6114 0.812943C12.8067 1.00828 12.8067 1.32494 12.6114 1.52028L2.09535 12.0356C1.99802 12.1336 1.87002 12.1823 1.74202 12.1823Z" fill="#979B9A"/>
</g>
</svg>
