<svg width="114" height="140" viewBox="0 0 114 140" fill="none" xmlns="http://www.w3.org/2000/svg">
<path opacity="0.1" d="M104.624 134.404C104.624 137.498 83.3142 140 57.0335 140C30.7443 140 9.44336 137.498 9.44336 134.404C9.44336 131.318 30.7443 128.815 57.0335 128.815C83.3142 128.815 104.624 131.318 104.624 134.404Z" fill="black"/>
<path d="M37.7212 5.49414L38.7155 33.5364L27.8291 7.68375L37.7212 5.49414Z" fill="#FFAA00"/>
<path d="M85.4294 2.18961L74.543 28.0423L75.5372 0L85.4294 2.18961Z" fill="#FFAA00"/>
<path d="M113.774 34.1207L96.5342 44.8743L108.626 28.5156L113.774 34.1207Z" fill="#FFAA00"/>
<path d="M5.79478 27.3154L17.8861 43.6741L0.646484 32.912L5.79478 27.3154Z" fill="#FFAA00"/>
<path d="M71.2815 68.7481L17.9785 64.707V113.056C17.9785 113.741 18.5009 114.316 19.1834 114.366L28.233 115.11L73.2869 118.822V68.9003L71.2815 68.7481Z" fill="#FFAA00"/>
<path opacity="0.1" d="M73.2873 73.3818H70.4562C64.3136 105.119 43.8384 111.408 28.2334 115.111L73.2873 118.823V73.3818Z" fill="#CC4B00"/>
<path d="M45.4139 60.2689C45.4139 60.2689 30.205 57.5721 28.4945 51.7556C26.784 45.9308 39.145 40.4863 39.145 40.4863C39.145 40.4863 38.513 53.4042 52.5002 58.4851L45.4139 60.2689Z" fill="#F8203D"/>
<path d="M39.1445 40.4939C39.1445 40.4939 44.4613 38.1098 52.466 58.4927C52.466 58.4927 38.6558 54.1473 39.1445 40.4939Z" fill="#CC1B32"/>
<path d="M39.1698 40.4863C39.1529 40.492 39.1445 40.4948 39.1445 40.4948C38.6558 54.1482 52.466 58.4936 52.466 58.4936C52.1908 57.7947 51.9183 57.1212 51.6487 56.473C48.7333 55.2049 40.1556 50.6397 39.1698 40.4863Z" fill="#BF192F"/>
<path d="M52.4666 60.2511C52.4666 60.2511 41.8077 45.2705 45.2118 37.3151C48.6244 29.3514 63.6564 32.8345 63.6564 32.8345C63.6564 32.8345 52.3318 47.0374 59.9574 63.7765L52.4666 60.2511Z" fill="#F8203D"/>
<path d="M63.6481 32.8438C63.6481 32.8438 70.1529 34.3063 59.9237 63.7604C59.9237 63.7604 51.8348 48.002 63.6481 32.8438Z" fill="#CC1B32"/>
<path d="M63.6733 32.8522C63.6565 32.8466 63.6481 32.8438 63.6481 32.8438C51.8348 48.002 59.9237 63.7604 59.9237 63.7604C60.2776 62.7515 60.6119 61.7709 60.9264 60.8184C59.5109 57.0986 56.0394 45.1867 63.6733 32.8522Z" fill="#BF192F"/>
<path d="M60.6309 57.6313C60.6309 57.6313 62.6952 42.2786 68.4671 40.2835C74.2389 38.2968 80.2298 50.4199 80.2298 50.4199C80.2298 50.4199 67.2284 50.3946 62.7121 64.6482L60.6309 57.6313Z" fill="#F8203D"/>
<path d="M80.2218 50.4199C80.2218 50.4199 82.8339 55.6361 62.7041 64.6144C62.7041 64.6144 66.4874 50.5721 80.2218 50.4199Z" fill="#CC1B32"/>
<path d="M80.2302 50.4453C80.2246 50.4284 80.2218 50.4199 80.2218 50.4199C66.4874 50.5721 62.7041 64.6144 62.7041 64.6144C63.395 64.3044 64.0607 64 64.7011 63.7013C65.847 60.7255 70.0684 51.9163 80.2302 50.4453Z" fill="#BF192F"/>
<path d="M94.4364 113.572L73.2871 118.822V68.9003L95.397 64.707V112.329C95.397 112.921 95.001 113.428 94.4364 113.572Z" fill="#FFAA00"/>
<path opacity="0.3" d="M94.4027 113.58L73.2871 118.822V68.9003L95.397 64.707V112.304C95.397 112.904 94.9841 113.436 94.4027 113.58Z" fill="#AD4000"/>
<path d="M73.2871 73.3815V55.5771L97.5709 60.3453C98.0006 60.4213 98.3039 60.8018 98.3039 61.2329V71.8767C98.3039 72.3754 97.9163 72.7728 97.4192 72.7897L73.2871 73.3815Z" fill="#F0B030"/>
<path d="M16.6639 73.3815H73.2867V55.5771L16.6049 58.9757C16.1331 59.0011 15.7539 59.3984 15.7539 59.8803V72.4684C15.7539 72.9757 16.1668 73.3815 16.6639 73.3815Z" fill="#FFBB33"/>
<path d="M36.6426 73.3818V115.805L52.4835 117.106V73.3818H36.6426Z" fill="#E61E38"/>
<path d="M36.6426 57.7756V73.3819H52.4835V56.8203L36.6426 57.7756Z" fill="#F8203D"/>
<path d="M90.7292 59.0001L80.8623 57.0557V73.1945L90.7292 72.9409V59.0001Z" fill="#F8203D"/>
<path d="M80.8623 73.196V116.938L90.7292 114.494V72.9424L80.8623 73.196Z" fill="#E61E38"/>
<path opacity="0.1" d="M17.9785 73.3809H73.2869L95.3967 72.8398V74.1502L73.2869 76.1961L17.9785 74.7589V73.3809Z" fill="#8A3300"/>
<path opacity="0.1" d="M15.7539 59.0264L73.2867 55.5771L98.3036 60.489V61.0216L73.2867 57.9527L15.7539 59.7957V59.0264Z" fill="white"/>
</svg>
