<svg width="38" height="38" viewBox="0 0 38 38" fill="none" xmlns="http://www.w3.org/2000/svg">
<rect opacity="0.1" x="1.5" y="1.5" width="35" height="35" rx="11.5" fill="#A079EC" stroke="white" stroke-width="3"/>
<path opacity="0.4" d="M25.22 15.962C24.9406 15.786 24.5973 15.7705 24.3046 15.9194L23.3166 16.4182C22.9513 16.6023 22.7246 16.9745 22.7246 17.3887V21.2777C22.7246 21.6919 22.9513 22.0635 23.3166 22.249L24.304 22.7471C24.438 22.8161 24.5813 22.8493 24.7246 22.8493C24.8966 22.8493 25.0673 22.8006 25.22 22.7051C25.4993 22.5298 25.666 22.226 25.666 21.893V16.7749C25.666 16.4419 25.4993 16.138 25.22 15.962Z" fill="#A079EC"/>
<path d="M18.9364 24.3335H15.075C13.4604 24.3335 12.333 23.2201 12.333 21.6262V17.0408C12.333 15.4462 13.4604 14.3335 15.075 14.3335H18.9364C20.5511 14.3335 21.6784 15.4462 21.6784 17.0408V21.6262C21.6784 23.2201 20.5511 24.3335 18.9364 24.3335Z" fill="#A079EC"/>
</svg>
