<svg width="38" height="38" viewBox="0 0 38 38" fill="none" xmlns="http://www.w3.org/2000/svg">
<rect opacity="0.1" x="1.5" y="1.5" width="35" height="35" rx="11.5" fill="#EA9411" stroke="white" stroke-width="3"/>
<path opacity="0.4" d="M19.0573 25.6668C18.9748 25.6668 18.8922 25.6479 18.8177 25.6093L16.417 24.3666C15.7358 24.0136 15.2029 23.6174 14.7868 23.1559C13.876 22.1465 13.3693 20.8508 13.3612 19.5068L13.333 15.083C13.3297 14.5724 13.6592 14.1142 14.1518 13.9416L18.56 12.4047C18.8218 12.3112 19.1137 12.3099 19.3802 12.4001L23.8051 13.8847C24.3004 14.0501 24.6353 14.5051 24.638 15.015L24.6662 19.442C24.6749 20.7841 24.1857 22.0851 23.289 23.1055C22.8776 23.5736 22.3494 23.9756 21.6749 24.3352L19.2956 25.606C19.2218 25.6459 19.1399 25.6662 19.0573 25.6668Z" fill="#EA9411"/>
<path d="M18.5459 20.5473C18.4171 20.5479 18.2882 20.5015 18.1889 20.4061L16.911 19.1771C16.7137 18.9862 16.7116 18.6763 16.9069 18.4841C17.1023 18.2913 17.4211 18.2893 17.619 18.4795L18.5385 19.3634L20.7836 17.1499C20.9795 16.957 21.2983 16.9551 21.4957 17.1453C21.6936 17.3362 21.6957 17.6467 21.5004 17.8382L18.901 20.4015C18.803 20.4982 18.6748 20.5466 18.5459 20.5473Z" fill="#EA9411"/>
</svg>
