<svg width="38" height="38" viewBox="0 0 38 38" fill="none" xmlns="http://www.w3.org/2000/svg">
<rect opacity="0.1" x="1.5" y="1.5" width="35" height="35" rx="11.5" fill="#4FAA89" stroke="white" stroke-width="3"/>
<path d="M24.1793 18.7637C23.6924 18.195 23.4711 17.7022 23.4711 16.8649V16.5803C23.4711 15.4892 23.2199 14.7862 22.674 14.0832C21.8325 12.9915 20.4159 12.3335 19.0292 12.3335H18.9702C17.6126 12.3335 16.2404 12.9613 15.3843 14.0087C14.8086 14.7258 14.5283 15.459 14.5283 16.5803V16.8649C14.5283 17.7022 14.3216 18.195 13.82 18.7637C13.4509 19.1827 13.333 19.7212 13.333 20.304C13.333 20.8874 13.5245 21.44 13.9088 21.8892C14.4104 22.4277 15.1186 22.7714 15.8422 22.8312C16.8897 22.9507 17.9372 22.9957 19 22.9957C20.0621 22.9957 21.1096 22.9205 22.1578 22.8312C22.8807 22.7714 23.589 22.4277 24.0906 21.8892C24.4742 21.44 24.6663 20.8874 24.6663 20.304C24.6663 19.7212 24.5484 19.1827 24.1793 18.7637Z" fill="#4FAA89"/>
<path opacity="0.4" d="M20.3392 23.819C20.0059 23.7478 17.9751 23.7478 17.6418 23.819C17.3569 23.8848 17.0488 24.0379 17.0488 24.3736C17.0654 24.6939 17.2529 24.9765 17.5126 25.1558L17.512 25.1565C17.8479 25.4183 18.2421 25.5848 18.6549 25.6446C18.8749 25.6748 19.0988 25.6735 19.3268 25.6446C19.7389 25.5848 20.1331 25.4183 20.469 25.1565L20.4684 25.1558C20.7281 24.9765 20.9156 24.6939 20.9322 24.3736C20.9322 24.0379 20.6241 23.8848 20.3392 23.819Z" fill="#4FAA89"/>
</svg>
