<svg width="102" height="113" viewBox="0 0 102 113" fill="none" xmlns="http://www.w3.org/2000/svg">
<g style="mix-blend-mode:multiply">
<path d="M96.0841 7.07436L92.4922 6.82293L91.0195 6.71517L23.15 1.81219C20.1866 1.59667 17.5825 3.67999 17.0976 6.57149L16.1278 6.53557V6.58945L14.4216 6.53557L14.26 12.7317L6.35772 13.1806L6.48343 15.264L0 16.0721L11.9072 113L56.2137 107.559L79.3278 109.229C82.2732 109.444 84.8594 107.397 85.3802 104.559C85.4161 104.356 85.446 104.146 85.47 103.931L86.0267 96.244L90.1215 39.5095L93.7314 39.7609C96.5331 39.9764 98.9756 37.8572 99.1732 35.0555L100.808 12.5341C101.005 9.73239 98.9038 7.28988 96.0841 7.07436Z" fill="#C6C6C6"/>
</g>
<path d="M101.807 10.7378L100.173 33.2592C99.9753 36.0609 97.5328 38.1801 94.7311 37.9646L91.1212 37.7132L87.0264 94.4477L86.4696 102.134C86.4457 102.35 86.4158 102.559 86.3798 102.763C85.859 105.601 83.2728 107.648 80.3274 107.433L16.7144 102.835C13.5535 102.601 11.1828 99.8536 11.4163 96.6927L17.1993 16.5926L17.9536 6.33766L18.0254 5.31396C18.2409 2.15307 20.9888 -0.217609 24.1497 0.0158666L92.0192 4.91885L93.4919 5.02661L97.0838 5.27805C99.9035 5.49356 102.005 7.93607 101.807 10.7378Z" fill="#FBB040"/>
<g style="mix-blend-mode:multiply">
<path d="M14.7754 100.68L17.1281 4.73926L87.4581 6.46338L85.1054 102.404L14.7754 100.68Z" fill="#E6E7E8"/>
</g>
<path d="M13.0693 100.68L15.4221 4.73926L85.752 6.46338L83.3993 102.404L13.0693 100.68Z" fill="white"/>
<path d="M12.6735 107.199L7.35742 11.3841L77.5976 7.48682L82.9137 103.302L12.6735 107.199Z" fill="#F1F2F2"/>
<path d="M85.0512 102.35L12.9072 111.204L1 14.2759L73.1439 5.40381L85.0512 102.35Z" fill="white"/>
<path d="M64.0028 16.9879L12.6921 23.2917L12.0635 18.2091L63.3742 11.9053L64.0028 16.9879Z" fill="#C3D5DF"/>
<path d="M68.6358 31.8942L32.8961 36.2943L32.5908 33.8338L68.3305 29.4517L68.6358 31.8942Z" fill="#DAE3E8"/>
<path d="M60.3565 37.8746L33.4889 41.1792L33.1836 38.7187L60.0512 35.4321L60.3565 37.8746Z" fill="#DAE3E8"/>
<path d="M59.1534 28.0864L32.2858 31.391L31.9805 28.9306L58.8481 25.626L59.1534 28.0864Z" fill="#8BCFCA"/>
<path d="M21.7258 32.0018C21.0793 32.4329 18.1518 36.7252 16.5355 38.7547L14.955 37.5334C14.7575 37.3538 14.3264 36.7791 14.0391 37.2281L13.626 38.0363C13.3387 38.4673 13.7697 39.0959 14.057 39.2575L16.6612 41.6103C16.9485 41.7719 17.4155 41.5564 17.7029 41.1074L17.9363 40.7302L22.3005 32.5406C22.5879 32.0916 23.2703 31.1039 21.7258 32.0018Z" fill="#ED1C24"/>
<path fill-rule="evenodd" clip-rule="evenodd" d="M23.9882 42.9033L14.3079 44.1066C13.3022 44.2323 12.3683 43.496 12.2426 42.4723L11.0572 32.81C10.9315 31.7863 11.6499 30.8524 12.6736 30.7267L22.3359 29.5413C23.3596 29.4156 24.2935 30.152 24.4192 31.1757L25.6046 40.8379C25.7303 41.8616 24.9939 42.7955 23.9882 42.9033ZM12.7993 31.8042C12.3683 31.8581 12.063 32.2532 12.1169 32.6843L13.3022 42.3466C13.3561 42.7776 13.7512 43.0829 14.1822 43.029L23.8445 41.8437C24.2935 41.7898 24.5988 41.3947 24.5449 40.9637L23.3596 31.3014C23.3057 30.8703 22.9106 30.5471 22.4796 30.6009L12.7993 31.8042Z" fill="#DAE3E8"/>
<path d="M70.9884 51.0573L35.2487 55.4394L34.9434 52.9969L70.6831 48.6147L70.9884 51.0573Z" fill="#DAE3E8"/>
<path d="M62.7091 57.0376L35.8414 60.3422L35.5361 57.8817L62.4038 54.5771L62.7091 57.0376Z" fill="#DAE3E8"/>
<path d="M61.506 47.2495L34.6383 50.5362L34.333 48.0936L61.2006 44.7891L61.506 47.2495Z" fill="#8BCFCA"/>
<path d="M25.3348 49.3868C24.4548 49.9615 20.4498 55.8343 18.2228 58.636L16.0497 56.9478C15.7983 56.6964 15.2056 55.9241 14.8105 56.5168L14.2358 57.6303C13.8407 58.2409 14.4333 59.085 14.8284 59.3185L18.3845 62.5333C18.7796 62.7668 19.4261 62.4614 19.8212 61.8508L20.1445 61.3479L26.1251 50.1052C26.5202 49.5125 27.4361 48.1476 25.3348 49.3868Z" fill="#ED1C24"/>
<path fill-rule="evenodd" clip-rule="evenodd" d="M28.4243 64.3114L15.188 65.9457C13.7872 66.1253 12.512 65.1195 12.3324 63.7187L10.7161 50.4824C10.5365 49.0816 11.5422 47.8064 12.9431 47.6448L26.1793 46.0105C27.5802 45.8488 28.8553 46.8366 29.017 48.2375L30.6513 61.4737C30.8129 62.8746 29.8251 64.1497 28.4243 64.3114ZM13.1227 49.0995C12.53 49.1714 12.099 49.7102 12.1708 50.3028L13.7872 63.5391C13.877 64.1318 14.4158 64.5628 15.0084 64.491L28.2447 62.8746C28.8374 62.7848 29.2684 62.246 29.1966 61.6533L27.5622 48.4171C27.4904 47.8244 26.9516 47.3934 26.3589 47.4652L13.1227 49.0995Z" fill="#DAE3E8"/>
<path d="M73.3419 70.2202L37.6022 74.6024L37.2969 72.1599L73.0366 67.7598L73.3419 70.2202Z" fill="#DAE3E8"/>
<path d="M65.0616 76.2007L38.194 79.4873L37.8887 77.0448L64.7563 73.7402L65.0616 76.2007Z" fill="#DAE3E8"/>
<path d="M63.8585 66.3947L36.9909 69.6992L36.6855 67.2388L63.5532 63.9521L63.8585 66.3947Z" fill="#8BCFCA"/>
<path d="M26.4309 70.3276C25.7843 70.7407 22.8569 75.033 21.2406 77.0804L19.6601 75.8412C19.4626 75.6616 19.0315 75.0869 18.7442 75.5359L18.3311 76.3441C18.0437 76.7931 18.4748 77.4037 18.7621 77.5833L21.3483 79.918C21.6536 80.0976 22.1206 79.8642 22.4079 79.4331L22.6414 79.056L27.0056 70.8484C27.293 70.4174 27.9754 69.4116 26.4309 70.3276Z" fill="#ED1C24"/>
<path fill-rule="evenodd" clip-rule="evenodd" d="M28.6942 81.2293L19.014 82.4146C18.0083 82.5403 17.0744 81.804 16.9486 80.7983L15.7633 71.118C15.6376 70.1123 16.356 69.1784 17.3797 69.0526L27.042 67.8673C28.0657 67.7416 28.9996 68.46 29.1253 69.4837L30.3106 79.146C30.4363 80.1697 29.7 81.1036 28.6942 81.2293ZM17.5054 70.1123C17.0744 70.1661 16.769 70.5613 16.8229 70.9923L18.0083 80.6546C18.0621 81.1036 18.4572 81.4089 18.8883 81.355L28.5506 80.1697C28.9816 80.1158 29.3049 79.7207 29.251 79.2896L28.0657 69.6094C28.0118 69.1784 27.6167 68.873 27.1677 68.9269L17.5054 70.1123Z" fill="#DAE3E8"/>
<path d="M75.6944 89.3654L39.9547 93.7655L39.6494 91.305L75.3891 86.9229L75.6944 89.3654Z" fill="#DAE3E8"/>
<path d="M67.4151 95.3458L40.5475 98.6504L40.2422 96.1899L67.1098 92.9033L67.4151 95.3458Z" fill="#DAE3E8"/>
<path d="M66.211 85.5577L39.3434 88.8623L39.0381 86.4018L65.9057 83.1152L66.211 85.5577Z" fill="#8BCFCA"/>
<path d="M28.7834 89.4906C28.1369 89.9036 25.2095 94.196 23.5931 96.2434L21.9947 95.0042C21.8151 94.8246 21.3841 94.2499 21.0967 94.6989L20.6836 95.5071C20.3963 95.9381 20.8273 96.5667 21.1147 96.7283L23.7009 99.081C24.0062 99.2427 24.4731 99.0272 24.7605 98.5961L24.9939 98.219L29.3581 90.0114C29.6455 89.5624 30.328 88.5746 28.7834 89.4906Z" fill="#ED1C24"/>
<path fill-rule="evenodd" clip-rule="evenodd" d="M31.0468 100.392L21.3665 101.578C20.3608 101.704 19.4269 100.967 19.3012 99.9435L18.1158 90.2812C17.9901 89.2575 18.7085 88.3236 19.7322 88.2158L29.3945 87.0125C30.4182 86.8868 31.3521 87.6231 31.4778 88.6468L32.6632 98.3091C32.7889 99.3328 32.0525 100.267 31.0468 100.392ZM19.8579 89.2754C19.4269 89.3293 19.1216 89.7244 19.1755 90.1555L20.3608 99.8177C20.4147 100.249 20.8098 100.572 21.2408 100.518L30.9031 99.3149C31.3341 99.279 31.6574 98.8659 31.6035 98.4349L30.4182 88.7726C30.3643 88.3415 29.9692 88.0362 29.5202 88.0901L19.8579 89.2754Z" fill="#DAE3E8"/>
<g style="mix-blend-mode:multiply">
<path d="M72.8025 21.6395C72.5151 21.406 72.12 21.2264 71.671 21.1546L68.995 20.7774C67.9713 20.6338 67.0554 21.1366 66.9476 21.8909L66.3729 25.9857L66.1215 27.8176L60.3564 68.8554L61.5597 75.6262L61.5777 75.734L61.9369 77.6916C61.9369 77.7155 61.9549 77.7395 61.9908 77.7634C62.0985 77.8353 62.2123 77.8772 62.332 77.8891C62.4517 77.9131 62.5775 77.9071 62.7092 77.8712C62.7331 77.8592 62.7511 77.8412 62.763 77.8173L63.6431 76.0213L63.661 75.9854L63.679 75.9495L63.6969 75.9315L65.9958 71.2261L66.7321 69.7534L72.4972 28.7156L72.7486 26.8658L73.3233 22.7889C73.3952 22.3759 73.1796 21.9448 72.8025 21.6395Z" fill="#C6C6C6"/>
</g>
<path d="M65.8347 68.8552L59.459 67.9572L65.224 26.9194L71.5997 27.8174L65.8347 68.8552Z" fill="#F99F05"/>
<path d="M65.8347 68.855L65.0983 70.3277L62.7995 75.0331L62.7636 75.087L62.7456 75.1229L61.8656 76.9189C61.8536 76.9428 61.8357 76.9608 61.8117 76.9728C61.68 77.0087 61.5543 77.0147 61.4345 76.9907C61.3148 76.9788 61.2011 76.9369 61.0933 76.865C61.0574 76.8411 61.0394 76.8171 61.0394 76.7932L60.6802 74.8356L60.6623 74.7278L59.7463 69.5734L59.459 67.957L65.8347 68.855Z" fill="#F0B16C"/>
<path d="M62.745 75.1228L61.865 76.9188C61.8531 76.9427 61.8351 76.9607 61.8112 76.9727C61.6795 77.0086 61.5537 77.0146 61.434 76.9906C61.3143 76.9786 61.2005 76.9367 61.0928 76.8649C61.0568 76.841 61.0389 76.817 61.0389 76.7931L60.6797 74.8354C60.7755 74.8354 60.8653 74.8414 60.9491 74.8534C61.2125 74.8774 61.4699 74.9073 61.7214 74.9432C61.9848 74.9791 62.2422 75.021 62.4936 75.0689C62.5774 75.0809 62.6612 75.0989 62.745 75.1228Z" fill="#ED1C24"/>
<g style="mix-blend-mode:screen">
<path d="M65.224 26.9194L59.459 67.9572L60.6623 74.728L67.3433 27.2247L65.224 26.9194Z" fill="#58595B"/>
</g>
<g style="mix-blend-mode:screen">
<path d="M60.6621 74.7279L67.3431 27.2246L69.4623 27.5299L62.7993 75.0332L62.7454 75.123C62.4102 75.0512 62.069 74.9913 61.7217 74.9434C61.3745 74.8835 61.0273 74.8476 60.6801 74.8356L60.6621 74.7279Z" fill="#414042"/>
</g>
<path d="M71.8507 25.9674L65.4751 25.0874L65.2236 26.9193L71.5993 27.8173L71.8507 25.9674Z" fill="#FFED00"/>
<path d="M70.7737 20.2562L68.0977 19.879C67.074 19.7353 66.1581 20.2382 66.0503 20.9925L65.4756 25.0873L71.8513 25.9673L72.426 21.8905C72.5337 21.1362 71.7974 20.3998 70.7737 20.2562Z" fill="#F85A68"/>
<g style="mix-blend-mode:multiply">
<path d="M72.4254 21.8906L71.8507 25.9674L68.6719 25.5364L69.4262 20.0767L70.7732 20.2563C71.7969 20.3999 72.5332 21.1363 72.4254 21.8906Z" fill="#EDEDED"/>
</g>
<g style="mix-blend-mode:multiply">
<path fill-rule="evenodd" clip-rule="evenodd" d="M56.1901 89.85C55.8489 90.1913 55.4717 90.4607 55.0766 90.6762C53.5501 91.5023 51.7002 91.3407 50.479 90.1554L36.5243 76.6317C36.4285 76.5359 36.3387 76.4402 36.2549 76.3444C36.2429 76.3324 36.231 76.3144 36.219 76.2905C36.1472 76.2067 36.0813 76.1229 36.0214 76.0391C36.0095 76.0031 35.9915 75.9732 35.9676 75.9493C35.9197 75.8654 35.8718 75.7816 35.8239 75.6978C35.8119 75.6619 35.7939 75.626 35.77 75.5901C35.7341 75.5182 35.7041 75.4404 35.6802 75.3566C35.6563 75.3207 35.6383 75.2788 35.6263 75.2309C35.6024 75.159 35.5784 75.0812 35.5545 74.9974C35.5425 74.9615 35.5305 74.9196 35.5186 74.8717C35.5066 74.7879 35.4886 74.71 35.4647 74.6382C35.4647 74.5903 35.4587 74.5424 35.4467 74.4945C35.4348 74.4107 35.4288 74.3329 35.4288 74.2611C35.4168 74.2132 35.4108 74.1653 35.4108 74.1174C35.4108 74.0575 35.4108 73.9976 35.4108 73.9378C35.4108 73.9138 35.4108 73.8959 35.4108 73.8839C35.4108 73.824 35.4108 73.7642 35.4108 73.7043C35.4228 73.6325 35.4288 73.5606 35.4288 73.4888C35.4407 73.4289 35.4527 73.3691 35.4647 73.3092C35.4767 73.2374 35.4886 73.1655 35.5006 73.0937C35.5126 73.0338 35.5246 72.974 35.5365 72.9141C35.5605 72.8422 35.5784 72.7704 35.5904 72.6986C35.6143 72.6387 35.6383 72.5788 35.6622 72.519C35.6742 72.4711 35.6922 72.4232 35.7161 72.3753L32.1062 68.8911C26.2514 73.7223 17.5769 73.4529 12.0273 68.0291L15.745 68.6756L22.5517 70.0226L29.7535 67.8495L35.5365 59.9652L34.3332 49.6384L33.0761 46.5493C38.6435 51.9911 39.0746 60.7015 34.3153 66.6641L37.7994 70.0585C37.7755 70.0705 37.7515 70.0884 37.7276 70.1124C39.2542 69.2683 41.1399 69.412 42.3612 70.5973L56.3158 84.1209C57.8604 85.6116 57.8065 88.1798 56.1901 89.85ZM35.8598 72.052C35.8359 72.1119 35.8059 72.1658 35.77 72.2137C35.7939 72.1897 35.8119 72.1598 35.8239 72.1239C35.8359 72.0999 35.8478 72.076 35.8598 72.052ZM36.0933 71.6389C36.0454 71.7108 35.9975 71.7886 35.9496 71.8724C35.9855 71.8245 36.0154 71.7766 36.0394 71.7287C36.0514 71.6928 36.0693 71.6629 36.0933 71.6389ZM36.3627 71.2618C36.3148 71.3217 36.2729 71.3815 36.237 71.4414C36.2609 71.4055 36.2848 71.3695 36.3088 71.3336C36.3327 71.3097 36.3507 71.2857 36.3627 71.2618Z" fill="#C6C6C6"/>
</g>
<path d="M55.2924 88.9519C56.9088 87.2816 56.9627 84.7134 55.4181 83.2227L41.4635 69.6991C39.9369 68.2085 37.3687 68.3521 35.7703 70.0224C34.1539 71.6747 34.0821 74.2429 35.6266 75.7335L49.5812 89.2572C51.1258 90.7478 53.676 90.6041 55.2924 88.9519Z" fill="#F85A68"/>
<g style="mix-blend-mode:multiply">
<path d="M55.292 88.9519C53.6756 90.6042 51.1254 90.7479 49.5808 89.2573L35.6262 75.7336C34.8719 75.0152 34.5127 74.0454 34.5127 73.0397C34.5127 71.9801 34.9258 70.8845 35.7699 70.0225L55.292 88.9519Z" fill="#EDEDED"/>
</g>
<path d="M36.901 69.1605C36.4879 69.376 36.1107 69.6633 35.7695 70.0225C35.3385 70.4536 35.0152 70.9564 34.8177 71.4773L30.3457 67.149C30.7767 66.7898 31.1898 66.4067 31.5849 65.9996C31.9202 65.6523 32.2434 65.2991 32.5547 64.9399L36.901 69.1605Z" fill="#2C4761"/>
<path fill-rule="evenodd" clip-rule="evenodd" d="M10.9139 45.867C16.7149 39.9224 26.2514 39.8326 32.1781 45.6515C38.1048 51.4525 38.2126 60.9711 32.3936 66.9157C26.5927 72.8424 17.0561 72.9322 11.1294 67.1312C5.20272 61.3123 5.09496 51.7937 10.9139 45.867ZM12.9433 65.2814C17.8463 70.0946 25.7486 70.0227 30.5617 65.1018C35.3749 60.1809 35.2851 52.2966 30.3642 47.4834C25.4612 42.6702 17.5769 42.76 12.7637 47.663C7.95055 52.5839 8.02238 60.4682 12.9433 65.2814Z" fill="#32526F"/>
<path fill-rule="evenodd" clip-rule="evenodd" d="M8.88463 55.6371C9.26179 48.5431 15.3501 43.1013 22.4262 43.4784C29.5203 43.8556 34.98 49.9439 34.6028 57.02C34.2257 64.1141 28.1374 69.5738 21.0433 69.1967C13.9672 68.8195 8.50748 62.7312 8.88463 55.6371ZM9.49526 55.673C9.11811 62.4259 14.3264 68.2268 21.0792 68.586C27.85 68.9632 33.633 63.7549 33.9922 57.0021C34.3694 50.2313 29.1611 44.4483 22.4082 44.0711C15.6375 43.7119 9.85445 48.9202 9.49526 55.673Z" fill="#414042"/>
<g style="mix-blend-mode:multiply" opacity="0.6">
<path d="M33.9918 57.0017C34.369 50.2309 29.1607 44.4479 22.4078 44.0707C15.637 43.7115 9.85404 48.9198 9.49484 55.6727C9.11769 62.4255 14.326 68.2265 21.0788 68.5857C27.8496 68.9628 33.6326 63.7545 33.9918 57.0017Z" fill="#D3EAEB"/>
</g>
<g style="mix-blend-mode:screen">
<path d="M10.2668 60.6654L26.0713 44.843C24.9219 44.4119 23.6826 44.1425 22.4075 44.0707C22.192 44.0587 21.9825 44.0527 21.7789 44.0527L9.47656 56.373C9.47656 57.8817 9.74596 59.3184 10.2668 60.6654Z" fill="#706F6F"/>
</g>
<g style="mix-blend-mode:screen">
<path d="M12.9972 64.94L30.3463 47.591C29.9033 47.148 29.4303 46.7469 28.9275 46.3877L11.7939 63.5032C12.1531 64.0181 12.5542 64.497 12.9972 64.94Z" fill="#706F6F"/>
</g>
</svg>
