<svg width="14" height="14" viewBox="0 0 14 14" fill="none" xmlns="http://www.w3.org/2000/svg">
<g clip-path="url(#clip0_616_14076)">
<path d="M11.7463 14C11.5305 13.9994 11.317 13.9561 11.118 13.8725C10.9191 13.7888 10.7387 13.6667 10.5872 13.5129L6.99975 9.94642L3.41225 13.5153C3.18185 13.749 2.88637 13.9079 2.56432 13.9713C2.24228 14.0347 1.90862 13.9995 1.60683 13.8705C1.30205 13.7479 1.04131 13.5363 0.85868 13.2632C0.676046 12.9901 0.579998 12.6683 0.58308 12.3398V2.91667C0.58308 2.14312 0.890371 1.40125 1.43735 0.854272C1.98433 0.307291 2.7262 0 3.49975 0L10.4997 0C10.8828 0 11.262 0.0754418 11.6159 0.222018C11.9698 0.368594 12.2913 0.583434 12.5621 0.854272C12.833 1.12511 13.0478 1.44664 13.1944 1.80051C13.341 2.15437 13.4164 2.53364 13.4164 2.91667V12.3398C13.4197 12.6681 13.324 12.9897 13.1418 13.2627C12.9596 13.5357 12.6993 13.7475 12.395 13.8705C12.1896 13.9564 11.969 14.0005 11.7463 14ZM3.49975 1.16667C3.03562 1.16667 2.5905 1.35104 2.26231 1.67923C1.93412 2.00742 1.74975 2.45254 1.74975 2.91667V12.3398C1.74954 12.437 1.77814 12.5321 1.83194 12.6131C1.88574 12.694 1.96233 12.7572 2.05202 12.7947C2.14172 12.8321 2.24051 12.8422 2.3359 12.8235C2.4313 12.8048 2.51902 12.7583 2.588 12.6898L6.59141 8.71092C6.70071 8.60227 6.84856 8.54129 7.00266 8.54129C7.15677 8.54129 7.30462 8.60227 7.41391 8.71092L11.4127 12.6887C11.4816 12.7572 11.5694 12.8037 11.6648 12.8223C11.7602 12.841 11.8589 12.831 11.9486 12.7935C12.0383 12.7561 12.1149 12.6929 12.1687 12.6119C12.2225 12.531 12.2511 12.4359 12.2509 12.3387V2.91667C12.2509 2.45254 12.0665 2.00742 11.7384 1.67923C11.4102 1.35104 10.965 1.16667 10.5009 1.16667H3.49975Z" fill="black"/>
</g>
<defs>
<clipPath id="clip0_616_14076">
<rect width="14" height="14" fill="white"/>
</clipPath>
</defs>
</svg>
