<svg width="16" height="15" viewBox="0 0 16 15" fill="none" xmlns="http://www.w3.org/2000/svg">
<path d="M12.6667 0.333008H3.33333C1.49333 0.333008 0 1.82634 0 3.66634V10.333C0 12.173 1.49333 13.6663 3.33333 13.6663H8C8.36667 13.6663 8.66667 13.3663 8.66667 12.9997C8.66667 12.633 8.36667 12.333 8 12.333H3.33333C2.23333 12.333 1.33333 11.433 1.33333 10.333V4.99967H14.6667V8.33301C14.6667 8.69967 14.9667 8.99967 15.3333 8.99967C15.7 8.99967 16 8.69967 16 8.33301V3.66634C16 1.82634 14.5067 0.333008 12.6667 0.333008ZM1.33333 3.66634C1.33333 2.56634 2.23333 1.66634 3.33333 1.66634H12.6667C13.7667 1.66634 14.6667 2.56634 14.6667 3.66634H1.33333ZM10.94 7.11301C10.4333 6.60634 9.76667 6.33301 9.05333 6.33301H7.99333C7.62667 6.33301 7.32667 6.63301 7.32667 6.99967V8.05967C7.32667 8.77301 7.60667 9.43967 8.10667 9.94634L12.58 14.4197C12.96 14.7997 13.46 15.0063 13.9933 15.0063C14.5267 15.0063 15.0267 14.7997 15.4067 14.4197C15.7867 14.0397 15.9933 13.5397 15.9933 13.0063C15.9933 12.473 15.7867 11.973 15.4067 11.593L10.9333 7.11967L10.94 7.11301ZM14.4667 13.473C14.2133 13.7263 13.7733 13.7263 13.5267 13.473L9.05333 8.99967C8.8 8.74634 8.66 8.41301 8.66 8.05967V7.66634H9.05333C9.40667 7.66634 9.74667 7.80634 9.99333 8.05967L14.4667 12.533C14.5933 12.6597 14.66 12.8263 14.66 13.0063C14.66 13.1863 14.5933 13.353 14.4667 13.4797V13.473Z" fill="#0E1412"/>
</svg>
