<svg width="15" height="15" viewBox="0 0 15 15" fill="none" xmlns="http://www.w3.org/2000/svg">
<g clip-path="url(#clip0_616_14067)">
<path d="M11.7581 6.25C11.9513 6.25 12.1337 6.16063 12.2519 6.00813C12.37 5.85563 12.4113 5.65688 12.3637 5.47C12.1694 4.70938 11.7731 4.01438 11.2181 3.45938L9.04 1.28125C8.21375 0.455 7.115 0 5.94625 0H3.12438C1.40188 0 0 1.40188 0 3.125V11.875C0 13.5981 1.40188 15 3.125 15H5C5.345 15 5.625 14.72 5.625 14.375C5.625 14.03 5.345 13.75 5 13.75H3.125C2.09125 13.75 1.25 12.9088 1.25 11.875V3.125C1.25 2.09125 2.09125 1.25 3.125 1.25H5.94688C6.04875 1.25 6.15 1.255 6.25 1.26438V4.375C6.25 5.40875 7.09125 6.25 8.125 6.25H11.7581ZM7.5 4.375V1.66188C7.73688 1.79813 7.9575 1.96688 8.15625 2.16563L10.3344 4.34375C10.5306 4.54 10.6987 4.76125 10.8362 5H8.125C7.78062 5 7.5 4.71938 7.5 4.375ZM14.4513 7.42438C13.7425 6.71563 12.5075 6.71563 11.7994 7.42438L7.6075 11.6163C7.13562 12.0881 6.875 12.7163 6.875 13.3844V14.3756C6.875 14.7206 7.155 15.0006 7.5 15.0006H8.49125C9.15938 15.0006 9.78687 14.74 10.2587 14.2681L14.4506 10.0763C14.805 9.72188 15 9.25125 15 8.75C15 8.24875 14.805 7.77813 14.4513 7.42438ZM13.5669 9.19188L9.37437 13.3838C9.13875 13.62 8.825 13.75 8.49063 13.75H8.12437V13.3838C8.12437 13.05 8.25438 12.7363 8.49063 12.5L12.6831 8.30813C12.9187 8.07188 13.3306 8.07188 13.5669 8.30813C13.685 8.42563 13.75 8.5825 13.75 8.75C13.75 8.9175 13.685 9.07375 13.5669 9.19188Z" fill="#0E1412"/>
</g>
<defs>
<clipPath id="clip0_616_14067">
<rect width="15" height="15" fill="white"/>
</clipPath>
</defs>
</svg>
