<svg width="16" height="16" viewBox="0 0 16 16" fill="none" xmlns="http://www.w3.org/2000/svg">
<g clip-path="url(#clip0_616_14063)">
<path d="M10.1198 4.16635C9.63983 3.59969 8.9265 3.27969 8.15983 3.33969C7.7865 2.91302 7.2465 2.66635 6.6665 2.66635C6.0865 2.66635 5.49983 2.94635 5.11983 3.40635C4.07983 3.65302 3.33317 4.57302 3.33317 5.66635C3.33317 5.72635 3.33317 5.77969 3.33983 5.83969C2.91317 6.21302 2.6665 6.75302 2.6665 7.33302C2.6665 8.43302 3.5665 9.33302 4.6665 9.33302C4.89983 9.33302 5.11983 9.29302 5.33317 9.21969V12.6664C5.33317 13.033 5.63317 13.333 5.99983 13.333C6.3665 13.333 6.6665 13.033 6.6665 12.6664V8.64635C7.15983 8.57969 7.6065 8.35302 7.95983 7.99969H9.33317C10.4332 7.99969 11.3332 7.09969 11.3332 5.99969C11.3332 5.18635 10.8532 4.47969 10.1198 4.16635ZM9.33317 6.66635H7.65983C7.45317 6.66635 7.25317 6.76635 7.1265 6.93302C6.93317 7.18635 6.6465 7.33302 6.33317 7.33302C6.25317 7.33302 6.15983 7.31969 6.0465 7.28635C5.73317 7.19302 5.39983 7.33969 5.25983 7.62635C5.1465 7.85969 4.91983 7.99969 4.6665 7.99969C4.29983 7.99969 3.99983 7.69969 3.99983 7.33302C3.99983 7.07969 4.13983 6.85302 4.37317 6.73969C4.6665 6.59302 4.8065 6.25969 4.71317 5.95302C4.67983 5.83969 4.6665 5.75302 4.6665 5.66635C4.6665 5.15302 5.05317 4.72635 5.57317 4.67969C5.79317 4.65969 5.9865 4.53302 6.09317 4.34635C6.21317 4.13302 6.4265 4.00635 6.6665 4.00635C6.91983 4.00635 7.1465 4.14635 7.25983 4.37969C7.4065 4.67302 7.73983 4.81302 8.0465 4.71969C8.15983 4.68635 8.2465 4.67302 8.33317 4.67302C8.65983 4.67302 8.97317 4.83969 9.15983 5.11302C9.2465 5.23969 9.37317 5.33302 9.51983 5.37302C9.8065 5.45969 9.99983 5.71302 9.99983 6.00635C9.99983 6.37302 9.69983 6.67302 9.33317 6.67302V6.66635ZM13.1998 2.94635C11.5732 0.773021 8.99983 -0.300313 6.29983 0.0730206C2.97317 0.526354 0.333166 3.29969 0.0331656 6.65302C-0.133501 8.49969 0.393166 10.3197 1.5065 11.7797C1.8265 12.193 1.99983 12.753 1.99983 13.3464V13.993C1.99983 15.093 2.89983 15.993 3.99983 15.993H8.6665C9.7665 15.993 10.6665 15.093 10.6665 13.993H10.9932C12.6598 13.993 14.0798 12.7464 14.2998 11.0997L14.4465 9.99302H14.6665C15.5332 9.99302 15.9998 9.30635 15.9998 8.65969C15.9998 7.71302 14.0465 3.97969 13.1998 2.93969V2.94635ZM13.8598 8.66635C13.5265 8.66635 13.2398 8.91302 13.1998 9.24635L12.9798 10.9264C12.8465 11.9197 11.9932 12.6664 10.9998 12.6664H10.0065C9.63983 12.6664 9.33983 12.9664 9.33983 13.333V13.9997C9.33983 14.3664 9.03983 14.6664 8.67317 14.6664H3.99983C3.63317 14.6664 3.33317 14.3664 3.33317 13.9997V13.353C3.33317 12.4664 3.05983 11.6197 2.5665 10.973C1.65317 9.77969 1.21983 8.28635 1.35983 6.77302C1.6065 4.02635 3.75983 1.76635 6.4865 1.39302C6.77317 1.35302 7.05983 1.33302 7.33983 1.33302C9.2265 1.33302 10.9798 2.19969 12.1532 3.76635C13.0265 4.84635 14.5865 8.06635 14.6732 8.66635H13.8732H13.8598Z" fill="black"/>
</g>
<defs>
<clipPath id="clip0_616_14063">
<rect width="16" height="16" fill="white"/>
</clipPath>
</defs>
</svg>
