<svg width="17" height="16" viewBox="0 0 17 16" fill="none" xmlns="http://www.w3.org/2000/svg">
<path fill-rule="evenodd" clip-rule="evenodd" d="M5.87366 1.33325H11.461C13.5203 1.33325 14.667 2.51992 14.667 4.55325V11.4399C14.667 13.5066 13.5203 14.6666 11.461 14.6666H5.87366C3.84699 14.6666 2.66699 13.5066 2.66699 11.4399V4.55325C2.66699 2.51992 3.84699 1.33325 5.87366 1.33325ZM6.05364 4.43992V4.43325H8.04631C8.33364 4.43325 8.56698 4.66659 8.56698 4.95259C8.56698 5.24659 8.33364 5.47992 8.04631 5.47992H6.05364C5.76631 5.47992 5.53364 5.24659 5.53364 4.95992C5.53364 4.67325 5.76631 4.43992 6.05364 4.43992ZM6.05364 8.49326H11.2803C11.567 8.49326 11.8003 8.25992 11.8003 7.97326C11.8003 7.68659 11.567 7.45259 11.2803 7.45259H6.05364C5.76631 7.45259 5.53364 7.68659 5.53364 7.97326C5.53364 8.25992 5.76631 8.49326 6.05364 8.49326ZM6.05367 11.5399H11.2803C11.5463 11.5133 11.747 11.2859 11.747 11.0199C11.747 10.7466 11.5463 10.5199 11.2803 10.4933H6.05367C5.85367 10.4733 5.66034 10.5666 5.55367 10.7399C5.44701 10.9066 5.44701 11.1266 5.55367 11.2999C5.66034 11.4666 5.85367 11.5666 6.05367 11.5399Z" fill="#646867"/>
</svg>
