<svg width="17" height="16" viewBox="0 0 17 16" fill="none" xmlns="http://www.w3.org/2000/svg">
<path fill-rule="evenodd" clip-rule="evenodd" d="M3.52634 1.33325H5.77967C6.71967 1.33325 7.47301 2.09992 7.47301 3.04059V5.31325C7.47301 6.25992 6.71967 7.01992 5.77967 7.01992H3.52634C2.59301 7.01992 1.83301 6.25992 1.83301 5.31325V3.04059C1.83301 2.09992 2.59301 1.33325 3.52634 1.33325ZM3.52634 8.97972H5.77967C6.71967 8.97972 7.47301 9.74039 7.47301 10.6871V12.9597C7.47301 13.8997 6.71967 14.6664 5.77967 14.6664H3.52634C2.59301 14.6664 1.83301 13.8997 1.83301 12.9597V10.6871C1.83301 9.74039 2.59301 8.97972 3.52634 8.97972ZM13.4731 1.33325H11.2198C10.2798 1.33325 9.52643 2.09992 9.52643 3.04059V5.31325C9.52643 6.25992 10.2798 7.01992 11.2198 7.01992H13.4731C14.4064 7.01992 15.1664 6.25992 15.1664 5.31325V3.04059C15.1664 2.09992 14.4064 1.33325 13.4731 1.33325ZM11.2198 8.97972H13.4731C14.4064 8.97972 15.1664 9.74039 15.1664 10.6871V12.9597C15.1664 13.8997 14.4064 14.6664 13.4731 14.6664H11.2198C10.2798 14.6664 9.52643 13.8997 9.52643 12.9597V10.6871C9.52643 9.74039 10.2798 8.97972 11.2198 8.97972Z" fill="#4FAA89"/>
</svg>
