<svg width="13" height="13" viewBox="0 0 13 13" fill="none" xmlns="http://www.w3.org/2000/svg">
<g clip-path="url(#clip0_616_4034)">
<path d="M10.2917 2.16667H9.69583C9.57011 1.55535 9.23749 1.00606 8.75401 0.611389C8.27054 0.216715 7.66578 0.000787867 7.04167 0L5.95833 0C5.33422 0.000787867 4.72946 0.216715 4.24599 0.611389C3.76251 1.00606 3.42989 1.55535 3.30417 2.16667H2.70833C1.9903 2.16753 1.30193 2.45314 0.794202 2.96087C0.286478 3.46859 0.00086009 4.15697 0 4.875L0 6.5H13V4.875C12.9991 4.15697 12.7135 3.46859 12.2058 2.96087C11.6981 2.45314 11.0097 2.16753 10.2917 2.16667ZM4.433 2.16667C4.54463 1.85092 4.75108 1.57738 5.02412 1.38346C5.29716 1.18955 5.62344 1.08472 5.95833 1.08333H7.04167C7.37656 1.08472 7.70284 1.18955 7.97588 1.38346C8.24892 1.57738 8.45537 1.85092 8.567 2.16667H4.433Z" fill="#646867"/>
<path d="M7.04167 8.12492C7.04167 8.26858 6.9846 8.40635 6.88302 8.50793C6.78143 8.60952 6.64366 8.66659 6.5 8.66659C6.35634 8.66659 6.21857 8.60952 6.11698 8.50793C6.0154 8.40635 5.95833 8.26858 5.95833 8.12492V7.58325H0V10.2916C0.00086009 11.0096 0.286478 11.698 0.794202 12.2057C1.30193 12.7134 1.9903 12.9991 2.70833 12.9999H10.2917C11.0097 12.9991 11.6981 12.7134 12.2058 12.2057C12.7135 11.698 12.9991 11.0096 13 10.2916V7.58325H7.04167V8.12492Z" fill="#646867"/>
</g>
<defs>
<clipPath id="clip0_616_4034">
<rect width="13" height="13" fill="white"/>
</clipPath>
</defs>
</svg>
