<svg width="17" height="16" viewBox="0 0 17 16" fill="none" xmlns="http://www.w3.org/2000/svg">
<path fill-rule="evenodd" clip-rule="evenodd" d="M11.6273 2C12.5213 2 13.3813 2.35333 14.014 2.98733C14.6473 3.62 15.0013 4.47333 15.0013 5.36667V10.6333C15.0013 12.4933 13.488 14 11.6273 14H5.0413C3.18064 14 1.66797 12.4933 1.66797 10.6333V5.36667C1.66797 3.50667 3.17397 2 5.0413 2H11.6273ZM12.688 6.36L12.7413 6.30667C12.9007 6.11334 12.9007 5.83334 12.734 5.64C12.6413 5.54067 12.514 5.48 12.3813 5.46667C12.2413 5.45934 12.108 5.50667 12.0073 5.6L9.00133 8C8.61466 8.32067 8.06066 8.32067 7.66799 8L4.66799 5.6C4.46066 5.44667 4.17399 5.46667 4.00133 5.64667C3.82133 5.82667 3.80133 6.11334 3.95399 6.31334L4.04133 6.4L7.07466 8.76667C7.44799 9.06 7.90066 9.22 8.37466 9.22C8.84733 9.22 9.30799 9.06 9.68066 8.76667L12.688 6.36Z" fill="#646867"/>
</svg>
