<svg width="79" height="79" viewBox="0 0 79 79" fill="none" xmlns="http://www.w3.org/2000/svg">
<path d="M39.407 72.7667C57.7796 72.7667 72.6734 57.8728 72.6734 39.5003C72.6734 21.1278 57.7796 6.23389 39.407 6.23389C21.0345 6.23389 6.14062 21.1278 6.14062 39.5003C6.14062 57.8728 21.0345 72.7667 39.407 72.7667Z" fill="#4FAA89" fill-opacity="0.2"/>
<path d="M70.2197 72.7661H72.673" stroke="#4FAA89" stroke-width="0.597656" stroke-miterlimit="10" stroke-linecap="round" stroke-linejoin="round"/>
<path d="M11.9111 72.7661H67.6895" stroke="#4FAA89" stroke-width="0.597656" stroke-miterlimit="10" stroke-linecap="round" stroke-linejoin="round"/>
<path d="M6.14062 72.7661H9.36543" stroke="#4FAA89" stroke-width="0.597656" stroke-miterlimit="10" stroke-linecap="round" stroke-linejoin="round"/>
<path d="M39.501 56.4892C48.8839 56.4892 56.4902 48.8829 56.4902 39.5C56.4902 30.1171 48.8839 22.5107 39.501 22.5107C30.1181 22.5107 22.5117 30.1171 22.5117 39.5C22.5117 48.8829 30.1181 56.4892 39.501 56.4892Z" fill="white" fill-opacity="0.24"/>
<path d="M32.0674 37.3761L38.213 43.5217C38.3375 43.6462 38.5392 43.6462 38.6637 43.5217L55.4276 26.7578" stroke="#4FAA89" stroke-width="2.6"/>
<path d="M55.1261 36.4135C55.8314 39.9837 55.2928 43.6878 53.5998 46.9094C51.9069 50.131 49.1618 52.6756 45.8213 54.1199C42.4808 55.5639 38.7466 55.8207 35.24 54.8472C31.7333 53.8735 28.6658 51.7286 26.548 48.7691C24.4302 45.8094 23.3897 42.2138 23.5998 38.5806C23.8099 34.9475 25.2579 31.4958 27.7028 28.8001C30.1476 26.1044 33.4419 24.3272 37.0374 23.7644C40.6328 23.2016 44.3127 23.887 47.4644 25.7066" stroke="#4FAA89" stroke-width="2.16667" stroke-linecap="round"/>
</svg>
