<svg width="24" height="25" viewBox="0 0 24 25" fill="none" xmlns="http://www.w3.org/2000/svg">
<path fill-rule="evenodd" clip-rule="evenodd" d="M10.0803 18.9752H3.7793C3.3653 18.9752 3.0293 18.6452 3.0293 18.2386C3.0293 17.832 3.3653 17.502 3.7793 17.502H10.0803C10.4943 17.502 10.8303 17.832 10.8303 18.2386C10.8303 18.6452 10.4943 18.9752 10.0803 18.9752Z" fill="#4FAA89"/>
<path fill-rule="evenodd" clip-rule="evenodd" d="M19.1906 9.45588H12.8906C12.4766 9.45588 12.1406 9.12588 12.1406 8.71927C12.1406 8.31267 12.4766 7.98267 12.8906 7.98267H19.1906C19.6046 7.98267 19.9406 8.31267 19.9406 8.71927C19.9406 9.12588 19.6046 9.45588 19.1906 9.45588Z" fill="#4FAA89"/>
<mask id="mask0_616_15087" style="mask-type:luminance" maskUnits="userSpaceOnUse" x="3" y="5" width="7" height="7">
<path fill-rule="evenodd" clip-rule="evenodd" d="M3 5.62549H9.2258V11.7065H3V5.62549Z" fill="white"/>
</mask>
<g mask="url(#mask0_616_15087)">
<path fill-rule="evenodd" clip-rule="evenodd" d="M6.113 7.09821C5.224 7.09821 4.5 7.80143 4.5 8.6667C4.5 9.53098 5.224 10.2332 6.113 10.2332C7.003 10.2332 7.726 9.53098 7.726 8.6667C7.726 7.80143 7.003 7.09821 6.113 7.09821ZM6.113 11.7064C4.397 11.7064 3 10.3432 3 8.6667C3 6.99018 4.397 5.625 6.113 5.625C7.83 5.625 9.226 6.99018 9.226 8.6667C9.226 10.3432 7.83 11.7064 6.113 11.7064Z" fill="#4FAA89"/>
</g>
<path fill-rule="evenodd" clip-rule="evenodd" d="M17.3874 16.6329C16.4974 16.6329 15.7734 17.3361 15.7734 18.2004C15.7734 19.0656 16.4974 19.7679 17.3874 19.7679C18.2764 19.7679 18.9994 19.0656 18.9994 18.2004C18.9994 17.3361 18.2764 16.6329 17.3874 16.6329ZM17.3874 21.2411C15.6704 21.2411 14.2734 19.8769 14.2734 18.2004C14.2734 16.5239 15.6704 15.1597 17.3874 15.1597C19.1034 15.1597 20.4994 16.5239 20.4994 18.2004C20.4994 19.8769 19.1034 21.2411 17.3874 21.2411Z" fill="#4FAA89"/>
</svg>
