<svg width="22" height="22" viewBox="0 0 22 22" fill="none" xmlns="http://www.w3.org/2000/svg">
<mask id="mask0_616_14720" style="mask-type:luminance" maskUnits="userSpaceOnUse" x="-1" y="0" width="24" height="22">
<path d="M8.37984 19.7866C6.8637 19.3339 5.49059 18.4964 4.39418 17.3556C4.74694 16.9371 4.96685 16.423 5.02575 15.8789C5.08466 15.3348 4.97988 14.7855 4.72484 14.3013C4.46979 13.8171 4.07607 13.42 3.59406 13.1608C3.11205 12.9017 2.56367 12.7922 2.01909 12.8465C1.89503 12.2388 1.83268 11.6201 1.83301 10.9998C1.83301 10.0419 1.97968 9.11793 2.25284 8.24984H2.29134C2.75873 8.24999 3.21845 8.13101 3.62708 7.90414C4.03571 7.67727 4.37978 7.34999 4.62679 6.95321C4.87381 6.55643 5.01562 6.10324 5.03883 5.63643C5.06205 5.16962 4.9659 4.70459 4.75947 4.28526C5.83407 3.28464 7.13366 2.55726 8.54851 2.16455C8.77877 2.61665 9.1296 2.99624 9.56221 3.26132C9.99481 3.5264 10.4923 3.66663 10.9997 3.66651C11.507 3.66663 12.0045 3.5264 12.4371 3.26132C12.8697 2.99624 13.2206 2.61665 13.4508 2.16455C14.8657 2.55726 16.1653 3.28464 17.2399 4.28526C17.032 4.70753 16.9359 5.1761 16.9609 5.64612C16.9859 6.11615 17.1311 6.57189 17.3826 6.96973C17.6341 7.36757 17.9836 7.69419 18.3975 7.91832C18.8114 8.14246 19.2759 8.25661 19.7465 8.24984C20.0256 9.1398 20.1672 10.0671 20.1663 10.9998C20.1663 11.6323 20.1022 12.2502 19.9803 12.8469C19.4357 12.7927 18.8873 12.9021 18.4053 13.1613C17.9233 13.4205 17.5296 13.8176 17.2745 14.3018C17.0195 14.786 16.9147 15.3353 16.9736 15.8794C17.0325 16.4235 17.2524 16.9376 17.6052 17.356C16.5087 18.4967 15.1356 19.334 13.6195 19.7866C13.4415 19.2316 13.0918 18.7476 12.621 18.4042C12.1502 18.0608 11.5824 17.8757 10.9997 17.8757C10.4169 17.8757 9.84919 18.0608 9.37835 18.4042C8.90752 18.7476 8.55788 19.2316 8.37984 19.7866Z" fill="white" stroke="white" stroke-width="4" stroke-linejoin="round"/>
<path d="M10.9993 14.2082C11.4207 14.2082 11.8379 14.1252 12.2271 13.964C12.6164 13.8027 12.9701 13.5664 13.268 13.2685C13.5659 12.9705 13.8022 12.6169 13.9635 12.2276C14.1247 11.8384 14.2077 11.4212 14.2077 10.9998C14.2077 10.5785 14.1247 10.1613 13.9635 9.77206C13.8022 9.38281 13.5659 9.02912 13.268 8.7312C12.9701 8.43328 12.6164 8.19696 12.2271 8.03572C11.8379 7.87449 11.4207 7.7915 10.9993 7.7915C10.1484 7.7915 9.33239 8.12952 8.73071 8.7312C8.12904 9.33288 7.79102 10.1489 7.79102 10.9998C7.79102 11.8507 8.12904 12.6668 8.73071 13.2685C9.33239 13.8702 10.1484 14.2082 10.9993 14.2082Z" fill="black" stroke="black" stroke-width="4" stroke-linejoin="round"/>
</mask>
<g mask="url(#mask0_616_14720)">
<path d="M0 0H22V22H0V0Z" fill="#4FAA89"/>
</g>
</svg>
