<svg width="32" height="19" viewBox="0 0 32 19" fill="none" xmlns="http://www.w3.org/2000/svg">
<path fill-rule="evenodd" clip-rule="evenodd" d="M16.1523 15.9407C14.5391 17.2893 12.4464 18.1035 10.1596 18.1035C5.05776 18.1035 0.921875 14.0509 0.921875 9.05176C0.921875 4.05261 5.05776 0 10.1596 0C12.4464 0 14.5391 0.814189 16.1523 2.16286C17.7655 0.814189 19.8582 0 22.145 0C27.2468 0 31.3827 4.05261 31.3827 9.05176C31.3827 14.0509 27.2468 18.1035 22.145 18.1035C19.8582 18.1035 17.7655 17.2893 16.1523 15.9407Z" fill="#ED0006"/>
<path fill-rule="evenodd" clip-rule="evenodd" d="M16.1504 15.9407C18.1363 14.2805 19.3955 11.8102 19.3955 9.05176C19.3955 6.29331 18.1363 3.82305 16.1504 2.16279C17.7636 0.81416 19.8562 0 22.143 0C27.2449 0 31.3807 4.05261 31.3807 9.05176C31.3807 14.0509 27.2449 18.1035 22.143 18.1035C19.8562 18.1035 17.7636 17.2894 16.1504 15.9407Z" fill="#F9A000"/>
<path fill-rule="evenodd" clip-rule="evenodd" d="M16.1513 15.9409C18.1372 14.2806 19.3964 11.8104 19.3964 9.05198C19.3964 6.29357 18.1372 3.82334 16.1513 2.16309C14.1654 3.82334 12.9062 6.29357 12.9062 9.05198C12.9062 11.8104 14.1654 14.2806 16.1513 15.9409Z" fill="#FF5E00"/>
</svg>
