<svg width="38" height="26" viewBox="0 0 38 26" fill="none" xmlns="http://www.w3.org/2000/svg">
<path d="M36.5908 0.0195312H1.40917C0.630167 0.0195312 0 0.651281 0 1.43028V22.5725C0 23.3515 0.630167 23.9833 1.40917 23.9833H36.5908C37.3698 23.9833 38 23.3515 38 22.5725V1.43028C38 0.651281 37.3698 0.0195312 36.5908 0.0195312ZM7.45433 17.0467L5.37542 8.99545C5.24717 8.49828 5.13792 8.31778 4.75475 8.1072C4.12617 7.76837 3.09225 7.45011 2.17867 7.25061L2.242 6.9577H6.68167C7.24692 6.9577 7.75675 7.33453 7.885 7.98687L8.98383 13.8262L11.7008 6.9577H14.4432L10.2157 17.0467H7.45433ZM13.4029 17.0467L15.5626 6.9577H18.1735L16.0138 17.0467H13.4029ZM20.7084 17.2066C19.5415 17.1924 18.4142 16.9501 17.8046 16.6699L18.2764 14.4579C18.8844 14.7414 19.646 15.1166 20.9586 15.096C21.7091 15.0834 22.5134 14.7873 22.5198 14.1096C22.5229 13.6663 22.1841 13.3496 21.166 12.8556C20.1764 12.3727 18.8638 11.562 18.8813 10.1101C18.8971 8.14678 20.7132 6.77561 23.2924 6.77561C24.2963 6.77561 25.1053 6.99412 25.7339 7.22212L25.2763 9.3612C24.1078 8.82445 23.0771 8.86086 22.7018 8.91153C21.9482 9.00811 21.603 9.39287 21.5951 9.75703C21.5682 10.9477 25.2637 11.0934 25.251 13.7549C25.2447 15.8497 23.4508 17.2066 20.7084 17.2066ZM32.0657 17.0467L31.7506 15.5394H28.4018L27.8587 17.0467H25.1196L29.0336 7.69711C29.2204 7.25061 29.6416 6.9577 30.1435 6.9577H32.3713L34.4787 17.0467H32.0657ZM29.1523 13.4715H31.3167L30.5267 9.68262L29.1523 13.4715Z" fill="#050E3F"/>
</svg>
